<svg width="48" height="48" viewBox="0 0 48 48" fill="none" xmlns="http://www.w3.org/2000/svg">
<g clip-path="url(#clip0_7500_168164)">
<path d="M0 6C0 2.6863 2.68629 0 6 0H41.9167C45.2304 0 47.9167 2.68629 47.9167 6V41.9167C47.9167 45.2304 45.2304 47.9167 41.9167 47.9167H6C2.6863 47.9167 0 45.2304 0 41.9167V6Z" fill="#4663E1"/>
<path d="M18.9194 36.2603C16.8711 36.2603 14.9825 35.8938 13.2537 35.161L14.1839 31.0174C15.6684 31.6187 17.0496 31.9194 18.3275 31.9194C19.8684 31.9194 20.6388 31.3462 20.6388 30.1999C20.6388 29.3919 20.2442 28.8187 19.455 28.4805C18.6657 28.1422 17.3503 27.9731 15.5087 27.9731V24.4779C17.1812 24.4779 18.4308 24.3087 19.2577 23.9705C20.1033 23.6322 20.5261 23.153 20.5261 22.5329C20.5261 21.6873 19.8026 21.2645 18.3556 21.2645C16.9839 21.2645 15.5651 21.5839 14.0993 22.2228L13 18.3893C15.0671 17.3746 17.2375 16.8672 19.5113 16.8672C21.2402 16.8672 22.6402 17.2806 23.7113 18.1074C24.8012 18.9343 25.3462 20.0618 25.3462 21.49C25.3462 22.4108 25.1019 23.247 24.6133 23.9987C24.1435 24.7503 23.5046 25.3517 22.6965 25.8027C23.7677 26.2913 24.6133 26.9584 25.2334 27.804C25.8724 28.6496 26.1918 29.5892 26.1918 30.6228C26.1918 31.7691 25.8817 32.765 25.2616 33.6106C24.6603 34.4563 23.8053 35.114 22.6965 35.5838C21.6066 36.0348 20.3476 36.2603 18.9194 36.2603Z" fill="white"/>
<path d="M22.2324 15.7233H25.2062V17.1609C25.4223 16.6065 25.7136 16.1978 26.08 15.9347C26.4559 15.6623 26.8928 15.526 27.3908 15.526L27.7995 17.8233C26.9069 17.8233 26.2492 17.922 25.8263 18.1193C25.4129 18.3072 25.2062 18.6079 25.2062 19.0213V22.6857H22.2324V15.7233Z" fill="white"/>
<path d="M31.6089 22.7984C30.97 22.7984 30.3874 22.6293 29.8612 22.291C29.3445 21.9528 28.9358 21.5065 28.6351 20.9521C28.3344 20.3884 28.1841 19.7917 28.1841 19.1622C28.1841 18.4951 28.3391 17.8844 28.6492 17.33C28.9686 16.7663 29.3915 16.3247 29.9176 16.0052C30.4532 15.6857 31.0216 15.526 31.623 15.526C32.1679 15.526 32.6283 15.6388 33.0042 15.8643C33.3894 16.0898 33.6995 16.4515 33.9344 16.9495V13.3978L36.9082 12.9609V22.6857H33.9344V21.3749C33.4928 22.3239 32.7176 22.7984 31.6089 22.7984ZM32.5391 20.5716C32.9337 20.5716 33.2626 20.4307 33.5256 20.1488C33.7981 19.8669 33.9344 19.5381 33.9344 19.1622V19.1058C33.9344 18.7394 33.7934 18.4246 33.5115 18.1616C33.2297 17.8891 32.9055 17.7528 32.5391 17.7528C32.1444 17.7528 31.8109 17.8938 31.5384 18.1756C31.2753 18.4481 31.1438 18.777 31.1438 19.1622C31.1438 19.5568 31.28 19.8904 31.5525 20.1629C31.8344 20.4354 32.1632 20.5716 32.5391 20.5716Z" fill="white"/>
<path fill-rule="evenodd" clip-rule="evenodd" d="M21.4033 14.8931H26.0352V14.997C26.4521 14.7942 26.9082 14.6958 27.3907 14.6958H28.0853L28.3662 16.2748C28.6814 15.886 29.0552 15.5577 29.4873 15.2954L29.4929 15.292C30.1519 14.8989 30.8664 14.6958 31.6229 14.6958C32.1516 14.6958 32.6527 14.7838 33.1053 14.9837V12.6805L37.7372 12V23.5135H33.1053V23.3319C32.6479 23.5353 32.1425 23.6263 31.6088 23.6263C30.8145 23.6263 30.0758 23.4134 29.4129 22.9872L29.4071 22.9835C28.773 22.5685 28.271 22.0186 27.9063 21.3462L27.9035 21.3411C27.5398 20.6591 27.355 19.9287 27.355 19.161C27.355 18.9917 27.3634 18.8246 27.3802 18.6599C26.768 18.6866 26.3858 18.7719 26.1769 18.8694L26.1694 18.8729C26.1178 18.8963 26.0861 18.9171 26.0681 18.9314C26.0507 18.945 26.0451 18.9532 26.0444 18.9542C26.0439 18.9549 26.0429 18.9561 26.0413 18.9617C26.0394 18.9682 26.0352 18.9861 26.0352 19.0201V23.5135H21.4033V14.8931ZM27.3907 15.5248C26.8927 15.5248 26.4558 15.6611 26.08 15.9335C26.0649 15.9444 26.05 15.9554 26.0352 15.9667C25.6897 16.2304 25.4134 16.6281 25.2062 17.1597V15.7221H22.2324V22.6845H25.2062V19.0201C25.2062 18.6067 25.4129 18.306 25.8263 18.1181C26.104 17.9885 26.4831 17.9014 26.9636 17.857C27.1431 17.8403 27.3368 17.8297 27.5446 17.8249C27.6273 17.8231 27.7122 17.8221 27.7994 17.8221L27.3907 15.5248ZM28.2156 18.6512C28.1946 18.8173 28.184 18.9872 28.184 19.161C28.184 19.7906 28.3344 20.3872 28.635 20.9509C28.9357 21.5053 29.3444 21.9516 29.8612 22.2899C30.3874 22.6281 30.9699 22.7972 31.6088 22.7972C32.2036 22.7972 32.7025 22.6607 33.1053 22.3875C33.4533 22.1515 33.7296 21.8136 33.9343 21.3738V22.6845H36.9081V12.9598L33.9343 13.3967V16.9483C33.7203 16.4947 33.444 16.1541 33.1053 15.9266C33.0721 15.9043 33.0384 15.8832 33.0041 15.8631C32.6283 15.6376 32.1679 15.5248 31.6229 15.5248C31.0216 15.5248 30.4531 15.6846 29.9176 16.004C29.3914 16.3235 28.9686 16.7651 28.6491 17.3288C28.6243 17.3732 28.6005 17.418 28.5776 17.4631C28.5376 17.5421 28.5007 17.6222 28.4668 17.7034C28.3413 18.0041 28.2575 18.32 28.2156 18.6512ZM33.5256 20.1476C33.2625 20.4295 32.9336 20.5704 32.539 20.5704C32.1632 20.5704 31.8343 20.4342 31.5525 20.1617C31.28 19.8892 31.1437 19.5557 31.1437 19.161C31.1437 18.7758 31.2753 18.4469 31.5384 18.1745C31.8108 17.8926 32.1444 17.7516 32.539 17.7516C32.9055 17.7516 33.2296 17.8879 33.5115 18.1604C33.7934 18.4235 33.9343 18.7382 33.9343 19.1047V19.161C33.9343 19.5369 33.7981 19.8657 33.5256 20.1476ZM32.1348 18.7503C32.0237 18.8653 31.9728 18.9865 31.9728 19.161C31.9728 19.3391 32.0243 19.4591 32.1338 19.5706C32.2666 19.697 32.3902 19.7414 32.539 19.7414C32.71 19.7414 32.8173 19.6914 32.9195 19.5819L32.9245 19.5766L32.9295 19.5714C33.0597 19.4367 33.1053 19.3118 33.1053 19.161V19.1047C33.1053 18.9812 33.0696 18.8819 32.9458 18.7664L32.9405 18.7615L32.9353 18.7564C32.7961 18.6219 32.6744 18.5807 32.539 18.5807C32.3676 18.5807 32.2498 18.6315 32.1348 18.7503Z" fill="#4663E1"/>
</g>
<defs>
<clipPath id="clip0_7500_168164">
<rect width="48" height="48" rx="5" fill="white"/>
</clipPath>
</defs>
</svg>
