<svg width="24" height="24" viewBox="0 0 24 24" fill="none" xmlns="http://www.w3.org/2000/svg">
<path d="M23.5 12C23.5 18.3513 18.3513 23.5 12 23.5C5.64873 23.5 0.5 18.3513 0.5 12C0.5 5.64873 5.64873 0.5 12 0.5C18.3513 0.5 23.5 5.64873 23.5 12Z" fill="white" stroke="#979797"/>
<path d="M12.1681 17.9697C12.0976 17.9697 12.03 17.9416 11.9802 17.8918C11.9303 17.842 11.9023 17.7744 11.9023 17.7039V6.51384C11.9023 6.44335 11.9303 6.37575 11.9802 6.3259C12.03 6.27606 12.0976 6.24805 12.1681 6.24805C12.2386 6.24805 12.3062 6.27606 12.3561 6.3259C12.4059 6.37575 12.4339 6.44335 12.4339 6.51384V17.7039C12.4339 17.7744 12.4059 17.842 12.3561 17.8918C12.3062 17.9416 12.2386 17.9697 12.1681 17.9697Z" fill="#252424" stroke="#979797"/>
<path d="M17.7631 12.3748H6.57312C6.5027 12.3748 6.43517 12.3468 6.38538 12.297C6.33559 12.2472 6.30762 12.1797 6.30762 12.1093C6.30762 12.0388 6.33559 11.9713 6.38538 11.9215C6.43517 11.8717 6.5027 11.8438 6.57312 11.8438H17.7631C17.8335 11.8437 17.9011 11.8717 17.9509 11.9215C18.0006 11.9713 18.0286 12.0388 18.0286 12.1093C18.0286 12.1797 18.0006 12.2472 17.9509 12.297C17.9011 12.3468 17.8335 12.3748 17.7631 12.3748Z" fill="#252424" stroke="#979797"/>
</svg>
