<svg width="21" height="20" viewBox="0 0 21 20" fill="none" xmlns="http://www.w3.org/2000/svg">
<path d="M18.4667 8.94948L17.3334 7.63281C17.1167 7.38281 16.9417 6.91615 16.9417 6.58281V5.16615C16.9417 4.28281 16.2167 3.55781 15.3334 3.55781H13.9167C13.5917 3.55781 13.1167 3.38281 12.8667 3.16615L11.5501 2.03281C10.9751 1.54115 10.0334 1.54115 9.45007 2.03281L8.14173 3.17448C7.89173 3.38281 7.41673 3.55781 7.09173 3.55781H5.65007C4.76673 3.55781 4.04173 4.28281 4.04173 5.16615V6.59115C4.04173 6.91615 3.86673 7.38281 3.6584 7.63281L2.5334 8.95781C2.05007 9.53281 2.05007 10.4661 2.5334 11.0411L3.6584 12.3661C3.86673 12.6161 4.04173 13.0828 4.04173 13.4078V14.8328C4.04173 15.7161 4.76673 16.4411 5.65007 16.4411H7.09173C7.41673 16.4411 7.89173 16.6161 8.14173 16.8328L9.4584 17.9661C10.0334 18.4578 10.9751 18.4578 11.5584 17.9661L12.8751 16.8328C13.1251 16.6161 13.5917 16.4411 13.9251 16.4411H15.3417C16.2251 16.4411 16.9501 15.7161 16.9501 14.8328V13.4161C16.9501 13.0911 17.1251 12.6161 17.3417 12.3661L18.4751 11.0495C18.9584 10.4745 18.9584 9.52448 18.4667 8.94948ZM13.9667 8.42448L9.94173 12.4495C9.82507 12.5661 9.66673 12.6328 9.50007 12.6328C9.3334 12.6328 9.17507 12.5661 9.0584 12.4495L7.04173 10.4328C6.80007 10.1911 6.80007 9.79115 7.04173 9.54948C7.2834 9.30781 7.6834 9.30781 7.92507 9.54948L9.50007 11.1245L13.0834 7.54115C13.3251 7.29948 13.7251 7.29948 13.9667 7.54115C14.2084 7.78281 14.2084 8.18281 13.9667 8.42448Z" fill="#0BC90D"/>
</svg>
