<svg width="20" height="18" viewBox="0 0 20 18" fill="none" xmlns="http://www.w3.org/2000/svg">
<path d="M18.6122 17.9568C9.05864 17.9703 1.80754 10.6329 1.81762 1.16228C1.81762 0.542999 2.31932 0.0390625 2.93748 0.0390625H5.89391C6.44824 0.0390625 6.9197 0.446692 7.00145 0.995423C7.19642 2.31132 7.57921 3.59243 8.13811 4.79959L8.25346 5.0482C8.33094 5.21549 8.34761 5.40458 8.30058 5.58285C8.25356 5.76112 8.1458 5.9174 7.99589 6.02471C7.07984 6.67871 6.73045 7.99455 7.4438 9.02034C8.33857 10.3082 9.46627 11.437 10.7541 12.3318C11.781 13.044 13.0969 12.6946 13.7497 11.7797C13.8569 11.6293 14.0133 11.5211 14.1919 11.4739C14.3704 11.4267 14.5598 11.4433 14.7274 11.521L14.9749 11.6352C16.1821 12.1951 17.4632 12.5781 18.779 12.773C19.3278 12.8547 19.7354 13.3262 19.7354 13.8817V16.837C19.7354 16.9841 19.7064 17.1298 19.65 17.2658C19.5937 17.4017 19.5111 17.5252 19.407 17.6292C19.3029 17.7332 19.1793 17.8157 19.0433 17.8719C18.9073 17.9281 18.7616 17.957 18.6144 17.9568H18.6122Z" fill="white"/>
</svg>
