<svg width="90" height="15" viewBox="0 0 90 15" fill="none" xmlns="http://www.w3.org/2000/svg">
<path d="M4.718 4.168L7.402 11.076C7.50467 11.3473 7.622 11.5307 7.754 11.626C7.89333 11.7213 8.02167 11.7727 8.139 11.78V12C7.963 11.9853 7.754 11.978 7.512 11.978C7.27733 11.9707 7.039 11.967 6.797 11.967C6.489 11.967 6.203 11.9707 5.939 11.978C5.675 11.978 5.46233 11.9853 5.301 12V11.78C5.675 11.7653 5.90967 11.703 6.005 11.593C6.10767 11.4757 6.08567 11.23 5.939 10.856L3.959 5.51L4.135 5.312L2.309 10.086C2.177 10.416 2.09633 10.691 2.067 10.911C2.045 11.131 2.06333 11.3033 2.122 11.428C2.188 11.5527 2.298 11.6407 2.452 11.692C2.606 11.7433 2.79667 11.7727 3.024 11.78V12C2.804 11.9853 2.58033 11.978 2.353 11.978C2.133 11.9707 1.924 11.967 1.726 11.967C1.55 11.967 1.39233 11.9707 1.253 11.978C1.121 11.978 1 11.9853 0.89 12V11.78C1.044 11.7433 1.198 11.6517 1.352 11.505C1.506 11.3583 1.65267 11.109 1.792 10.757L4.344 4.168C4.40267 4.168 4.465 4.168 4.531 4.168C4.597 4.168 4.65933 4.168 4.718 4.168ZM5.873 8.832V9.052H2.595L2.705 8.832H5.873ZM10.2686 6.203V12.946C10.2686 13.2687 10.3603 13.485 10.5436 13.595C10.727 13.705 10.98 13.76 11.3026 13.76V13.991C11.134 13.9837 10.8993 13.9727 10.5986 13.958C10.298 13.9507 9.97528 13.947 9.63062 13.947C9.38862 13.947 9.15028 13.9507 8.91562 13.958C8.68095 13.9727 8.50128 13.9837 8.37662 13.991V13.76C8.63328 13.76 8.81295 13.7087 8.91562 13.606C9.02562 13.5107 9.08062 13.3273 9.08062 13.056V7.523C9.08062 7.193 9.02562 6.951 8.91562 6.797C8.80562 6.63567 8.59662 6.555 8.28862 6.555V6.324C8.52328 6.346 8.75062 6.357 8.97062 6.357C9.21262 6.357 9.44362 6.346 9.66362 6.324C9.88362 6.29467 10.0853 6.25433 10.2686 6.203ZM12.0176 6.17C12.399 6.17 12.74 6.27633 13.0406 6.489C13.3486 6.69433 13.5906 6.99867 13.7666 7.402C13.9426 7.80533 14.0306 8.30767 14.0306 8.909C14.0306 9.349 13.9793 9.767 13.8766 10.163C13.774 10.5517 13.6163 10.8963 13.4036 11.197C13.1983 11.4903 12.938 11.725 12.6226 11.901C12.3073 12.0697 11.9333 12.154 11.5006 12.154C11.178 12.154 10.892 12.0843 10.6426 11.945C10.4006 11.8057 10.2283 11.6297 10.1256 11.417L10.2356 11.263C10.331 11.4463 10.463 11.5967 10.6316 11.714C10.8076 11.8313 11.024 11.89 11.2806 11.89C11.662 11.89 11.959 11.769 12.1716 11.527C12.3916 11.2777 12.5456 10.944 12.6336 10.526C12.7216 10.1007 12.7656 9.62033 12.7656 9.085C12.7656 8.48367 12.7216 7.99967 12.6336 7.633C12.5456 7.259 12.4136 6.98767 12.2376 6.819C12.0616 6.643 11.849 6.555 11.5996 6.555C11.2696 6.555 10.969 6.687 10.6976 6.951C10.4336 7.215 10.2723 7.611 10.2136 8.139L10.1036 7.908C10.199 7.358 10.419 6.93267 10.7636 6.632C11.1156 6.324 11.5336 6.17 12.0176 6.17ZM16.7247 6.203V12.946C16.7247 13.2687 16.8163 13.485 16.9997 13.595C17.183 13.705 17.436 13.76 17.7587 13.76V13.991C17.59 13.9837 17.3553 13.9727 17.0547 13.958C16.754 13.9507 16.4313 13.947 16.0867 13.947C15.8447 13.947 15.6063 13.9507 15.3717 13.958C15.137 13.9727 14.9573 13.9837 14.8327 13.991V13.76C15.0893 13.76 15.269 13.7087 15.3717 13.606C15.4817 13.5107 15.5367 13.3273 15.5367 13.056V7.523C15.5367 7.193 15.4817 6.951 15.3717 6.797C15.2617 6.63567 15.0527 6.555 14.7447 6.555V6.324C14.9793 6.346 15.2067 6.357 15.4267 6.357C15.6687 6.357 15.8997 6.346 16.1197 6.324C16.3397 6.29467 16.5413 6.25433 16.7247 6.203ZM18.4737 6.17C18.855 6.17 19.196 6.27633 19.4967 6.489C19.8047 6.69433 20.0467 6.99867 20.2227 7.402C20.3987 7.80533 20.4867 8.30767 20.4867 8.909C20.4867 9.349 20.4353 9.767 20.3327 10.163C20.23 10.5517 20.0723 10.8963 19.8597 11.197C19.6543 11.4903 19.394 11.725 19.0787 11.901C18.7633 12.0697 18.3893 12.154 17.9567 12.154C17.634 12.154 17.348 12.0843 17.0987 11.945C16.8567 11.8057 16.6843 11.6297 16.5817 11.417L16.6917 11.263C16.787 11.4463 16.919 11.5967 17.0877 11.714C17.2637 11.8313 17.48 11.89 17.7367 11.89C18.118 11.89 18.415 11.769 18.6277 11.527C18.8477 11.2777 19.0017 10.944 19.0897 10.526C19.1777 10.1007 19.2217 9.62033 19.2217 9.085C19.2217 8.48367 19.1777 7.99967 19.0897 7.633C19.0017 7.259 18.8697 6.98767 18.6937 6.819C18.5177 6.643 18.305 6.555 18.0557 6.555C17.7257 6.555 17.425 6.687 17.1537 6.951C16.8897 7.215 16.7283 7.611 16.6697 8.139L16.5597 7.908C16.655 7.358 16.875 6.93267 17.2197 6.632C17.5717 6.324 17.9897 6.17 18.4737 6.17ZM23.9947 6.17C24.6401 6.17 25.1461 6.36433 25.5127 6.753C25.8794 7.14167 26.0627 7.75767 26.0627 8.601H22.2677L22.2457 8.392H24.8967C24.9041 8.03267 24.8747 7.70267 24.8087 7.402C24.7427 7.094 24.6401 6.84833 24.5007 6.665C24.3614 6.48167 24.1781 6.39 23.9507 6.39C23.6354 6.39 23.3604 6.55867 23.1257 6.896C22.8984 7.226 22.7591 7.75767 22.7077 8.491L22.7407 8.546C22.7334 8.64867 22.7261 8.76233 22.7187 8.887C22.7114 9.00433 22.7077 9.12167 22.7077 9.239C22.7077 9.745 22.7847 10.1703 22.9387 10.515C23.0927 10.8597 23.2944 11.12 23.5437 11.296C23.7931 11.4647 24.0461 11.549 24.3027 11.549C24.5007 11.549 24.6914 11.5197 24.8747 11.461C25.0654 11.395 25.2451 11.2887 25.4137 11.142C25.5824 10.988 25.7327 10.779 25.8647 10.515L26.0847 10.603C25.9967 10.8523 25.8611 11.098 25.6777 11.34C25.4944 11.582 25.2597 11.78 24.9737 11.934C24.6877 12.0807 24.3541 12.154 23.9727 12.154C23.4594 12.154 23.0121 12.0403 22.6307 11.813C22.2494 11.5783 21.9561 11.2447 21.7507 10.812C21.5454 10.3793 21.4427 9.866 21.4427 9.272C21.4427 8.61933 21.5491 8.062 21.7617 7.6C21.9744 7.138 22.2714 6.786 22.6527 6.544C23.0414 6.29467 23.4887 6.17 23.9947 6.17ZM30.627 6.17C30.9203 6.17 31.1586 6.21033 31.342 6.291C31.5326 6.36433 31.6903 6.467 31.815 6.599C31.947 6.73833 32.0386 6.918 32.09 7.138C32.1486 7.358 32.178 7.655 32.178 8.029V10.977C32.178 11.285 32.2366 11.494 32.354 11.604C32.4786 11.714 32.684 11.769 32.97 11.769V12C32.8453 11.9927 32.651 11.9853 32.387 11.978C32.123 11.9633 31.8626 11.956 31.606 11.956C31.3566 11.956 31.1073 11.9633 30.858 11.978C30.616 11.9853 30.4326 11.9927 30.308 12V11.769C30.5573 11.769 30.7333 11.714 30.836 11.604C30.9386 11.494 30.99 11.285 30.99 10.977V7.721C30.99 7.50833 30.9716 7.31767 30.935 7.149C30.8983 6.973 30.8213 6.83367 30.704 6.731C30.5866 6.621 30.4106 6.566 30.176 6.566C29.9046 6.566 29.6626 6.643 29.45 6.797C29.2446 6.951 29.0796 7.16367 28.955 7.435C28.8376 7.699 28.779 7.996 28.779 8.326V10.977C28.779 11.285 28.8303 11.494 28.933 11.604C29.043 11.714 29.219 11.769 29.461 11.769V12C29.3436 11.9927 29.164 11.9853 28.922 11.978C28.6873 11.9633 28.4416 11.956 28.185 11.956C27.9356 11.956 27.6753 11.9633 27.404 11.978C27.1326 11.9853 26.931 11.9927 26.799 12V11.769C27.085 11.769 27.2866 11.714 27.404 11.604C27.5286 11.494 27.591 11.285 27.591 10.977V7.523C27.591 7.193 27.536 6.951 27.426 6.797C27.316 6.63567 27.107 6.555 26.799 6.555V6.324C27.0336 6.346 27.261 6.357 27.481 6.357C27.7303 6.357 27.9613 6.346 28.174 6.324C28.394 6.29467 28.5956 6.25433 28.779 6.203V7.402C28.9696 6.94733 29.23 6.62833 29.56 6.445C29.8973 6.26167 30.253 6.17 30.627 6.17ZM38.5749 3.376V10.801C38.5749 11.131 38.6299 11.3767 38.7399 11.538C38.8572 11.692 39.0662 11.769 39.3669 11.769V12C39.1395 11.978 38.9122 11.967 38.6849 11.967C38.4355 11.967 38.2009 11.978 37.9809 12C37.7682 12.022 37.5702 12.0623 37.3869 12.121V4.696C37.3869 4.366 37.3282 4.124 37.2109 3.97C37.1009 3.80867 36.8955 3.728 36.5949 3.728V3.497C36.8295 3.519 37.0569 3.53 37.2769 3.53C37.5189 3.53 37.7499 3.519 37.9699 3.497C38.1899 3.46767 38.3915 3.42733 38.5749 3.376ZM36.0999 6.17C36.4225 6.17 36.7159 6.23967 36.9799 6.379C37.2512 6.51833 37.4419 6.753 37.5519 7.083L37.4199 7.204C37.3172 6.94 37.1669 6.74933 36.9689 6.632C36.7709 6.50733 36.5472 6.445 36.2979 6.445C35.8799 6.445 35.5389 6.66867 35.2749 7.116C35.0109 7.556 34.8825 8.238 34.8899 9.162C34.8899 9.77067 34.9412 10.2693 35.0439 10.658C35.1465 11.0393 35.2969 11.3217 35.4949 11.505C35.7002 11.6883 35.9459 11.78 36.2319 11.78C36.5179 11.78 36.7745 11.659 37.0019 11.417C37.2365 11.175 37.3759 10.8267 37.4199 10.372L37.5189 10.603C37.4455 11.1017 37.2695 11.4867 36.9909 11.758C36.7122 12.022 36.3382 12.154 35.8689 12.154C35.4215 12.154 35.0255 12.0477 34.6809 11.835C34.3435 11.615 34.0832 11.285 33.8999 10.845C33.7165 10.3977 33.6249 9.83667 33.6249 9.162C33.6249 8.49467 33.7349 7.941 33.9549 7.501C34.1822 7.05367 34.4829 6.72 34.8569 6.5C35.2309 6.28 35.6452 6.17 36.0999 6.17ZM46.3415 3.398C46.5762 3.398 46.7888 3.41267 46.9795 3.442C47.1775 3.47133 47.3535 3.51167 47.5075 3.563C47.6615 3.61433 47.7935 3.67667 47.9035 3.75C48.0282 3.82333 48.1272 3.915 48.2005 4.025C48.2738 4.135 48.3105 4.25967 48.3105 4.399C48.3105 4.619 48.2335 4.80233 48.0795 4.949C47.9255 5.08833 47.7312 5.158 47.4965 5.158C47.2618 5.158 47.0675 5.08833 46.9135 4.949C46.7595 4.80233 46.6825 4.62267 46.6825 4.41C46.6825 4.26333 46.7228 4.13133 46.8035 4.014C46.8915 3.88933 47.0125 3.794 47.1665 3.728C47.0785 3.67667 46.9612 3.64 46.8145 3.618C46.6752 3.58867 46.5322 3.574 46.3855 3.574C46.0188 3.574 45.7108 3.651 45.4615 3.805C45.2195 3.95167 45.0252 4.15333 44.8785 4.41C44.7758 4.59333 44.6988 4.828 44.6475 5.114C44.6035 5.39267 44.5815 5.79967 44.5815 6.335H46.1985C46.5212 6.335 46.7962 6.33133 47.0235 6.324C47.2582 6.31667 47.4672 6.30567 47.6505 6.291C47.8412 6.269 48.0245 6.23967 48.2005 6.203V10.977C48.2005 11.285 48.2628 11.494 48.3875 11.604C48.5122 11.714 48.7212 11.769 49.0145 11.769V12C48.8825 11.9927 48.6845 11.9853 48.4205 11.978C48.1565 11.9633 47.8888 11.956 47.6175 11.956C47.3535 11.956 47.0858 11.9633 46.8145 11.978C46.5505 11.9853 46.3525 11.9927 46.2205 12V11.769C46.5065 11.769 46.7082 11.714 46.8255 11.604C46.9502 11.494 47.0125 11.285 47.0125 10.977V7.523C47.0125 7.193 46.9538 6.951 46.8365 6.797C46.7265 6.63567 46.5138 6.555 46.1985 6.555H44.5815V10.977C44.5815 11.2923 44.6622 11.505 44.8235 11.615C44.9922 11.7177 45.2195 11.769 45.5055 11.769V12C45.3515 11.9927 45.1352 11.9853 44.8565 11.978C44.5778 11.9633 44.2918 11.956 43.9985 11.956C43.7125 11.956 43.4375 11.9633 43.1735 11.978C42.9095 11.9853 42.7115 11.9927 42.5795 12V11.769C42.8728 11.769 43.0818 11.714 43.2065 11.604C43.3312 11.494 43.3935 11.285 43.3935 10.977V6.555H42.5355V6.335H43.3935C43.3935 5.873 43.4558 5.45867 43.5805 5.092C43.7125 4.718 43.9215 4.39533 44.2075 4.124C44.4422 3.91133 44.7355 3.739 45.0875 3.607C45.4468 3.46767 45.8648 3.398 46.3415 3.398ZM52.2682 6.17C52.9135 6.17 53.4195 6.36433 53.7862 6.753C54.1528 7.14167 54.3362 7.75767 54.3362 8.601H50.5412L50.5192 8.392H53.1702C53.1775 8.03267 53.1482 7.70267 53.0822 7.402C53.0162 7.094 52.9135 6.84833 52.7742 6.665C52.6348 6.48167 52.4515 6.39 52.2242 6.39C51.9088 6.39 51.6338 6.55867 51.3992 6.896C51.1718 7.226 51.0325 7.75767 50.9812 8.491L51.0142 8.546C51.0068 8.64867 50.9995 8.76233 50.9922 8.887C50.9848 9.00433 50.9812 9.12167 50.9812 9.239C50.9812 9.745 51.0582 10.1703 51.2122 10.515C51.3662 10.8597 51.5678 11.12 51.8172 11.296C52.0665 11.4647 52.3195 11.549 52.5762 11.549C52.7742 11.549 52.9648 11.5197 53.1482 11.461C53.3388 11.395 53.5185 11.2887 53.6872 11.142C53.8558 10.988 54.0062 10.779 54.1382 10.515L54.3582 10.603C54.2702 10.8523 54.1345 11.098 53.9512 11.34C53.7678 11.582 53.5332 11.78 53.2472 11.934C52.9612 12.0807 52.6275 12.154 52.2462 12.154C51.7328 12.154 51.2855 12.0403 50.9042 11.813C50.5228 11.5783 50.2295 11.2447 50.0242 10.812C49.8188 10.3793 49.7162 9.866 49.7162 9.272C49.7162 8.61933 49.8225 8.062 50.0352 7.6C50.2478 7.138 50.5448 6.786 50.9262 6.544C51.3148 6.29467 51.7622 6.17 52.2682 6.17ZM57.0079 3.376V10.977C57.0079 11.285 57.0665 11.494 57.1839 11.604C57.3085 11.714 57.5139 11.769 57.7999 11.769V12C57.6752 11.9927 57.4809 11.9853 57.2169 11.978C56.9529 11.9633 56.6889 11.956 56.4249 11.956C56.1609 11.956 55.8932 11.9633 55.6219 11.978C55.3579 11.9853 55.1599 11.9927 55.0279 12V11.769C55.3139 11.769 55.5155 11.714 55.6329 11.604C55.7575 11.494 55.8199 11.285 55.8199 10.977V4.696C55.8199 4.366 55.7649 4.124 55.6549 3.97C55.5449 3.80867 55.3359 3.728 55.0279 3.728V3.497C55.2625 3.519 55.4899 3.53 55.7099 3.53C55.9519 3.53 56.1829 3.519 56.4029 3.497C56.6229 3.46767 56.8245 3.42733 57.0079 3.376ZM63.3679 3.376V10.801C63.3679 11.131 63.4229 11.3767 63.5329 11.538C63.6502 11.692 63.8592 11.769 64.1599 11.769V12C63.9325 11.978 63.7052 11.967 63.4779 11.967C63.2285 11.967 62.9939 11.978 62.7739 12C62.5612 12.022 62.3632 12.0623 62.1799 12.121V4.696C62.1799 4.366 62.1212 4.124 62.0039 3.97C61.8939 3.80867 61.6885 3.728 61.3879 3.728V3.497C61.6225 3.519 61.8499 3.53 62.0699 3.53C62.3119 3.53 62.5429 3.519 62.7629 3.497C62.9829 3.46767 63.1845 3.42733 63.3679 3.376ZM60.8929 6.17C61.2155 6.17 61.5089 6.23967 61.7729 6.379C62.0442 6.51833 62.2349 6.753 62.3449 7.083L62.2129 7.204C62.1102 6.94 61.9599 6.74933 61.7619 6.632C61.5639 6.50733 61.3402 6.445 61.0909 6.445C60.6729 6.445 60.3319 6.66867 60.0679 7.116C59.8039 7.556 59.6755 8.238 59.6829 9.162C59.6829 9.77067 59.7342 10.2693 59.8369 10.658C59.9395 11.0393 60.0899 11.3217 60.2879 11.505C60.4932 11.6883 60.7389 11.78 61.0249 11.78C61.3109 11.78 61.5675 11.659 61.7949 11.417C62.0295 11.175 62.1689 10.8267 62.2129 10.372L62.3119 10.603C62.2385 11.1017 62.0625 11.4867 61.7839 11.758C61.5052 12.022 61.1312 12.154 60.6619 12.154C60.2145 12.154 59.8185 12.0477 59.4739 11.835C59.1365 11.615 58.8762 11.285 58.6929 10.845C58.5095 10.3977 58.4179 9.83667 58.4179 9.162C58.4179 8.49467 58.5279 7.941 58.7479 7.501C58.9752 7.05367 59.2759 6.72 59.6499 6.5C60.0239 6.28 60.4382 6.17 60.8929 6.17ZM66.7219 6.17C67.0152 6.17 67.2682 6.21767 67.4809 6.313C67.7009 6.401 67.8586 6.48167 67.9539 6.555C68.1959 6.74567 68.3462 6.621 68.4049 6.181H68.6469C68.6322 6.38633 68.6212 6.63567 68.6139 6.929C68.6066 7.215 68.6029 7.59633 68.6029 8.073H68.3609C68.3169 7.80167 68.2399 7.53767 68.1299 7.281C68.0272 7.02433 67.8732 6.81167 67.6679 6.643C67.4699 6.47433 67.2096 6.39 66.8869 6.39C66.6449 6.39 66.4432 6.45967 66.2819 6.599C66.1206 6.731 66.0399 6.929 66.0399 7.193C66.0399 7.413 66.1059 7.60367 66.2379 7.765C66.3699 7.92633 66.5386 8.07667 66.7439 8.216C66.9566 8.35533 67.1839 8.50567 67.4259 8.667C67.6972 8.85033 67.9392 9.03367 68.1519 9.217C68.3719 9.393 68.5442 9.591 68.6689 9.811C68.8009 10.031 68.8669 10.2877 68.8669 10.581C68.8669 10.9183 68.7752 11.2043 68.5919 11.439C68.4159 11.6737 68.1812 11.8533 67.8879 11.978C67.5946 12.0953 67.2719 12.154 66.9199 12.154C66.7439 12.154 66.5789 12.1357 66.4249 12.099C66.2709 12.0697 66.1279 12.0293 65.9959 11.978C65.9152 11.934 65.8346 11.89 65.7539 11.846C65.6806 11.7947 65.6072 11.747 65.5339 11.703C65.4606 11.6517 65.3946 11.659 65.3359 11.725C65.2772 11.791 65.2332 11.9083 65.2039 12.077H64.9619C64.9766 11.8423 64.9876 11.5563 64.9949 11.219C65.0022 10.8817 65.0059 10.4343 65.0059 9.877H65.2479C65.2992 10.2803 65.3762 10.636 65.4789 10.944C65.5816 11.252 65.7319 11.494 65.9299 11.67C66.1352 11.8387 66.4139 11.923 66.7659 11.923C66.9052 11.923 67.0446 11.8937 67.1839 11.835C67.3232 11.769 67.4369 11.6663 67.5249 11.527C67.6202 11.3877 67.6679 11.2007 67.6679 10.966C67.6679 10.6433 67.5542 10.3793 67.3269 10.174C67.1069 9.96133 66.8209 9.73767 66.4689 9.503C66.2196 9.327 65.9812 9.15467 65.7539 8.986C65.5339 8.81 65.3542 8.61567 65.2149 8.403C65.0756 8.183 65.0059 7.92267 65.0059 7.622C65.0059 7.292 65.0829 7.02067 65.2369 6.808C65.3982 6.59533 65.6109 6.43767 65.8749 6.335C66.1389 6.225 66.4212 6.17 66.7219 6.17Z" fill="#4C4C4C"/>
<path d="M81 5.5L85 9.5L88.5 5.5" stroke="#9C9C9C" stroke-width="1.2" stroke-linecap="round"/>
</svg>
