<svg width="27" height="16" viewBox="0 0 27 16" fill="none" xmlns="http://www.w3.org/2000/svg">
<path d="M22.8997 1.9171L14.7377 10.0989C14.5518 10.2852 14.2504 10.2852 14.0645 10.0989L11.119 7.14625L8.96484 9.30564L13.3241 13.6754C13.9189 14.2717 14.8834 14.2717 15.4782 13.6754L25.0539 4.07649C25.2398 3.89015 25.2398 3.58803 25.0539 3.40168L23.573 1.9171C23.387 1.73076 23.0856 1.73076 22.8997 1.9171Z" fill="#97D729"/>
<path d="M8.96484 9.30588L12.247 12.596L14.7378 10.0991C14.5519 10.2855 14.2505 10.2855 14.0646 10.0991L12.1796 8.20963L11.1191 7.14648L8.96484 9.30588Z" fill="#8BC727"/>
<path d="M16.3355 1.91722L8.17347 10.099C7.98758 10.2854 7.68618 10.2854 7.50029 10.099L4.06703 6.65744C3.88114 6.47109 3.57974 6.47109 3.39385 6.65744L1.91286 8.14206C1.72696 8.3284 1.72696 8.63053 1.91286 8.81687L6.75982 13.6756C7.35469 14.2719 8.31916 14.2719 8.91399 13.6756L18.4897 4.07666C18.6756 3.89031 18.6756 3.58819 18.4897 3.40184L17.0087 1.91727C16.8228 1.73087 16.5214 1.73087 16.3355 1.91722Z" fill="#BBEC6C"/>
<path d="M18.4895 3.40215L17.4843 2.39453C17.6702 2.58088 17.6702 2.883 17.4843 3.06935L7.90861 12.6682C7.31374 13.2645 6.34927 13.2645 5.75439 12.6682L6.75957 13.6758C7.35445 14.2721 8.31892 14.2721 8.91379 13.6758L18.4895 4.07692C18.6754 3.89062 18.6754 3.58849 18.4895 3.40215Z" fill="#A2E62E"/>
</svg>
