<svg width="50" height="50" viewBox="0 0 50 50" fill="none" xmlns="http://www.w3.org/2000/svg">
<path fill-rule="evenodd" clip-rule="evenodd" d="M26.9 6H12.1C4.7 6 1 9.7 1 17.1V41.15C1 42.1675 1.8325 43 2.85 43H26.9C32.0942 43 35.4654 41.1771 37.0137 37.5312C30.2596 37.0257 24.931 31.3801 24.931 24.4974C24.931 17.6155 30.2585 11.9703 37.0116 11.4638C35.4623 7.82127 32.0918 6 26.9 6ZM20.9508 30.5125H10.25C9.4915 30.5125 8.8625 29.8835 8.8625 29.125C8.8625 28.3665 9.4915 27.7375 10.25 27.7375H20.9508C21.7093 27.7375 22.3383 28.3665 22.3383 29.125C22.3383 29.8835 21.7093 30.5125 20.9508 30.5125ZM17.5039 21.2625H10.25C9.4915 21.2625 8.8625 20.6335 8.8625 19.875C8.8625 19.1165 9.4915 18.4875 10.25 18.4875H17.5039C18.2624 18.4875 18.8914 19.1165 18.8914 19.875C18.8914 20.6335 18.2624 21.2625 17.5039 21.2625ZM27.0239 24.4997C27.0239 30.5762 31.9556 35.5078 38.032 35.5078C44.1085 35.5078 49.0402 30.5762 49.0402 24.4997C49.0402 18.4232 44.1085 13.4916 38.032 13.4916C31.9556 13.4916 27.0239 18.4232 27.0239 24.4997ZM39.2481 18.2405C39.0446 18.1268 38.8155 18.0669 38.5823 18.0664H37.6531C37.4207 18.0705 37.1928 18.1319 36.9899 18.2453C36.787 18.3586 36.6152 18.5204 36.4899 18.7162C36.3423 18.9293 36.2692 19.1851 36.282 19.444C36.2896 19.6452 36.2376 19.8442 36.1325 20.0159C36.0208 20.1895 35.8682 20.333 35.688 20.4339C35.5079 20.5347 35.3057 20.5898 35.0993 20.5942C34.8977 20.5947 34.6991 20.5456 34.5209 20.4512C34.2107 20.2722 33.842 20.2237 33.496 20.3163C33.15 20.4089 32.8548 20.635 32.6755 20.9451L32.2336 21.7119C32.1378 21.8655 32.0744 22.0369 32.0471 22.2158C32.0198 22.3947 32.0292 22.5773 32.0748 22.7524C32.1204 22.9276 32.2013 23.0916 32.3123 23.2344C32.4234 23.3773 32.5625 23.496 32.7209 23.5834C32.9906 23.7444 33.1861 24.0051 33.2651 24.3091C33.3442 24.6131 33.3004 24.9359 33.1433 25.2079C33.0488 25.3824 32.9069 25.5265 32.7339 25.6238C32.514 25.7425 32.3317 25.9203 32.2076 26.1372C32.0874 26.3386 32.0239 26.5687 32.0239 26.8032C32.0239 27.0378 32.0874 27.2679 32.2076 27.4693L32.6625 28.2491C32.7511 28.4046 32.87 28.5407 33.0122 28.6495C33.1543 28.7582 33.3168 28.8373 33.4901 28.8821C33.6634 28.927 33.8439 28.9366 34.0209 28.9105C34.198 28.8843 34.368 28.8229 34.5209 28.73C34.6946 28.6239 34.896 28.5719 35.0993 28.5805C35.4144 28.5837 35.7161 28.7085 35.9413 28.9289C36.1665 29.1493 36.2979 29.4482 36.3079 29.7632C36.3182 30.1159 36.4673 30.4504 36.7228 30.6938C36.9784 30.9372 37.3197 31.0698 37.6726 31.0628H38.5693C38.9211 31.0681 39.2607 30.9347 39.5149 30.6915C39.769 30.4483 39.9172 30.1148 39.9274 29.7632C39.9257 29.6013 39.956 29.4408 40.0166 29.2907C40.0771 29.1406 40.1667 29.004 40.2802 28.8886C40.3938 28.7733 40.529 28.6815 40.6781 28.6186C40.8272 28.5557 40.9873 28.5229 41.1491 28.522C41.3524 28.5134 41.5537 28.5654 41.7274 28.6715C41.8804 28.7645 42.0504 28.8258 42.2274 28.852C42.4045 28.8781 42.585 28.8685 42.7583 28.8237C42.9315 28.7788 43.0941 28.6997 43.2362 28.591C43.3784 28.4822 43.4973 28.3461 43.5859 28.1906L44.0473 27.4108C44.1636 27.2081 44.2248 26.9785 44.2248 26.7448C44.2248 26.511 44.1636 26.2814 44.0473 26.0787C43.9153 25.8658 43.7321 25.6893 43.5145 25.5653C43.3415 25.4681 43.1996 25.3239 43.1051 25.1494C42.948 24.8775 42.9042 24.5546 42.9833 24.2506C43.0623 23.9466 43.2578 23.6859 43.5274 23.5249C43.6849 23.4408 43.8233 23.3252 43.9341 23.1852C44.0449 23.0453 44.1257 22.884 44.1714 22.7115C44.2171 22.5389 44.2268 22.3588 44.1999 22.1824C44.1729 22.0059 44.1099 21.8369 44.0148 21.6859L43.5729 20.9191C43.3936 20.6091 43.0984 20.3829 42.7524 20.2903C42.4064 20.1977 42.0377 20.2462 41.7274 20.4253C41.5493 20.5196 41.3507 20.5687 41.1491 20.5682C40.9346 20.5701 40.7233 20.5167 40.5355 20.4131C40.3477 20.3095 40.1897 20.1593 40.0769 19.9769C39.9717 19.8052 39.9197 19.6062 39.9274 19.405C39.9395 19.1621 39.8759 18.9215 39.7455 18.7162C39.6228 18.518 39.4517 18.3542 39.2481 18.2405ZM36.2623 24.5794C36.2623 25.5903 37.088 26.3951 38.1088 26.3951C39.1297 26.3951 39.9359 25.5903 39.9359 24.5794C39.9359 23.5685 39.1297 22.7573 38.1088 22.7573C37.088 22.7573 36.2623 23.5685 36.2623 24.5794Z" fill="url(#paint0_linear_10689_77997)"/>
<defs>
<linearGradient id="paint0_linear_10689_77997" x1="25.02" y1="6" x2="25.02" y2="43" gradientUnits="userSpaceOnUse">
<stop stop-color="#FB9A85"/>
<stop offset="1" stop-color="#FF1F00"/>
</linearGradient>
</defs>
</svg>
