<svg width="24" height="24" viewBox="0 0 24 24" fill="none" xmlns="http://www.w3.org/2000/svg">
<path d="M6.32027 4.13291V2.06238C6.32027 1.88291 6.52652 1.7838 6.66581 1.89363L18.7408 11.3249C18.8434 11.4047 18.9264 11.5068 18.9835 11.6236C19.0406 11.7403 19.0703 11.8686 19.0703 11.9985C19.0703 12.1285 19.0406 12.2568 18.9835 12.3735C18.9264 12.4902 18.8434 12.5924 18.7408 12.6722L6.66581 22.1034C6.52384 22.2133 6.32027 22.1142 6.32027 21.9347V19.8642C6.32027 19.7329 6.38188 19.607 6.48366 19.5267L16.1265 11.9999L6.48366 4.47041C6.38188 4.39005 6.32027 4.26416 6.32027 4.13291Z" fill="#2C2C2C"/>
</svg>
