<svg width="24" height="24" viewBox="0 0 24 24" fill="none" xmlns="http://www.w3.org/2000/svg">
<path d="M17.6797 4.13291V2.06238C17.6797 1.88291 17.4735 1.7838 17.3342 1.89363L5.25919 11.3249C5.1566 11.4047 5.07358 11.5068 5.01648 11.6236C4.95937 11.7403 4.92969 11.8686 4.92969 11.9985C4.92969 12.1285 4.95937 12.2568 5.01648 12.3735C5.07358 12.4902 5.1566 12.5924 5.25919 12.6722L17.3342 22.1034C17.4762 22.2133 17.6797 22.1142 17.6797 21.9347V19.8642C17.6797 19.7329 17.6181 19.607 17.5163 19.5267L7.87348 11.9999L17.5163 4.47041C17.6181 4.39005 17.6797 4.26416 17.6797 4.13291Z" fill="#2C2C2C"/>
</svg>
