<svg width="36" height="40" viewBox="0 0 36 40" fill="none" xmlns="http://www.w3.org/2000/svg">
<path d="M22.6999 0H13.2996C11.2196 0 9.51953 1.68004 9.51953 3.7601V5.64014C9.51953 7.7202 11.1996 9.40024 13.2796 9.40024H22.6999C24.7799 9.40024 26.46 7.7202 26.46 5.64014V3.7601C26.48 1.68004 24.7799 0 22.6999 0Z" fill="url(#paint0_linear_9509_80699)"/>
<path d="M28.4803 5.63902C28.4803 8.8191 25.8802 11.4192 22.7002 11.4192H13.2999C10.1198 11.4192 7.51977 8.8191 7.51977 5.63902C7.51977 4.51899 6.31974 3.81897 5.31971 4.33899C2.49964 5.83903 0.57959 8.8191 0.57959 12.2392V31.0597C0.57959 35.9798 4.59969 39.9999 9.51982 39.9999H26.4802C31.4004 39.9999 35.4205 35.9798 35.4205 31.0597V12.2392C35.4205 8.8191 33.5004 5.83903 30.6804 4.33899C29.6803 3.81897 28.4803 4.51899 28.4803 5.63902ZM24.6802 21.4594L16.68 29.4596C16.38 29.7596 16 29.8996 15.62 29.8996C15.24 29.8996 14.86 29.7596 14.5599 29.4596L11.5599 26.4595C10.9799 25.8795 10.9799 24.9195 11.5599 24.3395C12.1399 23.7595 13.0999 23.7595 13.6799 24.3395C14.7514 25.411 16.4886 25.411 17.56 24.3395L22.5601 19.3394C23.1402 18.7594 24.1002 18.7594 24.6802 19.3394C25.2602 19.9194 25.2602 20.8794 24.6802 21.4594Z" fill="url(#paint1_linear_9509_80699)"/>
<defs>
<linearGradient id="paint0_linear_9509_80699" x1="17.9898" y1="0" x2="17.9898" y2="9.40024" gradientUnits="userSpaceOnUse">
<stop stop-color="#FF928A"/>
<stop offset="1" stop-color="#D64D44"/>
</linearGradient>
<linearGradient id="paint1_linear_9509_80699" x1="18" y1="4.16406" x2="18" y2="39.9999" gradientUnits="userSpaceOnUse">
<stop stop-color="#FF928A"/>
<stop offset="1" stop-color="#D64D44"/>
</linearGradient>
</defs>
</svg>
