<svg width="24" height="24" viewBox="0 0 24 24" fill="none" xmlns="http://www.w3.org/2000/svg">
<path d="M15.831 3C16.9014 2.99993 17.9485 3.31225 18.8439 3.89866C19.7393 4.48507 20.4441 5.32007 20.8719 6.30124C21.2996 7.28241 21.4317 8.36709 21.2519 9.42223C21.0721 10.4774 20.5882 11.4571 19.8596 12.2412L19.6855 12.419L11.6879 20.4167L11.6393 20.4625L11.588 20.5037C10.9365 21.0654 10.0968 21.36 9.23721 21.3287C8.37761 21.2974 7.5616 20.9423 6.95273 20.3347C6.34386 19.7271 5.98711 18.9119 5.95397 18.0523C5.92082 17.1928 6.21374 16.3525 6.77402 15.6998L6.91057 15.5495L6.92432 15.5394L13.6051 8.84588C13.7768 8.6738 14.0098 8.57698 14.2529 8.57672C14.496 8.57646 14.7293 8.67279 14.9013 8.8445C15.0734 9.01622 15.1702 9.24926 15.1705 9.49236C15.1707 9.73546 15.0744 9.9687 14.9027 10.1408L8.22197 16.8344L8.21098 16.8417C7.94133 17.1296 7.78939 17.5082 7.78512 17.9026C7.78085 18.2971 7.92456 18.6789 8.18791 18.9726C8.45125 19.2663 8.81511 19.4507 9.2077 19.4893C9.60029 19.5279 9.99311 19.4181 10.3087 19.1813L10.4205 19.0897L10.4214 19.0906L18.3961 11.1177L18.5418 10.9665C19.1834 10.2613 19.525 9.3338 19.4941 8.38089C19.4633 7.42797 19.0623 6.52458 18.3764 5.86239C17.6905 5.20019 16.7735 4.83129 15.8201 4.83395C14.8667 4.83662 13.9519 5.21064 13.2696 5.87666L13.1276 6.02329L13.1111 6.03429L4.56452 14.5845C4.47938 14.6696 4.37831 14.7371 4.26708 14.7831C4.15586 14.8291 4.03666 14.8528 3.91629 14.8528C3.79592 14.8527 3.67673 14.829 3.56554 14.7829C3.45435 14.7368 3.35333 14.6692 3.26824 14.5841C3.18315 14.4989 3.11567 14.3979 3.06965 14.2866C3.02362 14.1754 2.99996 14.0562 3 13.9358C3.00009 13.6927 3.09674 13.4596 3.2687 13.2878L11.7988 4.75313L11.8409 4.71372C12.3543 4.1715 12.9731 3.73983 13.6592 3.44515C14.3453 3.15047 15.0843 2.999 15.831 3Z" fill="#252424"/>
</svg>
