<svg width="15" height="16" viewBox="0 0 15 16" fill="none" xmlns="http://www.w3.org/2000/svg">
<path fill-rule="evenodd" clip-rule="evenodd" d="M7.3174 1.78735C7.94158 1.16316 8.78816 0.8125 9.6709 0.8125C10.5536 0.8125 11.4002 1.16316 12.0244 1.78735C12.6486 2.41154 12.9992 3.25812 12.9992 4.14085C12.9992 5.02359 12.6486 5.87016 12.0244 6.49435L6.2674 12.2514C6.08965 12.4292 5.87863 12.5702 5.64637 12.6665C5.41411 12.7627 5.16516 12.8123 4.91375 12.8123C4.40599 12.8124 3.919 12.6108 3.5599 12.2519C3.20079 11.8929 2.999 11.406 2.9989 10.8982C2.99881 10.3905 3.20043 9.90345 3.5594 9.54435L9.1444 3.95835L9.8524 4.66635L4.2664 10.2514C4.1815 10.3363 4.11415 10.437 4.0682 10.548C4.02226 10.6589 3.99861 10.7778 3.99861 10.8979C3.99861 11.0179 4.02226 11.1368 4.0682 11.2477C4.11415 11.3587 4.1815 11.4595 4.2664 11.5444C4.3513 11.6293 4.45209 11.6966 4.56301 11.7425C4.67394 11.7885 4.79283 11.8121 4.9129 11.8121C5.03296 11.8121 5.15185 11.7885 5.26278 11.7425C5.37371 11.6966 5.4745 11.6293 5.5594 11.5444L11.3164 5.78735C11.5326 5.57113 11.7041 5.31444 11.8212 5.03193C11.9382 4.74942 11.9984 4.44664 11.9984 4.14085C11.9984 3.83507 11.9382 3.53228 11.8212 3.24977C11.7041 2.96727 11.5326 2.71057 11.3164 2.49435C11.1002 2.27813 10.8435 2.10661 10.561 1.9896C10.2785 1.87258 9.97568 1.81235 9.6699 1.81235C9.36411 1.81235 9.06132 1.87258 8.77882 1.9896C8.49631 2.10661 8.23962 2.27813 8.0234 2.49435L2.0954 8.42335C1.40772 9.12818 1.0255 10.0756 1.03156 11.0603C1.03762 12.045 1.43148 12.9877 2.12779 13.684C2.82409 14.3803 3.76674 14.7741 4.75144 14.7802C5.73615 14.7863 6.68357 14.404 7.3884 13.7164L13.1454 7.95835L13.8534 8.66635L8.0954 14.4234C7.20056 15.286 6.00285 15.7629 4.75995 15.7515C3.51706 15.7401 2.32832 15.2412 1.44949 14.3623C0.57066 13.4833 0.0719795 12.2945 0.060741 11.0516C0.0495026 9.8087 0.526605 8.61106 1.3894 7.71635L7.3174 1.78635V1.78735Z" fill="#2C2C2C"/>
</svg>
