<svg width="40" height="40" viewBox="0 0 40 40" fill="none" xmlns="http://www.w3.org/2000/svg">
<path fill-rule="evenodd" clip-rule="evenodd" d="M10.5 2H22.875L33 12.125V33.5C33 34.6935 32.5259 35.8381 31.682 36.682C30.8381 37.5259 29.6935 38 28.5 38H10.5C9.30653 38 8.16193 37.5259 7.31802 36.682C6.47411 35.8381 6 34.6935 6 33.5V6.5C6 5.30653 6.47411 4.16193 7.31802 3.31802C8.16193 2.47411 9.30653 2 10.5 2ZM23.8635 11.1365C23.2306 10.5036 22.875 9.64511 22.875 8.75V4.25H10.5C9.90326 4.25 9.33097 4.48705 8.90901 4.90901C8.48705 5.33097 8.25 5.90326 8.25 6.5V33.5C8.25 34.0967 8.48705 34.669 8.90901 35.091C9.33097 35.5129 9.90326 35.75 10.5 35.75H28.5C29.0967 35.75 29.669 35.5129 30.091 35.091C30.5129 34.669 30.75 34.0967 30.75 33.5V12.125H26.25C25.3549 12.125 24.4964 11.7694 23.8635 11.1365ZM19.541 17.756C19.6061 17.7449 19.6729 17.7492 19.736 17.7686L24.0289 19.0891C24.4602 19.2217 24.8375 19.4892 25.1056 19.8521C25.3736 20.2151 25.5182 20.6544 25.5181 21.1056V23.2344C25.518 23.3003 25.5024 23.3653 25.4726 23.4241C25.4428 23.483 25.3997 23.534 25.3466 23.5732C25.2935 23.6123 25.232 23.6384 25.167 23.6495C25.1019 23.6605 25.0352 23.6562 24.9722 23.6368L20.0338 22.1181V28.2968C20.0338 28.3165 20.0324 28.3362 20.0296 28.3558C20.065 28.9933 19.8768 29.6232 19.4975 30.1368C19.1182 30.6505 18.5716 31.0156 17.9519 31.1693C17.3321 31.3231 16.6782 31.2557 16.1028 30.9789C15.5275 30.7021 15.0667 30.2331 14.8001 29.653C14.5335 29.0728 14.4776 28.4178 14.6423 27.8009C14.8069 27.184 15.1816 26.6438 15.7019 26.2736C16.2221 25.9035 16.8552 25.7264 17.492 25.7731C18.1288 25.8197 18.7294 26.0871 19.1901 26.5291V18.1719C19.1901 18.1059 19.2056 18.0408 19.2353 17.9819C19.265 17.9229 19.3082 17.8718 19.3613 17.8326C19.4144 17.7933 19.476 17.7671 19.541 17.756Z" fill="#6B6B6B"/>
</svg>
