<svg width="42" height="42" viewBox="0 0 42 42" fill="none" xmlns="http://www.w3.org/2000/svg">
<path d="M21 42C9.42104 42 0 32.5802 0 21C0 9.41977 9.41975 0 21 0C32.5789 0 42 9.41977 42 21C42 32.5802 32.5789 42 21 42Z" fill="#FF3838"/>
<path d="M41.9946 21.4288L31.4365 10.9805L10.8525 32.3074L20.4015 41.9882C20.6005 41.9933 20.7995 41.9972 20.9998 41.9972C32.4353 41.9985 41.7646 32.81 41.9946 21.4288Z" fill="#CC1B35"/>
<path d="M31.9278 11.3649C30.748 10.087 29.6794 9.22386 28.4015 10.401L9.28804 28.022C8.00881 29.2005 8.80606 30.3259 9.98579 31.6052C11.1655 32.8844 12.2794 33.8328 13.5586 32.6531L32.6721 15.0321C33.95 13.8536 33.1062 12.6429 31.9278 11.3649Z" fill="white"/>
<path d="M10.0168 11.3649C11.1966 10.087 12.2652 9.22386 13.5431 10.401L32.6566 28.022C33.9358 29.2005 33.1386 30.3259 31.9588 31.6052C30.7791 32.8844 29.6653 33.8328 28.386 32.6531L9.27258 15.0321C7.99465 13.8536 8.83841 12.6429 10.0168 11.3649Z" fill="white"/>
</svg>
