<svg width="42" height="42" viewBox="0 0 42 42" fill="none" xmlns="http://www.w3.org/2000/svg">
<path d="M21 42C9.42106 42 0 32.5802 0 21C0 9.41977 9.41977 0 21 0C32.5789 0 42 9.41977 42 21C42 32.5802 32.5789 42 21 42Z" fill="#86D008"/>
<path d="M32.3283 11.6328L13.3389 30.6222L24.4345 41.7179C34.2885 40.0885 41.8501 31.5758 41.9961 21.3007L32.3283 11.6328Z" fill="#5DAD07"/>
<path d="M32.7525 12.0421C31.5392 10.7267 30.4396 9.83896 29.1241 11.0497L15.6793 23.4453L12.2849 19.5637C11.1077 18.2185 9.91894 18.9822 8.57123 20.1606C7.22351 21.3378 6.22727 22.4839 7.407 23.8303L10.9126 27.8399L13.7734 31.1129C14.5435 31.9941 15.89 32.0665 16.7505 31.2731L19.946 28.327L33.5149 15.8177C34.8329 14.6031 33.9658 13.3575 32.7525 12.0421Z" fill="white"/>
</svg>
