<svg width="123" height="123" viewBox="0 0 123 123" fill="none" xmlns="http://www.w3.org/2000/svg">
<rect x="1" y="1" width="121" height="121" rx="3" fill="white" stroke="#20A2A2" stroke-width="2"/>
<path d="M22.9248 93.3447H20.4023L20.3887 92.2852H22.6787C23.057 92.2852 23.3874 92.2214 23.6699 92.0938C23.9525 91.9661 24.1712 91.7839 24.3262 91.5469C24.4857 91.3053 24.5654 91.0182 24.5654 90.6855C24.5654 90.321 24.4948 90.0247 24.3535 89.7969C24.2168 89.5645 24.0049 89.3958 23.7178 89.291C23.4352 89.1816 23.0752 89.127 22.6377 89.127H20.6963V98H19.377V88.0469H22.6377C23.1481 88.0469 23.6038 88.0993 24.0049 88.2041C24.4059 88.3044 24.7454 88.4639 25.0234 88.6826C25.306 88.8968 25.5202 89.1702 25.666 89.5029C25.8118 89.8356 25.8848 90.2344 25.8848 90.6992C25.8848 91.1094 25.7799 91.4808 25.5703 91.8135C25.3607 92.1416 25.069 92.4105 24.6953 92.6201C24.3262 92.8298 23.8932 92.9642 23.3965 93.0234L22.9248 93.3447ZM22.8633 98H19.8828L20.6279 96.9268H22.8633C23.2826 96.9268 23.638 96.8538 23.9297 96.708C24.2259 96.5622 24.4515 96.3571 24.6064 96.0928C24.7614 95.8239 24.8389 95.5072 24.8389 95.1426C24.8389 94.7734 24.7728 94.4544 24.6406 94.1855C24.5085 93.9167 24.3011 93.7093 24.0186 93.5635C23.736 93.4176 23.3714 93.3447 22.9248 93.3447H21.0449L21.0586 92.2852H23.6289L23.9092 92.668C24.3877 92.709 24.7933 92.8457 25.126 93.0781C25.4587 93.306 25.7116 93.5977 25.8848 93.9531C26.0625 94.3086 26.1514 94.7005 26.1514 95.1289C26.1514 95.7487 26.0146 96.2728 25.7412 96.7012C25.4723 97.125 25.0918 97.4486 24.5996 97.6719C24.1074 97.8906 23.5286 98 22.8633 98ZM32.2695 96.7354V92.9277C32.2695 92.6361 32.2103 92.3831 32.0918 92.1689C31.9779 91.9502 31.8047 91.7816 31.5723 91.6631C31.3398 91.5446 31.0527 91.4854 30.7109 91.4854C30.3919 91.4854 30.1117 91.54 29.8701 91.6494C29.6331 91.7588 29.4463 91.9023 29.3096 92.0801C29.1774 92.2578 29.1113 92.4492 29.1113 92.6543H27.8467C27.8467 92.39 27.915 92.1279 28.0518 91.8682C28.1885 91.6084 28.3844 91.3737 28.6396 91.1641C28.8994 90.9499 29.2093 90.7812 29.5693 90.6582C29.9339 90.5306 30.3395 90.4668 30.7861 90.4668C31.3239 90.4668 31.7979 90.5579 32.208 90.7402C32.6227 90.9225 32.9463 91.1982 33.1787 91.5674C33.4157 91.932 33.5342 92.39 33.5342 92.9414V96.3867C33.5342 96.6328 33.5547 96.8949 33.5957 97.1729C33.6413 97.4508 33.7074 97.6901 33.7939 97.8906V98H32.4746C32.4108 97.8542 32.3607 97.6605 32.3242 97.4189C32.2878 97.1729 32.2695 96.945 32.2695 96.7354ZM32.4883 93.5156L32.502 94.4043H31.2236C30.8636 94.4043 30.5423 94.4339 30.2598 94.4932C29.9772 94.5479 29.7402 94.6322 29.5488 94.7461C29.3574 94.86 29.2116 95.0036 29.1113 95.1768C29.0111 95.3454 28.9609 95.5436 28.9609 95.7715C28.9609 96.0039 29.0133 96.2158 29.1182 96.4072C29.223 96.5986 29.3802 96.7513 29.5898 96.8652C29.804 96.9746 30.0661 97.0293 30.376 97.0293C30.7633 97.0293 31.1051 96.9473 31.4014 96.7832C31.6976 96.6191 31.9323 96.4186 32.1055 96.1816C32.2832 95.9447 32.3789 95.7145 32.3926 95.4912L32.9326 96.0996C32.9007 96.291 32.8141 96.5029 32.6729 96.7354C32.5316 96.9678 32.3424 97.1911 32.1055 97.4053C31.873 97.6149 31.5951 97.7904 31.2715 97.9316C30.9525 98.0684 30.5924 98.1367 30.1914 98.1367C29.6901 98.1367 29.2503 98.0387 28.8721 97.8428C28.4984 97.6468 28.2067 97.3848 27.9971 97.0566C27.792 96.724 27.6895 96.3525 27.6895 95.9424C27.6895 95.5459 27.7669 95.1973 27.9219 94.8965C28.0768 94.5911 28.3001 94.3382 28.5918 94.1377C28.8835 93.9326 29.2344 93.7777 29.6445 93.6729C30.0547 93.568 30.5127 93.5156 31.0186 93.5156H32.4883ZM36.7881 91.7656V98H35.5234V90.6035H36.7539L36.7881 91.7656ZM39.0986 90.5625L39.0918 91.7383C38.987 91.7155 38.8867 91.7018 38.791 91.6973C38.6999 91.6882 38.5951 91.6836 38.4766 91.6836C38.1849 91.6836 37.9274 91.7292 37.7041 91.8203C37.4808 91.9115 37.2917 92.0391 37.1367 92.2031C36.9818 92.3672 36.8587 92.5632 36.7676 92.791C36.681 93.0143 36.624 93.2604 36.5967 93.5293L36.2412 93.7344C36.2412 93.2878 36.2845 92.8685 36.3711 92.4766C36.4622 92.0846 36.6012 91.7383 36.7881 91.4375C36.9749 91.1322 37.2119 90.8952 37.499 90.7266C37.7907 90.5534 38.137 90.4668 38.5381 90.4668C38.6292 90.4668 38.734 90.4782 38.8525 90.501C38.971 90.5192 39.0531 90.5397 39.0986 90.5625ZM45.0049 87.5V98H43.7402V87.5H45.0049ZM44.7041 94.0215L44.1777 94.001C44.1823 93.4951 44.2575 93.028 44.4033 92.5996C44.5492 92.1667 44.7542 91.7907 45.0186 91.4717C45.2829 91.1527 45.5973 90.9066 45.9619 90.7334C46.3311 90.5557 46.7389 90.4668 47.1855 90.4668C47.5501 90.4668 47.8783 90.5169 48.1699 90.6172C48.4616 90.7129 48.71 90.8678 48.915 91.082C49.1247 91.2962 49.2842 91.5742 49.3936 91.916C49.5029 92.2533 49.5576 92.6657 49.5576 93.1533V98H48.2861V93.1396C48.2861 92.7523 48.2292 92.4424 48.1152 92.21C48.0013 91.973 47.835 91.8021 47.6162 91.6973C47.3975 91.5879 47.1286 91.5332 46.8096 91.5332C46.4951 91.5332 46.208 91.5993 45.9482 91.7314C45.693 91.8636 45.472 92.0459 45.2852 92.2783C45.1029 92.5107 44.9593 92.7773 44.8545 93.0781C44.7542 93.3743 44.7041 93.6888 44.7041 94.0215ZM51.1162 94.3838V94.2266C51.1162 93.6934 51.1937 93.1989 51.3486 92.7432C51.5036 92.2829 51.7269 91.8841 52.0186 91.5469C52.3102 91.2051 52.6634 90.9408 53.0781 90.7539C53.4928 90.5625 53.9577 90.4668 54.4727 90.4668C54.9922 90.4668 55.4593 90.5625 55.874 90.7539C56.2933 90.9408 56.6488 91.2051 56.9404 91.5469C57.2367 91.8841 57.4622 92.2829 57.6172 92.7432C57.7721 93.1989 57.8496 93.6934 57.8496 94.2266V94.3838C57.8496 94.917 57.7721 95.4115 57.6172 95.8672C57.4622 96.3229 57.2367 96.7217 56.9404 97.0635C56.6488 97.4007 56.2956 97.665 55.8809 97.8564C55.4707 98.0433 55.0059 98.1367 54.4863 98.1367C53.9668 98.1367 53.4997 98.0433 53.085 97.8564C52.6702 97.665 52.3148 97.4007 52.0186 97.0635C51.7269 96.7217 51.5036 96.3229 51.3486 95.8672C51.1937 95.4115 51.1162 94.917 51.1162 94.3838ZM52.3809 94.2266V94.3838C52.3809 94.7529 52.4242 95.1016 52.5107 95.4297C52.5973 95.7533 52.7272 96.0404 52.9004 96.291C53.0781 96.5417 53.2992 96.7399 53.5635 96.8857C53.8278 97.027 54.1354 97.0977 54.4863 97.0977C54.8327 97.0977 55.1357 97.027 55.3955 96.8857C55.6598 96.7399 55.8786 96.5417 56.0518 96.291C56.2249 96.0404 56.3548 95.7533 56.4414 95.4297C56.5326 95.1016 56.5781 94.7529 56.5781 94.3838V94.2266C56.5781 93.862 56.5326 93.5179 56.4414 93.1943C56.3548 92.8662 56.2227 92.5768 56.0449 92.3262C55.8717 92.071 55.653 91.8704 55.3887 91.7246C55.1289 91.5788 54.8236 91.5059 54.4727 91.5059C54.1263 91.5059 53.821 91.5788 53.5566 91.7246C53.2969 91.8704 53.0781 92.071 52.9004 92.3262C52.7272 92.5768 52.5973 92.8662 52.5107 93.1943C52.4242 93.5179 52.3809 93.862 52.3809 94.2266ZM60.7002 91.7656V98H59.4355V90.6035H60.666L60.7002 91.7656ZM63.0107 90.5625L63.0039 91.7383C62.8991 91.7155 62.7988 91.7018 62.7031 91.6973C62.612 91.6882 62.5072 91.6836 62.3887 91.6836C62.097 91.6836 61.8395 91.7292 61.6162 91.8203C61.3929 91.9115 61.2038 92.0391 61.0488 92.2031C60.8939 92.3672 60.7708 92.5632 60.6797 92.791C60.5931 93.0143 60.5361 93.2604 60.5088 93.5293L60.1533 93.7344C60.1533 93.2878 60.1966 92.8685 60.2832 92.4766C60.3743 92.0846 60.5133 91.7383 60.7002 91.4375C60.887 91.1322 61.124 90.8952 61.4111 90.7266C61.7028 90.5534 62.0492 90.4668 62.4502 90.4668C62.5413 90.4668 62.6462 90.4782 62.7646 90.501C62.8831 90.5192 62.9652 90.5397 63.0107 90.5625ZM65.5537 90.6035V98H64.2822V90.6035H65.5537ZM64.1865 88.6416C64.1865 88.4365 64.248 88.2633 64.3711 88.1221C64.4987 87.9808 64.6855 87.9102 64.9316 87.9102C65.1732 87.9102 65.3577 87.9808 65.4854 88.1221C65.6175 88.2633 65.6836 88.4365 65.6836 88.6416C65.6836 88.8376 65.6175 89.0062 65.4854 89.1475C65.3577 89.2842 65.1732 89.3525 64.9316 89.3525C64.6855 89.3525 64.4987 89.2842 64.3711 89.1475C64.248 89.0062 64.1865 88.8376 64.1865 88.6416ZM73.0938 96.9609V98H67.7139V96.9609H73.0938ZM72.8955 91.499L68.001 98H67.2285V97.0703L72.0889 90.6035H72.8955V91.499ZM72.335 90.6035V91.6494H67.2832V90.6035H72.335ZM74.085 94.3838V94.2266C74.085 93.6934 74.1624 93.1989 74.3174 92.7432C74.4723 92.2829 74.6956 91.8841 74.9873 91.5469C75.279 91.2051 75.6322 90.9408 76.0469 90.7539C76.4616 90.5625 76.9264 90.4668 77.4414 90.4668C77.9609 90.4668 78.4281 90.5625 78.8428 90.7539C79.262 90.9408 79.6175 91.2051 79.9092 91.5469C80.2054 91.8841 80.431 92.2829 80.5859 92.7432C80.7409 93.1989 80.8184 93.6934 80.8184 94.2266V94.3838C80.8184 94.917 80.7409 95.4115 80.5859 95.8672C80.431 96.3229 80.2054 96.7217 79.9092 97.0635C79.6175 97.4007 79.2643 97.665 78.8496 97.8564C78.4395 98.0433 77.9746 98.1367 77.4551 98.1367C76.9355 98.1367 76.4684 98.0433 76.0537 97.8564C75.639 97.665 75.2835 97.4007 74.9873 97.0635C74.6956 96.7217 74.4723 96.3229 74.3174 95.8672C74.1624 95.4115 74.085 94.917 74.085 94.3838ZM75.3496 94.2266V94.3838C75.3496 94.7529 75.3929 95.1016 75.4795 95.4297C75.5661 95.7533 75.696 96.0404 75.8691 96.291C76.0469 96.5417 76.2679 96.7399 76.5322 96.8857C76.7965 97.027 77.1042 97.0977 77.4551 97.0977C77.8014 97.0977 78.1045 97.027 78.3643 96.8857C78.6286 96.7399 78.8473 96.5417 79.0205 96.291C79.1937 96.0404 79.3236 95.7533 79.4102 95.4297C79.5013 95.1016 79.5469 94.7529 79.5469 94.3838V94.2266C79.5469 93.862 79.5013 93.5179 79.4102 93.1943C79.3236 92.8662 79.1914 92.5768 79.0137 92.3262C78.8405 92.071 78.6217 91.8704 78.3574 91.7246C78.0977 91.5788 77.7923 91.5059 77.4414 91.5059C77.0951 91.5059 76.7897 91.5788 76.5254 91.7246C76.2656 91.8704 76.0469 92.071 75.8691 92.3262C75.696 92.5768 75.5661 92.8662 75.4795 93.1943C75.3929 93.5179 75.3496 93.862 75.3496 94.2266ZM83.6689 92.1826V98H82.4043V90.6035H83.6006L83.6689 92.1826ZM83.3682 94.0215L82.8418 94.001C82.8464 93.4951 82.9215 93.028 83.0674 92.5996C83.2132 92.1667 83.4183 91.7907 83.6826 91.4717C83.9469 91.1527 84.2614 90.9066 84.626 90.7334C84.9951 90.5557 85.403 90.4668 85.8496 90.4668C86.2142 90.4668 86.5423 90.5169 86.834 90.6172C87.1257 90.7129 87.374 90.8678 87.5791 91.082C87.7887 91.2962 87.9482 91.5742 88.0576 91.916C88.167 92.2533 88.2217 92.6657 88.2217 93.1533V98H86.9502V93.1396C86.9502 92.7523 86.8932 92.4424 86.7793 92.21C86.6654 91.973 86.499 91.8021 86.2803 91.6973C86.0615 91.5879 85.7926 91.5332 85.4736 91.5332C85.1592 91.5332 84.8721 91.5993 84.6123 91.7314C84.3571 91.8636 84.1361 92.0459 83.9492 92.2783C83.7669 92.5107 83.6234 92.7773 83.5186 93.0781C83.4183 93.3743 83.3682 93.6888 83.3682 94.0215ZM93.2393 90.6035V91.5742H89.2402V90.6035H93.2393ZM90.5938 88.8057H91.8584V96.168C91.8584 96.4186 91.8971 96.6077 91.9746 96.7354C92.0521 96.863 92.1523 96.9473 92.2754 96.9883C92.3984 97.0293 92.5306 97.0498 92.6719 97.0498C92.7767 97.0498 92.8861 97.0407 93 97.0225C93.1185 96.9997 93.2074 96.9814 93.2666 96.9678L93.2734 98C93.1732 98.0319 93.041 98.0615 92.877 98.0889C92.7174 98.1208 92.5238 98.1367 92.2959 98.1367C91.986 98.1367 91.7012 98.0752 91.4414 97.9521C91.1816 97.8291 90.9743 97.624 90.8193 97.3369C90.6689 97.0452 90.5938 96.6533 90.5938 96.1611V88.8057ZM99.084 96.7354V92.9277C99.084 92.6361 99.0247 92.3831 98.9062 92.1689C98.7923 91.9502 98.6191 91.7816 98.3867 91.6631C98.1543 91.5446 97.8672 91.4854 97.5254 91.4854C97.2064 91.4854 96.9261 91.54 96.6846 91.6494C96.4476 91.7588 96.2607 91.9023 96.124 92.0801C95.9919 92.2578 95.9258 92.4492 95.9258 92.6543H94.6611C94.6611 92.39 94.7295 92.1279 94.8662 91.8682C95.0029 91.6084 95.1989 91.3737 95.4541 91.1641C95.7139 90.9499 96.0238 90.7812 96.3838 90.6582C96.7484 90.5306 97.154 90.4668 97.6006 90.4668C98.1383 90.4668 98.6123 90.5579 99.0225 90.7402C99.4372 90.9225 99.7607 91.1982 99.9932 91.5674C100.23 91.932 100.349 92.39 100.349 92.9414V96.3867C100.349 96.6328 100.369 96.8949 100.41 97.1729C100.456 97.4508 100.522 97.6901 100.608 97.8906V98H99.2891C99.2253 97.8542 99.1751 97.6605 99.1387 97.4189C99.1022 97.1729 99.084 96.945 99.084 96.7354ZM99.3027 93.5156L99.3164 94.4043H98.0381C97.6781 94.4043 97.3568 94.4339 97.0742 94.4932C96.7917 94.5479 96.5547 94.6322 96.3633 94.7461C96.1719 94.86 96.026 95.0036 95.9258 95.1768C95.8255 95.3454 95.7754 95.5436 95.7754 95.7715C95.7754 96.0039 95.8278 96.2158 95.9326 96.4072C96.0374 96.5986 96.1947 96.7513 96.4043 96.8652C96.6185 96.9746 96.8805 97.0293 97.1904 97.0293C97.5778 97.0293 97.9196 96.9473 98.2158 96.7832C98.512 96.6191 98.7467 96.4186 98.9199 96.1816C99.0977 95.9447 99.1934 95.7145 99.207 95.4912L99.7471 96.0996C99.7152 96.291 99.6286 96.5029 99.4873 96.7354C99.346 96.9678 99.1569 97.1911 98.9199 97.4053C98.6875 97.6149 98.4095 97.7904 98.0859 97.9316C97.7669 98.0684 97.4069 98.1367 97.0059 98.1367C96.5046 98.1367 96.0648 98.0387 95.6865 97.8428C95.3128 97.6468 95.0212 97.3848 94.8115 97.0566C94.6064 96.724 94.5039 96.3525 94.5039 95.9424C94.5039 95.5459 94.5814 95.1973 94.7363 94.8965C94.8913 94.5911 95.1146 94.3382 95.4062 94.1377C95.6979 93.9326 96.0488 93.7777 96.459 93.6729C96.8691 93.568 97.3271 93.5156 97.833 93.5156H99.3027ZM103.712 87.5V98H102.44V87.5H103.712Z" fill="#252424"/>
<rect x="81" y="55" width="10" height="40" rx="1" transform="rotate(90 81 55)" fill="#20A2A2"/>
<rect x="68" y="40" width="10" height="27" rx="1" transform="rotate(90 68 40)" fill="#20A2A2"/>
<rect x="60" y="25" width="10" height="19" rx="1" transform="rotate(90 60 25)" fill="#20A2A2"/>
</svg>
