<svg width="40" height="40" viewBox="0 0 40 40" fill="none" xmlns="http://www.w3.org/2000/svg">
<path d="M28.3898 0H11.6298C4.34977 0 0.00976562 4.34 0.00976562 11.62V28.36C0.00976562 35.66 4.34977 40 11.6298 40H28.3698C35.6498 40 39.9898 35.66 39.9898 28.38V11.62C40.0098 4.34 35.6698 0 28.3898 0ZM20.0098 8C23.9898 8 27.2098 11.22 27.2098 15.2C27.2098 16.14 27.0298 17.04 26.7098 17.86C25.8898 19.94 24.1098 21.56 21.9098 22.16C21.3098 22.32 20.6698 22.42 20.0098 22.42C19.3498 22.42 18.7098 22.34 18.1098 22.16C15.9098 21.56 14.1298 19.96 13.3098 17.86C12.9898 17.04 12.8098 16.14 12.8098 15.2C12.8098 11.22 16.0298 8 20.0098 8ZM15.2098 32C11.2298 32 8.00977 28.78 8.00977 24.8C8.00977 22.9502 8.71486 21.2624 9.86198 19.9864C10.6764 19.0805 12.0448 19.5732 12.7707 20.5516C13.9624 22.1577 15.6756 23.3389 17.6298 23.86C18.3898 24.08 19.1698 24.18 20.0098 24.18C20.5076 24.18 20.9834 24.1431 21.446 24.0694C21.9205 23.9938 22.4098 24.2994 22.4098 24.78C22.4098 26.9 21.4898 28.82 20.0098 30.14C18.7298 31.3 17.0498 32 15.2098 32ZM24.8098 32C24.5839 32 24.3596 31.9897 24.1375 31.9695C22.7834 31.8462 22.5221 30.2076 23.161 29.0073C23.8418 27.7284 24.2098 26.283 24.2098 24.8C24.2098 24.4 24.1698 23.98 24.1098 23.6C24.074 23.3735 24.1893 23.1512 24.3895 23.0395C25.5004 22.4194 26.4728 21.577 27.23 20.5609C27.9596 19.5818 29.3301 19.0792 30.1493 19.9846C31.304 21.2608 32.0098 22.9493 32.0098 24.8C32.0098 28.78 28.7898 32 24.8098 32Z" fill="url(#paint0_linear_9509_81199)"/>
<defs>
<linearGradient id="paint0_linear_9509_81199" x1="19.9998" y1="0" x2="19.9998" y2="40" gradientUnits="userSpaceOnUse">
<stop stop-color="#32BFFB"/>
<stop offset="1" stop-color="#3276FB"/>
</linearGradient>
</defs>
</svg>
