<svg width="20" height="20" viewBox="0 0 20 20" fill="none" xmlns="http://www.w3.org/2000/svg">
<path fill-rule="evenodd" clip-rule="evenodd" d="M6.66634 0.832031C7.12658 0.832031 7.49967 1.20513 7.49967 1.66536V4.16536C7.49967 4.6256 7.12658 4.9987 6.66634 4.9987C6.2061 4.9987 5.83301 4.6256 5.83301 4.16536V1.66536C5.83301 1.20513 6.2061 0.832031 6.66634 0.832031Z" fill="#A9A9A9"/>
<path fill-rule="evenodd" clip-rule="evenodd" d="M13.3333 0.832031C13.7936 0.832031 14.1667 1.20513 14.1667 1.66536V4.16536C14.1667 4.6256 13.7936 4.9987 13.3333 4.9987C12.8731 4.9987 12.5 4.6256 12.5 4.16536V1.66536C12.5 1.20513 12.8731 0.832031 13.3333 0.832031Z" fill="#A9A9A9"/>
<path fill-rule="evenodd" clip-rule="evenodd" d="M2.08301 7.57552C2.08301 7.11528 2.4561 6.74219 2.91634 6.74219H17.083C17.5432 6.74219 17.9163 7.11528 17.9163 7.57552C17.9163 8.03576 17.5432 8.40885 17.083 8.40885H2.91634C2.4561 8.40885 2.08301 8.03576 2.08301 7.57552Z" fill="#A9A9A9"/>
<path fill-rule="evenodd" clip-rule="evenodd" d="M4.10057 4.62824C3.61434 5.15187 3.33366 5.95978 3.33366 7.08203V14.1654C3.33366 15.2876 3.61434 16.0955 4.10057 16.6192C4.57642 17.1316 5.36749 17.4987 6.66699 17.4987H13.3337C14.6332 17.4987 15.4242 17.1316 15.9001 16.6192C16.3863 16.0955 16.667 15.2876 16.667 14.1654V7.08203C16.667 5.95978 16.3863 5.15187 15.9001 4.62824C15.4242 4.11579 14.6332 3.7487 13.3337 3.7487H6.66699C5.36749 3.7487 4.57642 4.11579 4.10057 4.62824ZM2.87925 3.49416C3.75757 2.54827 5.04983 2.08203 6.66699 2.08203H13.3337C14.9508 2.08203 16.2431 2.54827 17.1214 3.49416C17.9893 4.42886 18.3337 5.70429 18.3337 7.08203V14.1654C18.3337 15.5431 17.9893 16.8185 17.1214 17.7532C16.2431 18.6991 14.9508 19.1654 13.3337 19.1654H6.66699C5.04983 19.1654 3.75757 18.6991 2.87925 17.7532C2.01131 16.8185 1.66699 15.5431 1.66699 14.1654V7.08203C1.66699 5.70429 2.01131 4.42886 2.87925 3.49416Z" fill="#A9A9A9"/>
<path fill-rule="evenodd" clip-rule="evenodd" d="M12.2451 11.4154C12.2451 10.9551 12.6182 10.582 13.0785 10.582H13.0859C13.5462 10.582 13.9193 10.9551 13.9193 11.4154C13.9193 11.8756 13.5462 12.2487 13.0859 12.2487H13.0785C12.6182 12.2487 12.2451 11.8756 12.2451 11.4154Z" fill="#A9A9A9"/>
<path fill-rule="evenodd" clip-rule="evenodd" d="M12.2451 13.9154C12.2451 13.4551 12.6182 13.082 13.0785 13.082H13.0859C13.5462 13.082 13.9193 13.4551 13.9193 13.9154C13.9193 14.3756 13.5462 14.7487 13.0859 14.7487H13.0785C12.6182 14.7487 12.2451 14.3756 12.2451 13.9154Z" fill="#A9A9A9"/>
<path fill-rule="evenodd" clip-rule="evenodd" d="M9.16309 11.4154C9.16309 10.9551 9.53618 10.582 9.99642 10.582H10.0039C10.4641 10.582 10.8372 10.9551 10.8372 11.4154C10.8372 11.8756 10.4641 12.2487 10.0039 12.2487H9.99642C9.53618 12.2487 9.16309 11.8756 9.16309 11.4154Z" fill="#A9A9A9"/>
<path fill-rule="evenodd" clip-rule="evenodd" d="M9.16309 13.9154C9.16309 13.4551 9.53618 13.082 9.99642 13.082H10.0039C10.4641 13.082 10.8372 13.4551 10.8372 13.9154C10.8372 14.3756 10.4641 14.7487 10.0039 14.7487H9.99642C9.53618 14.7487 9.16309 14.3756 9.16309 13.9154Z" fill="#A9A9A9"/>
<path fill-rule="evenodd" clip-rule="evenodd" d="M6.07812 11.4154C6.07812 10.9551 6.45122 10.582 6.91146 10.582H6.91894C7.37918 10.582 7.75228 10.9551 7.75228 11.4154C7.75228 11.8756 7.37918 12.2487 6.91894 12.2487H6.91146C6.45122 12.2487 6.07812 11.8756 6.07812 11.4154Z" fill="#A9A9A9"/>
<path fill-rule="evenodd" clip-rule="evenodd" d="M6.07812 13.9154C6.07812 13.4551 6.45122 13.082 6.91146 13.082H6.91894C7.37918 13.082 7.75228 13.4551 7.75228 13.9154C7.75228 14.3756 7.37918 14.7487 6.91894 14.7487H6.91146C6.45122 14.7487 6.07812 14.3756 6.07812 13.9154Z" fill="#A9A9A9"/>
</svg>
