<svg width="28" height="28" viewBox="0 0 28 28" fill="none" xmlns="http://www.w3.org/2000/svg">
<rect width="28" height="28" rx="2" fill="#FF5630"/>
<path d="M20.8349 21.2922C13.0583 21.3031 7.15587 15.3305 7.16407 7.62134C7.16407 7.11724 7.57246 6.70703 8.07564 6.70703H10.4822C10.9334 6.70703 11.3172 7.03884 11.3837 7.48551C11.5424 8.55666 11.854 9.59949 12.309 10.5821L12.4029 10.7845C12.4659 10.9207 12.4795 11.0746 12.4412 11.2197C12.403 11.3648 12.3152 11.492 12.1932 11.5794C11.4475 12.1117 11.1631 13.1828 11.7438 14.0178C12.4722 15.0661 13.3901 15.985 14.4384 16.7134C15.2743 17.2931 16.3454 17.0087 16.8769 16.2639C16.9641 16.1415 17.0914 16.0535 17.2368 16.015C17.3821 15.9766 17.5363 15.9902 17.6727 16.0534L17.8741 16.1464C18.8568 16.6021 19.8996 16.9139 20.9707 17.0725C21.4174 17.1391 21.7492 17.5228 21.7492 17.975V20.3806C21.7492 20.5004 21.7256 20.619 21.6797 20.7297C21.6339 20.8403 21.5666 20.9408 21.4819 21.0255C21.3972 21.1102 21.2966 21.1773 21.1859 21.223C21.0752 21.2688 20.9565 21.2923 20.8367 21.2922H20.8349Z" fill="white"/>
<path d="M20 5.5C18.067 5.5 16.5 7.067 16.5 9C16.5 10.933 18.067 12.5 20 12.5C21.933 12.5 23.5 10.933 23.5 9C23.5 8.07174 23.1313 7.1815 22.4749 6.52513C21.8185 5.86875 20.9283 5.5 20 5.5Z" fill="#FF5630" stroke="white"/>
<path fill-rule="evenodd" clip-rule="evenodd" d="M20.8998 9.3002H19.0998C18.9341 9.3002 18.7998 9.16588 18.7998 9.0002C18.7998 8.83451 18.9341 8.7002 19.0998 8.7002H20.8998C21.0655 8.7002 21.1998 8.83451 21.1998 9.0002C21.1998 9.16588 21.0655 9.3002 20.8998 9.3002Z" fill="white"/>
</svg>
