<svg width="20" height="20" viewBox="0 0 20 20" fill="none" xmlns="http://www.w3.org/2000/svg">
<path d="M1.8365 19.3346C11.7893 19.3486 19.3435 11.7046 19.333 1.83814C19.333 1.19297 18.8103 0.667969 18.1663 0.667969L15.0863 0.667969C14.5088 0.667969 14.0177 1.09264 13.9325 1.6643C13.7294 3.0352 13.3306 4.36986 12.7483 5.62747L12.6282 5.88647C12.5474 6.06076 12.5301 6.25775 12.5791 6.44347C12.6281 6.6292 12.7403 6.792 12.8965 6.9038C13.8508 7.58514 14.2148 8.95597 13.4717 10.0246C12.5395 11.3663 11.3647 12.5423 10.023 13.4745C8.95316 14.2165 7.58233 13.8525 6.90216 12.8993C6.79047 12.7427 6.62754 12.63 6.44155 12.5808C6.25556 12.5315 6.05821 12.5489 5.88366 12.6298L5.62583 12.7488C4.36816 13.3321 3.03349 13.7311 1.66266 13.9341C1.091 14.0193 0.666328 14.5105 0.666328 15.0891L0.666328 18.168C0.666328 18.3213 0.696543 18.4731 0.755247 18.6147C0.813951 18.7563 0.899992 18.885 1.00845 18.9933C1.11691 19.1017 1.24566 19.1876 1.38734 19.2462C1.52902 19.3047 1.68085 19.3348 1.83416 19.3346H1.8365Z" fill="#2AD181"/>
</svg>
