<svg width="50" height="50" viewBox="0 0 50 50" fill="none" xmlns="http://www.w3.org/2000/svg">
<path fill-rule="evenodd" clip-rule="evenodd" d="M23.5541 5.5L37.2523 5.8873C37.1757 5.99032 37.1043 6.09915 37.0388 6.21363L37.0382 6.21471L36.4158 7.30223C35.7175 8.49396 35.934 9.9184 36.7721 10.8679C35.9243 11.8197 35.7266 13.2516 36.4158 14.4282L37.0382 15.5158L37.0388 15.5169C37.7395 16.742 39.1163 17.3157 40.4141 17.0742C40.8525 18.3177 42.0377 19.2188 43.4405 19.2188H44.5592C45.5566 19.2188 46.4542 18.7593 47.0446 18.0372C47.214 22.493 47.0449 26.9584 46.5373 31.395C46.1934 34.4005 43.6922 36.6962 40.6682 36.7817L26.4952 37.1824V41.9706H35.3186C36.2932 41.9706 37.0833 42.7607 37.0833 43.7353C37.0833 44.7099 36.2932 45.5 35.3186 45.5H11.7896C10.815 45.5 10.025 44.7099 10.025 43.7353C10.025 42.7607 10.815 41.9706 11.7896 41.9706H20.613V37.1824L6.43997 36.7817C3.41598 36.6962 0.914806 34.4005 0.570918 31.395C-0.190306 24.7419 -0.190306 18.0237 0.570918 11.3706C0.914807 8.365 3.41598 6.06938 6.43997 5.98388L23.5541 5.5ZM46.5373 11.3706C46.2524 8.88118 44.4877 6.87882 42.1717 6.21589C41.9651 6.98848 41.2579 7.24172 40.4211 6.76202C39.8426 6.43148 39.1052 6.62853 38.7747 7.20699L38.1454 8.30669C37.8466 8.80887 38.0246 9.45725 38.5268 9.75602L38.6475 9.82594C39.6455 10.398 39.6455 11.3388 38.6475 11.9173L38.5268 11.9872C38.0246 12.2733 37.8466 12.9216 38.1454 13.4238L38.7747 14.5235C39.1052 15.102 39.8489 15.299 40.4274 14.9685C41.419 14.39 42.2327 14.8604 42.2327 16.011C42.2327 16.6721 42.773 17.2188 43.4405 17.2188H44.5592C45.2203 17.2188 45.767 16.6784 45.767 16.011C45.767 15.1563 46.216 14.6769 46.8561 14.724C46.7713 13.6048 46.665 12.4868 46.5373 11.3706ZM44.0618 10.8839C44.064 10.8786 44.0658 10.8724 44.0658 10.8621C44.0658 10.8517 44.064 10.8456 44.0618 10.8403C44.059 10.8336 44.0537 10.825 44.0453 10.8166C44.0369 10.8082 44.0283 10.803 44.0216 10.8001C44.0163 10.7979 44.0102 10.7962 43.9999 10.7962C43.9895 10.7962 43.9834 10.7979 43.9781 10.8001C43.9714 10.803 43.9628 10.8082 43.9544 10.8166C43.946 10.825 43.9408 10.8336 43.9379 10.8403C43.9357 10.8456 43.9339 10.8517 43.9339 10.8621C43.9339 10.8724 43.9357 10.8786 43.9379 10.8839C43.9408 10.8906 43.946 10.8991 43.9544 10.9075C43.9628 10.9159 43.9714 10.9212 43.9781 10.924C43.9834 10.9263 43.9895 10.928 43.9999 10.928C44.0102 10.928 44.0163 10.9263 44.0216 10.924C44.0283 10.9212 44.0369 10.9159 44.0453 10.9075C44.0537 10.8991 44.059 10.8906 44.0618 10.8839ZM43.9999 12.928C45.1377 12.928 46.0658 11.9999 46.0658 10.8621C46.0658 9.72423 45.1377 8.79616 43.9999 8.79616C42.862 8.79616 41.9339 9.72423 41.9339 10.8621C41.9339 11.9999 42.862 12.928 43.9999 12.928ZM16.6149 19.875C16.3999 19.875 16.2299 19.7 16.2299 19.49C16.2299 17.715 14.7849 16.275 13.0149 16.275C12.7999 16.275 12.6299 16.1 12.6299 15.89C12.6299 15.68 12.7999 15.5 13.0099 15.5C15.2099 15.5 16.9999 17.29 16.9999 19.49C16.9999 19.7 16.8249 19.875 16.6149 19.875ZM11.7516 24.6797C12.4173 25.2189 13.1831 25.4853 14.0594 25.5C14.9973 25.4864 15.8338 25.1654 16.534 24.5075C17.1415 23.9372 17.1554 23.0831 16.5717 22.4911C16.3843 22.3009 16.1962 22.1117 16.0076 21.9229C15.4336 21.3482 14.6303 21.3315 14.0348 21.8819C13.6465 22.2406 13.1109 22.2558 12.7123 21.9069C11.9689 21.2563 11.2632 20.5664 10.6025 19.8316C10.2669 19.4582 10.2788 18.9207 10.6107 18.5431C10.7184 18.4206 10.8176 18.2864 10.8978 18.1443C11.2029 17.6029 11.1462 17.0619 10.7342 16.6192C10.4877 16.3543 10.2301 16.0995 9.96797 15.85C9.7296 15.6228 9.44338 15.4895 9.10711 15.5007C8.68326 15.5147 8.32746 15.7 8.03817 15.9945C6.73107 17.3257 6.65205 19.3812 7.83623 20.8232C9.00548 22.247 10.3211 23.5214 11.7516 24.6797ZM14.425 19.4908C14.425 19.7008 14.595 19.8758 14.81 19.8758C15.025 19.8758 15.2 19.7008 15.2 19.4858C15.2 19.0758 14.925 18.5108 14.495 18.0558C14.035 17.5708 13.51 17.3008 13.01 17.3008C12.8 17.3008 12.625 17.4758 12.625 17.6858C12.625 17.8958 12.795 18.0708 13.01 18.0708C13.29 18.0708 13.625 18.2608 13.93 18.5858C14.24 18.9208 14.425 19.3058 14.425 19.4908ZM21.6 15.5C20.7163 15.5 20 16.2163 20 17.1C20 17.9837 20.7163 18.7 21.6 18.7H32.4C33.2837 18.7 34 17.9837 34 17.1C34 16.2163 33.2837 15.5 32.4 15.5H21.6ZM20 24.1C20 23.2163 20.7163 22.5 21.6 22.5H38.4C39.2837 22.5 40 23.2163 40 24.1C40 24.9837 39.2837 25.7 38.4 25.7H21.6C20.7163 25.7 20 24.9837 20 24.1Z" fill="url(#paint0_linear_15246_267969)"/>
<path d="M42.2328 5.71317C42.2328 6.86373 41.4192 7.33412 40.4212 6.76202C39.8427 6.43148 39.1054 6.62853 38.7748 7.20699L38.1455 8.30669C37.8467 8.80887 38.0247 9.45725 38.5269 9.75602L38.6477 9.82594C39.6457 10.398 39.6457 11.3388 38.6477 11.9173L38.5269 11.9872C38.0247 12.2733 37.8467 12.9216 38.1455 13.4238L38.7748 14.5235C39.1054 15.102 39.8491 15.299 40.4276 14.9685C41.4192 14.39 42.2328 14.8604 42.2328 16.011C42.2328 16.6721 42.7732 17.2188 43.4406 17.2188H44.5594C45.2205 17.2188 45.7672 16.6784 45.7672 16.011C45.7672 14.8604 46.5808 14.39 47.5788 14.9685C48.1573 15.299 48.8946 15.102 49.2252 14.5235L49.8545 13.4238C50.1533 12.9216 49.9753 12.2733 49.4731 11.9745L49.3523 11.9046C48.3543 11.3325 48.3543 10.3917 49.3523 9.81323L49.4731 9.7433C49.9753 9.44454 50.1533 8.79616 49.8545 8.29398L49.2252 7.19428C48.8946 6.61582 48.1509 6.41876 47.5788 6.74931C46.5808 7.32777 45.7672 6.85737 45.7672 5.70682C45.7672 5.04572 45.2268 4.49905 44.5594 4.49905H43.4406C42.7795 4.5054 42.2328 5.04572 42.2328 5.71317ZM46.0659 10.8621C46.0659 11.9999 45.1378 12.928 44 12.928C42.8622 12.928 41.9341 11.9999 41.9341 10.8621C41.9341 9.72423 42.8622 8.79616 44 8.79616C45.1378 8.79616 46.0659 9.72423 46.0659 10.8621Z" fill="url(#paint1_linear_15246_267969)"/>
<defs>
<linearGradient id="paint0_linear_15246_267969" x1="47.1082" y1="32.4368" x2="-15.5223" y2="26.0655" gradientUnits="userSpaceOnUse">
<stop stop-color="#EA05B7"/>
<stop offset="1" stop-color="#FFB775"/>
</linearGradient>
<linearGradient id="paint1_linear_15246_267969" x1="38" y1="17.2188" x2="50.6982" y2="5.23908" gradientUnits="userSpaceOnUse">
<stop stop-color="#F761A1"/>
<stop offset="1" stop-color="#8C1BAB"/>
</linearGradient>
</defs>
</svg>
