<svg width="28" height="28" viewBox="0 0 28 28" fill="none" xmlns="http://www.w3.org/2000/svg">
<rect width="28" height="28" rx="2" fill="#0BB865"/>
<path d="M20.8349 21.2922C13.0583 21.3031 7.15587 15.3305 7.16407 7.62134C7.16407 7.11724 7.57246 6.70703 8.07564 6.70703H10.4822C10.9334 6.70703 11.3172 7.03884 11.3837 7.48551C11.5424 8.55666 11.854 9.59949 12.309 10.5821L12.4029 10.7845C12.4659 10.9207 12.4795 11.0746 12.4412 11.2197C12.403 11.3648 12.3152 11.492 12.1932 11.5794C11.4475 12.1117 11.1631 13.1828 11.7438 14.0178C12.4722 15.0661 13.3901 15.985 14.4384 16.7133C15.2743 17.2931 16.3454 17.0087 16.8769 16.2639C16.9641 16.1415 17.0914 16.0535 17.2368 16.015C17.3821 15.9766 17.5363 15.9902 17.6727 16.0534L17.8741 16.1464C18.8568 16.6021 19.8996 16.9139 20.9707 17.0725C21.4174 17.1391 21.7492 17.5228 21.7492 17.975V20.3806C21.7492 20.5004 21.7256 20.619 21.6797 20.7297C21.6339 20.8403 21.5666 20.9408 21.4819 21.0255C21.3972 21.1102 21.2966 21.1773 21.1859 21.223C21.0752 21.2688 20.9565 21.2923 20.8367 21.2922H20.8349Z" fill="white"/>
<path d="M23.1998 8.9998C23.1998 10.7671 21.7671 12.1998 19.9998 12.1998C18.2325 12.1998 16.7998 10.7671 16.7998 8.9998C16.7998 7.23249 18.2325 5.7998 19.9998 5.7998C21.7671 5.7998 23.1998 7.23249 23.1998 8.9998Z" fill="#36B37E"/>
<path fill-rule="evenodd" clip-rule="evenodd" d="M24 9C24 11.2091 22.2091 13 20 13C17.7909 13 16 11.2091 16 9C16 6.79086 17.7909 5 20 5C22.2091 5 24 6.79086 24 9ZM20 12.2C21.7673 12.2 23.2 10.7673 23.2 9C23.2 7.23269 21.7673 5.8 20 5.8C18.2327 5.8 16.8 7.23269 16.8 9C16.8 10.7673 18.2327 12.2 20 12.2Z" fill="white"/>
</svg>
