<svg width="15" height="15" viewBox="0 0 15 15" fill="none" xmlns="http://www.w3.org/2000/svg">
<path d="M11.0706 14.5C10.9313 14.4996 10.7923 14.4843 10.6562 14.4544C8.06509 13.9184 5.67795 12.6616 3.76956 10.8287C1.9019 8.99183 0.606574 6.65305 0.040311 4.09536C-0.0264585 3.7766 -0.0100706 3.44602 0.0878981 3.13542C0.185867 2.82482 0.362119 2.54466 0.599699 2.3219L2.25714 0.726607C2.3418 0.646548 2.44239 0.58524 2.55234 0.546684C2.66229 0.508129 2.77914 0.493194 2.89526 0.502852C3.01566 0.515413 3.13184 0.554197 3.23564 0.616478C3.33945 0.678759 3.42834 0.763023 3.49608 0.863346L5.56789 3.92548C5.64558 4.04429 5.68309 4.18491 5.67488 4.32663C5.66668 4.46836 5.61319 4.60371 5.52231 4.71276L4.48226 5.95584C4.89648 6.8726 5.48309 7.70117 6.21015 8.39643C6.9325 9.11692 7.78631 9.69222 8.72532 10.0912L10.014 9.0677C10.1222 8.98216 10.2539 8.93159 10.3916 8.92271C10.5293 8.91382 10.6664 8.94705 10.7847 9.01797L13.9131 11.0401C14.0205 11.1042 14.1119 11.1917 14.1807 11.2962C14.2494 11.4007 14.2935 11.5193 14.3099 11.6433C14.3262 11.7672 14.3143 11.8933 14.275 12.012C14.2357 12.1307 14.1701 12.239 14.083 12.3287L12.467 13.9282C12.2834 14.1108 12.0656 14.2554 11.8259 14.3535C11.5863 14.4516 11.3296 14.5014 11.0706 14.5Z" fill="url(#paint0_linear_6109_214758)"/>
<defs>
<linearGradient id="paint0_linear_6109_214758" x1="14.317" y1="0.5" x2="4.48239" y2="12.2625" gradientUnits="userSpaceOnUse">
<stop stop-color="#9BF763"/>
<stop offset="1" stop-color="#26AB5B"/>
</linearGradient>
</defs>
</svg>
