<svg width="33" height="32" viewBox="0 0 33 32" fill="none" xmlns="http://www.w3.org/2000/svg">
<path d="M10.1266 20.2087C10.2254 20.0576 10.882 19.738 10.882 19.738C11.1435 19.6102 13.067 18.6688 13.4273 18.5351C13.7353 18.4247 14.0898 18.2969 14.4035 18.7676C14.6418 19.1221 15.3391 19.9356 15.5716 20.1913C15.7285 20.3714 15.8796 20.4296 16.234 20.2552C16.2922 20.2262 18.0064 19.494 19.1861 18.448C20.2321 17.524 20.9585 16.3792 21.2258 15.9318C21.3885 15.6586 21.2839 15.5308 21.0805 15.3274C20.9585 15.2054 20.4122 14.5487 20.3715 14.4906C20.2844 14.357 20.1333 14.0432 20.1333 14.0432C19.9764 13.7352 20.0752 13.4679 20.1623 13.2877C20.2263 13.1657 21.2083 10.7889 21.3071 10.5681C21.5861 9.89984 21.8882 9.86498 22.173 9.8766C22.3125 9.88822 23.62 9.89403 24.0325 10.3473L24.1081 10.4228C24.5149 10.8529 25.3633 11.7536 25.3633 13.4911C25.3633 13.8921 25.2994 14.3105 25.1657 14.7754C24.9216 15.6122 24.4509 16.5303 23.8233 17.3671C23.8117 17.3845 22.8529 18.7095 22.3764 19.2615C20.8655 20.999 19.1628 22.2833 17.4428 22.9574C15.2462 23.8174 14.3048 24.015 13.7701 24.015C13.5377 24.015 13.0438 23.8988 12.9392 23.8872C12.2651 23.829 10.6728 22.9981 10.3358 22.0625C10.0162 21.1792 10.0104 20.4063 10.1266 20.2087Z" fill="white"/>
<path fill-rule="evenodd" clip-rule="evenodd" d="M5.68477 13.375H16.1446C16.1696 13.2489 16.1826 13.1185 16.1826 12.9851V12.6975C16.1826 12.1452 15.7349 11.6975 15.1826 11.6975H10.9624V9.98545C10.9619 9.88715 10.7807 9.83784 10.6748 9.90741L5.86469 13.0538C5.73012 13.1418 5.67014 13.26 5.68477 13.375Z" fill="white"/>
<path fill-rule="evenodd" clip-rule="evenodd" d="M5.68477 13.375H16.1446C16.1696 13.5011 16.1826 13.6315 16.1826 13.7649V14.0525C16.1826 14.6048 15.7349 15.0525 15.1826 15.0525H10.9624V16.7645C10.9619 16.8629 10.7807 16.9122 10.6748 16.8426L5.86469 13.6962C5.73012 13.6082 5.67014 13.49 5.68477 13.375Z" fill="white"/>
<path d="M20.6795 7.41258L17.806 3.58625C17.6609 3.39313 17.4261 3.39313 17.2811 3.58625L14.4076 7.41258C14.3443 7.49682 14.389 7.64138 14.4786 7.64138H16.0421V10.994C16.0421 11.4358 16.4003 11.794 16.8421 11.794H18.2447C18.6865 11.794 19.0447 11.4358 19.0447 10.994V7.64138H20.6082C20.698 7.64101 20.743 7.49682 20.6795 7.41258Z" fill="#84D335"/>
<path fill-rule="evenodd" clip-rule="evenodd" d="M17.5127 11.794H18.2448C18.6866 11.794 19.0448 11.4358 19.0448 10.994V7.64138H20.6083C20.6981 7.64101 20.7431 7.49682 20.6796 7.41258L17.8061 3.58625C17.7257 3.47919 17.6177 3.43148 17.5127 3.44312V11.794Z" fill="#68B91C"/>
<path d="M31.4758 21.3702L30.9953 23.7224C30.8364 24.4985 30.4006 25.1903 29.7692 25.6688C29.1378 26.1472 28.3539 26.3796 27.5637 26.3227L23.6445 26.041C22.9645 25.9922 22.3169 25.7317 21.7925 25.296C21.2682 24.8604 20.8934 24.2714 20.7209 23.6119L19.8728 20.3684C19.754 19.931 18.5651 19.5733 16.1631 19.6429C13.7595 19.713 12.5938 20.1402 12.5034 20.5781L11.8437 23.873C11.71 24.5409 11.3707 25.1502 10.8733 25.6156C10.3759 26.081 9.74537 26.379 9.07005 26.468L5.18921 26.978C4.40549 27.0811 3.61099 26.8962 2.95331 26.4577C2.29562 26.0192 1.81947 25.3568 1.6133 24.5937L0.977305 22.2397C0.772014 21.4798 0.771969 20.679 0.97718 19.9191C1.18239 19.1591 1.58551 18.4672 2.14541 17.9139C4.90501 15.1874 9.5015 13.7622 15.9151 13.5752C22.3393 13.3859 27.0476 14.5446 30.0223 17.109C30.6216 17.6258 31.0722 18.2932 31.3277 19.0422C31.5832 19.7912 31.6343 20.5949 31.4758 21.3702Z" fill="url(#paint0_linear_7194_324050)"/>
<defs>
<linearGradient id="paint0_linear_7194_324050" x1="16.4501" y1="27.3164" x2="15.3652" y2="13.4389" gradientUnits="userSpaceOnUse">
<stop stop-color="#FF9988"/>
<stop offset="1" stop-color="#FF417A"/>
</linearGradient>
</defs>
</svg>
