<svg width="33" height="32" viewBox="0 0 33 32" fill="none" xmlns="http://www.w3.org/2000/svg">
<path d="M31.3688 15.3096L30.8917 17.6454C30.7339 18.4161 30.3011 19.1031 29.6741 19.5782C29.0471 20.0533 28.2686 20.2841 27.484 20.2276L23.5921 19.9478C22.9169 19.8994 22.2738 19.6407 21.753 19.2081C21.2323 18.7755 20.8602 18.1906 20.6889 17.5357L19.8466 14.3148C19.7287 13.8804 18.548 13.5252 16.1628 13.5944C13.776 13.664 12.6184 14.0882 12.5286 14.523L11.8735 17.795C11.7408 18.4582 11.4038 19.0633 10.9099 19.5254C10.416 19.9876 9.78981 20.2835 9.1192 20.3719L5.26539 20.8783C4.48714 20.9807 3.69817 20.7971 3.04507 20.3617C2.39197 19.9262 1.91914 19.2685 1.71441 18.5107L1.08284 16.173C0.878977 15.4184 0.878933 14.6232 1.08271 13.8686C1.28649 13.1139 1.68681 12.4269 2.24281 11.8774C4.98318 9.16985 9.54765 7.75463 15.9165 7.56896C22.296 7.38097 26.9715 8.53151 29.9255 11.078C30.5206 11.5913 30.9681 12.254 31.2218 12.9978C31.4755 13.7416 31.5263 14.5397 31.3688 15.3096Z" fill="url(#paint0_linear_7194_324051)"/>
<path d="M19.6817 24.7687L16.8913 28.4844C16.7505 28.6719 16.5225 28.6719 16.3816 28.4844L13.5913 24.7687C13.5298 24.6869 13.5733 24.5466 13.6602 24.5466H15.1785V21.3141C15.1785 20.8723 15.5367 20.5141 15.9785 20.5141H17.2942C17.736 20.5141 18.0942 20.8723 18.0942 21.3141V24.5466H19.6125C19.6997 24.5469 19.7434 24.6869 19.6817 24.7687Z" fill="#FF7042"/>
<path fill-rule="evenodd" clip-rule="evenodd" d="M16.6064 20.5141H17.2942C17.736 20.5141 18.0942 20.8723 18.0942 21.3141V24.5466H19.6125C19.6997 24.5469 19.7434 24.6869 19.6817 24.7687L16.8913 28.4844C16.8132 28.5883 16.7084 28.6346 16.6064 28.6233V20.5141Z" fill="#F2501E"/>
<defs>
<linearGradient id="paint0_linear_7194_324051" x1="16.4478" y1="21.2144" x2="15.3705" y2="7.43352" gradientUnits="userSpaceOnUse">
<stop stop-color="#FF9988"/>
<stop offset="1" stop-color="#FF417A"/>
</linearGradient>
</defs>
</svg>
