<svg width="40" height="41" viewBox="0 0 40 41" fill="none" xmlns="http://www.w3.org/2000/svg">
<path d="M20 40.5002C31.0457 40.5002 40 31.5459 40 20.5001C40 9.45435 31.0457 0.5 20 0.5C8.9543 0.5 0 9.45435 0 20.5001C0 31.5459 8.9543 40.5002 20 40.5002Z" fill="url(#paint0_linear_5464_189517)"/>
<path d="M11.3485 24.0126C11.4896 23.7967 12.4277 23.3401 12.4277 23.3401C12.8013 23.1575 15.5491 21.8126 16.0638 21.6217C16.5038 21.464 17.0102 21.2813 17.4585 21.9538C17.7988 22.4602 18.795 23.6224 19.1271 23.9876C19.3512 24.245 19.5671 24.328 20.0735 24.079C20.1565 24.0375 22.6055 22.9915 24.2907 21.4972C25.785 20.1772 26.8226 18.5418 27.2045 17.9026C27.437 17.5124 27.2875 17.3298 26.997 17.0392C26.8226 16.8649 26.0423 15.9268 25.9842 15.8438C25.8597 15.6528 25.6438 15.2045 25.6438 15.2045C25.4197 14.7646 25.5608 14.3827 25.6853 14.1253C25.7766 13.951 27.1796 10.5556 27.3207 10.2402C27.7192 9.28549 28.1509 9.23568 28.5577 9.25228C28.7569 9.26889 30.6248 9.27719 31.2142 9.92472L31.3221 10.0326C31.9032 10.647 33.1152 11.9337 33.1152 14.4159C33.1152 14.9887 33.0239 15.5864 32.833 16.2505C32.4843 17.446 31.8119 18.7576 30.9153 19.9531C30.8987 19.978 29.529 21.8707 28.8482 22.6594C26.6898 25.1416 24.2575 26.9762 21.8002 27.9392C18.6622 29.1679 17.3173 29.4501 16.5536 29.4501C16.2215 29.4501 15.5159 29.2841 15.3665 29.2675C14.4035 29.1845 12.1289 27.9973 11.6474 26.6608C11.1908 25.3989 11.1825 24.2948 11.3485 24.0126Z" fill="white"/>
<path fill-rule="evenodd" clip-rule="evenodd" d="M20 14.25V12.8535C20 12.3012 19.5523 11.8535 19 11.8535H12.5425V9.40776C12.5419 9.26732 12.2829 9.19689 12.1316 9.29627L5.26011 13.7911C5.06786 13.9169 4.98218 14.0858 5.00307 14.25L20 14.25Z" fill="white"/>
<path fill-rule="evenodd" clip-rule="evenodd" d="M20 14.2461V15.6426C20 16.1949 19.5523 16.6426 19 16.6426H12.5425V19.0883C12.5419 19.2288 12.2829 19.2992 12.1316 19.1998L5.26011 14.705C5.06786 14.5792 4.98218 14.4103 5.00307 14.2461L20 14.2461Z" fill="white"/>
<ellipse cx="13.9289" cy="34.4269" rx="1.07143" ry="1.07143" fill="white"/>
<ellipse cx="19.6427" cy="34.4269" rx="1.07143" ry="1.07143" fill="white"/>
<ellipse cx="25.3576" cy="34.4269" rx="1.07143" ry="1.07143" fill="white"/>
<defs>
<linearGradient id="paint0_linear_5464_189517" x1="20" y1="0.5" x2="20" y2="30.1298" gradientUnits="userSpaceOnUse">
<stop stop-color="#9DE2D7"/>
<stop offset="1" stop-color="#30AB9A"/>
</linearGradient>
</defs>
</svg>
