<svg width="34" height="34" viewBox="0 0 34 34" fill="none" xmlns="http://www.w3.org/2000/svg">
<path d="M32.6334 28.3817C33.509 19.9656 33.509 11.4814 32.6334 3.06537C32.3595 0.432951 29.3243 -0.900503 27.2002 0.678415L19.0921 6.70552C16.5363 8.60541 13.4363 9.63137 10.2516 9.63137H2.68579C1.59457 9.63137 0.709961 10.516 0.709961 11.6072V19.8398C0.709961 20.9311 1.59457 21.8157 2.68579 21.8157L10.2516 21.8157C13.4363 21.8157 16.5363 22.8416 19.0921 24.7415L27.2002 30.7686C29.3243 32.3476 32.3595 31.0141 32.6334 28.3817Z" fill="url(#paint0_linear_9509_80284)"/>
<path d="M11.406 26.1994C11.5195 25.7559 11.4216 25.2848 11.1409 24.9232C10.8602 24.5616 10.4282 24.3501 9.97038 24.3501L6.01872 24.35C5.45742 24.35 4.9443 24.6672 4.69328 25.1692L2.71744 29.1209C2.38002 29.7957 2.60352 30.6163 3.23654 31.0269L7.45291 33.7614C7.85323 34.021 8.35407 34.072 8.7985 33.8984C9.24292 33.7248 9.57655 33.3478 9.69485 32.8855L11.406 26.1994Z" fill="url(#paint1_linear_9509_80284)"/>
<defs>
<linearGradient id="paint0_linear_9509_80284" x1="17" y1="0" x2="17" y2="34" gradientUnits="userSpaceOnUse">
<stop stop-color="#5BCBFB"/>
<stop offset="1" stop-color="#4582FB"/>
</linearGradient>
<linearGradient id="paint1_linear_9509_80284" x1="17" y1="0" x2="17" y2="34" gradientUnits="userSpaceOnUse">
<stop stop-color="#5BCBFB"/>
<stop offset="1" stop-color="#4582FB"/>
</linearGradient>
</defs>
</svg>
