<svg width="20" height="20" viewBox="0 0 20 20" fill="none" xmlns="http://www.w3.org/2000/svg">
<path d="M5.89355 2.85714H18.9293C19.0272 2.85714 19.1073 2.93725 19.1073 3.03516V4.28516C19.1073 4.38306 19.0272 4.46317 18.9293 4.46317H5.89355C5.79565 4.46317 5.71554 4.38306 5.71554 4.28516V3.03516C5.71554 2.93725 5.79565 2.85714 5.89355 2.85714ZM5.89355 9.19643H18.9293C19.0272 9.19643 19.1073 9.27654 19.1073 9.37444V10.6244C19.1073 10.7223 19.0272 10.8025 18.9293 10.8025H5.89355C5.79565 10.8025 5.71554 10.7223 5.71554 10.6244V9.37444C5.71554 9.27654 5.79565 9.19643 5.89355 9.19643ZM5.89355 15.5357H18.9293C19.0272 15.5357 19.1073 15.6158 19.1073 15.7137V16.9637C19.1073 17.0616 19.0272 17.1417 18.9293 17.1417H5.89355C5.79565 17.1417 5.71554 17.0616 5.71554 16.9637V15.7137C5.71554 15.6158 5.79565 15.5357 5.89355 15.5357ZM0.989221 4.1383C0.926431 3.98671 0.894113 3.82424 0.894113 3.66016C0.894113 3.49608 0.926431 3.3336 0.989221 3.18202C1.05201 3.03043 1.14404 2.89269 1.26007 2.77667C1.37609 2.66065 1.51382 2.56861 1.66541 2.50582C1.817 2.44303 1.97948 2.41071 2.14355 2.41071C2.30763 2.41071 2.47011 2.44303 2.6217 2.50582C2.77328 2.56861 2.91102 2.66065 3.02704 2.77667C3.14306 2.89269 3.2351 3.03043 3.29789 3.18202C3.36068 3.3336 3.393 3.49608 3.393 3.66016C3.393 3.82424 3.36068 3.98671 3.29789 4.1383C3.2351 4.28989 3.14306 4.42762 3.02704 4.54365C2.91102 4.65967 2.77328 4.7517 2.6217 4.81449C2.47011 4.87728 2.30763 4.9096 2.14355 4.9096C1.97948 4.9096 1.817 4.87728 1.66541 4.81449C1.51382 4.7517 1.37609 4.65967 1.26007 4.54365C1.14404 4.42762 1.05201 4.28989 0.989221 4.1383ZM0.989221 10.4776C0.926431 10.326 0.894113 10.1635 0.894113 9.99944C0.894113 9.83536 0.926431 9.67289 0.989221 9.5213C1.05201 9.36971 1.14404 9.23197 1.26007 9.11595C1.37609 8.99993 1.51382 8.9079 1.66541 8.84511C1.817 8.78232 1.97948 8.75 2.14355 8.75C2.30763 8.75 2.47011 8.78232 2.6217 8.84511C2.77328 8.9079 2.91102 8.99993 3.02704 9.11595C3.14306 9.23197 3.2351 9.36971 3.29789 9.5213C3.36068 9.67289 3.393 9.83536 3.393 9.99944C3.393 10.1635 3.36068 10.326 3.29789 10.4776C3.2351 10.6292 3.14306 10.7669 3.02704 10.8829C2.91102 10.999 2.77328 11.091 2.6217 11.1538C2.47011 11.2166 2.30763 11.2489 2.14355 11.2489C1.97948 11.2489 1.817 11.2166 1.66541 11.1538C1.51382 11.091 1.37609 10.999 1.26007 10.8829C1.14404 10.7669 1.05201 10.6292 0.989221 10.4776ZM0.989221 16.8169C0.926431 16.6653 0.894113 16.5028 0.894113 16.3387C0.894113 16.1746 0.926431 16.0122 0.989221 15.8606C1.05201 15.709 1.14404 15.5713 1.26007 15.4552C1.37609 15.3392 1.51382 15.2472 1.66541 15.1844C1.817 15.1216 1.97948 15.0893 2.14355 15.0893C2.30763 15.0893 2.47011 15.1216 2.6217 15.1844C2.77328 15.2472 2.91102 15.3392 3.02704 15.4552C3.14306 15.5713 3.2351 15.709 3.29789 15.8606C3.36068 16.0122 3.393 16.1746 3.393 16.3387C3.393 16.5028 3.36068 16.6653 3.29789 16.8169C3.2351 16.9685 3.14306 17.1062 3.02704 17.2222C2.91102 17.3382 2.77328 17.4303 2.6217 17.4931C2.47011 17.5559 2.30763 17.5882 2.14355 17.5882C1.97948 17.5882 1.817 17.5559 1.66541 17.4931C1.51382 17.4303 1.37609 17.3382 1.26007 17.2222C1.14404 17.1062 1.05201 16.9685 0.989221 16.8169Z" fill="#A9A9A9" stroke="#A9A9A9" stroke-width="0.00111607"/>
</svg>
