<svg width="40" height="41" viewBox="0 0 40 41" fill="none" xmlns="http://www.w3.org/2000/svg">
<rect y="0.5" width="40" height="40.0002" rx="6" fill="#D80808"/>
<path d="M17.7163 20.8814L7.37009 11.9492C6.94575 12.3541 6.67871 12.9298 6.67871 13.5708V27.4999C6.67871 28.1728 6.97228 28.7742 7.43418 29.1811L18.4332 21.3602C18.1811 21.2318 17.9396 21.0741 17.7163 20.8814Z" fill="white"/>
<path d="M33.392 27.4999V13.5708C33.392 12.9298 33.1249 12.3541 32.7006 11.9492L22.3544 20.8814C22.1311 21.0742 21.8896 21.2318 21.6377 21.3602L32.6367 29.1811C33.0984 28.7742 33.392 28.1726 33.392 27.4999Z" fill="white"/>
<path d="M20.3244 19.8113L20.0346 19.6052L19.7449 19.8113L18.1428 20.9505L7.14385 28.7713L6.6296 29.137L7.10312 29.554C7.56819 29.9636 8.17628 30.216 8.84443 30.216H31.2247C31.8928 30.216 32.5009 29.9636 32.966 29.554L33.4395 29.137L32.9253 28.7713L21.9265 20.9505L20.3244 19.8113Z" fill="white" stroke="#D80808"/>
<path d="M33.0268 12.3269L33.4437 11.967L33.0452 11.5867C32.5713 11.1344 31.9323 10.8516 31.2251 10.8516H8.84504C8.1379 10.8516 7.49873 11.1343 7.02485 11.5868L6.62655 11.967L7.04337 12.3269L17.3896 21.259C17.3896 21.2591 17.3896 21.2591 17.3896 21.2591C18.9168 22.5776 21.1534 22.5776 22.6806 21.2591C22.6806 21.2591 22.6806 21.2591 22.6806 21.259L33.0268 12.3269Z" fill="white" stroke="#D80808"/>
</svg>
