<svg width="20" height="20" viewBox="0 0 20 20" fill="none" xmlns="http://www.w3.org/2000/svg">
<path fill-rule="evenodd" clip-rule="evenodd" d="M6.66683 0.832031C7.12707 0.832031 7.50016 1.20513 7.50016 1.66536V4.16536C7.50016 4.6256 7.12707 4.9987 6.66683 4.9987C6.20659 4.9987 5.8335 4.6256 5.8335 4.16536V1.66536C5.8335 1.20513 6.20659 0.832031 6.66683 0.832031Z" fill="#A9A9A9"/>
<path fill-rule="evenodd" clip-rule="evenodd" d="M13.3333 0.832031C13.7936 0.832031 14.1667 1.20513 14.1667 1.66536V4.16536C14.1667 4.6256 13.7936 4.9987 13.3333 4.9987C12.8731 4.9987 12.5 4.6256 12.5 4.16536V1.66536C12.5 1.20513 12.8731 0.832031 13.3333 0.832031Z" fill="#A9A9A9"/>
<path fill-rule="evenodd" clip-rule="evenodd" d="M2.0835 7.57552C2.0835 7.11528 2.45659 6.74219 2.91683 6.74219H17.0835C17.5437 6.74219 17.9168 7.11528 17.9168 7.57552C17.9168 8.03576 17.5437 8.40885 17.0835 8.40885H2.91683C2.45659 8.40885 2.0835 8.03576 2.0835 7.57552Z" fill="#A9A9A9"/>
<path fill-rule="evenodd" clip-rule="evenodd" d="M4.10008 4.62824C3.61386 5.15187 3.33317 5.95978 3.33317 7.08203V14.1654C3.33317 15.2876 3.61386 16.0955 4.10008 16.6192C4.57593 17.1316 5.367 17.4987 6.6665 17.4987H13.3332C14.6327 17.4987 15.4237 17.1316 15.8996 16.6192C16.3858 16.0955 16.6665 15.2876 16.6665 14.1654V7.08203C16.6665 5.95978 16.3858 5.15187 15.8996 4.62824C15.4237 4.11579 14.6327 3.7487 13.3332 3.7487H6.6665C5.367 3.7487 4.57593 4.11579 4.10008 4.62824ZM2.87876 3.49416C3.75708 2.54827 5.04934 2.08203 6.6665 2.08203H13.3332C14.9503 2.08203 16.2426 2.54827 17.1209 3.49416C17.9889 4.42886 18.3332 5.70429 18.3332 7.08203V14.1654C18.3332 15.5431 17.9889 16.8185 17.1209 17.7532C16.2426 18.6991 14.9503 19.1654 13.3332 19.1654H6.6665C5.04934 19.1654 3.75708 18.6991 2.87876 17.7532C2.01082 16.8185 1.6665 15.5431 1.6665 14.1654V7.08203C1.6665 5.70429 2.01082 4.42886 2.87876 3.49416Z" fill="#A9A9A9"/>
<path fill-rule="evenodd" clip-rule="evenodd" d="M12.2456 11.4154C12.2456 10.9551 12.6187 10.582 13.0789 10.582H13.0864C13.5467 10.582 13.9198 10.9551 13.9198 11.4154C13.9198 11.8756 13.5467 12.2487 13.0864 12.2487H13.0789C12.6187 12.2487 12.2456 11.8756 12.2456 11.4154Z" fill="#A9A9A9"/>
<path fill-rule="evenodd" clip-rule="evenodd" d="M12.2456 13.9154C12.2456 13.4551 12.6187 13.082 13.0789 13.082H13.0864C13.5467 13.082 13.9198 13.4551 13.9198 13.9154C13.9198 14.3756 13.5467 14.7487 13.0864 14.7487H13.0789C12.6187 14.7487 12.2456 14.3756 12.2456 13.9154Z" fill="#A9A9A9"/>
<path fill-rule="evenodd" clip-rule="evenodd" d="M9.16309 11.4154C9.16309 10.9551 9.53618 10.582 9.99642 10.582H10.0039C10.4641 10.582 10.8372 10.9551 10.8372 11.4154C10.8372 11.8756 10.4641 12.2487 10.0039 12.2487H9.99642C9.53618 12.2487 9.16309 11.8756 9.16309 11.4154Z" fill="#A9A9A9"/>
<path fill-rule="evenodd" clip-rule="evenodd" d="M9.16309 13.9154C9.16309 13.4551 9.53618 13.082 9.99642 13.082H10.0039C10.4641 13.082 10.8372 13.4551 10.8372 13.9154C10.8372 14.3756 10.4641 14.7487 10.0039 14.7487H9.99642C9.53618 14.7487 9.16309 14.3756 9.16309 13.9154Z" fill="#A9A9A9"/>
<path fill-rule="evenodd" clip-rule="evenodd" d="M6.07861 11.4154C6.07861 10.9551 6.45171 10.582 6.91195 10.582H6.91943C7.37967 10.582 7.75277 10.9551 7.75277 11.4154C7.75277 11.8756 7.37967 12.2487 6.91943 12.2487H6.91195C6.45171 12.2487 6.07861 11.8756 6.07861 11.4154Z" fill="#A9A9A9"/>
<path fill-rule="evenodd" clip-rule="evenodd" d="M6.07861 13.9154C6.07861 13.4551 6.45171 13.082 6.91195 13.082H6.91943C7.37967 13.082 7.75277 13.4551 7.75277 13.9154C7.75277 14.3756 7.37967 14.7487 6.91943 14.7487H6.91195C6.45171 14.7487 6.07861 14.3756 6.07861 13.9154Z" fill="#A9A9A9"/>
</svg>
