<svg width="16" height="16" viewBox="0 0 16 16" fill="none" xmlns="http://www.w3.org/2000/svg">
<path d="M12.4998 4.40078C12.4998 4.63948 12.405 4.86839 12.2362 5.03718C12.0674 5.20596 11.8385 5.30078 11.5998 5.30078C11.3611 5.30078 11.1322 5.20596 10.9634 5.03718C10.7946 4.86839 10.6998 4.63948 10.6998 4.40078C10.6998 4.16209 10.7946 3.93317 10.9634 3.76439C11.1322 3.5956 11.3611 3.50078 11.5998 3.50078C11.8385 3.50078 12.0674 3.5956 12.2362 3.76439C12.405 3.93317 12.4998 4.16209 12.4998 4.40078ZM10.2498 0.800781C7.4814 0.800781 5.2998 2.98238 5.2998 5.75078C5.2998 6.10808 5.3358 6.46718 5.40961 6.80828C5.4618 7.05128 5.4024 7.26188 5.28181 7.38248L1.1958 11.4685C1.07019 11.5939 0.970562 11.7429 0.902611 11.9069C0.83466 12.071 0.799724 12.2468 0.799805 12.4243V13.8508C0.799805 14.2088 0.942037 14.5522 1.19521 14.8054C1.44838 15.0585 1.79176 15.2008 2.1498 15.2008H3.94981C4.30785 15.2008 4.65123 15.0585 4.9044 14.8054C5.15757 14.5522 5.2998 14.2088 5.2998 13.8508V13.4008H6.1998C6.4385 13.4008 6.66742 13.306 6.8362 13.1372C7.00498 12.9684 7.0998 12.7395 7.0998 12.5008V11.6008H7.9998C8.2385 11.6008 8.46742 11.506 8.6362 11.3372C8.80498 11.1684 8.89981 10.9395 8.89981 10.7008V10.5388C9.3435 10.6594 9.8061 10.7008 10.2498 10.7008C13.0182 10.7008 15.1998 8.51918 15.1998 5.75078C15.1998 2.98238 13.0182 0.800781 10.2498 0.800781ZM6.1998 5.75078C6.1998 3.47918 7.97821 1.70078 10.2498 1.70078C12.5214 1.70078 14.2998 3.47918 14.2998 5.75078C14.2998 8.02238 12.5214 9.80078 10.2498 9.80078C9.6558 9.80078 9.1041 9.71528 8.6514 9.48848C8.5828 9.4541 8.50654 9.43784 8.42988 9.44124C8.35322 9.44464 8.2787 9.46758 8.2134 9.5079C8.14811 9.54821 8.0942 9.60455 8.05682 9.67157C8.01943 9.73858 7.99981 9.81404 7.9998 9.89078V10.7008H7.0998C6.86111 10.7008 6.63219 10.7956 6.46341 10.9644C6.29463 11.1332 6.1998 11.3621 6.1998 11.6008V12.5008H5.2998C5.06111 12.5008 4.83219 12.5956 4.66341 12.7644C4.49463 12.9332 4.3998 13.1621 4.3998 13.4008V13.8508C4.3998 13.9701 4.35239 14.0846 4.268 14.169C4.18361 14.2534 4.06915 14.3008 3.94981 14.3008H2.1498C2.03046 14.3008 1.916 14.2534 1.83161 14.169C1.74722 14.0846 1.6998 13.9701 1.6998 13.8508V12.4234C1.69983 12.3043 1.74708 12.19 1.8312 12.1057L5.9181 8.01878C6.3069 7.62998 6.38791 7.07918 6.2889 6.61838C6.22887 6.33311 6.199 6.04231 6.1998 5.75078Z" fill="#2C2C2C"/>
</svg>
