<svg width="48" height="48" viewBox="0 0 48 48" fill="none" xmlns="http://www.w3.org/2000/svg">
<rect width="47.9167" height="47.9167" rx="6" fill="#1C9292"/>
<path d="M13.0852 31.7529L13.1403 31.5365L13.016 31.3511C11.607 29.2499 10.7852 26.7224 10.7852 24.0014C10.7852 16.7033 16.7014 10.7871 23.9994 10.7871C31.2975 10.7871 37.2137 16.7033 37.2137 24.0014C37.2137 31.2994 31.2975 37.2157 23.9994 37.2157C21.3138 37.2157 18.8167 36.415 16.7319 35.0396L16.551 34.9202L16.3403 34.9706L12.8074 35.8157C12.4416 35.9032 12.1138 35.5706 12.2065 35.2061L13.0852 31.7529Z" fill="white" stroke="white"/>
<path d="M11.186 33.0229L11.2411 32.8065L11.1167 32.6211C9.46404 30.1564 8.5 27.1915 8.5 24C8.5 15.4396 15.4396 8.5 24 8.5C32.5604 8.5 39.5 15.4396 39.5 24C39.5 32.5604 32.5604 39.5 24 39.5C20.85 39.5 17.9208 38.5609 15.4754 36.9474L15.2945 36.8281L15.0837 36.8785L10.6937 37.9286C10.3278 38.0161 10 37.6835 10.0928 37.319L11.186 33.0229Z" stroke="white"/>
<g opacity="0.8">
<circle cx="17.143" cy="24.0004" r="1.52381" fill="#1C9292"/>
<circle cx="23.9994" cy="24.0004" r="1.52381" fill="#1C9292"/>
<circle cx="30.8578" cy="24.0004" r="1.52381" fill="#1C9292"/>
</g>
</svg>
