<svg width="16" height="16" viewBox="0 0 16 16" fill="none" xmlns="http://www.w3.org/2000/svg">
<path d="M8.66634 7.33301H10.6663C10.8432 7.33301 11.0127 7.40325 11.1377 7.52827C11.2628 7.65329 11.333 7.82286 11.333 7.99967C11.333 8.17649 11.2628 8.34606 11.1377 8.47108C11.0127 8.5961 10.8432 8.66634 10.6663 8.66634H7.99967C7.82286 8.66634 7.65329 8.5961 7.52827 8.47108C7.40325 8.34606 7.33301 8.17649 7.33301 7.99967V5.33301C7.33301 5.1562 7.40325 4.98663 7.52827 4.8616C7.65329 4.73658 7.82286 4.66634 7.99967 4.66634C8.17649 4.66634 8.34606 4.73658 8.47108 4.8616C8.5961 4.98663 8.66634 5.1562 8.66634 5.33301V7.33301Z" fill="#919EAB"/>
<path fill-rule="evenodd" clip-rule="evenodd" d="M4.29588 2.45654C5.3922 1.724 6.68114 1.33301 7.99968 1.33301C8.87516 1.33301 9.74206 1.50545 10.5509 1.84048C11.3597 2.17551 12.0947 2.66657 12.7137 3.28563C13.3328 3.90469 13.8238 4.63961 14.1589 5.44845C14.4939 6.25729 14.6663 7.1242 14.6663 7.99967C14.6663 9.31822 14.2754 10.6071 13.5428 11.7035C12.8103 12.7998 11.7691 13.6543 10.5509 14.1589C9.33273 14.6635 7.99228 14.7955 6.69908 14.5382C5.40587 14.281 4.21798 13.6461 3.28563 12.7137C2.35328 11.7814 1.71834 10.5935 1.46111 9.30028C1.20387 8.00707 1.3359 6.66663 1.84048 5.44845C2.34506 4.23028 3.19955 3.18909 4.29588 2.45654ZM5.03664 12.4342C5.9137 13.0202 6.94484 13.333 7.99968 13.333C9.41417 13.333 10.7707 12.7711 11.7709 11.7709C12.7711 10.7707 13.333 9.41416 13.333 7.99967C13.333 6.94484 13.0202 5.9137 12.4342 5.03663C11.8481 4.15957 11.0152 3.47598 10.0407 3.07232C9.06612 2.66865 7.99376 2.56303 6.9592 2.76882C5.92463 2.97461 4.97432 3.48256 4.22844 4.22844C3.48256 4.97432 2.97461 5.92463 2.76882 6.95919C2.56304 7.99376 2.66865 9.06611 3.07232 10.0407C3.47599 11.0152 4.15957 11.8481 5.03664 12.4342Z" fill="#919EAB"/>
</svg>
