<svg width="24" height="24" viewBox="0 0 24 24" fill="none" xmlns="http://www.w3.org/2000/svg">
<path d="M18.9656 18.75H10.2375C10.0958 18.75 9.95985 18.6937 9.85964 18.5935C9.75942 18.4933 9.70312 18.3573 9.70312 18.2156V9.4875C9.70312 9.34578 9.75942 9.20985 9.85964 9.10964C9.95985 9.00942 10.0958 8.95312 10.2375 8.95312H18.9656C19.1073 8.95312 19.2433 9.00942 19.3435 9.10964C19.4437 9.20985 19.5 9.34578 19.5 9.4875V18.2156C19.5 18.3573 19.4437 18.4933 19.3435 18.5935C19.2433 18.6937 19.1073 18.75 18.9656 18.75Z" stroke="#20a2a2" stroke-linecap="round" stroke-linejoin="round"/>
<path d="M15.0469 8.95312V5.03437C15.0469 4.89265 14.9906 4.75673 14.8904 4.65651C14.7901 4.5563 14.6542 4.5 14.5125 4.5H5.78437C5.64265 4.5 5.50673 4.5563 5.40651 4.65651C5.3063 4.75673 5.25 4.89265 5.25 5.03437V13.7625C5.25 13.9042 5.3063 14.0401 5.40651 14.1404C5.50673 14.2406 5.64265 14.2969 5.78437 14.2969H9.70312" stroke="#20a2a2" stroke-linecap="round" stroke-linejoin="round"/>
</svg>
