<svg width="18" height="18" viewBox="0 0 18 18" fill="none" xmlns="http://www.w3.org/2000/svg">
<path opacity="0.4" d="M9 16.5C13.1421 16.5 16.5 13.1421 16.5 9C16.5 4.85786 13.1421 1.5 9 1.5C4.85786 1.5 1.5 4.85786 1.5 9C1.5 13.1421 4.85786 16.5 9 16.5Z" fill="#919EAB"/>
<path d="M9.79453 8.99953L11.5195 7.27453C11.737 7.05703 11.737 6.69703 11.5195 6.47953C11.302 6.26203 10.942 6.26203 10.7245 6.47953L8.99953 8.20453L7.27453 6.47953C7.05703 6.26203 6.69703 6.26203 6.47953 6.47953C6.26203 6.69703 6.26203 7.05703 6.47953 7.27453L8.20453 8.99953L6.47953 10.7245C6.26203 10.942 6.26203 11.302 6.47953 11.5195C6.59203 11.632 6.73453 11.6845 6.87703 11.6845C7.01953 11.6845 7.16203 11.632 7.27453 11.5195L8.99953 9.79453L10.7245 11.5195C10.837 11.632 10.9795 11.6845 11.122 11.6845C11.2645 11.6845 11.407 11.632 11.5195 11.5195C11.737 11.302 11.737 10.942 11.5195 10.7245L9.79453 8.99953Z" fill="#919EAB"/>
</svg>
