<svg width="42" height="36" viewBox="0 0 42 36" fill="none" xmlns="http://www.w3.org/2000/svg">
<path fill-rule="evenodd" clip-rule="evenodd" d="M25.0032 9.95136V4.04473C25.0032 2.69406 24.9959 1.60547 23.5889 1.60547H9.54723C7.15324 1.60547 4.96925 2.53279 3.39426 4.04473C1.81926 5.55666 0.874268 7.63306 0.853268 9.91104C0.853268 10.1153 0.846586 10.3144 0.840179 10.5054C0.804215 11.5773 0.776926 12.3906 1.989 12.3906H23.5889C24.9959 12.3906 25.0032 11.302 25.0032 9.95136ZM0.853049 26.9368V16.8572C0.853049 16.797 0.852919 16.7373 0.85279 16.6782C0.850033 15.4117 0.84787 14.418 2.13833 14.418H39.7928C41.1435 14.418 41.1713 15.5066 41.1713 16.8572V26.9166C41.1713 31.5331 37.4217 35.2827 32.8053 35.2827H9.19894C4.58249 35.2827 0.853049 31.5532 0.853049 26.9368ZM8.91671 28.5294H12.9485C13.7751 28.5294 14.4605 27.844 14.4605 27.0174C14.4605 26.1909 13.7751 25.5055 12.9485 25.5055H8.91671C8.09018 25.5055 7.40477 26.1909 7.40477 27.0174C7.40477 27.844 8.09018 28.5294 8.91671 28.5294ZM17.9883 28.5294H26.052C26.8785 28.5294 27.5639 27.844 27.5639 27.0174C27.5639 26.1909 26.8785 25.5055 26.052 25.5055H17.9883C17.1618 25.5055 16.4764 26.1909 16.4764 27.0174C16.4764 27.844 17.1618 28.5294 17.9883 28.5294Z" fill="url(#paint0_linear_9509_78700)"/>
<path d="M28.4766 9.82794C28.8954 10.5548 29.8241 10.8045 30.5509 10.3857C30.5514 10.3854 30.5519 10.3851 30.5524 10.3848L30.7777 10.2547C31.2029 10.6186 31.6918 10.9007 32.2195 11.087V11.3468C32.2195 12.1856 32.8996 12.8656 33.7384 12.8656C34.5772 12.8656 35.2572 12.1856 35.2572 11.3468V11.0871C35.7851 10.9005 36.2739 10.618 36.6991 10.2537L36.9254 10.3843C37.6524 10.8037 38.5818 10.5544 39.0012 9.82741C39.4206 9.10043 39.1713 8.17106 38.4443 7.75165L38.2195 7.62205C38.3207 7.07144 38.3207 6.507 38.2195 5.95637L38.4443 5.82677C39.1713 5.40735 39.4206 4.478 39.0012 3.751C38.5818 3.02402 37.6524 2.77466 36.9254 3.19408L36.7001 3.3242C36.2744 2.96079 35.7853 2.67914 35.2572 2.49342V2.23369C35.2572 1.39486 34.5772 0.714844 33.7384 0.714844C32.8996 0.714844 32.2195 1.39486 32.2195 2.23369V2.49342C31.6917 2.68002 31.2028 2.96253 30.7777 3.32677L30.5514 3.19565C29.8243 2.77621 28.895 3.02556 28.4756 3.75254C28.0562 4.47952 28.3055 5.40889 29.0325 5.82831L29.2573 5.95791C29.1561 6.50852 29.1561 7.07296 29.2573 7.62359L29.0325 7.75319C28.3075 8.17372 28.059 9.10126 28.4766 9.82794ZM33.7384 4.76511C34.8568 4.76511 35.7635 5.6718 35.7635 6.79024C35.7635 7.90868 34.8568 8.81536 33.7384 8.81536C32.62 8.81536 31.7133 7.90868 31.7133 6.79024C31.7133 5.6718 32.62 4.76511 33.7384 4.76511Z" fill="url(#paint1_linear_9509_78700)"/>
<defs>
<linearGradient id="paint0_linear_9509_78700" x1="21" y1="1.60547" x2="21" y2="35.2827" gradientUnits="userSpaceOnUse">
<stop stop-color="#77BD66"/>
<stop offset="1" stop-color="#3D8C29"/>
</linearGradient>
<linearGradient id="paint1_linear_9509_78700" x1="33.7384" y1="0.714844" x2="33.7384" y2="12.8656" gradientUnits="userSpaceOnUse">
<stop stop-color="#77BD66"/>
<stop offset="1" stop-color="#3D8C29"/>
</linearGradient>
</defs>
</svg>
