<svg width="21" height="21" viewBox="0 0 21 21" fill="none" xmlns="http://www.w3.org/2000/svg">
<path d="M19.2325 9.98413C18.935 4.90913 14.3237 0.997894 9.01246 1.87289C5.35496 2.47664 2.42372 5.44288 1.85497 9.10038C1.52247 11.2179 1.95999 13.2216 2.91374 14.8754L2.13497 17.7716C1.95997 18.4279 2.56371 19.0229 3.21121 18.8391L6.06371 18.0516C7.35871 18.8129 8.87246 19.2504 10.4912 19.2504C15.4262 19.2504 19.5212 14.9016 19.2325 9.98413ZM14.77 13.7554C14.6912 13.9129 14.595 14.0616 14.4725 14.2016C14.2537 14.4379 14.0174 14.6129 13.7549 14.7179C13.4924 14.8316 13.2037 14.8841 12.8975 14.8841C12.4512 14.8841 11.97 14.7791 11.4712 14.5604C10.9637 14.3416 10.465 14.0529 9.96623 13.6941C9.45873 13.3266 8.98622 12.9154 8.53122 12.4691C8.07622 12.0141 7.6737 11.5329 7.3062 11.0341C6.94745 10.5354 6.65872 10.0366 6.44872 9.53788C6.23872 9.03913 6.13373 8.55789 6.13373 8.10289C6.13373 7.80539 6.18622 7.51664 6.29122 7.25414C6.39622 6.98289 6.56249 6.73789 6.79874 6.51914C7.07874 6.23914 7.38497 6.10789 7.70872 6.10789C7.83122 6.10789 7.95369 6.13414 8.06744 6.18664C8.18119 6.23914 8.28622 6.31789 8.36497 6.43164L9.37994 7.86662C9.45869 7.98037 9.51996 8.07663 9.55496 8.17288C9.5987 8.26913 9.61621 8.35663 9.61621 8.44413C9.61621 8.54913 9.58122 8.65414 9.51997 8.75914C9.45872 8.86414 9.37995 8.96913 9.27495 9.07413L8.94244 9.42412C8.88994 9.47662 8.87248 9.52913 8.87248 9.59913C8.87248 9.63413 8.8812 9.66913 8.88995 9.70413C8.90745 9.73913 8.91623 9.76538 8.92498 9.79163C9.00373 9.94038 9.1437 10.1241 9.33621 10.3516C9.53746 10.5791 9.74749 10.8154 9.97499 11.0429C10.2112 11.2791 10.4387 11.4891 10.675 11.6904C10.9025 11.8829 11.0949 12.0141 11.2437 12.0929C11.2699 12.1016 11.2962 12.1191 11.3225 12.1279C11.3575 12.1454 11.3925 12.1454 11.4362 12.1454C11.515 12.1454 11.5675 12.1191 11.62 12.0666L11.9524 11.7341C12.0662 11.6204 12.1712 11.5416 12.2675 11.4891C12.3725 11.4279 12.4687 11.3929 12.5825 11.3929C12.67 11.3929 12.7575 11.4104 12.8537 11.4541C12.95 11.4979 13.055 11.5504 13.16 11.6291L14.6125 12.6616C14.7262 12.7404 14.805 12.8366 14.8575 12.9416C14.9012 13.0554 14.9275 13.1604 14.9275 13.2829C14.875 13.4316 14.84 13.5979 14.77 13.7554Z" fill="#676767"/>
</svg>
