<svg width="21" height="20" viewBox="0 0 21 20" fill="none" xmlns="http://www.w3.org/2000/svg">
<path d="M4.525 17H13.1C13.2392 17 13.3728 16.9447 13.4712 16.8462C13.5697 16.7478 13.625 16.6142 13.625 16.475V7.9C13.625 7.76076 13.5697 7.62723 13.4712 7.52877C13.3728 7.43031 13.2392 7.375 13.1 7.375H4.525C4.38576 7.375 4.25223 7.43031 4.15377 7.52877C4.05531 7.62723 4 7.76076 4 7.9V16.475C4 16.6142 4.05531 16.7478 4.15377 16.8462C4.25223 16.9447 4.38576 17 4.525 17Z" stroke="#252424" stroke-linecap="round" stroke-linejoin="round"/>
<path d="M8.375 7.375V3.525C8.375 3.38576 8.43031 3.25223 8.52877 3.15377C8.62723 3.05531 8.76076 3 8.9 3H17.475C17.6142 3 17.7478 3.05531 17.8462 3.15377C17.9447 3.25223 18 3.38576 18 3.525V12.1C18 12.2392 17.9447 12.3728 17.8462 12.4712C17.7478 12.5697 17.6142 12.625 17.475 12.625H13.625" stroke="#252424" stroke-linecap="round" stroke-linejoin="round"/>
</svg>
