<svg width="50" height="50" viewBox="0 0 50 50" fill="none" xmlns="http://www.w3.org/2000/svg">
<path fill-rule="evenodd" clip-rule="evenodd" d="M15 7C9.47715 7 5 11.4772 5 17V32.5556C5 38.0784 9.47716 42.5556 15 42.5556H29.0494C27.3604 40.6684 26.3333 38.1764 26.3333 35.4444C26.3333 29.5534 31.109 24.7778 37 24.7778C38.2467 24.7778 39.4435 24.9917 40.5556 25.3847V17C40.5556 11.4772 36.0784 7 30.5556 7H15ZM13.5 16C12.6716 16 12 16.6716 12 17.5C12 18.3284 12.6716 19 13.5 19H31.5C32.3284 19 33 18.3284 33 17.5C33 16.6716 32.3284 16 31.5 16H13.5ZM12 24.5C12 23.6716 12.6716 23 13.5 23H25.5C26.3284 23 27 23.6716 27 24.5C27 25.3284 26.3284 26 25.5 26H13.5C12.6716 26 12 25.3284 12 24.5ZM13.5 30C12.6716 30 12 30.6716 12 31.5C12 32.3284 12.6716 33 13.5 33H21.5C22.3284 33 23 32.3284 23 31.5C23 30.6716 22.3284 30 21.5 30H13.5ZM31.3408 41.1052C32.9003 42.6647 34.7867 43.4444 37 43.4444C39.2133 43.4444 41.1003 42.6647 42.6608 41.1052C44.2203 39.5447 45 37.6578 45 35.4444C45 33.2311 44.2203 31.3442 42.6608 29.7836C41.1003 28.2242 39.2133 27.4444 37 27.4444C34.7867 27.4444 32.9003 28.2242 31.3408 29.7836C29.7803 31.3442 29 33.2311 29 35.4444C29 37.6578 29.7803 39.5447 31.3408 41.1052ZM36.2 39.4444V36.2444H33C32.7867 36.2444 32.6 36.1644 32.44 36.0044C32.28 35.8444 32.2 35.6578 32.2 35.4444C32.2 35.2311 32.28 35.0444 32.44 34.8844C32.6 34.7244 32.7867 34.6444 33 34.6444H36.2V31.4444C36.2 31.2311 36.28 31.0444 36.44 30.8844C36.6 30.7244 36.7867 30.6444 37 30.6444C37.2133 30.6444 37.4 30.7244 37.56 30.8844C37.72 31.0444 37.8 31.2311 37.8 31.4444V34.6444H41C41.2133 34.6444 41.4 34.7244 41.56 34.8844C41.72 35.0444 41.8 35.2311 41.8 35.4444C41.8 35.6578 41.72 35.8444 41.56 36.0044C41.4 36.1644 41.2133 36.2444 41 36.2444H37.8V39.4444C37.8 39.6578 37.72 39.8444 37.56 40.0044C37.4 40.1644 37.2133 40.2444 37 40.2444C36.7867 40.2444 36.6 40.1644 36.44 40.0044C36.28 39.8444 36.2 39.6578 36.2 39.4444Z" fill="url(#paint0_linear_10578_77561)"/>
<defs>
<linearGradient id="paint0_linear_10578_77561" x1="5" y1="7" x2="41.2871" y2="46.8273" gradientUnits="userSpaceOnUse">
<stop stop-color="#43CBFF"/>
<stop offset="1" stop-color="#9708CC"/>
</linearGradient>
</defs>
</svg>
