<svg width="40" height="40" viewBox="0 0 40 40" fill="none" xmlns="http://www.w3.org/2000/svg">
<rect width="40" height="40" rx="20" fill="url(#paint0_linear_9509_79325)"/>
<path fill-rule="evenodd" clip-rule="evenodd" d="M16.9701 14.741C15.8546 14.7366 14.954 13.8288 14.9584 12.7134C14.9565 12.197 15.1524 11.6996 15.5059 11.3231C16.2696 10.5098 17.548 10.4696 18.3614 11.2333L21.3633 9.86921C21.342 9.75658 21.3304 9.64236 21.3285 9.52775C21.3275 8.8619 21.6539 8.23814 22.2016 7.85946C23.1213 7.2236 24.3823 7.45363 25.0182 8.37327C25.654 9.29292 25.424 10.5539 24.5044 11.1897C23.5847 11.8256 22.3237 11.5956 21.6878 10.6759L18.864 11.9592C19.0634 12.4448 19.0627 12.9895 18.8618 13.4745L21.6896 14.7513C22.0704 14.1988 22.6993 13.8698 23.3703 13.8719C24.4934 13.8755 25.401 14.7888 25.3974 15.9119C25.3939 17.035 24.4805 17.9426 23.3574 17.939C22.2343 17.9354 21.3267 17.0221 21.3303 15.899C21.3322 15.7846 21.3437 15.6705 21.3646 15.558L18.3548 14.1991C17.979 14.5493 17.4838 14.7431 16.9701 14.741ZM9.92773 23.1404C9.92773 22.5881 10.3754 22.1404 10.9277 22.1404H28.9632C29.5154 22.1404 29.9632 22.5881 29.9632 23.1404V24.9297C29.9632 25.482 29.5154 25.9297 28.9632 25.9297H10.9277C10.3755 25.9297 9.92773 25.482 9.92773 24.9297V23.1404ZM10.0367 29.4214C10.0367 28.8691 10.4844 28.4214 11.0367 28.4214H29.0721C29.6244 28.4214 30.0721 28.8691 30.0721 29.4214V31.501C30.0721 32.0533 29.6244 32.501 29.0721 32.501H11.0367C10.4844 32.501 10.0367 32.0533 10.0367 31.501V29.4214Z" fill="white"/>
<path fill-rule="evenodd" clip-rule="evenodd" d="M16.4782 24.1324C16.4782 24.7859 15.9485 25.3156 15.295 25.3156C14.6416 25.3156 14.1118 24.7859 14.1118 24.1324C14.1118 23.479 14.6416 22.9492 15.295 22.9492C15.9485 22.9492 16.4782 23.479 16.4782 24.1324ZM21.0146 24.1324C21.0146 24.7859 20.4848 25.3156 19.8314 25.3156C19.1779 25.3156 18.6482 24.7859 18.6482 24.1324C18.6482 23.479 19.1779 22.9492 19.8314 22.9492C20.4848 22.9492 21.0146 23.479 21.0146 24.1324ZM24.3677 25.3191C25.0212 25.3191 25.5509 24.7894 25.5509 24.1359C25.5509 23.4824 25.0212 22.9527 24.3677 22.9527C23.7142 22.9527 23.1845 23.4824 23.1845 24.1359C23.1845 24.7894 23.7142 25.3191 24.3677 25.3191Z" fill="#61C9E2"/>
<path fill-rule="evenodd" clip-rule="evenodd" d="M21.0944 30.2887C21.0944 30.9421 20.5646 31.4719 19.9112 31.4719C19.2577 31.4719 18.7279 30.9421 18.7279 30.2887C18.7279 29.6352 19.2577 29.1055 19.9112 29.1055C20.5646 29.1055 21.0944 29.6352 21.0944 30.2887ZM16.5578 30.2888C16.5578 30.9423 16.0281 31.472 15.3746 31.472C14.7211 31.472 14.1914 30.9423 14.1914 30.2888C14.1914 29.6353 14.7211 29.1056 15.3746 29.1056C16.0281 29.1056 16.5578 29.6353 16.5578 30.2888ZM24.4475 31.4754C25.101 31.4754 25.6307 30.9456 25.6307 30.2922C25.6307 29.6387 25.101 29.109 24.4475 29.109C23.794 29.109 23.2643 29.6387 23.2643 30.2922C23.2643 30.9456 23.794 31.4754 24.4475 31.4754Z" fill="#61C9E2"/>
<defs>
<linearGradient id="paint0_linear_9509_79325" x1="20" y1="0" x2="20" y2="40" gradientUnits="userSpaceOnUse">
<stop stop-color="#35CE77"/>
<stop offset="1" stop-color="#219653"/>
</linearGradient>
</defs>
</svg>
