<svg width="24" height="24" viewBox="0 0 24 24" fill="none" xmlns="http://www.w3.org/2000/svg">
<path d="M15.8536 1.64645L15.7071 1.5H15.5H6C4.61929 1.5 3.5 2.61929 3.5 4V20C3.5 21.3807 4.61929 22.5 6 22.5H18C19.3807 22.5 20.5 21.3807 20.5 20V6.5V6.29289L20.3536 6.14645L15.8536 1.64645Z" fill="url(#paint0_linear_15682_17221)" stroke="#D9D9D9"/>
<path d="M4 4C4 2.89543 4.89543 2 6 2H15.5L20 6.5V10H4V4Z" fill="#5172E9"/>
<path d="M15.4964 2.00391L20.0003 6.48047L16.2006 6.89847C15.5664 6.96823 15.03 6.43428 15.0968 5.79976L15.4964 2.00391Z" fill="#2447C2"/>
<g filter="url(#filter0_d_15682_17221)">
<path d="M15.5 2.00391L20 6.48438H16.5C15.9477 6.48438 15.5 6.03666 15.5 5.48438V2.00391Z" fill="#7693F9"/>
</g>
<path d="M12.8283 7.09017L13.6751 4.24609H14.4997L13.248 7.84069H12.7049L12.8283 7.09017ZM12.0482 4.24609L12.8925 7.09017L13.0209 7.84069H12.4728L11.2285 4.24609H12.0482Z" fill="white"/>
<path d="M10.2886 6.90013C10.2886 6.83594 10.2787 6.77833 10.2589 6.72731C10.2408 6.67464 10.2063 6.62691 10.1552 6.58412C10.1042 6.53968 10.0326 6.49607 9.94046 6.45327C9.84829 6.41048 9.72896 6.36604 9.58248 6.31996C9.41954 6.26729 9.26483 6.20804 9.11834 6.1422C8.97351 6.07637 8.84513 5.99984 8.73321 5.9126C8.62293 5.82373 8.5357 5.72086 8.47151 5.604C8.40897 5.48714 8.3777 5.35136 8.3777 5.19665C8.3777 5.04687 8.41062 4.91109 8.47645 4.78929C8.54229 4.66585 8.63445 4.56052 8.75296 4.47328C8.87146 4.38441 9.01136 4.3161 9.17266 4.26837C9.3356 4.22064 9.51418 4.19678 9.70839 4.19678C9.97338 4.19678 10.2046 4.24451 10.4021 4.33997C10.5996 4.43543 10.7527 4.56628 10.8613 4.73251C10.9716 4.89874 11.0267 5.08884 11.0267 5.30281H10.291C10.291 5.19747 10.2688 5.1053 10.2244 5.0263C10.1816 4.94565 10.1157 4.88228 10.0269 4.8362C9.93964 4.79012 9.82936 4.76707 9.69605 4.76707C9.56767 4.76707 9.46069 4.78682 9.3751 4.82633C9.28951 4.86418 9.22532 4.91603 9.18253 4.98186C9.13974 5.04605 9.11834 5.11847 9.11834 5.19912C9.11834 5.26001 9.13316 5.31515 9.16278 5.36453C9.19405 5.4139 9.24014 5.45999 9.30104 5.50278C9.36193 5.54557 9.43682 5.5859 9.5257 5.62375C9.61457 5.66161 9.71744 5.69864 9.8343 5.73485C10.0302 5.7941 10.2022 5.86076 10.3503 5.93482C10.5001 6.00889 10.6251 6.092 10.7255 6.18417C10.8259 6.27634 10.9017 6.38086 10.9527 6.49771C11.0037 6.61457 11.0292 6.74706 11.0292 6.89519C11.0292 7.05155 10.9988 7.19145 10.9379 7.31489C10.877 7.43833 10.7889 7.54284 10.6737 7.62843C10.5585 7.71402 10.4211 7.77903 10.2614 7.82347C10.1018 7.86791 9.92318 7.89012 9.72567 7.89012C9.54792 7.89012 9.37263 7.86708 9.19981 7.821C9.027 7.77327 8.86982 7.70167 8.72827 7.60621C8.58837 7.51075 8.47645 7.38896 8.39251 7.24083C8.30857 7.0927 8.2666 6.91741 8.2666 6.71497H9.00971C9.00971 6.82689 9.027 6.92153 9.06156 6.99888C9.09612 7.07624 9.14468 7.13878 9.20722 7.18651C9.27141 7.23424 9.34712 7.26881 9.43435 7.2902C9.52323 7.3116 9.62034 7.3223 9.72567 7.3223C9.85405 7.3223 9.95939 7.30419 10.0417 7.26798C10.1256 7.23177 10.1873 7.18157 10.2268 7.11739C10.268 7.0532 10.2886 6.98078 10.2886 6.90013Z" fill="white"/>
<path d="M7.19231 6.64736H7.93048C7.91567 6.88931 7.84901 7.10409 7.73051 7.29172C7.61365 7.47935 7.44989 7.62584 7.23922 7.73117C7.03019 7.83651 6.77837 7.88918 6.48376 7.88918C6.25334 7.88918 6.04678 7.84967 5.86409 7.77067C5.68139 7.69002 5.52503 7.57481 5.39501 7.42504C5.26663 7.27526 5.1687 7.09422 5.10122 6.8819C5.03374 6.66958 5 6.43175 5 6.16841V5.91906C5 5.65572 5.03456 5.41789 5.10369 5.20557C5.17446 4.99161 5.27486 4.80974 5.40489 4.65997C5.53656 4.51019 5.69374 4.39498 5.87643 4.31433C6.05912 4.23368 6.26321 4.19336 6.4887 4.19336C6.78824 4.19336 7.04089 4.24767 7.24662 4.3563C7.454 4.46493 7.61448 4.6147 7.72804 4.80563C7.84325 4.99655 7.91238 5.2138 7.93542 5.45739H7.19478C7.18655 5.31256 7.15774 5.18994 7.10837 5.08954C7.05899 4.98749 6.9841 4.91096 6.88371 4.85994C6.78495 4.80727 6.65328 4.78094 6.4887 4.78094C6.36525 4.78094 6.25745 4.80398 6.16528 4.85006C6.07311 4.89615 5.99576 4.9661 5.93321 5.05991C5.87067 5.15373 5.82376 5.27223 5.79249 5.41542C5.76286 5.55697 5.74805 5.7232 5.74805 5.91412V6.16841C5.74805 6.3544 5.76204 6.51816 5.79002 6.65971C5.818 6.79961 5.86079 6.91811 5.9184 7.01521C5.97765 7.11068 6.05336 7.18309 6.14553 7.23247C6.23935 7.2802 6.35209 7.30407 6.48376 7.30407C6.63847 7.30407 6.76603 7.27938 6.86642 7.23C6.96682 7.18063 7.04336 7.10738 7.09602 7.01028C7.15034 6.91317 7.18243 6.7922 7.19231 6.64736Z" fill="white"/>
<path fill-rule="evenodd" clip-rule="evenodd" d="M9.48953 13.5C9.65521 13.5 9.78953 13.6343 9.78953 13.8V15.0898C9.78953 15.09 9.78944 15.09 9.78933 15.09H6.8C6.63431 15.09 6.5 14.9557 6.5 14.79V13.8C6.5 13.6343 6.63431 13.5 6.8 13.5H9.48953ZM10.4264 14.7898C10.4264 14.9555 10.5607 15.0898 10.7264 15.0898H13.2736C13.4393 15.0898 13.5736 14.9555 13.5736 14.7898V13.8C13.5736 13.6343 13.4393 13.5 13.2736 13.5H10.7264C10.5607 13.5 10.4264 13.6343 10.4264 13.8V14.7898ZM17.2 15.0898C17.3657 15.0898 17.5 14.9555 17.5 14.7898V13.8C17.5 13.6343 17.3657 13.5 17.2 13.5H14.5159C14.3502 13.5 14.2159 13.6343 14.2159 13.8V14.7898C14.2159 14.9555 14.3502 15.0898 14.5159 15.0898H17.2ZM18 15.0898V13.5V13.3C18 13.1343 17.8657 13 17.7 13H17.5H14.2159H14.0736H13.7159H13.5736H10.4264H10.2895H9.92635H9.78953H6.5H6.3C6.13431 13 6 13.1343 6 13.3V13.5V15.09V15.3247V15.59V15.8247V17.1751V17.4148V17.6751V17.9148V19.4998V19.6998C6 19.8655 6.13431 19.9998 6.3 19.9998H6.5H9.78943C9.78948 19.9998 9.78953 19.9999 9.78953 19.9999C9.78953 20 9.78957 20 9.78962 20H10.2895H13.5736H13.7159H14.0736H14.2159H17.5H17.7C17.8657 20 18 19.8657 18 19.7V19.5V17.9146V17.6753V17.4146V17.1753V15.8247V15.5898V15.3247V15.0898ZM17.2 17.1753C17.3657 17.1753 17.5 17.041 17.5 16.8753V16.1247C17.5 15.959 17.3657 15.8247 17.2 15.8247H14.5159C14.3502 15.8247 14.2159 15.959 14.2159 16.1247V16.8753C14.2159 17.041 14.3502 17.1753 14.5159 17.1753H17.2ZM13.2736 17.1753C13.4393 17.1753 13.5736 17.041 13.5736 16.8753V16.1247C13.5736 15.959 13.4393 15.8247 13.2736 15.8247H10.7264C10.5607 15.8247 10.4264 15.959 10.4264 16.1247V17.1751C10.4264 17.1752 10.4264 17.1753 10.4265 17.1753H13.2736ZM14.5159 19.5C14.3502 19.5 14.2159 19.3657 14.2159 19.2V18.2146C14.2159 18.0489 14.3502 17.9146 14.5159 17.9146H17.2C17.3657 17.9146 17.5 18.0489 17.5 18.2146V19.2C17.5 19.3657 17.3657 19.5 17.2 19.5H14.5159ZM13.5736 18.2146C13.5736 18.0489 13.4393 17.9146 13.2736 17.9146H10.4266C10.4264 17.9146 10.4264 17.9146 10.4264 17.9148V19.4998C10.4264 19.4999 10.4264 19.5 10.4265 19.5H13.2736C13.4393 19.5 13.5736 19.3657 13.5736 19.2V18.2146ZM9.48953 19.4998C9.65521 19.4998 9.78953 19.3655 9.78953 19.1998V18.2148C9.78953 18.0491 9.65521 17.9148 9.48953 17.9148H6.8C6.63431 17.9148 6.5 18.0491 6.5 18.2148V19.1998C6.5 19.3655 6.63431 19.4998 6.8 19.4998H9.48953ZM6.5 16.1247C6.5 15.959 6.63431 15.8247 6.8 15.8247H9.48953C9.65521 15.8247 9.78953 15.959 9.78953 16.1247V16.8751C9.78953 17.0408 9.65521 17.1751 9.48953 17.1751H6.8C6.63431 17.1751 6.5 17.0408 6.5 16.8751V16.1247Z" fill="#5172E9"/>
<defs>
<filter id="filter0_d_15682_17221" x="14.5" y="1.00391" width="6.5" height="6.48047" filterUnits="userSpaceOnUse" color-interpolation-filters="sRGB">
<feFlood flood-opacity="0" result="BackgroundImageFix"/>
<feColorMatrix in="SourceAlpha" type="matrix" values="0 0 0 0 0 0 0 0 0 0 0 0 0 0 0 0 0 0 127 0" result="hardAlpha"/>
<feOffset/>
<feGaussianBlur stdDeviation="0.5"/>
<feComposite in2="hardAlpha" operator="out"/>
<feColorMatrix type="matrix" values="0 0 0 0 0 0 0 0 0 0 0 0 0 0 0 0 0 0 0.25 0"/>
<feBlend mode="normal" in2="BackgroundImageFix" result="effect1_dropShadow_15682_17221"/>
<feBlend mode="normal" in="SourceGraphic" in2="effect1_dropShadow_15682_17221" result="shape"/>
</filter>
<linearGradient id="paint0_linear_15682_17221" x1="12" y1="22" x2="12" y2="2" gradientUnits="userSpaceOnUse">
<stop stop-color="#E7EEF3"/>
<stop offset="1" stop-color="#E8E7EA" stop-opacity="0"/>
</linearGradient>
</defs>
</svg>
