<svg width="42" height="50" viewBox="0 0 42 50" fill="none" xmlns="http://www.w3.org/2000/svg">
<path d="M8.3125 0.5C6.62812 0.5 5.25 1.87812 5.25 3.5625V46.4375C5.25 48.1219 6.62812 49.5 8.3125 49.5H38.9375C40.6219 49.5 42 48.1219 42 46.4375V12.75L29.75 0.5H8.3125Z" fill="#E2E5E7"/>
<path d="M32.8125 12.75H42L29.75 0.5V9.6875C29.75 11.3719 31.1281 12.75 32.8125 12.75Z" fill="#B0B7BD"/>
<path d="M42 21.5L33.25 12.75H42V21.5Z" fill="#CAD1D8"/>
<path d="M36.75 40.8958C36.75 41.7781 36.0609 42.5 35.2188 42.5H1.53125C0.689063 42.5 0 41.7781 0 40.8958V24.8542C0 23.9719 0.689063 23.25 1.53125 23.25H35.2188C36.0609 23.25 36.75 23.9719 36.75 24.8542V40.8958Z" fill="#9CD175"/>
<path d="M35.2625 42.5H7V44.25H35.2625C36.0806 44.25 36.75 43.4625 36.75 42.5V40.75C36.75 41.7125 36.0806 42.5 35.2625 42.5Z" fill="#CAD1D8"/>
<path d="M14.8379 33.2461H13.4551C13.3848 32.9219 13.2285 32.6641 12.9863 32.4727C12.7441 32.2773 12.4297 32.1797 12.043 32.1797C11.543 32.1797 11.1523 32.3633 10.8711 32.7305C10.5938 33.0977 10.4551 33.6133 10.4551 34.2773C10.4551 34.9492 10.5957 35.4727 10.877 35.8477C11.1582 36.2227 11.5469 36.4102 12.043 36.4102C12.4219 36.4102 12.7324 36.3223 12.9746 36.1465C13.2207 35.9707 13.3809 35.7168 13.4551 35.3848H14.8379C14.7559 36.0684 14.4688 36.6133 13.9766 37.0195C13.4883 37.4258 12.8457 37.6289 12.0488 37.6289C11.084 37.6289 10.332 37.334 9.79297 36.7441C9.25391 36.1543 8.98438 35.332 8.98438 34.2773C8.98438 33.2344 9.25391 32.4219 9.79297 31.8398C10.332 31.2539 11.082 30.9609 12.043 30.9609C12.8477 30.9609 13.4941 31.1699 13.9824 31.5879C14.4746 32.002 14.7598 32.5547 14.8379 33.2461ZM16.0801 32.9238C16.0801 32.3457 16.3184 31.875 16.7949 31.5117C17.2715 31.1445 17.8887 30.9609 18.6465 30.9609C19.4082 30.9609 20.0156 31.123 20.4688 31.4473C20.9258 31.7676 21.1797 32.2188 21.2305 32.8008H19.8652C19.8105 32.5703 19.6777 32.3906 19.4668 32.2617C19.2598 32.1289 18.9883 32.0625 18.6523 32.0625C18.3164 32.0625 18.0391 32.1348 17.8203 32.2793C17.6016 32.4238 17.4922 32.6113 17.4922 32.8418C17.4922 33.0215 17.5684 33.1699 17.7207 33.2871C17.877 33.4043 18.1172 33.5 18.4414 33.5742L19.5723 33.832C20.1895 33.9727 20.6426 34.1816 20.9316 34.459C21.2207 34.7363 21.3652 35.1094 21.3652 35.5781C21.3652 36.1914 21.1113 36.6875 20.6035 37.0664C20.0957 37.4414 19.4395 37.6289 18.6348 37.6289C17.834 37.6289 17.1934 37.4648 16.7129 37.1367C16.2363 36.8086 15.9707 36.3535 15.916 35.7715H17.3516C17.4219 36.0137 17.5684 36.2012 17.791 36.334C18.0176 36.4629 18.3105 36.5273 18.6699 36.5273C19.0371 36.5273 19.3359 36.4551 19.5664 36.3105C19.7969 36.1621 19.9121 35.9688 19.9121 35.7305C19.9121 35.375 19.6172 35.1328 19.0273 35.0039L17.8906 34.7402C17.2734 34.5996 16.8164 34.3828 16.5195 34.0898C16.2266 33.793 16.0801 33.4043 16.0801 32.9238ZM28.25 31.0898L25.9824 37.5H24.3828L22.1035 31.0898H23.6621L25.1445 36.0469H25.2441L26.7148 31.0898H28.25Z" fill="white"/>
</svg>
