<svg width="40" height="40" viewBox="0 0 40 40" fill="none" xmlns="http://www.w3.org/2000/svg">
<rect width="40" height="40" rx="10" fill="url(#paint0_linear_9509_81437)"/>
<path fill-rule="evenodd" clip-rule="evenodd" d="M19.5234 17.9603L18.5687 18.915C18.3674 19.1163 18.0474 19.1163 17.841 18.9202C17.8126 18.8918 17.7842 18.8647 17.7559 18.8376C17.7275 18.8105 17.6991 18.7834 17.6707 18.7551C17.1392 18.2183 16.6592 17.6558 16.2309 17.0675C15.8077 16.4792 15.4671 15.8909 15.2194 15.3078C14.9769 14.7195 14.853 14.157 14.853 13.6203C14.853 13.2693 14.915 12.9339 15.0388 12.6243C15.1627 12.3095 15.3588 12.0205 15.6323 11.7624C15.9626 11.4373 16.3238 11.2773 16.7057 11.2773C16.8502 11.2773 16.9947 11.3083 17.1237 11.3702C17.2579 11.4322 17.3766 11.5251 17.4695 11.6592L18.6667 13.3467C18.7596 13.4758 18.8267 13.5945 18.8731 13.708C18.9196 13.8164 18.9454 13.9247 18.9454 14.0228C18.9454 14.1466 18.9093 14.2705 18.837 14.3892C18.7699 14.5079 18.6719 14.6317 18.548 14.7556L18.1558 15.1633C18.099 15.22 18.0732 15.2871 18.0732 15.3697C18.0732 15.411 18.0784 15.4471 18.0887 15.4884C18.0958 15.5073 18.1029 15.5241 18.1095 15.5397C18.1173 15.5581 18.1244 15.5748 18.13 15.5916C18.2229 15.7619 18.3829 15.9838 18.6099 16.2522C18.8422 16.5205 19.0899 16.794 19.3582 17.0675C19.384 17.0933 19.4111 17.1191 19.4382 17.1449C19.4653 17.1707 19.4924 17.1965 19.5182 17.2224C19.7246 17.4236 19.7298 17.7539 19.5234 17.9603ZM24.1401 15.1722C23.9285 15.1722 23.7531 14.9967 23.7531 14.7851V12.6951H21.663C21.4515 12.6951 21.276 12.5196 21.276 12.308C21.276 12.0965 21.4515 11.921 21.663 11.921H24.1401C24.3517 11.921 24.5272 12.0965 24.5272 12.308V14.7851C24.5272 14.9967 24.3517 15.1722 24.1401 15.1722ZM25.0818 20.1422C25.1334 19.9977 25.1592 19.8481 25.1592 19.7036C25.1592 19.5591 25.1282 19.4301 25.0766 19.3011C25.0198 19.172 24.9269 19.0637 24.7928 18.9708L23.0846 17.758C22.9556 17.6703 22.8369 17.6032 22.7234 17.5568C22.6098 17.5103 22.5066 17.4897 22.4086 17.4897C22.2796 17.4897 22.1609 17.5258 22.0422 17.5981C21.9235 17.66 21.7996 17.758 21.6706 17.887L21.2784 18.2741C21.2216 18.3309 21.1546 18.3618 21.0668 18.3618C21.0204 18.3618 20.9791 18.3567 20.9378 18.3412C20.9212 18.3341 20.9058 18.327 20.8914 18.3204C20.8744 18.3126 20.8589 18.3055 20.8449 18.2999C20.7365 18.2431 20.6075 18.1606 20.463 18.0522L18.7755 19.7397C18.9665 19.8997 19.1677 20.0493 19.369 20.199L19.369 20.199C19.9573 20.6273 20.5508 20.9679 21.1442 21.2208C21.7377 21.4737 22.3002 21.5975 22.8266 21.5975C23.1827 21.5975 23.5129 21.5304 23.8174 21.4066C23.82 21.4066 23.8226 21.4053 23.8252 21.404C23.8277 21.4027 23.8303 21.4014 23.8329 21.4014C24.1477 21.2724 24.4264 21.0711 24.6792 20.7925C24.8289 20.6273 24.9424 20.4519 25.0302 20.2661C25.0508 20.2248 25.0663 20.1835 25.0818 20.1422Z" fill="white"/>
<path d="M26.6822 28.0422H13.3293C8.55014 28.0422 7.09717 26.5892 7.09717 21.8101V14.197C7.09717 9.41781 8.55014 7.96484 13.3293 7.96484H26.6702C31.4494 7.96484 32.9024 9.41781 32.9024 14.197V21.7981C32.9144 26.5892 31.4614 28.0422 26.6822 28.0422ZM13.3293 9.31059C9.55881 9.31059 8.56004 10.4265 8.56004 14.197V21.7981C8.56004 25.5686 9.55881 26.4352 13.3293 26.4352H26.6702C30.4407 26.4352 31.549 25.5686 31.549 21.7981V14.197C31.549 10.4265 30.4407 9.31059 26.6702 9.31059H13.3293Z" fill="white"/>
<path d="M20.0056 30.6579C19.5133 30.6579 19.105 30.4326 19.105 30.1609V26.9931C19.105 26.7214 19.5133 26.4961 20.0056 26.4961C20.4979 26.4961 20.9062 26.7214 20.9062 26.9931V30.1609C20.9062 30.4326 20.4979 30.6579 20.0056 30.6579Z" fill="white"/>
<path d="M31.7177 24.5791H8.28309C7.80268 24.5791 7.4043 24.3159 7.4043 23.9985C7.4043 23.6812 7.80268 23.418 8.28309 23.418H31.7177C32.1981 23.418 32.5965 23.6812 32.5965 23.9985C32.5965 24.3159 32.1981 24.5791 31.7177 24.5791Z" fill="white"/>
<path d="M25.4095 32.0317H14.6023C14.1099 32.0317 13.7017 31.6234 13.7017 31.1311C13.7017 30.6387 14.1099 30.2305 14.6023 30.2305H25.4095C25.9018 30.2305 26.3101 30.6387 26.3101 31.1311C26.3101 31.6234 25.9018 32.0317 25.4095 32.0317Z" fill="white"/>
<defs>
<linearGradient id="paint0_linear_9509_81437" x1="20" y1="0" x2="20" y2="40" gradientUnits="userSpaceOnUse">
<stop stop-color="#68B4FF"/>
<stop offset="1" stop-color="#1976D2"/>
</linearGradient>
</defs>
</svg>
