<svg width="25" height="18" viewBox="0 0 25 18" fill="none" xmlns="http://www.w3.org/2000/svg">
<path d="M0.400958 8.20787C7.14682 1.44301 17.4624 1.50398 24.152 8.20787C24.5899 8.64577 24.5915 9.35686 24.1544 9.79397L22.0639 11.8845C21.6719 12.2764 21.0503 12.3216 20.6045 11.9914C19.5361 11.1988 18.3596 10.5636 17.1108 10.1052L16.8534 10.0109C16.6804 9.94743 16.5349 9.82551 16.4421 9.6662C16.3493 9.5069 16.3149 9.3202 16.3451 9.13831C16.5304 8.02812 15.847 6.85062 14.6172 6.62969C13.0739 6.35175 11.4783 6.35096 9.93496 6.6289C8.7052 6.85141 8.02182 8.02891 8.20712 9.13751C8.23764 9.31965 8.20353 9.50672 8.11069 9.66636C8.01786 9.82601 7.87214 9.94817 7.69874 10.0117L7.44297 10.106C6.19342 10.5637 5.01671 11.1987 3.94849 11.9914C3.50268 12.3216 2.88107 12.2765 2.4883 11.8837L0.398583 9.79397C0.294528 9.68991 0.211999 9.56637 0.155719 9.4304C0.0994387 9.29443 0.0705099 9.1487 0.0705843 9.00155C0.0706574 8.85439 0.0997322 8.70869 0.156148 8.57278C0.212565 8.43687 0.295215 8.31341 0.399374 8.20946L0.400958 8.20787Z" fill="white"/>
</svg>
