<svg width="48" height="48" viewBox="0 0 48 48" fill="none" xmlns="http://www.w3.org/2000/svg">
<rect width="48" height="48" rx="8" fill="#F2F4F5"/>
<path d="M24 24.75C20.83 24.75 18.25 22.17 18.25 19C18.25 15.83 20.83 13.25 24 13.25C27.17 13.25 29.75 15.83 29.75 19C29.75 22.17 27.17 24.75 24 24.75ZM24 14.75C21.66 14.75 19.75 16.66 19.75 19C19.75 21.34 21.66 23.25 24 23.25C26.34 23.25 28.25 21.34 28.25 19C28.25 16.66 26.34 14.75 24 14.75Z" fill="#637381"/>
<path d="M32.5901 34.75C32.1801 34.75 31.8401 34.41 31.8401 34C31.8401 30.55 28.3202 27.75 24.0002 27.75C19.6802 27.75 16.1602 30.55 16.1602 34C16.1602 34.41 15.8202 34.75 15.4102 34.75C15.0002 34.75 14.6602 34.41 14.6602 34C14.6602 29.73 18.8502 26.25 24.0002 26.25C29.1502 26.25 33.3401 29.73 33.3401 34C33.3401 34.41 33.0001 34.75 32.5901 34.75Z" fill="#637381"/>
</svg>
