<svg width="26" height="26" viewBox="0 0 26 26" fill="none" xmlns="http://www.w3.org/2000/svg">
<path d="M13.0001 2.08984C13.8915 2.08976 14.749 2.43156 15.396 3.04483C16.0429 3.65809 16.43 4.49612 16.4776 5.38627L16.4822 5.57199H21.5894C21.7658 5.57204 21.9357 5.63907 22.0646 5.75953C22.1935 5.87999 22.2719 6.04491 22.284 6.22095C22.296 6.39699 22.2407 6.57103 22.1294 6.70791C22.018 6.84478 21.8589 6.93429 21.6841 6.95834L21.5894 6.96484H20.606L19.4731 20.9426C19.4025 21.8146 19.0061 22.6281 18.363 23.2211C17.7198 23.8142 16.877 24.1435 16.0021 24.1434H9.998C9.12314 24.1435 8.28031 23.8142 7.63717 23.2211C6.99402 22.6281 6.59769 21.8146 6.527 20.9426L5.39321 6.96484H4.41078C4.24249 6.96484 4.0799 6.90389 3.95306 6.79327C3.82623 6.68266 3.74374 6.52986 3.72086 6.36313L3.71436 6.26841C3.71436 6.10012 3.77531 5.93753 3.88593 5.81069C3.99654 5.68386 4.14934 5.60137 4.31607 5.57849L4.41078 5.57199H9.51793C9.51793 4.64846 9.88479 3.76277 10.5378 3.10974C11.1909 2.45671 12.0765 2.08984 13.0001 2.08984ZM19.2094 6.96484H6.79071L7.91521 20.8303C7.95767 21.3535 8.19552 21.8415 8.58144 22.1973C8.96736 22.5531 9.47308 22.7506 9.998 22.7506H16.0021C16.5271 22.7506 17.0328 22.5531 17.4187 22.1973C17.8046 21.8415 18.0425 21.3535 18.0849 20.8303L19.2085 6.96484H19.2094ZM10.9108 10.447C11.0791 10.447 11.2417 10.5079 11.3685 10.6186C11.4953 10.7292 11.5778 10.882 11.6007 11.0487L11.6072 11.1434V18.572C11.6072 18.7484 11.5401 18.9183 11.4197 19.0472C11.2992 19.1762 11.1343 19.2546 10.9583 19.2666C10.7822 19.2786 10.6082 19.2234 10.4713 19.112C10.3344 19.0007 10.2449 18.8415 10.2209 18.6667L10.2144 18.572V11.1434C10.2144 10.9587 10.2877 10.7816 10.4183 10.651C10.5489 10.5204 10.7261 10.447 10.9108 10.447ZM15.0894 10.447C15.2576 10.447 15.4202 10.5079 15.5471 10.6186C15.6739 10.7292 15.7564 10.882 15.7793 11.0487L15.7858 11.1434V18.572C15.7857 18.7484 15.7187 18.9183 15.5982 19.0472C15.4778 19.1762 15.3129 19.2546 15.1368 19.2666C14.9608 19.2786 14.7867 19.2234 14.6499 19.112C14.513 19.0007 14.4235 18.8415 14.3994 18.6667L14.3929 18.572V11.1434C14.3929 10.9587 14.4663 10.7816 14.5969 10.651C14.7275 10.5204 14.9047 10.447 15.0894 10.447ZM13.0001 3.4827C12.4707 3.48264 11.961 3.68355 11.574 4.04483C11.187 4.40611 10.9517 4.90082 10.9154 5.42899L10.9108 5.57199H15.0894L15.0847 5.42899C15.0485 4.90082 14.8131 4.40611 14.4261 4.04483C14.0392 3.68355 13.5295 3.48264 13.0001 3.4827Z" fill="#252424"/>
</svg>
