<svg width="20" height="20" viewBox="0 0 20 20" fill="none" xmlns="http://www.w3.org/2000/svg">
<path d="M10.0003 2.52344C10.686 2.52338 11.3456 2.77315 11.8433 3.22131C12.3409 3.66946 12.6387 4.28187 12.6753 4.93237L12.6788 5.06808H16.6074C16.7432 5.06812 16.8738 5.1171 16.973 5.20513C17.0722 5.29316 17.1325 5.41368 17.1417 5.54232C17.151 5.67096 17.1085 5.79815 17.0228 5.89818C16.9372 5.9982 16.8147 6.06361 16.6803 6.08119L16.6074 6.08594H15.851L14.9796 16.3005C14.9252 16.9377 14.6203 17.5321 14.1256 17.9655C13.6309 18.3989 12.9825 18.6396 12.3096 18.6395H7.69099C7.01802 18.6396 6.3697 18.3989 5.87497 17.9655C5.38024 17.5321 5.07537 16.9377 5.02099 16.3005L4.14885 6.08594H3.39314C3.26368 6.08593 3.13861 6.04139 3.04104 5.96056C2.94348 5.87972 2.88003 5.76806 2.86242 5.64622L2.85742 5.57701C2.85743 5.45403 2.90431 5.33521 2.9894 5.24252C3.07449 5.14983 3.19203 5.08956 3.32028 5.07283L3.39314 5.06808H7.32171C7.32171 4.3932 7.60391 3.74596 8.10624 3.26875C8.60857 2.79153 9.28988 2.52344 10.0003 2.52344ZM14.7767 6.08594H5.22385L6.08885 16.2184C6.12151 16.6007 6.30447 16.9573 6.60133 17.2174C6.8982 17.4774 7.28721 17.6217 7.69099 17.6216H12.3096C12.7133 17.6217 13.1024 17.4774 13.3992 17.2174C13.6961 16.9573 13.879 16.6007 13.9117 16.2184L14.776 6.08594H14.7767ZM8.39314 8.63058C8.52259 8.63058 8.64767 8.67512 8.74523 8.75596C8.84279 8.83679 8.90624 8.94845 8.92385 9.07029L8.92885 9.13951V14.5681C8.92881 14.697 8.87725 14.8211 8.78458 14.9154C8.69192 15.0096 8.56506 15.0669 8.42965 15.0757C8.29423 15.0845 8.16036 15.0441 8.05506 14.9627C7.94977 14.8813 7.88092 14.765 7.86242 14.6373L7.85742 14.5681V9.13951C7.85742 9.00453 7.91386 8.87508 8.01433 8.77964C8.11479 8.6842 8.25106 8.63058 8.39314 8.63058ZM11.6074 8.63058C11.7369 8.63058 11.862 8.67512 11.9595 8.75596C12.0571 8.83679 12.1205 8.94845 12.1381 9.07029L12.1431 9.13951V14.5681C12.1431 14.697 12.0915 14.8211 11.9989 14.9154C11.9062 15.0096 11.7794 15.0669 11.6439 15.0757C11.5085 15.0845 11.3746 15.0441 11.2694 14.9627C11.1641 14.8813 11.0952 14.765 11.0767 14.6373L11.0717 14.5681V9.13951C11.0717 9.00453 11.1281 8.87508 11.2286 8.77964C11.3291 8.6842 11.4653 8.63058 11.6074 8.63058ZM10.0003 3.54129C9.59304 3.54125 9.20098 3.68807 8.90331 3.95208C8.60565 4.21609 8.42458 4.57762 8.39671 4.96358L8.39314 5.06808H11.6074L11.6038 4.96358C11.576 4.57762 11.3949 4.21609 11.0972 3.95208C10.7996 3.68807 10.4075 3.54125 10.0003 3.54129Z" fill="#2C2C2C"/>
</svg>
