<svg width="20" height="21" viewBox="0 0 20 21" fill="none" xmlns="http://www.w3.org/2000/svg">
<path d="M14.4019 6.71875H14.3354H4.93036H4.86377H3.85669L4.66402 16.6736C4.72228 17.3406 5.02191 17.9743 5.51297 18.4245C6.00403 18.8831 6.65322 19.1332 7.32739 19.1332H11.9383C12.6125 19.1332 13.2617 18.8831 13.7528 18.4245C14.2438 17.9659 14.5518 17.3406 14.6017 16.6736L15.409 6.71875H14.4019ZM10.7065 9.1366C10.7065 8.99487 10.7648 8.86147 10.8647 8.76142C10.9645 8.66137 11.0977 8.60301 11.2392 8.60301C11.3724 8.60301 11.4972 8.65303 11.5888 8.73641C11.6886 8.81978 11.7469 8.93651 11.7636 9.0699L11.7719 9.14494V14.8644C11.7719 14.9978 11.7219 15.1312 11.6304 15.2313C11.5388 15.3313 11.414 15.3897 11.2725 15.398C11.1393 15.4064 11.0062 15.3647 10.898 15.2813C10.7898 15.1979 10.7232 15.0729 10.7065 14.9395L10.6982 14.8644V9.1366H10.7065ZM7.49385 9.1366C7.49385 8.99487 7.55211 8.85313 7.65198 8.75308C7.75186 8.65303 7.88503 8.59467 8.02652 8.59467C8.15969 8.59467 8.28453 8.6447 8.37609 8.72807C8.47596 8.81144 8.53422 8.92817 8.55087 9.06157L8.55919 9.1366V14.8561C8.55919 14.9895 8.50925 15.1229 8.4177 15.2229C8.32615 15.323 8.2013 15.3813 8.05981 15.3897C7.91832 15.398 7.79347 15.3563 7.68528 15.273C7.57708 15.1896 7.51049 15.0645 7.49385 14.9311V14.8477V9.1366Z" fill="#8C8C8C"/>
<path d="M16.5992 4.99436C16.4993 4.90265 16.3661 4.85262 16.233 4.85262H12.3128V4.71088C12.2795 4.02722 11.9799 3.3769 11.4805 2.91C10.9811 2.43477 10.3153 2.16797 9.63282 2.16797C8.92536 2.16797 8.24288 2.45144 7.7435 2.95169C7.24412 3.45193 6.96113 4.1356 6.96113 4.84428H3.03267L2.96609 4.85262C2.84124 4.8693 2.72472 4.936 2.63317 5.02771C2.54162 5.11942 2.5 5.25282 2.5 5.38622L2.50832 5.46125C2.52497 5.58631 2.59155 5.70304 2.68311 5.79475C2.78298 5.86979 2.90783 5.91981 3.03267 5.91981H3.79007H4.86374H6.96113H8.0348H11.2475H12.3212H14.4186H15.4922H16.2496L16.3245 5.91147C16.4577 5.8948 16.5825 5.8281 16.6658 5.71971C16.749 5.61133 16.7906 5.47793 16.7823 5.34453C16.7573 5.21113 16.6991 5.08607 16.5992 4.99436ZM8.02648 4.84428V4.7359C8.05977 4.32736 8.24288 3.95218 8.54251 3.66871C8.84214 3.39357 9.23332 3.23516 9.64114 3.23516C10.049 3.23516 10.4402 3.39357 10.7398 3.66871C11.0394 3.94384 11.2142 4.32736 11.2475 4.7359V4.84428H8.02648Z" fill="#8C8C8C"/>
</svg>
