<svg width="18" height="18" viewBox="0 0 18 18" fill="none" xmlns="http://www.w3.org/2000/svg">
<path d="M8.99986 1.44629C9.617 1.44623 10.2107 1.68286 10.6586 2.10743C11.1064 2.532 11.3744 3.11217 11.4074 3.72843L11.4106 3.857H14.9463C15.0684 3.85704 15.186 3.90345 15.2753 3.98684C15.3646 4.07024 15.4188 4.18441 15.4272 4.30628C15.4355 4.42816 15.3972 4.54865 15.3202 4.64341C15.2431 4.73817 15.1329 4.80014 15.0119 4.81679L14.9463 4.82129H14.2655L13.4812 14.4982C13.4323 15.1019 13.1579 15.6651 12.7126 16.0757C12.2674 16.4862 11.6839 16.7142 11.0782 16.7141H6.9215C6.31583 16.7142 5.73234 16.4862 5.28708 16.0757C4.84183 15.6651 4.56744 15.1019 4.5185 14.4982L3.73357 4.82129H3.05343C2.93692 4.82128 2.82436 4.77909 2.73655 4.70251C2.64874 4.62593 2.59163 4.52015 2.57579 4.40472L2.57129 4.33915C2.57129 4.22264 2.61349 4.11007 2.69007 4.02226C2.76665 3.93446 2.87243 3.87735 2.98786 3.8615L3.05343 3.857H6.58915C6.58915 3.21764 6.84313 2.60447 7.29523 2.15237C7.74732 1.70027 8.3605 1.44629 8.99986 1.44629ZM13.2986 4.82129H4.70107L5.47957 14.4204C5.50897 14.7826 5.67363 15.1205 5.94081 15.3669C6.20799 15.6132 6.5581 15.7499 6.9215 15.7499H11.0782C11.4416 15.7499 11.7917 15.6132 12.0589 15.3669C12.3261 15.1205 12.4908 14.7826 12.5201 14.4204L13.298 4.82129H13.2986ZM7.55343 7.232C7.66994 7.23201 7.78251 7.2742 7.87032 7.35078C7.95812 7.42736 8.01523 7.53315 8.03107 7.64857L8.03557 7.71415V12.857C8.03554 12.9792 7.98913 13.0968 7.90574 13.186C7.82234 13.2753 7.70817 13.3296 7.58629 13.3379C7.46442 13.3462 7.34393 13.308 7.24917 13.2309C7.15441 13.1538 7.09244 13.0436 7.07579 12.9226L7.07129 12.857V7.71415C7.07129 7.58627 7.12209 7.46364 7.21251 7.37322C7.30293 7.2828 7.42556 7.232 7.55343 7.232ZM10.4463 7.232C10.5628 7.23201 10.6754 7.2742 10.7632 7.35078C10.851 7.42736 10.9081 7.53315 10.9239 7.64857L10.9284 7.71415V12.857C10.9284 12.9792 10.882 13.0968 10.7986 13.186C10.7152 13.2753 10.601 13.3296 10.4792 13.3379C10.3573 13.3462 10.2368 13.308 10.142 13.2309C10.0473 13.1538 9.9853 13.0436 9.96865 12.9226L9.96415 12.857V7.71415C9.96415 7.58627 10.0149 7.46364 10.1054 7.37322C10.1958 7.2828 10.3184 7.232 10.4463 7.232ZM8.99986 2.41057C8.63335 2.41053 8.28049 2.54962 8.01259 2.79974C7.74469 3.04986 7.58173 3.39235 7.55665 3.758L7.55343 3.857H10.4463L10.4431 3.758C10.418 3.39235 10.255 3.04986 9.98713 2.79974C9.71923 2.54962 9.36637 2.41053 8.99986 2.41057Z" fill="#2C2C2C"/>
</svg>
