<svg width="20" height="20" viewBox="0 0 20 20" fill="none" xmlns="http://www.w3.org/2000/svg">
<path d="M10.0003 1.60938C10.686 1.60931 11.3456 1.87223 11.8433 2.34398C12.3409 2.81572 12.6387 3.46035 12.6753 4.14509L12.6788 4.28795H16.6074C16.7432 4.28799 16.8738 4.33955 16.973 4.43221C17.0722 4.52487 17.1325 4.65173 17.1417 4.78715C17.151 4.92256 17.1085 5.05644 17.0228 5.16173C16.9372 5.26702 16.8147 5.33587 16.6803 5.35437L16.6074 5.35937H15.851L14.9796 16.1115C14.9252 16.7823 14.6203 17.408 14.1256 17.8642C13.6309 18.3204 12.9825 18.5737 12.3096 18.5737H7.69099C7.01802 18.5737 6.3697 18.3204 5.87497 17.8642C5.38024 17.408 5.07537 16.7823 5.02099 16.1115L4.14885 5.35937H3.39314C3.26368 5.35937 3.13861 5.31249 3.04104 5.2274C2.94348 5.14231 2.88003 5.02477 2.86242 4.89652L2.85742 4.82366C2.85743 4.6942 2.90431 4.56913 2.9894 4.47157C3.07449 4.374 3.19203 4.31055 3.32028 4.29295L3.39314 4.28795H7.32171C7.32171 3.57754 7.60391 2.89624 8.10624 2.39391C8.60857 1.89158 9.28988 1.60938 10.0003 1.60938ZM14.7767 5.35937H5.22385L6.08885 16.0251C6.12151 16.4275 6.30447 16.803 6.60133 17.0767C6.8982 17.3504 7.28721 17.5023 7.69099 17.5022H12.3096C12.7133 17.5023 13.1024 17.3504 13.3992 17.0767C13.6961 16.803 13.879 16.4275 13.9117 16.0251L14.776 5.35937H14.7767ZM8.39314 8.03795C8.52259 8.03795 8.64767 8.08483 8.74523 8.16992C8.84279 8.25501 8.90624 8.37255 8.92385 8.5008L8.92885 8.57366V14.2879C8.92881 14.4237 8.87725 14.5543 8.78458 14.6535C8.69192 14.7527 8.56506 14.813 8.42965 14.8222C8.29423 14.8315 8.16036 14.789 8.05506 14.7034C7.94977 14.6177 7.88092 14.4953 7.86242 14.3608L7.85742 14.2879V8.57366C7.85742 8.43158 7.91386 8.29532 8.01433 8.19485C8.11479 8.09439 8.25106 8.03795 8.39314 8.03795ZM11.6074 8.03795C11.7369 8.03795 11.862 8.08483 11.9595 8.16992C12.0571 8.25501 12.1205 8.37255 12.1381 8.5008L12.1431 8.57366V14.2879C12.1431 14.4237 12.0915 14.5543 11.9989 14.6535C11.9062 14.7527 11.7794 14.813 11.6439 14.8222C11.5085 14.8315 11.3746 14.789 11.2694 14.7034C11.1641 14.6177 11.0952 14.4953 11.0767 14.3608L11.0717 14.2879V8.57366C11.0717 8.43158 11.1281 8.29532 11.2286 8.19485C11.3291 8.09439 11.4653 8.03795 11.6074 8.03795ZM10.0003 2.6808C9.59304 2.68075 9.20098 2.8353 8.90331 3.11321C8.60565 3.39112 8.42458 3.77167 8.39671 4.17795L8.39314 4.28795H11.6074L11.6038 4.17795C11.576 3.77167 11.3949 3.39112 11.0972 3.11321C10.7996 2.8353 10.4075 2.68075 10.0003 2.6808Z" fill="#2C2C2C"/>
</svg>
