<svg width="18" height="22" viewBox="0 0 18 22" fill="none" xmlns="http://www.w3.org/2000/svg">
<path d="M9.00014 0.929688C9.82299 0.929614 10.6145 1.24512 11.2117 1.81121C11.8089 2.3773 12.1663 3.15086 12.2101 3.97254L12.2144 4.14397H16.9287C17.0916 4.14402 17.2484 4.2059 17.3674 4.31709C17.4864 4.42829 17.5588 4.58051 17.5699 4.74301C17.581 4.90551 17.53 5.06617 17.4272 5.19251C17.3244 5.31886 17.1775 5.40149 17.0161 5.42369L16.9287 5.42969H16.021L14.9753 18.3323C14.91 19.1372 14.5442 19.888 13.9505 20.4355C13.3568 20.983 12.5788 21.2869 11.7713 21.2868H6.229C5.42143 21.2869 4.64344 20.983 4.04977 20.4355C3.4561 19.888 3.09025 19.1372 3.025 18.3323L1.97843 5.42969H1.07157C0.916222 5.42968 0.766132 5.37342 0.649056 5.27132C0.53198 5.16921 0.455838 5.02816 0.434711 4.87426L0.428711 4.78683C0.428717 4.63148 0.484976 4.48139 0.587083 4.36432C0.689189 4.24724 0.830236 4.1711 0.984139 4.14997L1.07157 4.14397H5.78585C5.78585 3.29149 6.1245 2.47393 6.7273 1.87113C7.33009 1.26833 8.14766 0.929688 9.00014 0.929688ZM14.7319 5.42969H3.26843L4.30643 18.2285C4.34562 18.7115 4.56517 19.162 4.92141 19.4904C5.27764 19.8189 5.74446 20.0012 6.229 20.0011H11.7713C12.2558 20.0012 12.7226 19.8189 13.0789 19.4904C13.4351 19.162 13.6547 18.7115 13.6939 18.2285L14.731 5.42969H14.7319ZM7.07157 8.64397C7.22691 8.64398 7.377 8.70024 7.49408 8.80234C7.61116 8.90445 7.6873 9.0455 7.70843 9.1994L7.71442 9.28683V16.144C7.71438 16.3068 7.6525 16.4636 7.54131 16.5827C7.43011 16.7017 7.27788 16.774 7.11538 16.7851C6.95289 16.7962 6.79223 16.7452 6.66588 16.6425C6.53953 16.5397 6.45691 16.3928 6.43471 16.2314L6.42871 16.144V9.28683C6.42871 9.11633 6.49644 8.95282 6.617 8.83226C6.73756 8.7117 6.90107 8.64397 7.07157 8.64397ZM10.9287 8.64397C11.0841 8.64398 11.2341 8.70024 11.3512 8.80234C11.4683 8.90445 11.5444 9.0455 11.5656 9.1994L11.5716 9.28683V16.144C11.5715 16.3068 11.5096 16.4636 11.3984 16.5827C11.2873 16.7017 11.135 16.774 10.9725 16.7851C10.81 16.7962 10.6494 16.7452 10.523 16.6425C10.3967 16.5397 10.3141 16.3928 10.2919 16.2314L10.2859 16.144V9.28683C10.2859 9.11633 10.3536 8.95282 10.4741 8.83226C10.5947 8.7117 10.7582 8.64397 10.9287 8.64397ZM9.00014 2.2154C8.51146 2.21534 8.04098 2.4008 7.68378 2.73429C7.32658 3.06778 7.1093 3.52444 7.07585 4.01197L7.07157 4.14397H10.9287L10.9244 4.01197C10.891 3.52444 10.6737 3.06778 10.3165 2.73429C9.9593 2.4008 9.48882 2.21534 9.00014 2.2154Z" fill="#FFFFFF"/>
</svg>
