<svg width="24" height="24" viewBox="0 0 24 24" fill="none" xmlns="http://www.w3.org/2000/svg">
<path d="M12.0001 4.44727C12.6172 4.44721 13.2109 4.68384 13.6588 5.10841C14.1067 5.53297 14.3747 6.11315 14.4076 6.72941L14.4108 6.85798H17.9465C18.0687 6.85802 18.1863 6.90442 18.2755 6.98782C18.3648 7.07122 18.4191 7.18539 18.4274 7.30726C18.4357 7.42913 18.3975 7.54962 18.3204 7.64439C18.2433 7.73915 18.1331 7.80111 18.0121 7.81777L17.9465 7.82227H17.2657L16.4815 17.4992C16.4325 18.1029 16.1581 18.666 15.7129 19.0766C15.2676 19.4872 14.6841 19.7152 14.0785 19.7151H9.92175C9.31608 19.7152 8.73258 19.4872 8.28733 19.0766C7.84207 18.666 7.56769 18.1029 7.51875 17.4992L6.73382 7.82227H6.05368C5.93717 7.82226 5.8246 7.78007 5.73679 7.70349C5.64899 7.62691 5.59188 7.52112 5.57603 7.40569L5.57153 7.34012C5.57154 7.22361 5.61373 7.11105 5.69031 7.02324C5.76689 6.93543 5.87268 6.87833 5.9881 6.86248L6.05368 6.85798H9.58939C9.58939 6.21862 9.84338 5.60544 10.2955 5.15335C10.7476 4.70125 11.3607 4.44727 12.0001 4.44727ZM16.2989 7.82227H7.70132L8.47982 17.4214C8.50921 17.7836 8.67388 18.1215 8.94105 18.3678C9.20823 18.6142 9.55834 18.7509 9.92175 18.7508H14.0785C14.4419 18.7509 14.792 18.6142 15.0592 18.3678C15.3263 18.1215 15.491 17.7836 15.5204 17.4214L16.2982 7.82227H16.2989ZM10.5537 10.233C10.6702 10.233 10.7828 10.2752 10.8706 10.3518C10.9584 10.4283 11.0155 10.5341 11.0313 10.6496L11.0358 10.7151V15.858C11.0358 15.9801 10.9894 16.0977 10.906 16.187C10.8226 16.2762 10.7084 16.3305 10.5865 16.3389C10.4647 16.3472 10.3442 16.3089 10.2494 16.2318C10.1547 16.1548 10.0927 16.0446 10.076 15.9236L10.0715 15.858V10.7151C10.0715 10.5873 10.1223 10.4646 10.2127 10.3742C10.3032 10.2838 10.4258 10.233 10.5537 10.233ZM13.4465 10.233C13.563 10.233 13.6756 10.2752 13.7634 10.3518C13.8512 10.4283 13.9083 10.5341 13.9242 10.6496L13.9287 10.7151V15.858C13.9286 15.9801 13.8822 16.0977 13.7988 16.187C13.7154 16.2762 13.6013 16.3305 13.4794 16.3389C13.3575 16.3472 13.237 16.3089 13.1423 16.2318C13.0475 16.1548 12.9855 16.0446 12.9689 15.9236L12.9644 15.858V10.7151C12.9644 10.5873 13.0152 10.4646 13.1056 10.3742C13.196 10.2838 13.3187 10.233 13.4465 10.233ZM12.0001 5.41155C11.6336 5.41151 11.2807 5.5506 11.0128 5.80072C10.7449 6.05084 10.582 6.39333 10.5569 6.75898L10.5537 6.85798H13.4465L13.4433 6.75898C13.4182 6.39333 13.2553 6.05084 12.9874 5.80072C12.7195 5.5506 12.3666 5.41151 12.0001 5.41155Z" fill="#20a2a2"/>
</svg>
