<svg width="16" height="16" viewBox="0 0 16 16" fill="none" xmlns="http://www.w3.org/2000/svg">
<path d="M7.99999 1.28516C8.54856 1.28511 9.07626 1.49544 9.47438 1.87284C9.87251 2.25023 10.1107 2.76594 10.14 3.31373L10.1428 3.42801H13.2857C13.3943 3.42805 13.4988 3.4693 13.5782 3.54343C13.6575 3.61756 13.7057 3.71904 13.7131 3.82737C13.7205 3.93571 13.6866 4.04281 13.618 4.12704C13.5495 4.21127 13.4516 4.26636 13.344 4.28116L13.2857 4.28516H12.6806L11.9834 12.8869C11.9399 13.4235 11.696 13.9241 11.3002 14.289C10.9045 14.654 10.3858 14.8566 9.84742 14.8566H6.15256C5.61419 14.8566 5.09553 14.654 4.69974 14.289C4.30396 13.9241 4.06006 13.4235 4.01656 12.8869L3.31885 4.28516H2.71428C2.61071 4.28515 2.51065 4.24765 2.4326 4.17957C2.35455 4.1115 2.30379 4.01747 2.28971 3.91487L2.28571 3.85658C2.28571 3.75302 2.32322 3.65296 2.39129 3.57491C2.45936 3.49686 2.55339 3.4461 2.65599 3.43201L2.71428 3.42801H5.85713C5.85713 2.85969 6.0829 2.31465 6.48476 1.91278C6.88663 1.51092 7.43167 1.28516 7.99999 1.28516ZM11.8211 4.28516H4.17885L4.87085 12.8177C4.89698 13.1397 5.04334 13.44 5.28084 13.659C5.51833 13.878 5.82954 13.9995 6.15256 13.9994H9.84742C10.1704 13.9995 10.4817 13.878 10.7191 13.659C10.9566 13.44 11.103 13.1397 11.1291 12.8177L11.8206 4.28516H11.8211ZM6.71428 6.42801C6.81784 6.42802 6.9179 6.46552 6.99595 6.53359C7.074 6.60167 7.12476 6.6957 7.13885 6.7983L7.14285 6.85658V11.428C7.14281 11.5366 7.10157 11.6411 7.02743 11.7205C6.9533 11.7998 6.85182 11.8481 6.74349 11.8555C6.63516 11.8629 6.52805 11.8289 6.44382 11.7603C6.35959 11.6918 6.30451 11.5939 6.28971 11.4863L6.28571 11.428V6.85658C6.28571 6.74292 6.33086 6.63391 6.41123 6.55354C6.4916 6.47317 6.60061 6.42801 6.71428 6.42801ZM9.28571 6.42801C9.38927 6.42802 9.48933 6.46552 9.56738 6.53359C9.64543 6.60167 9.69619 6.6957 9.71028 6.7983L9.71428 6.85658V11.428C9.71424 11.5366 9.67299 11.6411 9.59886 11.7205C9.52473 11.7998 9.42325 11.8481 9.31492 11.8555C9.20658 11.8629 9.09948 11.8289 9.01525 11.7603C8.93102 11.6918 8.87593 11.5939 8.86113 11.4863L8.85713 11.428V6.85658C8.85713 6.74292 8.90229 6.63391 8.98266 6.55354C9.06303 6.47317 9.17204 6.42801 9.28571 6.42801ZM7.99999 2.1423C7.6742 2.14226 7.36055 2.2659 7.12242 2.48822C6.88428 2.71055 6.73943 3.01499 6.71713 3.34001L6.71428 3.42801H9.28571L9.28285 3.34001C9.26055 3.01499 9.1157 2.71055 8.87756 2.48822C8.63943 2.2659 8.32578 2.14226 7.99999 2.1423Z" fill="#20a2a2"/>
</svg>
