<svg width="24" height="24" viewBox="0 0 24 24" fill="none" xmlns="http://www.w3.org/2000/svg">
<path d="M17.2822 7.46289H17.2023H5.91633H5.83643H4.62793L5.59673 19.4088C5.66664 20.2092 6.0262 20.9695 6.61546 21.5098C7.20473 22.0601 7.98377 22.3602 8.79277 22.3602H14.3259C15.1349 22.3602 15.9139 22.0601 16.5032 21.5098C17.0925 20.9595 17.462 20.2092 17.5219 19.4088L18.4907 7.46289H17.2822ZM12.8477 10.3643C12.8477 10.1942 12.9177 10.0342 13.0375 9.91409C13.1574 9.79404 13.3172 9.724 13.4869 9.724C13.6467 9.724 13.7966 9.78403 13.9064 9.88408C14.0263 9.98413 14.0962 10.1242 14.1162 10.2843L14.1262 10.3743V17.2377C14.1262 17.3978 14.0662 17.5578 13.9564 17.6779C13.8465 17.798 13.6967 17.868 13.5269 17.878C13.3671 17.888 13.2073 17.838 13.0775 17.7379C12.9476 17.6379 12.8677 17.4878 12.8477 17.3277L12.8377 17.2377V10.3643H12.8477ZM8.99252 10.3643C8.99252 10.1942 9.06243 10.0241 9.18228 9.90409C9.30213 9.78403 9.46194 9.714 9.63172 9.714C9.79153 9.714 9.94134 9.77403 10.0512 9.87407C10.1711 9.97412 10.241 10.1142 10.2609 10.2743L10.2709 10.3643V17.2277C10.2709 17.3878 10.211 17.5478 10.1011 17.6679C9.99128 17.788 9.84146 17.858 9.67167 17.868C9.50189 17.878 9.35207 17.828 9.22223 17.7279C9.09239 17.6279 9.01249 17.4778 8.99252 17.3177V17.2177V10.3643Z" fill="#7E7E7E"/>
<path d="M19.919 5.39167C19.7992 5.28161 19.6394 5.22158 19.4796 5.22158H14.7754V5.0515C14.7354 4.2311 14.3759 3.45071 13.7766 2.89044C13.1774 2.32016 12.3784 2 11.5594 2C10.7104 2 9.89145 2.34017 9.2922 2.94046C8.69294 3.54076 8.35336 4.36116 8.35336 5.21158H3.63921L3.55931 5.22158C3.40949 5.24159 3.26967 5.32163 3.1598 5.43169C3.04994 5.54174 3 5.70182 3 5.8619L3.00999 5.95194C3.02996 6.10201 3.10986 6.24208 3.21973 6.35214C3.33958 6.44218 3.48939 6.50221 3.63921 6.50221H4.54808H5.83648H8.35336H9.64176H13.497H14.7854H17.3023H18.5907H19.4995L19.5894 6.49221C19.7492 6.4722 19.899 6.39216 19.9989 6.26209C20.0988 6.13203 20.1487 5.97195 20.1387 5.81187C20.1088 5.65179 20.0389 5.50172 19.919 5.39167ZM9.63178 5.21158V5.08151C9.67173 4.59127 9.89145 4.14105 10.251 3.80088C10.6106 3.47072 11.08 3.28063 11.5694 3.28063C12.0588 3.28063 12.5282 3.47072 12.8877 3.80088C13.2473 4.13105 13.457 4.59127 13.497 5.08151V5.21158H9.63178Z" fill="#7E7E7E"/>
</svg>
