<svg width="20" height="20" viewBox="0 0 20 20" fill="none" xmlns="http://www.w3.org/2000/svg">
<path d="M13.6785 10.0003L14.8568 8.82199C15.0086 8.66482 15.0926 8.45432 15.0907 8.23583C15.0888 8.01733 15.0011 7.80832 14.8466 7.65381C14.6921 7.4993 14.4831 7.41166 14.2646 7.40976C14.0461 7.40787 13.8356 7.49186 13.6785 7.64366L12.5001 8.82199L11.3218 7.64366C11.2449 7.56407 11.153 7.50058 11.0513 7.45691C10.9496 7.41323 10.8403 7.39025 10.7296 7.38928C10.619 7.38832 10.5092 7.40941 10.4068 7.45131C10.3044 7.49321 10.2114 7.55509 10.1331 7.63333C10.0549 7.71157 9.993 7.80462 9.9511 7.90703C9.9092 8.00944 9.88811 8.11918 9.88908 8.22983C9.89004 8.34048 9.91303 8.44983 9.9567 8.5515C10.0004 8.65317 10.0639 8.74512 10.1435 8.82199L11.3218 10.0003L10.1435 11.1787C10.0639 11.2555 10.0004 11.3475 9.9567 11.4492C9.91303 11.5508 9.89004 11.6602 9.88908 11.7708C9.88811 11.8815 9.9092 11.9912 9.9511 12.0936C9.993 12.196 10.0549 12.2891 10.1331 12.3673C10.2114 12.4456 10.3044 12.5074 10.4068 12.5493C10.5092 12.5912 10.619 12.6123 10.7296 12.6114C10.8403 12.6104 10.9496 12.5874 11.0513 12.5437C11.153 12.5001 11.2449 12.4366 11.3218 12.357L12.5001 11.1787L13.6785 12.357C13.7553 12.4366 13.8473 12.5001 13.9489 12.5437C14.0506 12.5874 14.16 12.6104 14.2706 12.6114C14.3813 12.6123 14.491 12.5912 14.5934 12.5493C14.6958 12.5074 14.7889 12.4456 14.8671 12.3673C14.9454 12.2891 15.0072 12.196 15.0491 12.0936C15.091 11.9912 15.1121 11.8815 15.1112 11.7708C15.1102 11.6602 15.0872 11.5508 15.0435 11.4492C14.9999 11.3475 14.9364 11.2555 14.8568 11.1787L13.6785 10.0003ZM8.19012 4.16699H16.6668C17.1088 4.16699 17.5327 4.34259 17.8453 4.65515C18.1579 4.96771 18.3335 5.39163 18.3335 5.83366V14.167C18.3335 14.609 18.1579 15.0329 17.8453 15.3455C17.5327 15.6581 17.1088 15.8337 16.6668 15.8337H8.19012C7.74813 15.8336 7.32427 15.6579 7.01178 15.3453L2.25595 10.5895C2.09973 10.4332 2.01196 10.2213 2.01196 10.0003C2.01196 9.77936 2.09973 9.56743 2.25595 9.41116L7.01178 4.65533C7.32427 4.34274 7.74813 4.16709 8.19012 4.16699Z" fill="#AEAEAE"/>
</svg>
