<svg width="20" height="21" viewBox="0 0 20 21" fill="none" xmlns="http://www.w3.org/2000/svg">
<path d="M10.0003 2.10547C10.686 2.10541 11.3456 2.36833 11.8433 2.84007C12.3409 3.31181 12.6387 3.95645 12.6753 4.64118L12.6788 4.78404H16.6074C16.7432 4.78408 16.8738 4.83564 16.973 4.92831C17.0722 5.02097 17.1325 5.14782 17.1417 5.28324C17.151 5.41866 17.1085 5.55253 17.0228 5.65782C16.9372 5.76312 16.8147 5.83197 16.6803 5.85047L16.6074 5.85547H15.851L14.9796 16.6076C14.9252 17.2784 14.6203 17.9041 14.1256 18.3603C13.6309 18.8165 12.9825 19.0698 12.3096 19.0698H7.69099C7.01802 19.0698 6.3697 18.8165 5.87497 18.3603C5.38024 17.9041 5.07537 17.2784 5.02099 16.6076L4.14885 5.85547H3.39314C3.26368 5.85546 3.13861 5.80858 3.04104 5.72349C2.94348 5.6384 2.88003 5.52086 2.86242 5.39261L2.85742 5.31975C2.85743 5.1903 2.90431 5.06522 2.9894 4.96766C3.07449 4.8701 3.19203 4.80665 3.32028 4.78904L3.39314 4.78404H7.32171C7.32171 4.07364 7.60391 3.39233 8.10624 2.89C8.60857 2.38767 9.28988 2.10547 10.0003 2.10547ZM14.7767 5.85547H5.22385L6.08885 16.5212C6.12151 16.9236 6.30447 17.2991 6.60133 17.5728C6.8982 17.8465 7.28721 17.9984 7.69099 17.9983H12.3096C12.7133 17.9984 13.1024 17.8465 13.3992 17.5728C13.6961 17.2991 13.879 16.9236 13.9117 16.5212L14.776 5.85547H14.7767ZM8.39314 8.53404C8.52259 8.53404 8.64767 8.58093 8.74523 8.66602C8.84279 8.7511 8.90624 8.86864 8.92385 8.9969L8.92885 9.06975V14.784C8.92881 14.9198 8.87725 15.0504 8.78458 15.1496C8.69192 15.2488 8.56506 15.3091 8.42965 15.3183C8.29423 15.3276 8.16036 15.2851 8.05506 15.1994C7.94977 15.1138 7.88092 14.9914 7.86242 14.8569L7.85742 14.784V9.06975C7.85742 8.92767 7.91386 8.79141 8.01433 8.69095C8.11479 8.59048 8.25106 8.53404 8.39314 8.53404ZM11.6074 8.53404C11.7369 8.53404 11.862 8.58093 11.9595 8.66602C12.0571 8.7511 12.1205 8.86864 12.1381 8.9969L12.1431 9.06975V14.784C12.1431 14.9198 12.0915 15.0504 11.9989 15.1496C11.9062 15.2488 11.7794 15.3091 11.6439 15.3183C11.5085 15.3276 11.3746 15.2851 11.2694 15.1994C11.1641 15.1138 11.0952 14.9914 11.0767 14.8569L11.0717 14.784V9.06975C11.0717 8.92767 11.1281 8.79141 11.2286 8.69095C11.3291 8.59048 11.4653 8.53404 11.6074 8.53404ZM10.0003 3.1769C9.59304 3.17685 9.20098 3.33139 8.90331 3.6093C8.60565 3.88721 8.42458 4.26776 8.39671 4.67404L8.39314 4.78404H11.6074L11.6038 4.67404C11.576 4.26776 11.3949 3.88721 11.0972 3.6093C10.7996 3.33139 10.4075 3.17685 10.0003 3.1769Z" fill="#252424"/>
</svg>
