<svg width="40" height="40" viewBox="0 0 40 40" fill="none" xmlns="http://www.w3.org/2000/svg">
<path d="M30.2 0H21.8C14.9 0 12.1 2.74 12.02 9.5H18.2C26.6 9.5 30.5 13.4 30.5 21.8V27.98C37.26 27.9 40 25.1 40 18.2V9.8C40 2.8 37.2 0 30.2 0Z" fill="#FDB45C"/>
<path d="M18.2 12H9.8C2.8 12 0 14.8 0 21.8V30.2C0 37.2 2.8 40 9.8 40H18.2C25.2 40 28 37.2 28 30.2V21.8C28 14.8 25.2 12 18.2 12ZM20.58 23.3L13.16 30.72C12.88 31 12.52 31.14 12.14 31.14C11.76 31.14 11.4 31 11.12 30.72L7.4 27C6.84 26.44 6.84 25.54 7.4 24.98C7.96 24.42 8.86 24.42 9.42 24.98L12.12 27.68L18.54 21.26C19.1 20.7 20 20.7 20.56 21.26C21.12 21.82 21.14 22.74 20.58 23.3Z" fill="url(#paint0_linear_9509_80669)"/>
<defs>
<linearGradient id="paint0_linear_9509_80669" x1="0" y1="12" x2="28" y2="40" gradientUnits="userSpaceOnUse">
<stop stop-color="#F2DC76"/>
<stop offset="1" stop-color="#FA742B"/>
</linearGradient>
</defs>
</svg>
