<svg width="40" height="40" viewBox="0 0 40 40" fill="none" xmlns="http://www.w3.org/2000/svg">
<rect x="0.5" y="0.5" width="39" height="39" rx="10" fill="url(#paint0_linear_9509_79344)"/>
<path d="M16.8701 14.2109L22.8664 20.2072L16.8701 26.2035" stroke="white" stroke-width="3" stroke-miterlimit="10" stroke-linecap="round" stroke-linejoin="round"/>
<path d="M8.36426 20.207L22.699 20.207" stroke="white" stroke-width="3" stroke-miterlimit="10" stroke-linecap="round" stroke-linejoin="round"/>
<path fill-rule="evenodd" clip-rule="evenodd" d="M18.9748 27.5538L19.0408 27.6115L20.0428 28.0123L20.644 29.9495C20.7776 30.3503 21.1784 30.6843 21.646 30.6843H23.9172C24.3848 30.6843 24.7855 30.3503 24.9191 29.9495L25.5203 28.0123L26.5223 27.6115L28.2591 28.5467C28.6599 28.7471 29.1943 28.6803 29.5283 28.3463L31.1314 26.7431C31.4654 26.4091 31.5322 25.8748 31.3318 25.474L30.3967 23.7372L30.7975 22.7352L32.7346 22.134C33.1354 22.0004 33.4694 21.5996 33.4694 21.132V18.8609C33.4694 18.3933 33.1354 17.9257 32.6678 17.7921L30.7975 17.1909L30.3967 16.1889L31.3318 14.4521C31.5322 14.0513 31.4654 13.5169 31.1314 13.1829L29.5283 11.5798C29.1943 11.2458 28.6599 11.179 28.2591 11.3794L26.5223 12.3145L25.5203 11.9138L24.9191 10.0434C24.7855 9.64259 24.3848 9.30859 23.9172 9.30859H21.646C21.1784 9.30859 20.7776 9.64259 20.7108 10.1102L20.1096 11.9806C19.7088 12.0474 19.3748 12.181 19.0408 12.3813L18.7363 12.6465L20.6163 14.5265C21.3019 14.2528 22.0546 14.1029 22.8481 14.1029C26.1481 14.1029 28.741 16.6958 28.741 19.9958C28.741 23.2958 26.1481 25.8887 22.8481 25.8887C22.1791 25.8887 21.5391 25.7821 20.944 25.5847L18.9748 27.5538Z" fill="white"/>
<defs>
<linearGradient id="paint0_linear_9509_79344" x1="0.5" y1="0.5" x2="39.5" y2="39.5" gradientUnits="userSpaceOnUse">
<stop stop-color="#FFF446"/>
<stop offset="1" stop-color="#F51C91"/>
</linearGradient>
</defs>
</svg>
