<svg width="24" height="24" viewBox="0 0 24 24" fill="none" xmlns="http://www.w3.org/2000/svg">
<path d="M16.645 9.55875L8.53328 17.6718C8.09831 18.1054 7.55289 18.4149 6.95703 18.5635L3.84408 19.3408C3.73044 19.3691 3.61139 19.3676 3.4985 19.3364C3.38561 19.3051 3.28273 19.2452 3.19983 19.1625C3.11694 19.0797 3.05687 18.9769 3.02544 18.8641C2.99402 18.7513 2.99232 18.6322 3.0205 18.5185L3.79772 15.4056C3.94754 14.8088 4.25672 14.264 4.6922 13.8293L12.8025 5.7163L16.645 9.55738V9.55875ZM18.5675 3.79645C19.627 4.85728 19.627 6.57669 18.5675 7.63753L17.6049 8.59745L13.7638 4.75501L14.7251 3.79645C15.2345 3.28711 15.9253 3.00098 16.6456 3.00098C17.366 3.00098 18.0568 3.28711 18.5662 3.79645H18.5675Z" fill="#7E7E7E"/>
<path d="M3 21.75C3 21.3358 3.28413 21 3.63462 21H18.8654C19.2159 21 19.5 21.3358 19.5 21.75C19.5 22.1642 19.2159 22.5 18.8654 22.5H3.63462C3.28413 22.5 3 22.1642 3 21.75Z" fill="#7E7E7E"/>
</svg>
