<svg width="24" height="24" viewBox="0 0 24 24" fill="none" xmlns="http://www.w3.org/2000/svg">
<path d="M17.6756 5.09709C18.0576 5.4792 18.2722 5.99738 18.2722 6.53768C18.2722 7.07798 18.0576 7.59616 17.6756 7.97827L10.1497 15.5042C9.8233 15.8303 9.41447 16.0617 8.96684 16.1735L6.63276 16.7573C6.54738 16.7786 6.45793 16.7774 6.37313 16.7539C6.28833 16.7304 6.21108 16.6852 6.1489 16.623C6.08673 16.5607 6.04174 16.4834 6.01834 16.3985C5.99494 16.3137 5.99391 16.2242 6.01537 16.1389L6.59812 13.8058C6.7101 13.3577 6.94183 12.9485 7.26849 12.622L14.7934 5.09709C14.9826 4.9078 15.2073 4.75763 15.4545 4.65518C15.7018 4.55273 15.9668 4.5 16.2345 4.5C16.5021 4.5 16.7672 4.55273 17.0144 4.65518C17.2617 4.75763 17.4864 4.9078 17.6756 5.09709ZM14.0731 7.25696L7.98981 13.3433C7.79414 13.5392 7.65539 13.7847 7.5884 14.0534L7.21042 15.5643L8.72029 15.1863C8.9891 15.119 9.23456 14.9799 9.4304 14.7839L15.5147 8.69958L14.0741 7.25899L14.0731 7.25696ZM15.5147 5.81739L14.7934 6.53768L16.234 7.97827L16.9553 7.25798C17.1409 7.06583 17.2436 6.80847 17.2412 6.54135C17.2389 6.27422 17.1318 6.01869 16.9429 5.8298C16.754 5.6409 16.4984 5.53376 16.2313 5.53144C15.9642 5.52911 15.7068 5.6318 15.5147 5.81739Z" fill="#20a2a2"/>
<path d="M6 18.375C6 18.0643 6.2131 17.8125 6.47596 17.8125H17.899C18.1619 17.8125 18.375 18.0643 18.375 18.375C18.375 18.6857 18.1619 18.9375 17.899 18.9375H6.47596C6.2131 18.9375 6 18.6857 6 18.375Z" fill="#20a2a2"/>
</svg>
