<svg width="25" height="24" viewBox="0 0 25 24" fill="none" xmlns="http://www.w3.org/2000/svg">
<path d="M16.8456 9.55869L8.7339 17.6717C8.29893 18.1053 7.75352 18.4149 7.15765 18.5635L4.0447 19.3407C3.93106 19.3691 3.81201 19.3676 3.69912 19.3363C3.58624 19.3051 3.48335 19.2452 3.40046 19.1624C3.31756 19.0797 3.25749 18.9769 3.22606 18.864C3.19464 18.7512 3.19294 18.6322 3.22112 18.5185L3.99834 15.4055C4.14817 14.8088 4.45734 14.2639 4.89282 13.8293L13.0031 5.71624L16.8456 9.55732V9.55869ZM18.7682 3.79638C19.8276 4.85721 19.8276 6.57663 18.7682 7.63746L17.8055 8.59739L13.9644 4.75495L14.9257 3.79638C15.4351 3.28705 16.1259 3.00092 16.8463 3.00092C17.5666 3.00092 18.2574 3.28705 18.7668 3.79638H18.7682Z" fill="#7E7E7E"/>
<path d="M3.2002 21.75C3.2002 21.3358 3.48432 21 3.83481 21H19.0656C19.4161 21 19.7002 21.3358 19.7002 21.75C19.7002 22.1642 19.4161 22.5 19.0656 22.5H3.83481C3.48432 22.5 3.2002 22.1642 3.2002 21.75Z" fill="#7E7E7E"/>
</svg>
