<svg width="20" height="21" viewBox="0 0 20 21" fill="none" xmlns="http://www.w3.org/2000/svg">
<path d="M13.8708 8.46481L7.11109 15.2257C6.74862 15.587 6.29411 15.8449 5.79755 15.9688L3.20343 16.6165C3.10873 16.6401 3.00952 16.6389 2.91545 16.6128C2.82137 16.5868 2.73563 16.5369 2.66656 16.4679C2.59748 16.399 2.54742 16.3133 2.52123 16.2193C2.49505 16.1252 2.49363 16.026 2.51711 15.9313L3.16479 13.3372C3.28965 12.8399 3.5473 12.3859 3.91019 12.0236L10.6688 5.26277L13.8708 8.46367V8.46481ZM15.473 3.66289C16.3559 4.54692 16.3559 5.97976 15.473 6.86379L14.6708 7.66373L11.4699 4.46169L12.2709 3.66289C12.6954 3.23845 13.2711 3 13.8714 3C14.4717 3 15.0474 3.23845 15.4718 3.66289H15.473Z" fill="#8C8C8C"/>
<path d="M2.5 18.625C2.5 18.2798 2.73677 18 3.02885 18H15.7212C16.0132 18 16.25 18.2798 16.25 18.625C16.25 18.9702 16.0132 19.25 15.7212 19.25H3.02885C2.73677 19.25 2.5 18.9702 2.5 18.625Z" fill="#8C8C8C"/>
</svg>
