<svg width="17" height="18" viewBox="0 0 17 18" fill="none" xmlns="http://www.w3.org/2000/svg">
<path d="M11.7898 7.27106L6.04402 13.0178C5.73591 13.3249 5.34958 13.5442 4.92751 13.6495L2.7225 14.2C2.642 14.2201 2.55768 14.219 2.47772 14.1969C2.39775 14.1748 2.32487 14.1323 2.26616 14.0737C2.20744 14.0151 2.16489 13.9423 2.14263 13.8624C2.12037 13.7824 2.11917 13.6981 2.13913 13.6176L2.68966 11.4126C2.79579 10.9899 3.01479 10.604 3.32325 10.2961L9.06805 4.54933L11.7898 7.2701V7.27106ZM13.1516 3.18943C13.9021 3.94086 13.9021 5.15878 13.1516 5.9102L12.4697 6.59015L9.74897 3.86842L10.4299 3.18943C10.7907 2.82866 11.28 2.62598 11.7903 2.62598C12.3005 2.62598 12.7898 2.82866 13.1507 3.18943H13.1516Z" fill="#8C8C8C"/>
<path d="M2.125 15.9062C2.125 15.6128 2.32626 15.375 2.57452 15.375H13.363C13.6112 15.375 13.8125 15.6128 13.8125 15.9062C13.8125 16.1997 13.6112 16.4375 13.363 16.4375H2.57452C2.32626 16.4375 2.125 16.1997 2.125 15.9062Z" fill="#8C8C8C"/>
</svg>
