<svg width="24" height="24" viewBox="0 0 24 24" fill="none" xmlns="http://www.w3.org/2000/svg">
<path d="M20.4855 3.51583C21.0479 4.07841 21.3639 4.84134 21.3639 5.63683C21.3639 6.43232 21.0479 7.19525 20.4855 7.75783L9.40504 18.8383C8.92451 19.3185 8.32258 19.6591 7.66354 19.8238L4.22703 20.6833C4.10132 20.7147 3.96962 20.713 3.84477 20.6783C3.71993 20.6437 3.60619 20.5772 3.51464 20.4855C3.4231 20.3939 3.35687 20.28 3.32241 20.1551C3.28796 20.0302 3.28645 19.8985 3.31803 19.7728L4.17603 16.3378C4.34091 15.6781 4.68208 15.0756 5.16303 14.5948L16.242 3.51583C16.5206 3.23712 16.8514 3.01604 17.2155 2.8652C17.5795 2.71436 17.9697 2.63672 18.3638 2.63672C18.7579 2.63672 19.1481 2.71436 19.5121 2.8652C19.8762 3.01604 20.2069 3.23712 20.4855 3.51583ZM15.1815 6.69583L6.22504 15.6568C5.93695 15.9453 5.73267 16.3067 5.63404 16.7023L5.07753 18.9268L7.30054 18.3703C7.69631 18.2713 8.0577 18.0665 8.34604 17.7778L17.304 8.81983L15.183 6.69883L15.1815 6.69583ZM17.304 4.57633L16.242 5.63683L18.363 7.75783L19.425 6.69733C19.6983 6.41443 19.8495 6.03552 19.846 5.64223C19.8426 5.24893 19.6849 4.87271 19.4068 4.5946C19.1287 4.31649 18.7524 4.15873 18.3591 4.15532C17.9658 4.1519 17.5869 4.30309 17.304 4.57633Z" fill="#2C2C2C"/>
<path d="M3 22.5C3 22.0858 3.33579 21.75 3.75 21.75H21.75C22.1642 21.75 22.5 22.0858 22.5 22.5C22.5 22.9142 22.1642 23.25 21.75 23.25H3.75C3.33579 23.25 3 22.9142 3 22.5Z" fill="#2C2C2C"/>
</svg>
