<svg width="24" height="24" viewBox="0 0 24 24" fill="none" xmlns="http://www.w3.org/2000/svg">
<path d="M19.5674 2.79612C20.0768 3.3056 20.3629 3.99651 20.3629 4.71691C20.3629 5.43731 20.0768 6.12822 19.5674 6.63769L9.53289 16.6722C9.09773 17.1071 8.55262 17.4155 7.95579 17.5647L4.84368 18.3431C4.72984 18.3715 4.61057 18.3699 4.49751 18.3385C4.38444 18.3071 4.28144 18.247 4.19854 18.1639C4.11564 18.0809 4.05566 17.9778 4.02446 17.8647C3.99325 17.7516 3.99189 17.6323 4.02049 17.5185L4.7975 14.4078C4.94681 13.8103 5.25577 13.2647 5.69133 12.8293L15.7245 2.79612C15.9768 2.54373 16.2763 2.34351 16.606 2.20691C16.9357 2.07031 17.2891 2 17.646 2C18.0028 2 18.3562 2.07031 18.6859 2.20691C19.0156 2.34351 19.3151 2.54373 19.5674 2.79612ZM14.7641 5.67594L6.65308 13.791C6.39218 14.0523 6.20719 14.3796 6.11787 14.7379L5.6139 16.7524L7.62705 16.2484C7.98547 16.1587 8.31274 15.9732 8.57386 15.7118L16.6863 7.59944L14.7655 5.67866L14.7641 5.67594ZM16.6863 3.75652L15.7245 4.71691L17.6453 6.63769L18.607 5.6773C18.8545 5.4211 18.9914 5.07797 18.9883 4.7218C18.9852 4.36563 18.8423 4.02492 18.5905 3.77306C18.3386 3.5212 17.9979 3.37834 17.6418 3.37525C17.2856 3.37215 16.9425 3.50907 16.6863 3.75652Z" fill="#ffffff"/>
<path d="M4 20.5C4 20.0858 4.28413 19.75 4.63462 19.75H19.8654C20.2159 19.75 20.5 20.0858 20.5 20.5C20.5 20.9142 20.2159 21.25 19.8654 21.25H4.63462C4.28413 21.25 4 20.9142 4 20.5Z" fill="#ffffff"/>
</svg>
