<svg width="16" height="16" viewBox="0 0 16 16" fill="none" xmlns="http://www.w3.org/2000/svg">
<path d="M13.045 1.86473C13.3845 2.20439 13.5753 2.66499 13.5753 3.14526C13.5753 3.62552 13.3845 4.08613 13.045 4.42578L6.35528 11.1155C6.06517 11.4054 5.70177 11.611 5.30388 11.7105L3.22914 12.2294C3.15324 12.2483 3.07373 12.2473 2.99836 12.2263C2.92298 12.2054 2.85431 12.1653 2.79905 12.11C2.74378 12.0546 2.70379 11.9859 2.68299 11.9104C2.66219 11.835 2.66128 11.7555 2.68035 11.6797L3.19835 9.60583C3.29789 9.20752 3.50387 8.84377 3.79424 8.55352L10.483 1.86473C10.6512 1.69647 10.8509 1.56299 11.0707 1.47192C11.2905 1.38086 11.5261 1.33398 11.764 1.33398C12.0019 1.33398 12.2375 1.38086 12.4573 1.47192C12.6771 1.56299 12.8768 1.69647 13.045 1.86473ZM9.84276 3.78461L4.43541 9.19468C4.26148 9.36887 4.13815 9.58705 4.0786 9.82589L3.74262 11.1689L5.08472 10.8329C5.32366 10.7731 5.54185 10.6495 5.71593 10.4752L11.1242 5.06695L9.84367 3.78642L9.84276 3.78461ZM11.1242 2.505L10.483 3.14526L11.7635 4.42578L12.4047 3.78552C12.5697 3.61472 12.661 3.38596 12.6589 3.14852C12.6568 2.91107 12.5616 2.68393 12.3937 2.51603C12.2258 2.34812 11.9986 2.25288 11.7612 2.25082C11.5237 2.24875 11.295 2.34003 11.1242 2.505Z" fill="#20a2a2"/>
<path d="M2.66669 13.668C2.66669 13.3918 2.85611 13.168 3.08976 13.168H13.2436C13.4773 13.168 13.6667 13.3918 13.6667 13.668C13.6667 13.9441 13.4773 14.168 13.2436 14.168H3.08976C2.85611 14.168 2.66669 13.9441 2.66669 13.668Z" fill="#20a2a2"/>
</svg>
