<svg width="20" height="20" viewBox="0 0 20 20" fill="none" xmlns="http://www.w3.org/2000/svg">
<path d="M16.3059 3.2162C16.7303 3.61954 16.9687 4.16651 16.9687 4.73682C16.9687 5.30714 16.7303 5.85411 16.3059 6.25744L7.94375 14.2015C7.58112 14.5457 7.12686 14.7899 6.6295 14.908L4.03608 15.5242C3.9412 15.5467 3.84182 15.5455 3.7476 15.5206C3.65338 15.4958 3.56754 15.4481 3.49846 15.3824C3.42937 15.3167 3.37939 15.235 3.35339 15.1455C3.32738 15.0559 3.32625 14.9615 3.35008 14.8714L3.99759 12.4088C4.12201 11.9358 4.37948 11.5038 4.74245 11.1591L13.1034 3.2162C13.3137 3.01639 13.5633 2.85788 13.838 2.74974C14.1128 2.6416 14.4073 2.58594 14.7046 2.58594C15.002 2.58594 15.2965 2.6416 15.5713 2.74974C15.846 2.85788 16.0956 3.01639 16.3059 3.2162ZM12.3031 5.49606L5.54391 11.9205C5.32649 12.1274 5.17233 12.3864 5.0979 12.6701L4.67792 14.2649L6.35555 13.8659C6.65423 13.7949 6.92696 13.6481 7.14456 13.4411L13.9049 7.01883L12.3042 5.49821L12.3031 5.49606ZM13.9049 3.97651L13.1034 4.73682L14.7041 6.25744L15.5055 5.49713C15.7117 5.29431 15.8258 5.02266 15.8233 4.74069C15.8207 4.45873 15.7016 4.189 15.4917 3.98961C15.2819 3.79022 14.9979 3.67713 14.7011 3.67467C14.4043 3.67222 14.1184 3.78062 13.9049 3.97651Z" fill="#2C2C2C"/>
<path d="M3.33301 17.2344C3.33301 16.9065 3.56978 16.6406 3.86185 16.6406H16.5542C16.8462 16.6406 17.083 16.9065 17.083 17.2344C17.083 17.5623 16.8462 17.8281 16.5542 17.8281H3.86185C3.56978 17.8281 3.33301 17.5623 3.33301 17.2344Z" fill="#2C2C2C"/>
</svg>
