<svg width="20" height="19" viewBox="0 0 20 19" fill="none" xmlns="http://www.w3.org/2000/svg">
<path d="M16.3059 2.2123C16.7303 2.61563 16.9687 3.1626 16.9687 3.73292C16.9687 4.30323 16.7303 4.8502 16.3059 5.25354L7.94375 13.1975C7.58112 13.5418 7.12686 13.786 6.6295 13.9041L4.03608 14.5203C3.9412 14.5428 3.84182 14.5415 3.7476 14.5167C3.65338 14.4918 3.56754 14.4442 3.49846 14.3785C3.42937 14.3128 3.37939 14.2311 3.35339 14.1416C3.32738 14.052 3.32625 13.9576 3.35008 13.8675L3.99759 11.4048C4.12201 10.9319 4.37948 10.4999 4.74245 10.1552L13.1034 2.2123C13.3137 2.01248 13.5633 1.85398 13.838 1.74584C14.1128 1.63769 14.4073 1.58203 14.7046 1.58203C15.002 1.58203 15.2965 1.63769 15.5713 1.74584C15.846 1.85398 16.0956 2.01248 16.3059 2.2123ZM12.3031 4.49215L5.54391 10.9166C5.32649 11.1235 5.17233 11.3825 5.0979 11.6662L4.67792 13.261L6.35555 12.862C6.65423 12.791 6.92696 12.6442 7.14456 12.4372L13.9049 6.01492L12.3042 4.4943L12.3031 4.49215ZM13.9049 2.97261L13.1034 3.73292L14.7041 5.25354L15.5055 4.49323C15.7117 4.2904 15.8258 4.01875 15.8233 3.73679C15.8207 3.45482 15.7016 3.1851 15.4917 2.98571C15.2819 2.78632 14.9979 2.67322 14.7011 2.67077C14.4043 2.66832 14.1184 2.77671 13.9049 2.97261Z" fill="#2C2C2C"/>
<path d="M3.33301 16.2266C3.33301 15.8986 3.56978 15.6328 3.86185 15.6328H16.5542C16.8462 15.6328 17.083 15.8986 17.083 16.2266C17.083 16.5545 16.8462 16.8203 16.5542 16.8203H3.86185C3.56978 16.8203 3.33301 16.5545 3.33301 16.2266Z" fill="#2C2C2C"/>
</svg>
