<svg width="24" height="24" viewBox="0 0 24 24" fill="none" xmlns="http://www.w3.org/2000/svg">
<rect width="24" height="24" rx="3" fill="#D80808"/>
<path d="M10.4373 12.3142L3.46586 6.47656C3.17994 6.74119 3 7.11743 3 7.53633V16.6397C3 17.0795 3.19781 17.4726 3.50904 17.7385L10.9203 12.6271C10.7505 12.5432 10.5877 12.4401 10.4373 12.3142Z" fill="white"/>
<path d="M21.0003 16.6397V7.53633C21.0003 7.11743 20.8203 6.74119 20.5344 6.47656L13.563 12.3142C13.4126 12.4402 13.2498 12.5432 13.0801 12.6271L20.4914 17.7385C20.8025 17.4726 21.0003 17.0794 21.0003 16.6397Z" fill="white"/>
<path d="M12.2834 11.4654L11.9996 11.2696L11.7157 11.4654L10.6362 12.2099L10.6362 12.2099L3.22492 17.3212L2.68946 17.6905L3.18403 18.113C3.52604 18.4051 3.97169 18.5839 4.45943 18.5839H19.5396C20.0273 18.5839 20.473 18.4051 20.815 18.113L21.3095 17.6905L20.7741 17.3212L13.3629 12.2099L12.2834 11.4654Z" fill="white" stroke="#D80808"/>
<path d="M20.8545 6.85741L21.2899 6.49284L20.8731 6.10712C20.5244 5.78433 20.056 5.58398 19.5397 5.58398H4.45965C3.94341 5.58398 3.47481 5.78429 3.1261 6.10719L2.70954 6.49293L3.14482 6.85741L10.1162 12.695C11.2046 13.6064 12.7948 13.6064 13.8831 12.695C13.8831 12.695 13.8831 12.695 13.8831 12.695L20.8545 6.85741Z" fill="white" stroke="#D80808"/>
</svg>
