<svg width="40" height="40" viewBox="0 0 40 40" fill="none" xmlns="http://www.w3.org/2000/svg">
<path d="M28.5498 0.984375H9.5498C3.8498 0.984375 0.0498047 3.83437 0.0498047 10.4844V23.7844C0.0498047 30.4344 3.8498 33.2844 9.5498 33.2844H16.3328C17.4538 33.2844 18.3658 32.2964 18.2138 31.1754C18.0238 29.8264 18.0618 28.4204 18.3468 26.9764C19.3538 22.0364 23.4198 18.1034 28.3978 17.2864C30.8868 16.8874 33.2618 17.2294 35.3518 18.1414C36.6248 18.6924 38.0498 17.8184 38.0498 16.4314V10.4844C38.0498 3.83437 34.2498 0.984375 28.5498 0.984375ZM29.4428 11.6054L23.4958 16.3554C22.2418 17.3624 20.6458 17.8564 19.0498 17.8564C17.4538 17.8564 15.8388 17.3624 14.6038 16.3554L8.65681 11.6054C8.04881 11.1114 7.9538 10.2184 8.4288 9.59138C8.9228 8.98338 9.8158 8.86937 10.4238 9.36337L16.3708 14.1134C17.8148 15.2724 20.2658 15.2724 21.7098 14.1134L27.6568 9.36337C28.2648 8.86937 29.1768 8.96438 29.6518 9.59138C30.1458 10.2184 30.0508 11.1114 29.4428 11.6054Z" fill="url(#paint0_linear_9509_81284)"/>
<path d="M39.9497 29.5118C39.9497 34.7557 35.6937 39.0117 30.4498 39.0117C25.2058 39.0117 20.9498 34.7557 20.9498 29.5118C20.9498 24.2678 25.2058 20.0119 30.4498 20.0119C35.6937 20.0119 39.9497 24.2678 39.9497 29.5118ZM29.4713 26.1583L26.6213 29.0083C26.4788 29.1508 26.4123 29.3313 26.4123 29.5118C26.4123 29.6923 26.4788 29.8728 26.6213 30.0153L29.4713 32.8653C29.7468 33.1408 30.2028 33.1408 30.4783 32.8653C30.7538 32.5898 30.7538 32.1338 30.4783 31.8583L28.8443 30.2243H33.7747C34.1642 30.2243 34.4872 29.9013 34.4872 29.5118C34.4872 29.1223 34.1642 28.7993 33.7747 28.7993H28.8443L30.4783 27.1653C30.7538 26.8898 30.7538 26.4338 30.4783 26.1583C30.2028 25.8828 29.7468 25.8828 29.4713 26.1583Z" fill="url(#paint1_linear_9509_81284)"/>
<defs>
<linearGradient id="paint0_linear_9509_81284" x1="19.0498" y1="0.984375" x2="19.0498" y2="33.2844" gradientUnits="userSpaceOnUse">
<stop stop-color="#85B4FB"/>
<stop offset="1" stop-color="#0066FF"/>
</linearGradient>
<linearGradient id="paint1_linear_9509_81284" x1="39.9497" y1="29.5118" x2="20.9498" y2="29.5118" gradientUnits="userSpaceOnUse">
<stop stop-color="#85B4FB"/>
<stop offset="1" stop-color="#0066FF"/>
</linearGradient>
</defs>
</svg>
