<svg width="40" height="38" viewBox="0 0 40 38" fill="none" xmlns="http://www.w3.org/2000/svg">
<path d="M28.5498 0H9.5498C3.8498 0 0.0498047 2.85 0.0498047 9.5V22.8C0.0498047 29.45 3.8498 32.3 9.5498 32.3H16.3328C17.4538 32.3 18.3658 31.312 18.2138 30.191C18.0238 28.842 18.0618 27.436 18.3468 25.992C19.3538 21.052 23.4198 17.119 28.3978 16.302C30.8868 15.903 33.2618 16.245 35.3518 17.157C36.6248 17.708 38.0498 16.834 38.0498 15.447V9.5C38.0498 2.85 34.2498 0 28.5498 0ZM29.4428 10.621L23.4958 15.371C22.2418 16.378 20.6458 16.872 19.0498 16.872C17.4538 16.872 15.8388 16.378 14.6038 15.371L8.65681 10.621C8.04881 10.127 7.9538 9.234 8.4288 8.607C8.9228 7.999 9.8158 7.885 10.4238 8.379L16.3708 13.129C17.8148 14.288 20.2658 14.288 21.7098 13.129L27.6568 8.379C28.2648 7.885 29.1768 7.98 29.6518 8.607C30.1458 9.234 30.0508 10.127 29.4428 10.621Z" fill="url(#paint0_linear_9509_81245)"/>
<rect x="20.9497" y="19" width="19" height="19" rx="9.5" fill="url(#paint1_linear_9509_81245)"/>
<path d="M33.1213 27.7067L29.1547 31.674C28.942 31.886 28.6753 32.0374 28.3839 32.1101L26.8617 32.4901C26.8061 32.504 26.7479 32.5032 26.6927 32.488C26.6375 32.4727 26.5872 32.4434 26.5467 32.4029C26.5061 32.3625 26.4768 32.3122 26.4614 32.257C26.446 32.2019 26.4452 32.1436 26.459 32.0881L26.839 30.5658C26.9123 30.274 27.0635 30.0076 27.2764 29.795L31.2424 25.8278L33.1213 27.7061V27.7067ZM34.0614 24.889C34.5795 25.4077 34.5795 26.2485 34.0614 26.7673L33.5907 27.2367L31.7124 25.3577L32.1825 24.889C32.4316 24.6399 32.7694 24.5 33.1216 24.5C33.4739 24.5 33.8117 24.6399 34.0608 24.889H34.0614Z" fill="white"/>
<defs>
<linearGradient id="paint0_linear_9509_81245" x1="19.0498" y1="0" x2="19.0498" y2="32.3" gradientUnits="userSpaceOnUse">
<stop stop-color="#FF85AE"/>
<stop offset="1" stop-color="#EC407A"/>
<stop offset="1" stop-color="#EC407A"/>
</linearGradient>
<linearGradient id="paint1_linear_9509_81245" x1="30.4497" y1="19" x2="30.4497" y2="38" gradientUnits="userSpaceOnUse">
<stop stop-color="#FF85AE"/>
<stop offset="1" stop-color="#EC407A"/>
<stop offset="1" stop-color="#EC407A"/>
</linearGradient>
</defs>
</svg>
