<svg width="24" height="24" viewBox="0 0 24 24" fill="none" xmlns="http://www.w3.org/2000/svg">
<path d="M11.9999 2.40039C14.546 2.40039 16.9878 3.41182 18.7881 5.21217C20.5885 7.01251 21.5999 9.45431 21.5999 12.0004C21.5999 14.5465 20.5885 16.9883 18.7881 18.7886C16.9878 20.589 14.546 21.6004 11.9999 21.6004C9.45382 21.6004 7.01203 20.589 5.21168 18.7886C3.41133 16.9883 2.3999 14.5465 2.3999 12.0004C2.3999 9.45431 3.41133 7.01251 5.21168 5.21217C7.01203 3.41182 9.45382 2.40039 11.9999 2.40039ZM11.9999 3.60039C10.8968 3.60039 9.8045 3.81766 8.78536 4.2398C7.76623 4.66194 6.84022 5.28068 6.0602 6.06069C5.28019 6.84071 4.66145 7.76671 4.23931 8.78585C3.81717 9.80498 3.5999 10.8973 3.5999 12.0004C3.5999 13.1035 3.81717 14.1958 4.23931 15.2149C4.66145 16.2341 5.28019 17.1601 6.0602 17.9401C6.84022 18.7201 7.76623 19.3388 8.78536 19.761C9.8045 20.1831 10.8968 20.4004 11.9999 20.4004C14.2277 20.4004 16.3643 19.5154 17.9396 17.9401C19.5149 16.3648 20.3999 14.2282 20.3999 12.0004C20.3999 9.77257 19.5149 7.636 17.9396 6.06069C16.3643 4.48539 14.2277 3.60039 11.9999 3.60039ZM8.5859 14.9128C9.45328 15.7861 10.6222 16.2939 11.8525 16.3318C13.0827 16.3698 14.2808 15.9349 15.2003 15.1168L15.4139 14.9128C15.5193 14.8057 15.6611 14.742 15.8112 14.7344C15.9614 14.7268 16.1089 14.7758 16.2246 14.8718C16.3403 14.9677 16.4157 15.1036 16.4361 15.2525C16.4564 15.4014 16.4201 15.5526 16.3343 15.676L16.2659 15.76L16.2383 15.7864C15.6781 16.343 15.0138 16.7839 14.2832 17.0837C13.5526 17.3836 12.7701 17.5366 11.9804 17.5341C11.1907 17.5315 10.4092 17.3734 9.68057 17.0688C8.95195 16.7642 8.29047 16.3191 7.7339 15.7588C7.62172 15.6458 7.55901 15.4929 7.55957 15.3337C7.56013 15.1744 7.62392 15.022 7.7369 14.9098C7.84988 14.7976 8.00281 14.7349 8.16202 14.7355C8.32124 14.736 8.47372 14.7998 8.5859 14.9128ZM14.9999 9.00039C15.3182 9.00039 15.6234 9.12682 15.8484 9.35186C16.0735 9.57691 16.1999 9.88213 16.1999 10.2004C16.1999 10.5187 16.0735 10.8239 15.8484 11.0489C15.6234 11.274 15.3182 11.4004 14.9999 11.4004C14.6816 11.4004 14.3764 11.274 14.1514 11.0489C13.9263 10.8239 13.7999 10.5187 13.7999 10.2004C13.7999 9.88213 13.9263 9.57691 14.1514 9.35186C14.3764 9.12682 14.6816 9.00039 14.9999 9.00039ZM8.9999 9.00039C9.31816 9.00039 9.62339 9.12682 9.84843 9.35186C10.0735 9.57691 10.1999 9.88213 10.1999 10.2004C10.1999 10.5187 10.0735 10.8239 9.84843 11.0489C9.62339 11.274 9.31816 11.4004 8.9999 11.4004C8.68164 11.4004 8.37642 11.274 8.15137 11.0489C7.92633 10.8239 7.7999 10.5187 7.7999 10.2004C7.7999 9.88213 7.92633 9.57691 8.15137 9.35186C8.37642 9.12682 8.68164 9.00039 8.9999 9.00039Z" fill="black"/>
</svg>
