<svg width="101" height="100" viewBox="0 0 101 100" fill="none" xmlns="http://www.w3.org/2000/svg">
<circle cx="50.5" cy="50" r="50" fill="url(#paint0_linear_1517_70886)"/>
<path d="M76.6844 44.2565L51.6309 23.6626C51.2619 23.3593 50.7299 23.3593 50.3609 23.6626L25.3074 44.2565C25.0763 44.4464 24.9424 44.7298 24.9424 45.029V74.4674C24.9424 75.0286 25.4041 75.4799 25.9652 75.4671L76.0722 74.323C76.6155 74.3106 77.0494 73.8667 77.0494 73.3233V45.029C77.0494 44.7298 76.9155 44.4464 76.6844 44.2565Z" fill="#719DFC" stroke="#719DFC"/>
<rect x="32.7598" y="29.6992" width="35.34" height="36.48" rx="2" fill="url(#paint1_linear_1517_70886)"/>
<rect x="35.5" y="41.9805" width="29.64" height="3.42" fill="#B3CEFD"/>
<rect x="35.5" y="46.5391" width="29.64" height="3.42" fill="#B3CEFD"/>
<rect x="35.5" y="51.1016" width="29.64" height="3.42" fill="#B3CEFD"/>
<rect x="35.5" y="55.6602" width="29.64" height="3.42" fill="#B3CEFD"/>
<rect x="35.5" y="34" width="13.68" height="5.7" fill="#B3CEFD"/>
<rect x="51.46" y="34" width="13.68" height="5.7" fill="#B3CEFD"/>
<path d="M75.9605 76.5683C74.8548 77.3813 73.451 77.8709 71.9217 77.8709C66.8896 77.8709 33.0967 77.8709 30.0756 77.8709C28.5425 77.8709 27.1332 77.3796 26.0293 76.5631C48.8603 58.6312 45.901 60.9557 48.0581 59.2645C49.7486 57.9397 52.2431 57.9465 53.9261 59.2645C56.1395 61.0002 53.1408 58.6466 75.9605 76.5683Z" fill="url(#paint2_linear_1517_70886)"/>
<path d="M46.4256 60.5439L26.0292 76.5639C26.0198 76.557 26.0105 76.5502 26.003 76.5433C24.5599 75.4649 23.6396 73.8251 23.6396 71.9901V47.1343C23.6396 45.8745 24.0745 44.7088 24.811 43.7519C24.9647 43.5517 25.5682 42.9389 25.6881 42.8362L25.838 42.6992C41.7946 56.5299 46.3844 60.5079 46.4256 60.5439Z" fill="url(#paint3_linear_1517_70886)"/>
<path d="M78.3595 47.1333V71.9892C78.3595 73.7266 77.5199 75.4058 75.9869 76.5492C75.9775 76.5543 75.9681 76.5629 75.9606 76.568L55.5586 60.5446C57.3409 59.0092 59.2244 57.3677 76.1537 42.6914C76.3786 42.8968 76.4704 42.9619 76.6897 43.181V43.1827C77.1451 43.6397 77.518 44.1669 77.7579 44.6479C77.951 45.0245 78.0578 45.336 78.1609 45.6938C78.2921 46.1542 78.3595 46.6369 78.3595 47.1333Z" fill="url(#paint4_linear_1517_70886)"/>
<defs>
<linearGradient id="paint0_linear_1517_70886" x1="50.5" y1="0" x2="50.5" y2="100" gradientUnits="userSpaceOnUse">
<stop stop-color="#C8DCFF"/>
<stop offset="1" stop-color="#F9FBFF"/>
</linearGradient>
<linearGradient id="paint1_linear_1517_70886" x1="51.4489" y1="59.6074" x2="42.8624" y2="32.3638" gradientUnits="userSpaceOnUse">
<stop stop-color="#CDDDFF"/>
<stop offset="1" stop-color="#F7FAFF"/>
</linearGradient>
<linearGradient id="paint2_linear_1517_70886" x1="51.499" y1="77.9995" x2="51.5014" y2="57.9995" gradientUnits="userSpaceOnUse">
<stop stop-color="#BBD3FF"/>
<stop offset="0.97703" stop-color="#9DBEFF"/>
</linearGradient>
<linearGradient id="paint3_linear_1517_70886" x1="46.4256" y1="58.4096" x2="23.6396" y2="58.4096" gradientUnits="userSpaceOnUse">
<stop stop-color="#91B6FF"/>
<stop offset="0.726239" stop-color="#A2C2FF"/>
<stop offset="1" stop-color="#B3CDFF"/>
</linearGradient>
<linearGradient id="paint4_linear_1517_70886" x1="78.3595" y1="58.4074" x2="55.5586" y2="58.4074" gradientUnits="userSpaceOnUse">
<stop stop-color="#B3CDFF"/>
<stop offset="0.293916" stop-color="#A2C2FF"/>
<stop offset="1" stop-color="#91B6FF"/>
</linearGradient>
</defs>
</svg>
