<svg width="14" height="14" viewBox="0 0 14 14" fill="none" xmlns="http://www.w3.org/2000/svg">
<path fill-rule="evenodd" clip-rule="evenodd" d="M13.3905 1.20229H8.3255V0.00878906L0 1.29379V12.5573L8.3255 13.9913V12.2223H13.3905C13.5439 12.2301 13.6941 12.1768 13.8083 12.0741C13.9226 11.9714 13.9915 11.8276 14 11.6743V1.74979C13.9913 1.59652 13.9224 1.45291 13.8082 1.35032C13.694 1.24773 13.5438 1.19451 13.3905 1.20229ZM13.4705 11.7653H8.3085L8.3 10.8208H9.5435V9.72079H8.2905L8.2845 9.07079H9.5435V7.97079H8.275L8.269 7.32079H9.5435V6.22079H8.265V5.57079H9.5435V4.47079H8.265V3.82079H9.5435V2.72079H8.265V1.72079H13.4705V11.7653Z" fill="#20744A"/>
<path d="M10.2432 2.71973H12.4047V3.81973H10.2432V2.71973Z" fill="#20744A"/>
<path d="M10.2432 4.47021H12.4047V5.57022H10.2432V4.47021Z" fill="#20744A"/>
<path d="M10.2432 6.2207H12.4047V7.3207H10.2432V6.2207Z" fill="#20744A"/>
<path d="M10.2432 7.97119H12.4047V9.07119H10.2432V7.97119Z" fill="#20744A"/>
<path d="M10.2432 9.72168H12.4047V10.8217H10.2432V9.72168Z" fill="#20744A"/>
<path fill-rule="evenodd" clip-rule="evenodd" d="M2.17305 4.33671L3.24605 4.27521L3.92055 6.12971L4.71755 4.19871L5.79055 4.13721L4.48755 6.77021L5.79055 9.40971L4.65605 9.33321L3.89005 7.32121L3.12355 9.25671L2.08105 9.16471L3.29205 6.83321L2.17305 4.33671Z" fill="white"/>
</svg>
