<svg width="25" height="24" viewBox="0 0 25 24" fill="none" xmlns="http://www.w3.org/2000/svg">
<path d="M16.3536 1.64645L16.2071 1.5H16H6.5C5.11929 1.5 4 2.61929 4 4V20C4 21.3807 5.11929 22.5 6.5 22.5H18.5C19.8807 22.5 21 21.3807 21 20V6.5V6.29289L20.8536 6.14645L16.3536 1.64645Z" fill="url(#paint0_linear_15682_11675)" stroke="#D9D9D9"/>
<path d="M4.5 4C4.5 2.89543 5.39543 2 6.5 2H16L20.5 6.5V10H4.5V4Z" fill="#00A14E"/>
<path d="M15.9964 2.00391L20.5003 6.48047L16.7006 6.89847C16.0664 6.96823 15.53 6.43428 15.5968 5.79976L15.9964 2.00391Z" fill="#01773A"/>
<g filter="url(#filter0_d_15682_11675)">
<path d="M16 2.00391L20.5 6.48438H17C16.4477 6.48438 16 6.03666 16 5.48438V2.00391Z" fill="#46E493"/>
</g>
<path fill-rule="evenodd" clip-rule="evenodd" d="M6.80678 11.8008C6.51201 11.8008 6.2998 12.0546 6.2998 12.3333C6.2998 12.6121 6.51201 12.8659 6.80678 12.8659H18.1928C18.4876 12.8659 18.6998 12.6121 18.6998 12.3333C18.6998 12.0546 18.4876 11.8008 18.1928 11.8008H6.80678ZM6.80678 14.9648C6.51201 14.9648 6.2998 15.2187 6.2998 15.4974C6.2998 15.7761 6.51201 16.03 6.80678 16.03H16.0342C16.3289 16.03 16.5411 15.7761 16.5411 15.4974C16.5411 15.2187 16.3289 14.9648 16.0342 14.9648H6.80678ZM6.80678 18.1289C6.51201 18.1289 6.2998 18.3827 6.2998 18.6615C6.2998 18.9402 6.51201 19.194 6.80678 19.194H11.8057C12.1005 19.194 12.3127 18.9402 12.3127 18.6615C12.3127 18.3827 12.1005 18.1289 11.8057 18.1289H6.80678ZM6.51055 12.2458C6.50354 12.2737 6.4998 12.303 6.4998 12.3333C6.4998 12.517 6.63724 12.6659 6.80678 12.6659H18.1928C18.3346 12.6659 18.454 12.5617 18.4892 12.4202C18.4537 12.5613 18.3346 12.6651 18.193 12.6651H6.80697C6.63744 12.6651 6.5 12.5162 6.5 12.3326C6.5 12.3025 6.50367 12.2735 6.51055 12.2458ZM6.51055 15.4099C6.50354 15.4378 6.4998 15.4671 6.4998 15.4974C6.4998 15.6811 6.63724 15.83 6.80678 15.83H16.0342C16.176 15.83 16.2953 15.7258 16.3306 15.5842C16.2951 15.7254 16.1759 15.8292 16.0344 15.8292H6.80697C6.63744 15.8292 6.5 15.6803 6.5 15.4966C6.5 15.4666 6.50367 15.4375 6.51055 15.4099ZM6.51056 18.5739C6.50355 18.6018 6.4998 18.6312 6.4998 18.6615C6.4998 18.8451 6.63724 18.994 6.80678 18.994H11.8057C11.9475 18.994 12.0669 18.8899 12.1021 18.7483C12.0666 18.8895 11.9475 18.9932 11.8059 18.9932H6.80697C6.63744 18.9932 6.5 18.8443 6.5 18.6607C6.5 18.6307 6.50367 18.6016 6.51056 18.5739Z" fill="#00A14E"/>
<path d="M14.7454 6.92781C14.7454 6.85829 14.7353 6.7959 14.7152 6.74064C14.6967 6.6836 14.6615 6.63191 14.6094 6.58556C14.5574 6.53743 14.4844 6.4902 14.3904 6.44385C14.2964 6.3975 14.1748 6.34938 14.0254 6.29947C13.8592 6.24242 13.7015 6.17825 13.5521 6.10695C13.4044 6.03565 13.2735 5.95276 13.1594 5.85829C13.0469 5.76203 12.958 5.65062 12.8925 5.52406C12.8288 5.3975 12.7969 5.25045 12.7969 5.08289C12.7969 4.92068 12.8304 4.77362 12.8976 4.64171C12.9647 4.50802 13.0587 4.39394 13.1795 4.29947C13.3004 4.20321 13.443 4.12923 13.6075 4.07754C13.7736 4.02585 13.9557 4 14.1538 4C14.424 4 14.6598 4.05169 14.8612 4.15508C15.0626 4.25847 15.2186 4.40018 15.3294 4.58021C15.4419 4.76025 15.4981 4.96613 15.4981 5.19786H14.7479C14.7479 5.08378 14.7252 4.98396 14.6799 4.8984C14.6363 4.81105 14.5691 4.74242 14.4785 4.69251C14.3896 4.6426 14.2771 4.61765 14.1412 4.61765C14.0103 4.61765 13.9012 4.63904 13.8139 4.68182C13.7266 4.72282 13.6612 4.77897 13.6176 4.85027C13.5739 4.91979 13.5521 4.99822 13.5521 5.08556C13.5521 5.15152 13.5672 5.21123 13.5974 5.26471C13.6293 5.31818 13.6763 5.36809 13.7384 5.41444C13.8005 5.46078 13.8769 5.50446 13.9675 5.54545C14.0581 5.58645 14.163 5.62656 14.2822 5.66578C14.4819 5.72995 14.6573 5.80214 14.8083 5.88235C14.961 5.96257 15.0886 6.05258 15.191 6.15241C15.2933 6.25223 15.3705 6.36542 15.4226 6.49198C15.4746 6.61854 15.5006 6.76203 15.5006 6.92246C15.5006 7.0918 15.4696 7.24332 15.4075 7.37701C15.3454 7.5107 15.2556 7.62389 15.1381 7.71658C15.0206 7.80927 14.8805 7.87968 14.7177 7.92781C14.5549 7.97594 14.3728 8 14.1714 8C13.9901 8 13.8114 7.97504 13.6352 7.92513C13.459 7.87344 13.2987 7.7959 13.1544 7.69251C13.0117 7.58913 12.8976 7.45722 12.812 7.29679C12.7264 7.13636 12.6836 6.94652 12.6836 6.72727H13.4413C13.4413 6.84848 13.459 6.95098 13.4942 7.03476C13.5295 7.11854 13.579 7.18627 13.6427 7.23797C13.7082 7.28966 13.7854 7.32709 13.8743 7.35027C13.965 7.37344 14.064 7.38503 14.1714 7.38503C14.3023 7.38503 14.4097 7.36542 14.4936 7.3262C14.5792 7.28699 14.6422 7.23262 14.6824 7.1631C14.7244 7.09358 14.7454 7.01515 14.7454 6.92781Z" fill="white"/>
<path d="M12.4032 7.32109V7.94676H10.5579V7.32109H12.4032ZM10.8021 4.05371V7.94676H10.0469V4.05371H10.8021Z" fill="white"/>
<path d="M7.39621 4.05371L8.08598 5.412L8.77576 4.05371H9.63924L8.57436 5.98419L9.66693 7.94676H8.7959L8.08598 6.56173L7.37607 7.94676H6.5L7.59508 5.98419L6.52769 4.05371H7.39621Z" fill="white"/>
<defs>
<filter id="filter0_d_15682_11675" x="15" y="1.00391" width="6.5" height="6.48047" filterUnits="userSpaceOnUse" color-interpolation-filters="sRGB">
<feFlood flood-opacity="0" result="BackgroundImageFix"/>
<feColorMatrix in="SourceAlpha" type="matrix" values="0 0 0 0 0 0 0 0 0 0 0 0 0 0 0 0 0 0 127 0" result="hardAlpha"/>
<feOffset/>
<feGaussianBlur stdDeviation="0.5"/>
<feComposite in2="hardAlpha" operator="out"/>
<feColorMatrix type="matrix" values="0 0 0 0 0 0 0 0 0 0 0 0 0 0 0 0 0 0 0.25 0"/>
<feBlend mode="normal" in2="BackgroundImageFix" result="effect1_dropShadow_15682_11675"/>
<feBlend mode="normal" in="SourceGraphic" in2="effect1_dropShadow_15682_11675" result="shape"/>
</filter>
<linearGradient id="paint0_linear_15682_11675" x1="12.5" y1="22" x2="12.5" y2="2" gradientUnits="userSpaceOnUse">
<stop stop-color="#E7EEF3"/>
<stop offset="1" stop-color="#E8E7EA" stop-opacity="0"/>
</linearGradient>
</defs>
</svg>
