<svg width="16" height="16" viewBox="0 0 16 16" fill="none" xmlns="http://www.w3.org/2000/svg">
<path fill-rule="evenodd" clip-rule="evenodd" d="M15.3034 1.37377H9.51486V0.00976562L0 1.47834V14.3509L9.51486 15.9898V13.9681H15.3034C15.4787 13.9769 15.6504 13.916 15.781 13.7987C15.9115 13.6813 15.9903 13.517 16 13.3418V1.99948C15.9901 1.82432 15.9113 1.66018 15.7808 1.54294C15.6503 1.4257 15.4786 1.36488 15.3034 1.37377ZM15.3949 13.4458H9.49543L9.48571 12.3663H10.9069V11.1092H9.47486L9.468 10.3663H10.9069V9.10919H9.45714L9.45029 8.36634H10.9069V7.10919H9.44571V6.36634H10.9069V5.10919H9.44571V4.36634H10.9069V3.10919H9.44571V1.96634H15.3949V13.4458Z" fill="#20744A"/>
<path d="M11.707 3.10742H14.1773V4.36456H11.707V3.10742Z" fill="#20744A"/>
<path d="M11.707 5.10938H14.1773V6.36652H11.707V5.10938Z" fill="#20744A"/>
<path d="M11.707 7.10938H14.1773V8.36652H11.707V7.10938Z" fill="#20744A"/>
<path d="M11.707 9.10938H14.1773V10.3665H11.707V9.10938Z" fill="#20744A"/>
<path d="M11.707 11.1094H14.1773V12.3665H11.707V11.1094Z" fill="#20744A"/>
<path fill-rule="evenodd" clip-rule="evenodd" d="M2.48405 4.95652L3.71033 4.88623L4.48119 7.00566L5.39205 4.7988L6.61833 4.72852L5.12919 7.73766L6.61833 10.7542L5.32176 10.6668L4.44633 8.36737L3.57033 10.5794L2.37891 10.4742L3.76291 7.80966L2.48405 4.95652Z" fill="white"/>
</svg>
