<svg width="38" height="40" viewBox="0 0 38 40" fill="none" xmlns="http://www.w3.org/2000/svg">
<path fill-rule="evenodd" clip-rule="evenodd" d="M29.5 17C34.1944 17 38 13.1944 38 8.5C38 3.80558 34.1944 0 29.5 0C24.8056 0 21 3.80558 21 8.5C21 13.1944 24.8056 17 29.5 17ZM9 2H21.2532C19.8421 3.78785 19 6.04558 19 8.5C19 14.299 23.701 19 29.5 19C31.5166 19 33.4005 18.4315 35 17.446V31C35 35.9706 30.9706 40 26 40H9C4.02944 40 0 35.9706 0 31V11C0 6.02944 4.02944 2 9 2Z" fill="url(#paint0_linear_9509_81582)"/>
<path fill-rule="evenodd" clip-rule="evenodd" d="M33.5001 6.00008C33.8906 6.3906 33.8906 7.02377 33.5001 7.41429L29.2072 11.7072C28.8167 12.0977 28.1835 12.0977 27.793 11.7072L26.0001 9.91429C25.6096 9.52376 25.6096 8.8906 26.0001 8.50008C26.3906 8.10955 27.0238 8.10955 27.4143 8.50008L28.2013 9.28705C28.3663 9.45208 28.6339 9.45208 28.7989 9.28705L32.0859 6.00008C32.4764 5.60955 33.1096 5.60955 33.5001 6.00008Z" fill="white"/>
<path d="M13.8704 28.4388C14.4783 29.0191 14.4783 29.9795 13.8704 30.5598C13.556 30.8599 13.1577 31 12.7594 31C12.3611 31 11.9628 30.8599 11.6484 30.5598L7.45593 26.558C6.84802 25.9777 6.84802 25.0173 7.45593 24.437L11.6484 20.4352C12.2563 19.8549 13.2625 19.8549 13.8704 20.4352C14.4783 21.0155 14.4783 21.9759 13.8704 22.5562L10.7889 25.4975L13.8704 28.4388ZM28.5441 26.558L24.3516 30.5598C24.0372 30.8599 23.6389 31 23.2406 31C22.8423 31 22.444 30.8599 22.1296 30.5598C21.5217 29.9795 21.5217 29.0191 22.1296 28.4388L25.2111 25.4975L22.1296 22.5562C21.5217 21.9759 21.5217 21.0155 22.1296 20.4352C22.7375 19.8549 23.7437 19.8549 24.3516 20.4352L28.5441 24.437C29.152 25.0173 29.152 25.9777 28.5441 26.558Z" fill="white"/>
<defs>
<linearGradient id="paint0_linear_9509_81582" x1="19" y1="0" x2="19" y2="40" gradientUnits="userSpaceOnUse">
<stop stop-color="#8DBA7E"/>
<stop offset="1" stop-color="#2AA200"/>
</linearGradient>
</defs>
</svg>
