<svg width="38" height="40" viewBox="0 0 38 40" fill="none" xmlns="http://www.w3.org/2000/svg">
<path fill-rule="evenodd" clip-rule="evenodd" d="M28.7561 16.5854C33.336 16.5854 37.0487 12.8726 37.0487 8.29268C37.0487 3.71276 33.336 0 28.7561 0C24.1761 0 20.4634 3.71276 20.4634 8.29268C20.4634 12.8726 24.1761 16.5854 28.7561 16.5854ZM9.73166 2.92788H20.0282C19.0668 4.4884 18.5121 6.32629 18.5121 8.29373C18.5121 13.9513 23.0985 18.5376 28.7561 18.5376C31.1506 18.5376 33.3533 17.716 35.0975 16.3394V31.2206C35.0975 36.0699 31.1664 40.001 26.317 40.001H9.73166C4.88233 40.001 0.951172 36.0699 0.951172 31.2206V11.7084C0.951172 6.85904 4.88233 2.92788 9.73166 2.92788Z" fill="url(#paint0_linear_9509_80676)"/>
<path d="M14.4831 28.7213C15.0762 29.2874 15.0762 30.2244 14.4831 30.7905C14.1764 31.0833 13.7878 31.22 13.3992 31.22C13.0106 31.22 12.6221 31.0833 12.3153 30.7905L8.22508 26.8863C7.632 26.3202 7.632 25.3832 8.22508 24.8171L12.3153 20.9129C12.9084 20.3468 13.89 20.3468 14.4831 20.9129C15.0762 21.479 15.0762 22.416 14.4831 22.9821L11.4768 25.8517L14.4831 28.7213ZM28.7989 26.8863L24.7087 30.7905C24.4019 31.0833 24.0133 31.22 23.6248 31.22C23.2362 31.22 22.8476 31.0833 22.5408 30.7905C21.9478 30.2244 21.9478 29.2874 22.5408 28.7213L25.5472 25.8517L22.5408 22.9821C21.9478 22.416 21.9478 21.479 22.5408 20.9129C23.1339 20.3468 24.1156 20.3468 24.7087 20.9129L28.7989 24.8171C29.392 25.3832 29.392 26.3202 28.7989 26.8863Z" fill="white"/>
<path d="M27.8911 5.4649C27.8911 4.927 28.3271 4.49095 28.865 4.49095C29.4029 4.49095 29.839 4.927 29.839 5.4649L29.839 11.1237C29.839 11.6616 29.4029 12.0977 28.865 12.0977C28.3271 12.0977 27.8911 11.6616 27.8911 11.1237L27.8911 5.4649ZM24.7842 8.32307C24.7836 7.78403 25.2205 7.34678 25.7595 7.34678L31.8852 7.34678C32.4239 7.34678 32.8606 7.78345 32.8606 8.32212C32.8606 8.86078 32.4239 9.29745 31.8852 9.29745L25.7595 9.29745C25.2212 9.29745 24.7847 8.86136 24.7842 8.32307Z" fill="white"/>
<defs>
<linearGradient id="paint0_linear_9509_80676" x1="0.951172" y1="-1.95127" x2="42.7042" y2="35.9168" gradientUnits="userSpaceOnUse">
<stop stop-color="#31F0FC"/>
<stop offset="1" stop-color="#4232FD"/>
</linearGradient>
</defs>
</svg>
