<svg width="50" height="50" viewBox="0 0 50 50" fill="none" xmlns="http://www.w3.org/2000/svg">
<path fill-rule="evenodd" clip-rule="evenodd" d="M34.5 23C39.1944 23 43 19.1944 43 14.5C43 9.80558 39.1944 6 34.5 6C29.8056 6 26 9.80558 26 14.5C26 19.1944 29.8056 23 34.5 23ZM14 8H26.2532C24.8421 9.78785 24 12.0456 24 14.5C24 20.299 28.701 25 34.5 25C36.5166 25 38.4005 24.4315 40 23.446V37C40 41.9706 35.9706 46 31 46H14C9.02944 46 5 41.9706 5 37V17C5 12.0294 9.02944 8 14 8Z" fill="url(#paint0_linear_10623_79431)"/>
<path d="M18.8704 34.4388C19.4783 35.0191 19.4783 35.9795 18.8704 36.5598C18.556 36.8599 18.1577 37 17.7594 37C17.3611 37 16.9628 36.8599 16.6484 36.5598L12.4559 32.558C11.848 31.9777 11.848 31.0173 12.4559 30.437L16.6484 26.4352C17.2563 25.8549 18.2625 25.8549 18.8704 26.4352C19.4783 27.0155 19.4783 27.9759 18.8704 28.5562L15.7889 31.4975L18.8704 34.4388ZM33.5441 32.558L29.3516 36.5598C29.0372 36.8599 28.6389 37 28.2406 37C27.8423 37 27.444 36.8599 27.1296 36.5598C26.5217 35.9795 26.5217 35.0191 27.1296 34.4388L30.2111 31.4975L27.1296 28.5562C26.5217 27.9759 26.5217 27.0155 27.1296 26.4352C27.7375 25.8549 28.7437 25.8549 29.3516 26.4352L33.5441 30.437C34.152 31.0173 34.152 31.9777 33.5441 32.558Z" fill="white"/>
<path d="M34.9576 14.5086C34.9576 14.7575 34.7565 14.9586 34.5076 14.9586C34.2587 14.9586 34.0576 14.7575 34.0576 14.5086C34.0576 14.2597 34.2587 14.0586 34.5076 14.0586C34.7565 14.0586 34.9576 14.2597 34.9576 14.5086Z" stroke="white" stroke-linecap="round" stroke-linejoin="round"/>
<path d="M34.4999 17.6008C35.8237 17.6008 37.0574 16.8208 37.9162 15.4708C38.2537 14.942 38.2537 14.0533 37.9162 13.5245C37.0574 12.1745 35.8237 11.3945 34.4999 11.3945C33.1762 11.3945 31.9424 12.1745 31.0837 13.5245C30.7462 14.0533 30.7462 14.942 31.0837 15.4708C31.9424 16.8208 33.1762 17.6008 34.4999 17.6008Z" stroke="white" stroke-width="1.5" stroke-linecap="round" stroke-linejoin="round"/>
<defs>
<linearGradient id="paint0_linear_10623_79431" x1="5" y1="6" x2="44.9474" y2="43.9501" gradientUnits="userSpaceOnUse">
<stop stop-color="#F761A1"/>
<stop offset="1" stop-color="#8C1BAB"/>
</linearGradient>
</defs>
</svg>
