<svg width="50" height="51" viewBox="0 0 50 51" fill="none" xmlns="http://www.w3.org/2000/svg">
<path fill-rule="evenodd" clip-rule="evenodd" d="M34.5 23.5146C39.1944 23.5146 43 19.7091 43 15.0146C43 10.3202 39.1944 6.51465 34.5 6.51465C29.8056 6.51465 26 10.3202 26 15.0146C26 19.7091 29.8056 23.5146 34.5 23.5146ZM14 8.51465H26.2532C24.8421 10.3025 24 12.5602 24 15.0146C24 20.8136 28.701 25.5146 34.5 25.5146C36.5166 25.5146 38.4005 24.9461 40 23.9607V37.5146C40 42.4852 35.9706 46.5146 31 46.5146H14C9.02944 46.5146 5 42.4852 5 37.5146V17.5146C5 12.5441 9.02944 8.51465 14 8.51465Z" fill="url(#paint0_linear_16291_5536)"/>
<path d="M18.8704 34.9535C19.4783 35.5337 19.4783 36.4942 18.8704 37.0744C18.556 37.3746 18.1577 37.5146 17.7594 37.5146C17.3611 37.5146 16.9628 37.3746 16.6484 37.0744L12.4559 33.0726C11.848 32.4924 11.848 31.5319 12.4559 30.9517L16.6484 26.9498C17.2563 26.3696 18.2625 26.3696 18.8704 26.9498C19.4783 27.5301 19.4783 28.4905 18.8704 29.0708L15.7889 32.0121L18.8704 34.9535ZM33.5441 33.0726L29.3516 37.0744C29.0372 37.3746 28.6389 37.5146 28.2406 37.5146C27.8423 37.5146 27.444 37.3746 27.1296 37.0744C26.5217 36.4942 26.5217 35.5337 27.1296 34.9535L30.2111 32.0121L27.1296 29.0708C26.5217 28.4905 26.5217 27.5301 27.1296 26.9498C27.7375 26.3696 28.7437 26.3696 29.3516 26.9498L33.5441 30.9517C34.152 31.5319 34.152 32.4924 33.5441 33.0726Z" fill="white"/>
<path d="M35.5118 11.798C35.2619 11.7519 35.0324 11.9114 34.9848 12.1553C34.9372 12.3993 35.0972 12.6375 35.3404 12.6852C36.0723 12.8279 36.6375 13.3945 36.7808 14.129C36.8216 14.3404 37.0077 14.4947 37.2221 14.4947C37.2508 14.4947 37.2796 14.4921 37.3089 14.4868C37.552 14.438 37.712 14.2004 37.6644 13.9559C37.4506 12.8589 36.6062 12.0116 35.5118 11.798Z" fill="white"/>
<path d="M35.4792 9.96998C35.3621 9.95319 35.2444 9.98782 35.1508 10.0623C35.0546 10.1379 34.9945 10.247 34.9814 10.3692C34.9537 10.6163 35.132 10.8398 35.3788 10.8676C37.0807 11.0576 38.4035 12.3833 38.5948 14.0905C38.6204 14.3192 38.8123 14.4919 39.0413 14.4919C39.0586 14.4919 39.0753 14.4908 39.0926 14.4887C39.2123 14.4756 39.319 14.4163 39.3943 14.3219C39.469 14.2274 39.503 14.1099 39.4894 13.9898C39.251 11.8597 37.6025 10.2066 35.4792 9.96998Z" fill="white"/>
<path fill-rule="evenodd" clip-rule="evenodd" d="M33.734 15.7262C35.8282 17.8199 36.3033 15.3977 37.6368 16.7302C38.9223 18.0154 39.6612 18.2729 38.0324 19.9012C37.8284 20.0652 36.5322 22.0377 31.9767 17.4835C27.4207 12.9288 29.3921 11.6313 29.5561 11.4273C31.1888 9.79449 31.4419 10.5376 32.7274 11.8228C34.0609 13.1559 31.6397 13.6325 33.734 15.7262Z" fill="white"/>
<defs>
<linearGradient id="paint0_linear_16291_5536" x1="5" y1="6.51465" x2="44.9474" y2="44.4647" gradientUnits="userSpaceOnUse">
<stop stop-color="#619DF7"/>
<stop offset="1" stop-color="#A81BAB"/>
</linearGradient>
</defs>
</svg>
