<svg width="40" height="44" viewBox="0 0 40 44" fill="none" xmlns="http://www.w3.org/2000/svg">
<path fill-rule="evenodd" clip-rule="evenodd" d="M31 17.5C35.6944 17.5 39.5 13.6944 39.5 9C39.5 4.30558 35.6944 0.5 31 0.5C26.3056 0.5 22.5 4.30558 22.5 9C22.5 13.6944 26.3056 17.5 31 17.5ZM9.5 5.5H21.0975C20.7105 6.59473 20.5 7.77278 20.5 9C20.5 14.799 25.201 19.5 31 19.5C32.6104 19.5 34.1361 19.1375 35.5 18.4896V34.5C35.5 39.4706 31.4706 43.5 26.5 43.5H9.5C4.52944 43.5 0.5 39.4706 0.5 34.5V14.5C0.5 9.52944 4.52944 5.5 9.5 5.5Z" fill="url(#paint0_linear_9509_79356)"/>
<path d="M14.3704 31.9388C14.9783 32.5191 14.9783 33.4795 14.3704 34.0598C14.056 34.3599 13.6577 34.5 13.2594 34.5C12.8611 34.5 12.4628 34.3599 12.1484 34.0598L7.95593 30.058C7.34802 29.4777 7.34802 28.5173 7.95593 27.937L12.1484 23.9352C12.7563 23.3549 13.7625 23.3549 14.3704 23.9352C14.9783 24.5155 14.9783 25.4759 14.3704 26.0562L11.2889 28.9975L14.3704 31.9388ZM29.0441 30.058L24.8516 34.0598C24.5372 34.3599 24.1389 34.5 23.7406 34.5C23.3423 34.5 22.944 34.3599 22.6296 34.0598C22.0217 33.4795 22.0217 32.5191 22.6296 31.9388L25.7111 28.9975L22.6296 26.0562C22.0217 25.4759 22.0217 24.5155 22.6296 23.9352C23.2375 23.3549 24.2437 23.3549 24.8516 23.9352L29.0441 27.937C29.652 28.5173 29.652 29.4777 29.0441 30.058Z" fill="white"/>
<path fill-rule="evenodd" clip-rule="evenodd" d="M30.2258 9.63006C30.2258 9.89655 30.369 10.1454 30.595 10.2816L32.3304 11.3154L32.3316 11.3161C32.6264 11.4888 33.004 11.3908 33.1771 11.1009L33.1783 11.0988C33.3474 10.8077 33.2621 10.4271 32.9628 10.251L31.4653 9.35472L31.4654 7.56926L31.4652 7.56428C31.457 7.23448 31.1813 6.95598 30.8428 6.95598C30.5035 6.95598 30.2258 7.23627 30.2258 7.57484V9.63006ZM31.2655 9.46821L32.8608 10.4231C32.8914 10.441 32.9187 10.4621 32.9426 10.4858C32.9187 10.4622 32.8915 10.4411 32.861 10.4233L31.2655 9.46829V9.46821ZM31.1393 7.28072C31.0627 7.20424 30.9577 7.15598 30.8428 7.15598C30.6149 7.15598 30.4258 7.34587 30.4258 7.57484V9.63006C30.4258 9.78052 30.4884 9.92437 30.5933 10.0285C30.4886 9.92438 30.426 9.78062 30.426 9.63025V7.57504C30.426 7.34606 30.6151 7.15618 30.843 7.15618C30.9578 7.15618 31.0627 7.20435 31.1393 7.28072ZM30.5148 4.38592C28.1854 4.59814 26.2675 6.48022 26.0118 8.82026C25.8766 10.1323 26.2602 11.4452 27.08 12.4757C27.1825 12.6045 27.2907 12.7276 27.4043 12.8447C27.2908 12.7276 27.1826 12.6046 27.0802 12.4759C26.2604 11.4454 25.8768 10.1325 26.012 8.82045C26.2677 6.48042 28.1856 4.59833 30.515 4.38611C31.2483 4.31723 31.9877 4.41165 32.6805 4.66263C33.3589 4.90841 33.9764 5.2984 34.4907 5.80577L34.4903 5.80536C33.976 5.2981 33.3586 4.90818 32.6803 4.66243C31.9875 4.41145 31.2481 4.31704 30.5148 4.38592ZM34.5231 5.83797C34.5231 5.83803 34.5232 5.8381 34.5233 5.83816L35.5128 4.84407C35.6292 4.72333 35.804 4.74024 35.9052 4.8414C35.804 4.74006 35.6291 4.72306 35.5126 4.84387L34.5231 5.83797ZM32.5693 8.19241C32.4686 8.09039 32.4518 7.91358 32.5719 7.79285L33.7338 6.62562C33.7338 6.62556 33.7337 6.62549 33.7336 6.62543L32.5717 7.79265C32.4515 7.91346 32.4684 8.09042 32.5693 8.19241ZM28.2597 12.1535C28.9555 12.8467 29.9011 13.2856 30.9264 13.2995C32.9333 13.3274 34.6066 11.8195 34.8457 9.8704C34.8791 9.59674 35.1125 9.3901 35.3905 9.3901C35.5455 9.3901 35.6849 9.45281 35.7858 9.55358C35.6849 9.4527 35.5454 9.38991 35.3903 9.38991C35.1123 9.38991 34.8789 9.59655 34.8455 9.8702C34.6065 11.8193 32.9331 13.3272 30.9262 13.2993C29.901 13.2854 28.9555 12.8466 28.2597 12.1535ZM30.929 13.0993C32.8317 13.1258 34.42 11.6958 34.647 9.846C34.6927 9.47149 35.0119 9.18991 35.3903 9.18991C35.8431 9.18991 36.1977 9.58422 36.1449 10.0385L36.1444 10.0423C35.9604 11.401 35.252 12.6329 34.1717 13.472C33.0914 14.3111 31.7259 14.6901 30.3697 14.527C29.0136 14.3638 27.7759 13.6717 26.9235 12.6002C26.0711 11.5287 25.6723 10.1638 25.8128 8.79976L25.8129 8.79853C26.079 6.36426 28.0721 4.40777 30.4964 4.18677C31.259 4.11517 32.0279 4.21339 32.7484 4.47439C33.406 4.71262 34.0085 5.08111 34.5203 5.55721L35.3699 4.70376C35.6708 4.39375 36.1852 4.61377 36.1852 5.03934V7.9937C36.1852 8.25967 35.9742 8.47295 35.7072 8.47295H32.7663C32.3321 8.47295 32.1309 7.95206 32.43 7.65155L33.4472 6.62973C32.7913 6.04179 31.9272 5.68054 30.9818 5.68054C28.9312 5.68054 27.2586 7.37589 27.2902 9.44269C27.322 11.4134 28.976 13.0729 30.929 13.0993Z" fill="white"/>
<defs>
<linearGradient id="paint0_linear_9509_79356" x1="20" y1="0.5" x2="20" y2="43.5" gradientUnits="userSpaceOnUse">
<stop stop-color="#FFA16C"/>
<stop offset="1" stop-color="#E87A3D"/>
</linearGradient>
</defs>
</svg>
