<svg width="40" height="40" viewBox="0 0 40 40" fill="none" xmlns="http://www.w3.org/2000/svg">
<rect x="0.5" y="0.5" width="39" height="39" rx="10" fill="url(#paint0_linear_9509_78645)"/>
<path fill-rule="evenodd" clip-rule="evenodd" d="M10.2003 8.89844H17.265C18.0598 8.89911 18.8218 9.23833 19.3837 9.84162C19.9456 10.4449 20.2615 11.2631 20.2621 12.1164V27.8807C20.2615 28.7341 19.9456 29.5522 19.3837 30.1555C18.8218 30.7588 18.0598 31.098 17.265 31.0986H10.2003C9.40544 31.098 8.64347 30.7587 8.08158 30.1555C7.51967 29.5522 7.20373 28.734 7.20312 27.8807V12.1164C7.20375 11.263 7.51969 10.4449 8.08158 9.84162C8.64347 9.23831 9.40548 8.89909 10.2003 8.89844ZM12.963 28.4197C13.1672 28.6388 13.4439 28.7618 13.7325 28.7618C14.0212 28.7618 14.2979 28.6388 14.5021 28.4197C14.7062 28.2004 14.8208 27.9033 14.8208 27.5934C14.8208 27.2835 14.7062 26.9864 14.5021 26.7671C14.2979 26.548 14.0212 26.425 13.7325 26.425C13.4439 26.425 13.1672 26.548 12.963 26.7671C12.7589 26.9864 12.6443 27.2835 12.6443 27.5934C12.6443 27.9033 12.7589 28.2004 12.963 28.4197ZM31.1518 8.89844H27.4829C27.217 8.89844 27.0044 9.11115 27.0044 9.37688V13.0457C27.0044 13.3117 27.2172 13.5242 27.4829 13.5242H31.1518C31.4177 13.5242 31.6302 13.3115 31.6302 13.0457V9.37707C31.6302 9.11114 31.4175 8.89844 31.1518 8.89844ZM22.6805 11.2106V18.8673L20.2625 18.8672L20.2621 20.728H22.6805V27.5934C22.6805 27.9142 22.8939 28.1282 23.2137 28.1282L25.3286 28.1225C25.862 28.1211 26.2936 27.6883 26.2936 27.1549C26.2936 26.6205 25.8604 26.1872 25.326 26.1872H24.4806V20.728H25.3633C25.8771 20.728 26.2936 20.3114 26.2936 19.7976C26.2936 19.2839 25.8771 18.8673 25.3633 18.8673H24.4806V12.5303H25.3694C25.8798 12.5303 26.2936 12.1165 26.2936 11.6061C26.2936 11.0966 25.8814 10.6832 25.3719 10.6819L23.2137 10.676C22.8938 10.676 22.6805 10.9431 22.6805 11.2106ZM27.4829 17.0907H31.1518C31.4175 17.0907 31.6302 17.3034 31.6302 17.5691V21.238C31.6302 21.5037 31.4177 21.7164 31.1518 21.7164H27.4829C27.2172 21.7164 27.0044 21.5039 27.0044 21.238V17.5691C27.0044 17.3034 27.217 17.0907 27.4829 17.0907ZM31.1518 25.2737H27.4829C27.217 25.2737 27.0044 25.4865 27.0044 25.7522V29.421C27.0044 29.687 27.2172 29.8995 27.4829 29.8995H31.1518C31.4177 29.8995 31.6302 29.6868 31.6302 29.421V25.7522C31.6302 25.4864 31.4175 25.2737 31.1518 25.2737Z" fill="white"/>
<defs>
<linearGradient id="paint0_linear_9509_78645" x1="0.5" y1="0.5" x2="39.5" y2="39.5" gradientUnits="userSpaceOnUse">
<stop stop-color="#FFE985"/>
<stop offset="1" stop-color="#FA742B"/>
</linearGradient>
</defs>
</svg>
