<svg width="20" height="20" viewBox="0 0 20 20" fill="none" xmlns="http://www.w3.org/2000/svg">
<path d="M4.97831 14.8213L7.43085 12.3688C6.81341 11.7188 6.47427 10.8535 6.48575 9.95709C6.49722 9.06072 6.8584 8.2043 7.49228 7.57042C8.12616 6.93654 8.98259 6.57536 9.87896 6.56388C10.7753 6.5524 11.6407 6.89154 12.2906 7.50898L14.7851 5.01406C13.4139 4.09414 11.8189 3.63372 9.99999 3.63281C6.24608 3.63281 3.4453 5.58789 1.59765 9.49805C1.52338 9.65531 1.48486 9.82706 1.48486 10.001C1.48486 10.1749 1.52338 10.3466 1.59765 10.5039C2.4996 12.4038 3.62649 13.8429 4.97831 14.8213Z" fill="#E6F7FF"/>
<path d="M18.4023 9.49609C17.7156 8.04961 16.8985 6.86992 15.9511 5.95703L13.1343 8.7748C13.3703 9.39467 13.4219 10.0695 13.2831 10.7181C13.1443 11.3667 12.8209 11.9613 12.3519 12.4302C11.8829 12.8992 11.2883 13.2226 10.6397 13.3614C9.99116 13.5002 9.31629 13.4485 8.69643 13.2125L6.30854 15.6006C7.41531 16.1117 8.64578 16.3672 9.99995 16.3672C13.7539 16.3672 16.5546 14.4121 18.4023 10.502C18.4766 10.3447 18.5151 10.1729 18.5151 9.99902C18.5151 9.82511 18.4766 9.65335 18.4023 9.49609Z" fill="#E6F7FF"/>
<path d="M18.4023 9.4964C17.7157 8.04992 16.8986 6.87023 15.9511 5.95734L14.9574 6.95109C15.7677 7.7255 16.4736 8.73859 17.0839 10.0003C15.4589 13.3636 13.1523 14.9612 9.99995 14.9612C9.05372 14.9612 8.18217 14.8155 7.3853 14.5241L6.30854 15.6009C7.41531 16.112 8.64578 16.3675 9.99995 16.3675C13.7539 16.3675 16.5546 14.4124 18.4023 10.5023C18.4766 10.345 18.5151 10.1732 18.5151 9.99933C18.5151 9.82542 18.4766 9.65366 18.4023 9.4964Z" fill="#20a2a2"/>
<path d="M17.1607 3.23391L16.3281 2.40032C16.3136 2.38579 16.2964 2.37427 16.2774 2.3664C16.2584 2.35854 16.2381 2.35449 16.2176 2.35449C16.197 2.35449 16.1767 2.35854 16.1577 2.3664C16.1388 2.37427 16.1215 2.38579 16.107 2.40032L13.9709 4.53547C12.7932 3.93391 11.4695 3.63313 9.99999 3.63313C6.24608 3.63313 3.4453 5.58821 1.59765 9.49836C1.52338 9.65562 1.48486 9.82738 1.48486 10.0013C1.48486 10.1752 1.52338 10.347 1.59765 10.5042C2.3358 12.0589 3.22447 13.3051 4.26366 14.2427L2.19687 16.3089C2.16759 16.3382 2.15114 16.3779 2.15114 16.4194C2.15114 16.4608 2.16759 16.5005 2.19687 16.5298L3.03065 17.3636C3.05995 17.3929 3.09968 17.4093 3.1411 17.4093C3.18253 17.4093 3.22225 17.3929 3.25155 17.3636L17.1607 3.45501C17.1753 3.44049 17.1868 3.42326 17.1946 3.40429C17.2025 3.38532 17.2066 3.36499 17.2066 3.34446C17.2066 3.32393 17.2025 3.30359 17.1946 3.28462C17.1868 3.26566 17.1753 3.24842 17.1607 3.23391ZM2.91601 10.0003C4.54296 6.63704 6.8496 5.03938 9.99999 5.03938C11.0652 5.03938 12.0338 5.22219 12.9125 5.59387L11.5394 6.96692C10.8892 6.61997 10.1446 6.49121 9.41563 6.59963C8.68662 6.70804 8.01176 7.0479 7.4906 7.56905C6.96944 8.09021 6.62959 8.76507 6.52117 9.49408C6.41276 10.2231 6.54152 10.9676 6.88847 11.6179L5.25917 13.2472C4.35741 12.4513 3.58007 11.373 2.91601 10.0003ZM7.73437 10.0003C7.73471 9.65591 7.81629 9.31644 7.97247 9.00949C8.12866 8.70254 8.35505 8.43675 8.63326 8.23373C8.91146 8.03071 9.23363 7.89618 9.5736 7.84106C9.91356 7.78595 10.2617 7.8118 10.5898 7.91653L7.83808 10.6683C7.76911 10.4523 7.73412 10.227 7.73437 10.0003Z" fill="#20a2a2"/>
<path d="M9.92172 12.1877C9.85414 12.1877 9.78754 12.1846 9.72153 12.1785L8.68989 13.2102C9.31037 13.4478 9.98641 13.5006 10.6363 13.3622C11.2861 13.2238 11.882 12.9001 12.3518 12.4303C12.8216 11.9605 13.1453 11.3646 13.2837 10.7148C13.4221 10.0649 13.3693 9.38886 13.1317 8.76838L12.1 9.80001C12.1061 9.86603 12.1092 9.93263 12.1092 10.0002C12.1094 10.2875 12.0529 10.572 11.943 10.8375C11.8331 11.103 11.672 11.3442 11.4689 11.5473C11.2657 11.7505 11.0245 11.9116 10.759 12.0215C10.4936 12.1314 10.209 12.1879 9.92172 12.1877Z" fill="#20a2a2"/>
</svg>
