<svg width="20" height="20" viewBox="0 0 20 20" fill="none" xmlns="http://www.w3.org/2000/svg">
<path d="M10.0001 5.03906C6.84966 5.03906 4.54302 6.63672 2.91607 10C4.54302 13.3633 6.84966 14.9609 10.0001 14.9609C13.1524 14.9609 15.459 13.3633 17.084 10C15.4571 6.63672 13.1504 5.03906 10.0001 5.03906ZM9.92193 13.4375C8.02349 13.4375 6.48443 11.8984 6.48443 10C6.48443 8.10156 8.02349 6.5625 9.92193 6.5625C11.8204 6.5625 13.3594 8.10156 13.3594 10C13.3594 11.8984 11.8204 13.4375 9.92193 13.4375Z" fill="#E6F7FF"/>
<path d="M18.4023 9.49609C16.5508 5.5957 13.7519 3.63281 9.99999 3.63281C6.24608 3.63281 3.44921 5.5957 1.59765 9.49805C1.52338 9.65531 1.48486 9.82706 1.48486 10.001C1.48486 10.1749 1.52338 10.3466 1.59765 10.5039C3.44921 14.4043 6.24804 16.3672 9.99999 16.3672C13.7539 16.3672 16.5508 14.4043 18.4023 10.502C18.5527 10.1855 18.5527 9.81836 18.4023 9.49609ZM9.99999 14.9609C6.8496 14.9609 4.54296 13.3633 2.91601 10C4.54296 6.63672 6.8496 5.03906 9.99999 5.03906C13.1504 5.03906 15.457 6.63672 17.084 10C15.459 13.3633 13.1523 14.9609 9.99999 14.9609Z" fill="#20a2a2"/>
<path d="M9.92182 6.5625C8.02338 6.5625 6.48432 8.10156 6.48432 10C6.48432 11.8984 8.02338 13.4375 9.92182 13.4375C11.8203 13.4375 13.3593 11.8984 13.3593 10C13.3593 8.10156 11.8203 6.5625 9.92182 6.5625ZM9.92182 12.1875C8.71284 12.1875 7.73432 11.209 7.73432 10C7.73432 8.79102 8.71284 7.8125 9.92182 7.8125C11.1308 7.8125 12.1093 8.79102 12.1093 10C12.1093 11.209 11.1308 12.1875 9.92182 12.1875Z" fill="#20a2a2"/>
</svg>
