<svg width="48" height="48" viewBox="0 0 48 48" fill="none" xmlns="http://www.w3.org/2000/svg">
<rect width="47.9167" height="47.9167" rx="6" fill="#1877F2"/>
<path fill-rule="evenodd" clip-rule="evenodd" d="M40 13.1458V29.6929C39.9199 30.7411 39.4446 31.7197 38.6702 32.4306C37.8598 33.2004 36.9055 33.6509 35.776 33.733C35.1831 33.7761 34.5917 33.7815 33.9996 33.7815C30.2449 33.7847 26.4903 33.7831 22.7356 33.7769C22.3724 33.7714 22.0193 33.8966 21.7406 34.1296C20.1185 35.3991 18.4805 36.6584 16.8437 37.9168L16.8434 37.917L16.3081 38.3286C16.0343 38.539 15.7527 38.7283 15.3796 38.715C15.1544 38.7117 14.9362 38.6363 14.757 38.4999C14.5778 38.3635 14.447 38.1732 14.3838 37.957C14.331 37.7555 14.3084 37.5473 14.3166 37.3391V34.1867C14.3166 33.8074 14.2931 33.78 13.9059 33.7855C13.2606 33.7941 12.6129 33.8011 11.9754 33.7025C10.3898 33.4577 9.21178 32.6192 8.46007 31.1955C8.13232 30.5744 8.00795 29.9111 8.00873 29.211C8.00999 28.0107 8.01225 26.8103 8.01452 25.6099C8.02206 21.6085 8.02961 17.6071 8.00012 13.6057C7.98291 11.288 9.78984 9.41536 11.8494 9.09699C12.2294 9.03529 12.6136 9.00286 12.9985 9H35.0321C36.2055 9 37.3076 9.23467 38.251 9.98482C39.2553 10.7819 39.9249 11.7675 39.9797 13.0934C39.9826 13.1121 39.9895 13.13 40 13.1458ZM18.2985 20.1567C18.2985 19.6827 18.6827 19.2985 19.1567 19.2985H28.8831C29.357 19.2985 29.7413 19.6827 29.7413 20.1567C29.7413 20.6307 29.357 21.0149 28.8831 21.0149H19.1567C18.6827 21.0149 18.2985 20.6307 18.2985 20.1567ZM19.1567 22.7313C18.6827 22.7313 18.2985 23.1156 18.2985 23.5895C18.2985 24.0635 18.6827 24.4477 19.1567 24.4477H24.306C24.7799 24.4477 25.1642 24.0635 25.1642 23.5895C25.1642 23.1156 24.7799 22.7313 24.306 22.7313H19.1567Z" fill="white"/>
</svg>
