<svg width="40" height="40" viewBox="0 0 40 40" fill="none" xmlns="http://www.w3.org/2000/svg">
<path fill-rule="evenodd" clip-rule="evenodd" d="M10.5 2H22.875L33 12.125V33.5C33 34.6935 32.5259 35.8381 31.682 36.682C30.8381 37.5259 29.6935 38 28.5 38H10.5C9.30653 38 8.16193 37.5259 7.31802 36.682C6.47411 35.8381 6 34.6935 6 33.5V6.5C6 5.30653 6.47411 4.16193 7.31802 3.31802C8.16193 2.47411 9.30653 2 10.5 2ZM23.8635 11.1365C23.2306 10.5036 22.875 9.64511 22.875 8.75V4.25H10.5C9.90326 4.25 9.33097 4.48705 8.90901 4.90901C8.48705 5.33097 8.25 5.90326 8.25 6.5V33.5C8.25 34.0967 8.48705 34.669 8.90901 35.091C9.33097 35.5129 9.90326 35.75 10.5 35.75H28.5C29.0967 35.75 29.669 35.5129 30.091 35.091C30.5129 34.669 30.75 34.0967 30.75 33.5V12.125H26.25C25.3549 12.125 24.4964 11.7694 23.8635 11.1365ZM22.5033 27.3764L22.5025 20.2806C22.5007 20.1718 22.5213 20.0631 22.5616 19.9621C22.602 19.8611 22.662 19.7692 22.7383 19.6917C22.8145 19.6142 22.9055 19.5526 23.0058 19.5106C23.1061 19.4686 23.2137 19.447 23.3225 19.4471C23.4312 19.4471 23.5388 19.4688 23.6391 19.5109C23.7393 19.553 23.8302 19.6147 23.9064 19.6922C23.9826 19.7698 24.0425 19.8618 24.0828 19.9628C24.123 20.0638 24.1428 20.1719 24.1408 20.2806V27.3772C24.1408 28.4632 23.7094 29.5048 22.9414 30.2727C22.1735 31.0407 21.1319 31.4721 20.0459 31.4721C18.9599 31.4721 17.9183 31.0407 17.1503 30.2727C16.3824 29.5048 15.951 28.4632 15.951 27.3772L15.9517 19.1881C15.9517 18.5366 16.2106 17.9117 16.6713 17.451C17.132 16.9903 17.7568 16.7315 18.4084 16.7315C19.0599 16.7315 19.6848 16.9903 20.1455 17.451C20.6062 17.9117 20.865 18.5366 20.865 19.1881L20.8643 27.3772C20.8568 27.5892 20.7673 27.7901 20.6146 27.9375C20.462 28.0848 20.2581 28.1672 20.0459 28.1672C19.8337 28.1672 19.6298 28.0848 19.4772 27.9375C19.3245 27.7901 19.235 27.5892 19.2275 27.3772L19.2268 19.1881C19.2286 19.0794 19.2088 18.9714 19.1684 18.8704C19.1281 18.7695 19.068 18.6775 18.9918 18.6C18.9155 18.5225 18.8246 18.461 18.7243 18.419C18.624 18.377 18.5163 18.3554 18.4076 18.3554C18.2989 18.3555 18.1912 18.3772 18.091 18.4193C17.9907 18.4614 17.8999 18.523 17.8237 18.6006C17.7475 18.6782 17.6875 18.7701 17.6473 18.8712C17.607 18.9722 17.5873 19.0802 17.5892 19.1889L17.59 27.3764C17.59 28.028 17.8488 28.6528 18.3096 29.1135C18.7703 29.5742 19.3951 29.8331 20.0467 29.8331C20.6982 29.8331 21.3231 29.5742 21.7838 29.1135C22.2445 28.6528 22.5033 28.028 22.5033 27.3764Z" fill="#6B6B6B"/>
</svg>
