<svg width="32" height="32" viewBox="0 0 32 32" fill="none" xmlns="http://www.w3.org/2000/svg">
<path d="M28.6667 14.668V22.668C28.6667 28.0013 27.3333 29.3346 22 29.3346H8.66667C3.33333 29.3346 2 28.0013 2 22.668V9.33464C2 4.0013 3.33333 2.66797 8.66667 2.66797H10.6667C12.6667 2.66797 13.1067 3.25464 13.8667 4.26797L15.8667 6.93464C16.3733 7.6013 16.6667 8.0013 18 8.0013H22C27.3333 8.0013 28.6667 9.33464 28.6667 14.668Z" stroke="#6B6B6B" stroke-width="1.5" stroke-miterlimit="10"/>
<path d="M10.6626 2.66797H22.6626C25.3293 2.66797 26.6626 4.0013 26.6626 6.66797V8.50797" stroke="#6B6B6B" stroke-width="1.5" stroke-miterlimit="10" stroke-linecap="round" stroke-linejoin="round"/>
<path d="M17.6552 14.6157L17.6559 21.3746C17.6559 21.9952 17.4094 22.5903 16.9705 23.0292C16.5317 23.468 15.9365 23.7145 15.3159 23.7145C14.6953 23.7145 14.1001 23.468 13.6613 23.0292C13.2225 22.5903 12.976 21.9952 12.976 21.3746L12.9752 13.5759C12.9734 13.4724 12.9922 13.3695 13.0305 13.2733C13.0688 13.1771 13.126 13.0894 13.1985 13.0155C13.2711 12.9416 13.3576 12.8829 13.4531 12.8428C13.5486 12.8027 13.6511 12.7821 13.7547 12.782C13.8583 12.782 13.9608 12.8025 14.0564 12.8425C14.1519 12.8825 14.2385 12.9412 14.3111 13.015C14.3838 13.0888 14.441 13.1764 14.4794 13.2726C14.5178 13.3688 14.5367 13.4716 14.535 13.5752L14.5357 21.3753C14.5428 21.5773 14.6281 21.7686 14.7735 21.909C14.9189 22.0493 15.1131 22.1278 15.3152 22.1278C15.5173 22.1278 15.7115 22.0493 15.8569 21.909C16.0023 21.7686 16.0876 21.5773 16.0947 21.3753L16.0954 13.5752C16.0954 12.9546 15.8489 12.3594 15.4101 11.9206C14.9712 11.4817 14.3761 11.2352 13.7555 11.2352C13.1349 11.2352 12.5397 11.4817 12.1009 11.9206C11.662 12.3594 11.4155 12.9546 11.4155 13.5752L11.4148 21.3753C11.4148 22.4098 11.8257 23.4019 12.5572 24.1333C13.2886 24.8648 14.2807 25.2757 15.3152 25.2757C16.3496 25.2757 17.3417 24.8648 18.0732 24.1333C18.8047 23.4019 19.2156 22.4098 19.2156 21.3753L19.2156 14.6157C19.2175 14.5122 19.1987 14.4093 19.1603 14.3131C19.122 14.2169 19.0649 14.1293 18.9923 14.0554C18.9198 13.9815 18.8332 13.9227 18.7377 13.8826C18.6422 13.8426 18.5397 13.8219 18.4361 13.8218C18.3326 13.8218 18.23 13.8424 18.1345 13.8824C18.039 13.9224 17.9523 13.981 17.8797 14.0548C17.8071 14.1287 17.7499 14.2162 17.7115 14.3124C17.673 14.4086 17.6534 14.5122 17.6552 14.6157Z" fill="#6B6B6B"/>
</svg>
