<svg width="14" height="13" viewBox="0 0 14 13" fill="none" xmlns="http://www.w3.org/2000/svg">
<path d="M0 13V0H10.08L14 3.64V13H0Z" fill="#F1C40F"/>
<path d="M0 13V9.36L10.08 0L14 3.64L3.92 13H0Z" fill="#F39C12"/>
<path d="M10.0801 0H10.2201L14.0001 3.51V3.64H10.0801V0Z" fill="#FFF55B"/>
<path d="M4.87637 7.24365V7.74454H3.26105V8.74606H4.62437V9.24916H3.26105V10.6274H2.57812V7.24365H4.87637ZM6.17165 10.6273H5.49125V7.24365H6.17165V10.6273ZM7.66839 10.1078H9.12747V10.6273H6.99065V7.24365H7.66853V10.1078H7.66839ZM11.8946 7.24365V7.74454H10.2792V8.68288H11.5518V9.16726H10.2792V10.1243H11.8946V10.6274H9.59633V7.24365H11.8946Z" fill="white"/>
</svg>
