<svg width="20" height="20" viewBox="0 0 20 20" fill="none" xmlns="http://www.w3.org/2000/svg">
<g id="Component 373">
<g id="vuesax/outline/message-text">
<g id="message-text">
<path id="Vector" d="M13.3334 18.9582H2.50008C1.70008 18.9582 1.04175 18.2998 1.04175 17.4998V6.6665C1.04175 2.98317 2.98341 1.0415 6.66675 1.0415H13.3334C17.0167 1.0415 18.9584 2.98317 18.9584 6.6665V13.3332C18.9584 17.0165 17.0167 18.9582 13.3334 18.9582ZM6.66675 2.2915C3.68341 2.2915 2.29175 3.68317 2.29175 6.6665V17.4998C2.29175 17.6165 2.38341 17.7082 2.50008 17.7082H13.3334C16.3167 17.7082 17.7084 16.3165 17.7084 13.3332V6.6665C17.7084 3.68317 16.3167 2.2915 13.3334 2.2915H6.66675Z" fill="#637381"/>
<path id="Vector_2" d="M14.1666 8.5415H5.83325C5.49159 8.5415 5.20825 8.25817 5.20825 7.9165C5.20825 7.57484 5.49159 7.2915 5.83325 7.2915H14.1666C14.5083 7.2915 14.7916 7.57484 14.7916 7.9165C14.7916 8.25817 14.5083 8.5415 14.1666 8.5415Z" fill="#637381"/>
<path id="Vector_3" d="M11.6666 12.7085H5.83325C5.49159 12.7085 5.20825 12.4252 5.20825 12.0835C5.20825 11.7418 5.49159 11.4585 5.83325 11.4585H11.6666C12.0083 11.4585 12.2916 11.7418 12.2916 12.0835C12.2916 12.4252 12.0083 12.7085 11.6666 12.7085Z" fill="#637381"/>
</g>
</g>
</g>
</svg>
