<svg width="21" height="20" viewBox="0 0 21 20" fill="none" xmlns="http://www.w3.org/2000/svg">
<path d="M17.4141 2.5H3.58597C3.26231 2.5 3 2.7623 3 3.08594C3 4.71764 3.6995 6.27541 4.91916 7.35952L7.48541 9.64033C7.93038 10.0358 8.1856 10.6042 8.1856 11.1996V16.9134C8.1856 17.3803 8.70747 17.6603 9.09648 17.4008L12.5536 15.0963C12.7166 14.9876 12.8145 14.8047 12.8145 14.6088V11.1996C12.8145 10.6042 13.0697 10.0358 13.5147 9.64033L16.0808 7.35952C17.3005 6.27541 18 4.71764 18 3.08594C18 2.7623 17.7377 2.5 17.4141 2.5ZM15.3023 6.48358L12.7361 8.76451C12.0412 9.38226 11.6426 10.2698 11.6426 11.1995V14.2952L9.35742 15.8186V11.1996C9.35742 10.2698 8.9588 9.38226 8.26388 8.76451L5.69775 6.4837C4.87533 5.75253 4.35036 4.75071 4.20982 3.67176H16.7902C16.6496 4.75071 16.1248 5.75253 15.3023 6.48358Z" fill="black" fill-opacity="0.45"/>
</svg>
