<svg width="18" height="18" viewBox="0 0 18 18" fill="none" xmlns="http://www.w3.org/2000/svg">
<path fill-rule="evenodd" clip-rule="evenodd" d="M12.9825 11.925L15.5325 14.4675C15.6745 14.6083 15.7543 14.8 15.7543 15C15.7543 15.2 15.6745 15.3917 15.5325 15.5325C15.3917 15.6745 15.2 15.7543 15 15.7543C14.8 15.7543 14.6083 15.6745 14.4675 15.5325L11.925 12.9825C10.8768 13.8052 9.58249 14.2517 8.25 14.25C4.93629 14.25 2.25 11.5637 2.25 8.25C2.25 4.93629 4.93629 2.25 8.25 2.25C11.5637 2.25 14.25 4.93629 14.25 8.25C14.2517 9.58249 13.8052 10.8768 12.9825 11.925ZM8.25 3.75C5.76472 3.75 3.75 5.76472 3.75 8.25C3.75 10.7353 5.76472 12.75 8.25 12.75C10.7353 12.75 12.75 10.7353 12.75 8.25C12.75 5.76472 10.7353 3.75 8.25 3.75Z" fill="#919EAB"/>
</svg>
