<svg width="16" height="16" viewBox="0 0 16 16" fill="none" xmlns="http://www.w3.org/2000/svg">
<path d="M14.1202 0.666016H1.2139C0.911817 0.666016 0.666992 0.910828 0.666992 1.21289C0.666992 2.73581 1.31986 4.18974 2.45821 5.20156L4.85337 7.33032C5.26868 7.69946 5.50688 8.22989 5.50688 8.78563V14.1185C5.50688 14.5543 5.99397 14.8156 6.35704 14.5734L9.58367 12.4226C9.73577 12.3211 9.82721 12.1504 9.82721 11.9676V8.78563C9.82721 8.22989 10.0654 7.69946 10.4807 7.33032L12.8758 5.20156C14.0141 4.18974 14.667 2.73581 14.667 1.21289C14.667 0.910828 14.4222 0.666016 14.1202 0.666016ZM12.1491 4.38403L9.75404 6.51289C9.10545 7.08946 8.7334 7.91779 8.7334 8.78553V11.6749L6.60058 13.0967V8.78563C6.60058 7.91779 6.22854 7.08946 5.57994 6.51289L3.18489 4.38413C2.4173 3.70171 1.92733 2.76668 1.79616 1.75966H13.5378C13.4067 2.76668 12.9168 3.70171 12.1491 4.38403Z" fill="#2C2C2C"/>
</svg>
