<svg width="40" height="40" viewBox="0 0 40 40" fill="none" xmlns="http://www.w3.org/2000/svg">
<rect width="40" height="40" rx="20" fill="url(#paint0_linear_9509_80232)"/>
<path d="M25.3047 14.6948C24.8172 14.2074 24.156 13.9336 23.4666 13.9336C22.7771 13.9336 22.1159 14.2074 21.6284 14.6948L21.2254 15.097L22.4508 16.3224L22.8538 15.9203C23.0173 15.7624 23.2362 15.6751 23.4634 15.677C23.6907 15.679 23.908 15.7702 24.0687 15.9308C24.2294 16.0915 24.3206 16.3089 24.3225 16.5361C24.3245 16.7634 24.2372 16.9823 24.0793 17.1457L21.2254 19.9996L22.4508 21.2251L25.3047 18.3712C25.7922 17.8836 26.066 17.2224 26.066 16.533C26.066 15.8436 25.7922 15.1824 25.3047 14.6948ZM17.146 24.079C16.9826 24.2369 16.7636 24.3242 16.5364 24.3223C16.3092 24.3203 16.0918 24.2291 15.9311 24.0684C15.7704 23.9078 15.6793 23.6904 15.6773 23.4632C15.6753 23.2359 15.7627 23.017 15.9206 22.8535L18.7745 19.9996L17.549 18.7742L14.6951 21.6281C14.4468 21.8679 14.2487 22.1548 14.1125 22.472C13.9762 22.7892 13.9045 23.1304 13.9015 23.4756C13.8985 23.8209 13.9642 24.1632 14.095 24.4827C14.2257 24.8023 14.4188 25.0926 14.6629 25.3367C14.907 25.5808 15.1973 25.7739 15.5168 25.9046C15.8363 26.0353 16.1787 26.1011 16.5239 26.0981C16.8692 26.0951 17.2103 26.0234 17.5275 25.8871C17.8447 25.7509 18.1316 25.5528 18.3715 25.3045L18.7745 24.9023L17.549 23.6769L17.146 24.079ZM18.3715 14.6957C17.8791 14.2336 17.2263 13.9811 16.5511 13.9918C15.8759 14.0024 15.2314 14.2753 14.7539 14.7527C14.2763 15.2302 14.0033 15.8746 13.9925 16.5498C13.9817 17.225 14.234 17.8779 14.696 18.3703L15.0981 18.7733L16.3236 17.5479L15.9214 17.1449C15.7636 16.9814 15.6762 16.7625 15.6782 16.5353C15.6802 16.308 15.7713 16.0907 15.932 15.93C16.0927 15.7693 16.31 15.6781 16.5373 15.6762C16.7645 15.6742 16.9834 15.7615 17.1469 15.9194L19.9999 18.7742L21.2254 17.5487L18.3715 14.6957Z" fill="white"/>
<path d="M25.3047 21.6296L24.9026 21.2266L23.6771 22.452L24.0792 22.855C24.2371 23.0185 24.3245 23.2374 24.3225 23.4646C24.3205 23.6919 24.2294 23.9092 24.0687 24.0699C23.908 24.2306 23.6906 24.3217 23.4634 24.3237C23.2361 24.3257 23.0172 24.2383 22.8538 24.0805L19.9999 21.2266L18.7744 22.452L21.6283 25.3059C22.1187 25.7795 22.7754 26.0416 23.4571 26.0357C24.1388 26.0297 24.791 25.7563 25.273 25.2743C25.7551 24.7922 26.0285 24.1401 26.0344 23.4584C26.0404 22.7767 25.7783 22.1199 25.3047 21.6296Z" fill="white"/>
<path d="M20 33C19.8465 33.0001 19.6957 32.9594 19.5632 32.8821L9.16326 26.8155C9.03241 26.7392 8.92387 26.6299 8.84844 26.4985C8.77302 26.3671 8.73335 26.2182 8.7334 26.0667V13.9335C8.73335 13.782 8.77302 13.6332 8.84844 13.5018C8.92387 13.3704 9.03241 13.2611 9.16326 13.1847L19.5632 7.11812C19.6957 7.04076 19.8465 7 20 7C20.1534 7 20.3042 7.04076 20.4367 7.11812L30.0879 12.7479C30.5014 12.9892 30.6411 13.52 30.3999 13.9335C30.1586 14.3471 29.6278 14.4868 29.2143 14.2455L20 8.8705L10.4667 14.431V25.5693L20 31.1306L29.5332 25.5693V20.0001C29.5332 19.5215 29.9212 19.1335 30.3998 19.1335C30.8785 19.1335 31.2665 19.5215 31.2665 20.0001V26.0667C31.2666 26.2182 31.2269 26.3671 31.1515 26.4985C31.076 26.6299 30.9675 26.7392 30.8366 26.8155L20.4367 32.8821C20.3042 32.9594 20.1534 33.0001 20 33Z" fill="white"/>
<defs>
<linearGradient id="paint0_linear_9509_80232" x1="20" y1="0" x2="20" y2="40" gradientUnits="userSpaceOnUse">
<stop stop-color="#FF928A"/>
<stop offset="1" stop-color="#D64D44"/>
</linearGradient>
</defs>
</svg>
