<svg width="21" height="20" viewBox="0 0 21 20" fill="none" xmlns="http://www.w3.org/2000/svg">
<rect x="0.5" width="20" height="20" rx="1" fill="white"/>
<path fill-rule="evenodd" clip-rule="evenodd" d="M4.5 6.81818C4.5 5.54091 4.7251 4.7749 5 4.5C5.0021 4.4979 5.00421 4.49579 5.00631 4.49369C5.27845 4.22144 5.51392 3.98587 7.31818 4.01819H8.27273C9.00286 4.01819 9.21226 4.36562 9.38991 4.66037C9.45216 4.76365 9.51051 4.86046 9.586 4.93359L10.3091 6L11 6.5C11.2141 6.54794 11.3129 6.57068 11.4129 6.58147C11.5032 6.59121 11.5945 6.59121 11.7727 6.59121H13.6818C14.9591 6.59121 15.7251 6.7251 16 7C16.2749 7.2749 16.5 8 16.5 9.36364V10.6364C16.5 10.9878 16.6485 11.5 17 11.5C17.3515 11.5 17.5 10.9878 17.5 10.6364V9.36364C17.5 8.09546 17.3569 7.04785 16.6772 6.3682C15.9976 5.68856 14.95 5.54545 13.6818 5.54545H11.7727C11.5159 5.54545 11.4516 5.50609 11.4449 5.50198C11.4232 5.48887 11.3992 5.46922 11.2625 5.28934L10.3091 4.01819L10.2847 3.98562C10.122 3.76795 9.91194 3.48712 9.586 3.29132C9.2285 3.07656 8.80509 3 8.27273 3H7.31818C6.05 3 5.00239 3.14311 4.32275 3.82275C3.64311 4.50239 3.5 5.55 3.5 6.81818V13.1818C3.5 14.45 3.64311 15.4976 4.32275 16.1772C5.00239 16.8569 6.05 17 7.31818 17H8.59091C8.94236 17 9.22727 16.7151 9.22727 16.3636C9.22727 16.0122 9.12418 16 8.77273 16H7.5C6.22272 16 5.2749 15.7749 5 15.5C4.7251 15.2251 4.5 14.5 4.5 13.1818V6.81818ZM15.9547 17C16.0993 17 16.238 16.9426 16.3403 16.8403C16.4426 16.738 16.5 16.5993 16.5 16.4547C16.5 16.31 16.4426 16.1713 16.3403 16.069L15.0274 14.7561C15.2755 14.3673 15.408 13.9159 15.4092 13.4546C15.4092 12.9691 15.2652 12.4946 14.9955 12.0909C14.7258 11.6872 14.3424 11.3726 13.8939 11.1868C13.4454 11.0011 12.9519 10.9525 12.4757 11.0472C11.9996 11.1419 11.5622 11.3757 11.2189 11.7189C10.8757 12.0622 10.6419 12.4996 10.5472 12.9757C10.4525 13.4519 10.5011 13.9454 10.6868 14.3939C10.8726 14.8424 11.1872 15.2258 11.5909 15.4955C11.9946 15.7652 12.4691 15.9092 12.9546 15.9092C13.4159 15.908 13.8673 15.7755 14.2561 15.5274L15.569 16.8403C15.6713 16.9426 15.81 17 15.9547 17ZM13.7122 14.5884C13.488 14.7383 13.2243 14.8183 12.9546 14.8183C12.5929 14.8183 12.2461 14.6746 11.9903 14.4188C11.7346 14.1631 11.5909 13.8163 11.5909 13.4546C11.5909 13.1849 11.6709 12.9212 11.8207 12.697C11.9706 12.4727 12.1836 12.2979 12.4327 12.1947C12.6819 12.0915 12.9561 12.0645 13.2206 12.1171C13.4852 12.1698 13.7281 12.2996 13.9188 12.4903C14.1096 12.6811 14.2394 12.924 14.2921 13.1886C14.3447 13.4531 14.3177 13.7273 14.2145 13.9764C14.1112 14.2256 13.9365 14.4386 13.7122 14.5884Z" fill="black"/>
</svg>
