<svg width="236" height="236" viewBox="0 0 236 236" fill="none" xmlns="http://www.w3.org/2000/svg">
<rect width="236" height="236" rx="118" fill="#E2EEFE"/>
<g clip-path="url(#clip0_12041_361444)">
<g filter="url(#filter0_d_12041_361444)">
<path d="M71.0702 87.5039C71.0702 76.8398 71.0767 66.1745 71.0897 55.5078C71.0897 52.1563 72.8905 50.3359 76.2108 50.3359H159.496C162.785 50.3359 164.633 52.1992 164.637 55.5039C164.637 66.181 164.637 76.8464 164.637 87.5C164.951 87.9962 165.107 88.5769 165.082 89.1641C165.082 99.0039 165.113 108.84 165.082 118.68C165.078 118.872 165.059 119.064 165.023 119.254C164.922 120.035 164.375 120.543 163.851 121.039C160.781 123.879 157.621 126.613 154.5 129.395C151.379 132.176 148.32 134.863 145.234 137.629C143.308 139.344 141.355 141.02 139.461 142.77C139.221 143.016 138.907 143.178 138.566 143.23C136.765 142.988 135.859 141.434 134.586 140.441C131.949 138.379 129.617 135.926 126.711 134.191C120.707 130.621 112.543 131.145 107.086 135.5C104.504 137.563 102.09 139.824 99.6249 142.027C99.0155 142.574 98.4764 143.246 97.5233 143.16C95.6092 142.129 94.1991 140.477 92.6092 139.063C86.1118 133.326 79.6314 127.582 73.1678 121.832C72.6639 121.379 72.1131 120.973 71.6366 120.484C71.121 120.025 70.7882 119.396 70.6991 118.711C70.5663 108.859 70.6639 99.0117 70.6444 89.1641C70.6135 88.5802 70.7621 88.0008 71.0702 87.5039Z" fill="url(#paint0_linear_12041_361444)"/>
</g>
<path d="M97.4063 142.969C98.043 143.094 98.375 142.602 98.7617 142.262C100.84 140.434 102.922 138.606 104.973 136.75C112.715 129.743 122.496 129.618 130.402 136.43C132.684 138.394 134.97 140.347 137.262 142.289C137.652 142.629 138.02 143.071 138.625 143.039C144.199 147.727 149.715 152.516 155.277 157.227C160.176 161.375 165.043 165.567 169.938 169.707C173.391 172.629 176.801 175.598 180.273 178.496C180.646 178.735 180.913 179.107 181.02 179.536C177.582 183.621 173.176 185.907 167.859 185.914C134.469 185.977 101.079 185.977 67.6914 185.914C62.9492 185.914 58.875 183.918 55.582 180.446C55.9219 179.129 57.1094 178.532 58.0117 177.743C61.875 174.348 65.707 170.914 69.5859 167.528C73.3177 164.273 77.0339 161.002 80.7344 157.715C84.4805 154.403 88.2539 151.121 91.9688 147.774C93.7656 146.168 95.6406 144.633 97.4063 142.969Z" fill="url(#paint1_linear_12041_361444)"/>
<path d="M181.02 179.551C176.78 175.949 172.54 172.348 168.301 168.746C164.09 165.18 159.863 161.641 155.66 158.066C152.082 155.027 148.527 151.957 144.961 148.906C143.16 147.367 141.34 145.844 139.539 144.305C139.148 143.965 138.648 143.68 138.625 143.055L164.645 119.891C165.715 117.957 167.625 116.859 169.184 115.43C172.289 112.574 175.434 109.754 178.656 107.023C180.309 105.625 181.633 103.816 183.664 102.875C184.219 102.977 184.266 103.492 184.402 103.871C185.201 105.909 185.63 108.073 185.668 110.262C185.668 129.484 185.687 148.707 185.641 167.93C185.637 172.367 184.008 176.254 181.02 179.551Z" fill="url(#paint2_linear_12041_361444)"/>
<path d="M183.664 102.875C180.77 105.508 177.883 108.152 174.973 110.766C172.777 112.719 170.551 114.672 168.332 116.625L164.641 119.895C164.641 109.095 164.641 98.2969 164.641 87.5C169.469 90.4531 174.223 93.5195 178.828 96.8008C180.98 98.3359 182.543 100.469 183.664 102.875Z" fill="#A4BDE4"/>
<path d="M71.043 119.316C69.4805 118.535 68.4297 117.16 67.1602 116.055C62.3672 111.895 57.6758 107.613 52.9531 103.375C52.7253 103.118 52.4051 102.962 52.0625 102.941C53.0823 100.454 54.7827 98.3037 56.9687 96.7383C61.5586 93.5 66.2773 90.4414 71.0703 87.5039C71.0625 98.1107 71.0534 108.715 71.043 119.316Z" fill="#A4BDE4"/>
<path fill-rule="evenodd" clip-rule="evenodd" d="M94.9547 145.708C95.9428 144.962 96.9321 144.215 97.4062 142.969C95.9095 141.633 94.4113 140.297 92.913 138.962C88.859 135.349 84.8046 131.736 80.7773 128.094C79.7015 127.122 78.6084 126.171 77.5159 125.221C75.312 123.305 73.11 121.39 71.0547 119.301C70.8777 118.954 70.6255 118.651 70.3164 118.414C68.3872 116.597 66.3981 114.843 64.4094 113.09C63.1887 112.014 61.9681 110.939 60.7617 109.848C58.3438 107.665 55.8947 105.516 53.4456 103.368L53.4453 103.368C53.3904 103.319 53.3359 103.266 53.2808 103.213C52.9592 102.902 52.6178 102.573 52.0742 102.926C50.8086 105 50.3203 107.293 50.1211 109.668C50.1226 109.675 50.1241 109.683 50.1256 109.69C50.1241 109.688 50.1226 109.686 50.1211 109.684C50.113 109.836 50.1015 109.988 50.09 110.14C50.0685 110.427 50.0469 110.714 50.0469 111.004V167.544C50.0469 167.859 50.0718 168.175 50.0967 168.491C50.11 168.66 50.1233 168.828 50.1328 168.997C50.1332 168.996 50.1335 168.996 50.1339 168.995C50.5886 173.463 52.3033 177.343 55.5781 180.465C57.6432 178.637 59.7057 176.802 61.7656 174.961C63.0195 173.842 64.2716 172.72 65.5237 171.599C68.0281 169.355 70.5325 167.112 73.0508 164.883C77.8476 160.649 82.651 156.422 87.4609 152.203C88.1515 151.598 88.8565 151.006 89.5613 150.415C90.9376 149.261 92.3136 148.107 93.582 146.844C94.0005 146.428 94.4775 146.068 94.9547 145.708Z" fill="url(#paint3_linear_12041_361444)"/>
<path d="M115.281 109.16C114.085 109.2 112.892 108.994 111.778 108.554C110.664 108.115 109.652 107.452 108.805 106.605C105.399 103.262 102.028 99.8763 98.6916 96.4492C97.3851 95.1404 96.6514 93.3668 96.6514 91.5175C96.6514 89.6683 97.3851 87.8946 98.6916 86.5859C101.426 83.8125 105.766 83.8007 108.66 86.5859C110.586 88.4492 112.492 90.3359 114.332 92.2773C115.039 93.0234 115.442 92.996 116.16 92.2773C121.262 87.1184 126.393 81.9856 131.555 76.8789C135.504 72.9726 141.711 74.3203 143.36 79.4296C144.192 81.9882 143.75 84.4218 141.867 86.3437C135.13 93.1953 128.347 99.9934 121.516 106.738C120.695 107.543 119.719 108.172 118.647 108.588C117.575 109.005 116.43 109.199 115.281 109.16Z" fill="#5EBC66"/>
<path d="M80.4334 178.939C78.9295 178.939 77.4217 178.967 75.9178 178.939C74.4139 178.912 73.4529 177.975 73.4334 176.639C73.4139 175.303 74.3826 174.295 75.8553 174.295C78.9152 174.256 81.9751 174.256 85.035 174.295C86.5037 174.295 87.4725 175.326 87.449 176.639C87.4256 177.951 86.449 178.893 84.949 178.928C83.449 178.963 81.9412 178.939 80.4334 178.939Z" fill="white"/>
<path d="M96.8008 176.606C96.8007 177.072 96.6617 177.527 96.4017 177.914C96.1416 178.3 95.7723 178.6 95.3409 178.776C94.9094 178.952 94.4354 178.995 93.9793 178.9C93.5232 178.805 93.1058 178.576 92.7803 178.243C92.4548 177.91 92.236 177.487 92.1518 177.029C92.0677 176.571 92.122 176.098 92.3078 175.671C92.4936 175.243 92.8025 174.881 93.195 174.63C93.5876 174.38 94.046 174.251 94.5117 174.262C95.1238 174.277 95.706 174.53 96.1338 174.968C96.5615 175.406 96.8009 175.994 96.8008 176.606Z" fill="#FFFEFC"/>
</g>
<defs>
<filter id="filter0_d_12041_361444" x="64.6279" y="40.3359" width="110.468" height="108.895" filterUnits="userSpaceOnUse" color-interpolation-filters="sRGB">
<feFlood flood-opacity="0" result="BackgroundImageFix"/>
<feColorMatrix in="SourceAlpha" type="matrix" values="0 0 0 0 0 0 0 0 0 0 0 0 0 0 0 0 0 0 127 0" result="hardAlpha"/>
<feOffset dx="2" dy="-2"/>
<feGaussianBlur stdDeviation="4"/>
<feComposite in2="hardAlpha" operator="out"/>
<feColorMatrix type="matrix" values="0 0 0 0 0.761458 0 0 0 0 0.809134 0 0 0 0 0.85 0 0 0 1 0"/>
<feBlend mode="normal" in2="BackgroundImageFix" result="effect1_dropShadow_12041_361444"/>
<feBlend mode="normal" in="SourceGraphic" in2="effect1_dropShadow_12041_361444" result="shape"/>
</filter>
<linearGradient id="paint0_linear_12041_361444" x1="117.862" y1="50.3359" x2="117.862" y2="143.23" gradientUnits="userSpaceOnUse">
<stop stop-color="#FEFEFF"/>
<stop offset="1" stop-color="#F0F3F7"/>
</linearGradient>
<linearGradient id="paint1_linear_12041_361444" x1="118.301" y1="131.406" x2="118.301" y2="185.961" gradientUnits="userSpaceOnUse">
<stop stop-color="#93B7F1"/>
<stop offset="1" stop-color="#6A8EC6"/>
</linearGradient>
<linearGradient id="paint2_linear_12041_361444" x1="138.703" y1="143.976" x2="185.578" y2="143.976" gradientUnits="userSpaceOnUse">
<stop stop-color="#668FCE"/>
<stop offset="1" stop-color="#6187C4"/>
</linearGradient>
<linearGradient id="paint3_linear_12041_361444" x1="50.1256" y1="144.419" x2="97.3118" y2="144.419" gradientUnits="userSpaceOnUse">
<stop stop-color="#668FCE"/>
<stop offset="1" stop-color="#6187C4"/>
</linearGradient>
<clipPath id="clip0_12041_361444">
<rect width="150" height="150" fill="white" transform="translate(43 43)"/>
</clipPath>
</defs>
</svg>
