<svg width="40" height="40" viewBox="0 0 40 40" fill="none" xmlns="http://www.w3.org/2000/svg">
<rect x="0.5" y="0.5" width="39" height="39" rx="10" fill="url(#paint0_linear_11592_77745)"/>
<path fill-rule="evenodd" clip-rule="evenodd" d="M9.6 8C9.13633 8 8.71836 8.19688 8.42617 8.5125C8.16172 8.79688 8 9.18125 8 9.6V25.6C8 26.4844 8.71641 27.2 9.6 27.2H10.4C10.8418 27.2 11.2 26.8418 11.2 26.4C11.2 25.9582 10.8418 25.6 10.4 25.6C9.9582 25.6 9.6 25.2406 9.6 24.8V10.4C9.6 9.95938 9.9582 9.6 10.4 9.6H24.8C25.2418 9.6 25.6 9.95938 25.6 10.4C25.6 10.8418 25.9582 11.2 26.4 11.2C26.8418 11.2 27.2 10.8418 27.2 10.4V9.6C27.2 8.71562 26.4836 8 25.6 8H9.6ZM14.8003 12.8008C13.6957 12.8008 12.8003 13.6962 12.8003 14.8008V30.0008C12.8003 31.1054 13.6957 32.0008 14.8003 32.0008H30.0003C31.1049 32.0008 32.0003 31.1054 32.0003 30.0008V14.8008C32.0003 13.6962 31.1049 12.8008 30.0003 12.8008H14.8003ZM17 20C16.4477 20 16 20.4477 16 21C16 21.5523 16.4477 22 17 22H28C28.5523 22 29 21.5523 29 21C29 20.4477 28.5523 20 28 20H17ZM16 25C16 24.4477 16.4477 24 17 24H28C28.5523 24 29 24.4477 29 25C29 25.5523 28.5523 26 28 26H17C16.4477 26 16 25.5523 16 25Z" fill="white"/>
<defs>
<linearGradient id="paint0_linear_11592_77745" x1="0.5" y1="0.5" x2="39.5" y2="39.5" gradientUnits="userSpaceOnUse">
<stop stop-color="#85F0FF"/>
<stop offset="1" stop-color="#482BFA"/>
</linearGradient>
</defs>
</svg>
