<svg width="17" height="16" viewBox="0 0 17 16" fill="none" xmlns="http://www.w3.org/2000/svg">
<path d="M6.11085 3.15852C6.09656 3.04066 5.95192 2.99066 5.86799 3.07459L5.08764 3.85495L2.70014 1.46923C2.67329 1.44265 2.63703 1.42773 2.59924 1.42773C2.56146 1.42773 2.5252 1.44265 2.49835 1.46923L1.74121 2.22459C1.71462 2.25144 1.69971 2.2877 1.69971 2.32548C1.69971 2.36327 1.71462 2.39953 1.74121 2.42638L4.12871 4.81388L3.34478 5.59781C3.3259 5.61678 3.31272 5.64068 3.30674 5.66677C3.30077 5.69287 3.30224 5.72012 3.31098 5.74542C3.31972 5.77072 3.33539 5.79306 3.3562 5.8099C3.37702 5.82674 3.40214 5.8374 3.42871 5.84066L6.28942 6.17816C6.38049 6.18888 6.45906 6.11209 6.44835 6.01924L6.11085 3.15852ZM6.29121 9.82281L3.42871 10.1603C3.31085 10.1746 3.26085 10.3192 3.34478 10.4032L4.12871 11.1871L1.74121 13.571C1.71462 13.5979 1.69971 13.6341 1.69971 13.6719C1.69971 13.7097 1.71462 13.746 1.74121 13.7728L2.49835 14.5282C2.55371 14.5835 2.64478 14.5835 2.70014 14.5282L5.08764 12.1425L5.86799 12.9228C5.88697 12.9417 5.91086 12.9549 5.93696 12.9608C5.96305 12.9668 5.9903 12.9654 6.0156 12.9566C6.04091 12.9479 6.06325 12.9322 6.08009 12.9114C6.09692 12.8906 6.10758 12.8654 6.11085 12.8389L6.44835 9.97995C6.45906 9.88888 6.38228 9.81209 6.29121 9.82281ZM10.2519 6.17638L13.1144 5.83888C13.2323 5.82459 13.2823 5.67995 13.1984 5.59602L12.4144 4.81388L14.8019 2.42816C14.8573 2.37281 14.8573 2.28173 14.8019 2.22638L14.0448 1.47102C14.0179 1.44443 13.9817 1.42952 13.9439 1.42952C13.9061 1.42952 13.8698 1.44443 13.843 1.47102L11.4555 3.85495L10.6751 3.07459C10.6562 3.05571 10.6323 3.04253 10.6062 3.03656C10.5801 3.03058 10.5528 3.03205 10.5275 3.04079C10.5022 3.04954 10.4799 3.06521 10.463 3.08602C10.4462 3.10683 10.4355 3.13195 10.4323 3.15852L10.0948 6.01745C10.0841 6.11031 10.1609 6.18709 10.2519 6.17638ZM12.4144 11.1853L13.1984 10.4014C13.2172 10.3824 13.2304 10.3585 13.2364 10.3324C13.2424 10.3063 13.2409 10.2791 13.2322 10.2538C13.2234 10.2285 13.2077 10.2061 13.1869 10.1893C13.1661 10.1724 13.141 10.1618 13.1144 10.1585L10.2537 9.82102C10.1626 9.81031 10.0841 9.88709 10.0948 9.97995L10.4323 12.8407C10.4466 12.9585 10.5912 13.0085 10.6751 12.9246L11.4555 12.1442L13.843 14.53C13.8984 14.5853 13.9894 14.5853 14.0448 14.53L14.8019 13.7746C14.8573 13.7192 14.8573 13.6282 14.8019 13.5728L12.4144 11.1853Z" fill="#9C9EA1"/>
</svg>
