<svg width="32" height="32" viewBox="0 0 32 32" fill="none" xmlns="http://www.w3.org/2000/svg">
<path d="M8.07098 6.15635L9.63883 4.5885C9.6766 4.55054 9.70296 4.50276 9.71491 4.45057C9.72686 4.39838 9.72392 4.34388 9.70643 4.29327C9.68894 4.24267 9.65761 4.19799 9.61598 4.16431C9.57436 4.13064 9.52412 4.10932 9.47098 4.10278L3.74955 3.42778C3.5674 3.40635 3.41026 3.55993 3.43169 3.74564L4.10669 9.46707C4.13526 9.70278 4.42455 9.80278 4.5924 9.63493L6.15312 8.07421L10.9281 12.8456C11.0388 12.9564 11.221 12.9564 11.3317 12.8456L12.846 11.3349C12.9567 11.2242 12.9567 11.0421 12.846 10.9314L8.07098 6.15635ZM20.6674 12.8456C20.7781 12.9564 20.9603 12.9564 21.071 12.8456L25.846 8.07421L27.4067 9.63493C27.4446 9.67269 27.4924 9.69905 27.5446 9.711C27.5968 9.72295 27.6513 9.72001 27.7019 9.70252C27.7525 9.68504 27.7972 9.6537 27.8309 9.61207C27.8646 9.57045 27.8859 9.52021 27.8924 9.46707L28.5674 3.74921C28.5888 3.56707 28.4353 3.40993 28.2495 3.43135L22.5281 4.10635C22.2924 4.13493 22.1924 4.42421 22.3603 4.59207L23.9281 6.15993L19.1531 10.9278C19.0999 10.9815 19.0701 11.054 19.0701 11.1296C19.0701 11.2051 19.0999 11.2777 19.1531 11.3314L20.6674 12.8456ZM27.8924 22.5314C27.8638 22.2956 27.5746 22.1956 27.4067 22.3635L25.846 23.9242L21.071 19.1528C21.0173 19.0996 20.9448 19.0698 20.8692 19.0698C20.7936 19.0698 20.7211 19.0996 20.6674 19.1528L19.1531 20.6635C19.0999 20.7172 19.0701 20.7897 19.0701 20.8653C19.0701 20.9409 19.0999 21.0134 19.1531 21.0671L23.9281 25.8421L22.3603 27.4099C22.3225 27.4479 22.2961 27.4957 22.2842 27.5479C22.2722 27.6 22.2752 27.6545 22.2927 27.7051C22.3102 27.7558 22.3415 27.8004 22.3831 27.8341C22.4247 27.8678 22.475 27.8891 22.5281 27.8956L28.2495 28.5706C28.4317 28.5921 28.5888 28.4385 28.5674 28.2528L27.8924 22.5314ZM11.3317 19.1528C11.278 19.0996 11.2055 19.0698 11.1299 19.0698C11.0543 19.0698 10.9818 19.0996 10.9281 19.1528L6.15312 23.9242L4.5924 22.3635C4.55445 22.3257 4.50666 22.2994 4.45447 22.2874C4.40228 22.2755 4.34779 22.2784 4.29718 22.2959C4.24658 22.3134 4.2019 22.3447 4.16822 22.3863C4.13454 22.428 4.11323 22.4782 4.10669 22.5314L3.43169 28.2492C3.41026 28.4314 3.56383 28.5885 3.74955 28.5671L9.47098 27.8921C9.70669 27.8635 9.80669 27.5742 9.63883 27.4064L8.07098 25.8421L12.846 21.0706C12.9567 20.9599 12.9567 20.7778 12.846 20.6671L11.3317 19.1528Z" fill="#9C9EA1"/>
</svg>
