<svg width="123" height="123" viewBox="0 0 123 123" fill="none" xmlns="http://www.w3.org/2000/svg">
<rect x="1" y="1" width="121" height="121" rx="3" fill="white" stroke="#20A2A2" stroke-width="2"/>
<path d="M43.166 88.0469V98H41.8467V88.0469H43.166ZM47.3359 92.5244V93.6045H42.8789V92.5244H47.3359ZM48.0127 88.0469V89.127H42.8789V88.0469H48.0127ZM53.7686 96.291V90.6035H55.04V98H53.8301L53.7686 96.291ZM54.0078 94.7324L54.5342 94.7188C54.5342 95.2109 54.4818 95.6667 54.377 96.0859C54.2767 96.5007 54.1126 96.8607 53.8848 97.166C53.6569 97.4714 53.3584 97.7106 52.9893 97.8838C52.6201 98.0524 52.1712 98.1367 51.6426 98.1367C51.2826 98.1367 50.9521 98.0843 50.6514 97.9795C50.3551 97.8747 50.0999 97.7129 49.8857 97.4941C49.6715 97.2754 49.5052 96.9906 49.3867 96.6396C49.2728 96.2887 49.2158 95.8672 49.2158 95.375V90.6035H50.4805V95.3887C50.4805 95.7214 50.5169 95.9971 50.5898 96.2158C50.6673 96.43 50.7699 96.6009 50.8975 96.7285C51.0296 96.8516 51.1755 96.9382 51.335 96.9883C51.499 97.0384 51.6676 97.0635 51.8408 97.0635C52.3786 97.0635 52.8047 96.9609 53.1191 96.7559C53.4336 96.5462 53.6592 96.266 53.7959 95.915C53.9372 95.5596 54.0078 95.1654 54.0078 94.7324ZM58.2324 92.1826V98H56.9678V90.6035H58.1641L58.2324 92.1826ZM57.9316 94.0215L57.4053 94.001C57.4098 93.4951 57.485 93.028 57.6309 92.5996C57.7767 92.1667 57.9818 91.7907 58.2461 91.4717C58.5104 91.1527 58.8249 90.9066 59.1895 90.7334C59.5586 90.5557 59.9665 90.4668 60.4131 90.4668C60.7777 90.4668 61.1058 90.5169 61.3975 90.6172C61.6891 90.7129 61.9375 90.8678 62.1426 91.082C62.3522 91.2962 62.5117 91.5742 62.6211 91.916C62.7305 92.2533 62.7852 92.6657 62.7852 93.1533V98H61.5137V93.1396C61.5137 92.7523 61.4567 92.4424 61.3428 92.21C61.2288 91.973 61.0625 91.8021 60.8438 91.6973C60.625 91.5879 60.3561 91.5332 60.0371 91.5332C59.7227 91.5332 59.4355 91.5993 59.1758 91.7314C58.9206 91.8636 58.6995 92.0459 58.5127 92.2783C58.3304 92.5107 58.1868 92.7773 58.082 93.0781C57.9818 93.3743 57.9316 93.6888 57.9316 94.0215ZM65.9707 92.1826V98H64.7061V90.6035H65.9023L65.9707 92.1826ZM65.6699 94.0215L65.1436 94.001C65.1481 93.4951 65.2233 93.028 65.3691 92.5996C65.515 92.1667 65.7201 91.7907 65.9844 91.4717C66.2487 91.1527 66.5632 90.9066 66.9277 90.7334C67.2969 90.5557 67.7048 90.4668 68.1514 90.4668C68.516 90.4668 68.8441 90.5169 69.1357 90.6172C69.4274 90.7129 69.6758 90.8678 69.8809 91.082C70.0905 91.2962 70.25 91.5742 70.3594 91.916C70.4688 92.2533 70.5234 92.6657 70.5234 93.1533V98H69.252V93.1396C69.252 92.7523 69.195 92.4424 69.0811 92.21C68.9671 91.973 68.8008 91.8021 68.582 91.6973C68.3633 91.5879 68.0944 91.5332 67.7754 91.5332C67.4609 91.5332 67.1738 91.5993 66.9141 91.7314C66.6589 91.8636 66.4378 92.0459 66.251 92.2783C66.0687 92.5107 65.9251 92.7773 65.8203 93.0781C65.7201 93.3743 65.6699 93.6888 65.6699 94.0215ZM75.5137 98.1367C74.9987 98.1367 74.5316 98.0501 74.1123 97.877C73.6976 97.6992 73.3398 97.4508 73.0391 97.1318C72.7428 96.8128 72.515 96.4346 72.3555 95.9971C72.196 95.5596 72.1162 95.0811 72.1162 94.5615V94.2744C72.1162 93.6729 72.2051 93.1374 72.3828 92.668C72.5605 92.194 72.8021 91.793 73.1074 91.4648C73.4128 91.1367 73.7591 90.8883 74.1465 90.7197C74.5339 90.5511 74.9349 90.4668 75.3496 90.4668C75.8783 90.4668 76.334 90.5579 76.7168 90.7402C77.1042 90.9225 77.4209 91.1777 77.667 91.5059C77.9131 91.8294 78.0954 92.2122 78.2139 92.6543C78.3324 93.0918 78.3916 93.5703 78.3916 94.0898V94.6572H72.8682V93.625H77.127V93.5293C77.1087 93.2012 77.0404 92.8822 76.9219 92.5723C76.8079 92.2624 76.6257 92.0072 76.375 91.8066C76.1243 91.6061 75.7826 91.5059 75.3496 91.5059C75.0625 91.5059 74.7982 91.5674 74.5566 91.6904C74.3151 91.8089 74.1077 91.9867 73.9346 92.2236C73.7614 92.4606 73.627 92.75 73.5312 93.0918C73.4355 93.4336 73.3877 93.8278 73.3877 94.2744V94.5615C73.3877 94.9124 73.4355 95.2428 73.5312 95.5527C73.6315 95.8581 73.7751 96.127 73.9619 96.3594C74.1533 96.5918 74.3835 96.7741 74.6523 96.9062C74.9258 97.0384 75.2357 97.1045 75.582 97.1045C76.0286 97.1045 76.4069 97.0133 76.7168 96.8311C77.0267 96.6488 77.2979 96.4049 77.5303 96.0996L78.2959 96.708C78.1364 96.9495 77.9336 97.1797 77.6875 97.3984C77.4414 97.6172 77.1383 97.7949 76.7783 97.9316C76.4229 98.0684 76.0013 98.1367 75.5137 98.1367ZM81.2422 87.5V98H79.9707V87.5H81.2422Z" fill="#252424"/>
<rect x="41" y="35" width="10" height="40" rx="1" transform="rotate(-90 41 35)" fill="#20A2A2"/>
<rect x="47" y="50" width="10" height="28" rx="1" transform="rotate(-90 47 50)" fill="#20A2A2"/>
<rect x="53" y="65" width="10" height="16" rx="1" transform="rotate(-90 53 65)" fill="#20A2A2"/>
</svg>
