<svg width="40" height="40" viewBox="0 0 40 40" fill="none" xmlns="http://www.w3.org/2000/svg">
<rect width="40" height="40" rx="10" fill="url(#paint0_linear_9509_81216)"/>
<path fill-rule="evenodd" clip-rule="evenodd" d="M20.0181 13.481C21.6697 13.481 23.0086 12.1421 23.0086 10.4905C23.0086 8.83889 21.6697 7.5 20.0181 7.5C18.3665 7.5 17.0276 8.83889 17.0276 10.4905C17.0276 12.1421 18.3665 13.481 20.0181 13.481ZM19.9977 14.484C17.5214 14.4867 15.5147 16.4935 15.512 18.9697C15.512 19.245 15.7351 19.4681 16.0104 19.4681H23.985C24.2603 19.4681 24.4834 19.245 24.4834 18.9697C24.4807 16.4935 22.474 14.4867 19.9977 14.484ZM29.8081 26.5147C31.4597 26.5147 32.7986 25.1758 32.7986 23.5242C32.7986 21.8726 31.4597 20.5337 29.8081 20.5337C28.1565 20.5337 26.8176 21.8726 26.8176 23.5242C26.8176 25.1758 28.1565 26.5147 29.8081 26.5147ZM29.7877 27.5177C27.3114 27.5204 25.3047 29.5272 25.3019 32.0034C25.3019 32.2787 25.5251 32.5018 25.8003 32.5018H33.775C34.0503 32.5018 34.2734 32.2787 34.2734 32.0034C34.2707 29.5272 32.264 27.5204 29.7877 27.5177ZM13.2237 23.5242C13.2237 25.1758 11.8848 26.5147 10.2332 26.5147C8.58159 26.5147 7.2427 25.1758 7.2427 23.5242C7.2427 21.8726 8.58159 20.5337 10.2332 20.5337C11.8848 20.5337 13.2237 21.8726 13.2237 23.5242ZM5.72705 32.0034C5.72981 29.5272 7.73652 27.5204 10.2128 27.5177C12.6891 27.5204 14.6958 29.5272 14.6985 32.0034C14.6985 32.2787 14.4754 32.5018 14.2001 32.5018H6.22546C5.95019 32.5018 5.72705 32.2787 5.72705 32.0034ZM18.8701 25.669C18.8701 25.9451 18.6463 26.169 18.3701 26.169H17.1099C16.8337 26.169 16.6099 26.3929 16.6099 26.669V27.3672C16.6099 27.6433 16.8337 27.8672 17.1099 27.8672H22.8906C23.1667 27.8672 23.3906 27.6433 23.3906 27.3672V26.669C23.3906 26.3929 23.1667 26.169 22.8906 26.169H21.208C20.9319 26.169 20.708 25.9451 20.708 25.669V22.9961C20.708 22.72 20.4841 22.4961 20.208 22.4961H19.3701C19.094 22.4961 18.8701 22.72 18.8701 22.9961V25.669Z" fill="white"/>
<defs>
<linearGradient id="paint0_linear_9509_81216" x1="20" y1="0" x2="20" y2="40" gradientUnits="userSpaceOnUse">
<stop stop-color="#00BFB4"/>
<stop offset="1" stop-color="#008C84"/>
</linearGradient>
</defs>
</svg>
