<svg width="24" height="24" viewBox="0 0 24 24" fill="none" xmlns="http://www.w3.org/2000/svg">
<path d="M14.5157 20.0001C14.5157 22.2093 12.7247 24.0001 10.5156 24.0001C8.3064 24.0001 6.51562 22.2093 6.51562 20.0001C6.51562 17.791 8.3064 16 10.5156 16C12.7247 16 14.5157 17.791 14.5157 20.0001Z" fill="#ADADAD"/>
<path d="M17.5236 11.921C14.1335 11.4369 11.5157 8.52185 11.5157 5C11.5157 3.99988 11.7296 3.05103 12.1086 2.18988C11.5966 2.06995 11.0647 2 10.5156 2C6.6557 2 3.51562 5.13989 3.51562 8.99994V11.7879C3.51562 13.7669 2.64862 15.6349 1.12756 16.9209C0.738647 17.2529 0.515625 17.7379 0.515625 18.2499C0.515625 19.215 1.3006 20 2.26556 20H18.7656C19.7307 20 20.5157 19.215 20.5157 18.2499C20.5157 17.7379 20.2927 17.2529 19.8937 16.9119C18.4177 15.663 17.5616 13.8499 17.5236 11.921Z" fill="#BEBEBE"/>
<path d="M23.5157 5.00006C23.5157 7.76147 21.2771 9.99994 18.5157 9.99994C15.7543 9.99994 13.5156 7.76147 13.5156 5.00006C13.5156 2.23865 15.7543 0 18.5157 0C21.2771 0 23.5157 2.23865 23.5157 5.00006Z" fill="#F44336"/>
</svg>
