<svg width="40" height="40" viewBox="0 0 40 40" fill="none" xmlns="http://www.w3.org/2000/svg">
<path d="M28.3898 0H11.6298C4.34977 0 0.00976562 4.34 0.00976562 11.62V28.36C0.00976562 35.66 4.34977 40 11.6298 40H28.3698C35.6498 40 39.9898 35.66 39.9898 28.38V11.62C40.0098 4.34 35.6698 0 28.3898 0ZM16.9898 29.44C16.3098 30.12 15.4098 30.58 14.3098 30.72L11.6098 31.02C10.1298 31.18 8.86977 29.92 9.02977 28.42L9.32977 25.7C9.58977 23.28 11.6098 21.74 13.7498 21.7C13.9498 21.68 14.1898 21.7 14.4098 21.72C15.3498 21.84 16.2498 22.28 17.0098 23.02C17.7498 23.76 18.1698 24.64 18.2898 25.54C18.3098 25.76 18.3298 25.98 18.3298 26.18C18.3298 27.42 17.8698 28.56 16.9898 29.44ZM30.8898 11.1C29.8743 13.6386 27.934 16.7341 25.7771 19.4187C24.687 20.7755 22.385 20.1086 21.1524 18.8797C19.9063 17.6374 19.1901 15.2836 20.5615 14.1812C23.2449 12.0241 26.3365 10.0817 28.8698 9.06C29.5098 8.82 30.1498 9 30.5498 9.4C30.9498 9.84 31.1498 10.46 30.8898 11.1Z" fill="url(#paint0_linear_9509_79577)"/>
<defs>
<linearGradient id="paint0_linear_9509_79577" x1="19.9998" y1="0" x2="19.9998" y2="40" gradientUnits="userSpaceOnUse">
<stop stop-color="#978EFF"/>
<stop offset="1" stop-color="#7064FF"/>
</linearGradient>
</defs>
</svg>
