<svg width="38" height="38" viewBox="0 0 38 38" fill="none" xmlns="http://www.w3.org/2000/svg">
<path d="M31.9644 15.6584L19.633 5.52197C19.264 5.21865 18.732 5.21865 18.363 5.52197L6.0315 15.6584C5.80042 15.8483 5.6665 16.1318 5.6665 16.4309V30.7641C5.6665 31.3253 6.12826 31.7767 6.68933 31.7639L31.3523 31.2007C31.8955 31.1883 32.3294 30.7444 32.3294 30.201V16.4309C32.3294 16.1318 32.1955 15.8483 31.9644 15.6584Z" fill="white" stroke="#6CC6B7"/>
<path d="M31.7728 32.338C31.2069 32.754 30.4887 33.0045 29.7061 33.0045C27.1312 33.0045 9.83952 33.0045 8.29362 33.0045C7.50916 33.0045 6.78799 32.7531 6.22314 32.3353C17.9056 23.1596 16.3914 24.3491 17.4952 23.4837C18.3602 22.8058 19.6366 22.8093 20.4978 23.4837C21.6304 24.3718 20.096 23.1675 31.7728 32.338Z" fill="#30AB9A"/>
<path d="M16.6595 24.1389L6.22272 32.3362C6.21793 32.3327 6.21313 32.3292 6.20929 32.3257C5.47087 31.7739 5 30.9348 5 29.9959V17.2772C5 16.6326 5.22249 16.0361 5.59937 15.5465C5.67801 15.444 5.98681 15.1304 6.04819 15.0779L6.1249 15.0078C14.2898 22.0849 16.6384 24.1205 16.6595 24.1389Z" fill="#67C1B2"/>
<path d="M33.0002 17.2768V29.9955C33.0002 30.8845 32.5705 31.7437 31.7861 32.3288C31.7813 32.3314 31.7765 32.3358 31.7726 32.3384L21.333 24.1393C22.245 23.3537 23.2088 22.5137 31.8714 15.0039C31.9865 15.109 32.0335 15.1423 32.1457 15.2544V15.2553C32.3787 15.4891 32.5696 15.7589 32.6923 16.005C32.7911 16.1977 32.8458 16.3571 32.8985 16.5402C32.9656 16.7758 33.0002 17.0228 33.0002 17.2768Z" fill="#67C1B2"/>
<g filter="url(#filter0_b_7159_114859)">
<path d="M26.3956 14.4726C26.3956 14.6979 26.3956 14.9233 26.3956 15.1486C26.3876 15.1858 26.3757 15.2229 26.372 15.2603C26.2618 16.4539 25.776 17.4898 24.9634 18.3747C23.7085 19.7412 22.1115 20.4482 20.2617 20.6286C19.2003 20.7322 18.1586 20.6133 17.1471 20.2736C17.0539 20.2424 16.9983 20.2658 16.924 20.3205C16.645 20.5254 16.3717 20.7426 16.0711 20.9119C15.4338 21.2708 14.7347 21.4317 14.0002 21.4385C13.6943 21.4415 13.4952 21.1497 13.6217 20.8914C13.6553 20.8227 13.7116 20.7631 13.7638 20.7048C14.2975 20.1114 14.5053 19.4275 14.3551 18.6476C14.3415 18.5763 14.3032 18.5001 14.2536 18.4457C13.7209 17.8588 13.3144 17.2003 13.0637 16.4533C12.7481 15.5144 12.6911 14.5605 12.9345 13.5991C13.32 12.076 14.2426 10.9267 15.574 10.0888C17.0469 9.16163 18.6709 8.82456 20.4068 9.00987C21.9949 9.17921 23.3952 9.77225 24.5668 10.8443C25.4358 11.6393 26.0261 12.5993 26.2778 13.745C26.3307 13.985 26.357 14.2299 26.3956 14.4726Z" fill="url(#paint0_linear_7159_114859)"/>
</g>
<path d="M15.7697 17.5781V12.4261H17.2737V17.5781H15.7697ZM21.1882 17.6581C20.2549 17.6581 19.5429 17.4288 19.0522 16.9701C18.5616 16.5115 18.3162 15.8635 18.3162 15.0261C18.3162 14.1621 18.5562 13.5008 19.0362 13.0421C19.5162 12.5781 20.2309 12.3461 21.1802 12.3461C21.5002 12.3461 21.7856 12.3701 22.0362 12.4181C22.2869 12.4661 22.5269 12.5328 22.7562 12.6181V13.9301C22.2976 13.7275 21.8069 13.6261 21.2842 13.6261C20.7989 13.6261 20.4389 13.7381 20.2042 13.9621C19.9696 14.1808 19.8522 14.5355 19.8522 15.0261C19.8522 15.5061 19.9749 15.8528 20.2202 16.0661C20.4709 16.2741 20.8309 16.3781 21.3002 16.3781C21.5562 16.3781 21.8042 16.3541 22.0442 16.3061C22.2896 16.2581 22.5322 16.1835 22.7722 16.0821V17.4021C22.5429 17.4821 22.3002 17.5435 22.0442 17.5861C21.7936 17.6341 21.5082 17.6581 21.1882 17.6581Z" fill="white"/>
<defs>
<filter id="filter0_b_7159_114859" x="1.93594" y="-1.88681" width="35.3073" height="34.1721" filterUnits="userSpaceOnUse" color-interpolation-filters="sRGB">
<feFlood flood-opacity="0" result="BackgroundImageFix"/>
<feGaussianBlur in="BackgroundImageFix" stdDeviation="5.42388"/>
<feComposite in2="SourceAlpha" operator="in" result="effect1_backgroundBlur_7159_114859"/>
<feBlend mode="normal" in="SourceGraphic" in2="effect1_backgroundBlur_7159_114859" result="shape"/>
</filter>
<linearGradient id="paint0_linear_7159_114859" x1="19.5897" y1="8.96094" x2="19.5897" y2="21.4385" gradientUnits="userSpaceOnUse">
<stop stop-color="#FBCA61"/>
<stop offset="1" stop-color="#ECB410"/>
</linearGradient>
</defs>
</svg>
