<svg width="15" height="18" viewBox="0 0 15 18" fill="none" xmlns="http://www.w3.org/2000/svg">
<g id="Group">
<path id="Vector" d="M12.4017 5.21912H12.3351H2.93011H2.86353H1.85645L2.66378 15.174C2.72204 15.841 3.02167 16.4746 3.51272 16.9249C4.00378 17.3834 4.65298 17.6335 5.32714 17.6335H9.93809C10.6123 17.6335 11.2614 17.3834 11.7525 16.9249C12.2436 16.4663 12.5515 15.841 12.6015 15.174L13.4088 5.21912H12.4017ZM8.70628 7.63697C8.70628 7.49523 8.76455 7.36184 8.86442 7.26179C8.9643 7.16174 9.09747 7.10337 9.23896 7.10337C9.37213 7.10337 9.49697 7.1534 9.58852 7.23677C9.6884 7.32015 9.74666 7.43687 9.76331 7.57027L9.77163 7.64531V13.3648C9.77163 13.4982 9.72169 13.6316 9.63014 13.7316C9.53859 13.8317 9.41374 13.89 9.27225 13.8984C9.13908 13.9067 9.00591 13.865 8.89771 13.7817C8.78951 13.6983 8.72293 13.5732 8.70628 13.4398L8.69796 13.3648V7.63697H8.70628ZM5.4936 7.63697C5.4936 7.49523 5.55186 7.3535 5.65174 7.25345C5.75161 7.1534 5.88478 7.09504 6.02627 7.09504C6.15944 7.09504 6.28429 7.14506 6.37584 7.22844C6.47572 7.31181 6.53398 7.42853 6.55062 7.56193L6.55895 7.63697V13.3564C6.55895 13.4898 6.50901 13.6232 6.41746 13.7233C6.3259 13.8233 6.20106 13.8817 6.05957 13.89C5.91808 13.8984 5.79323 13.8567 5.68503 13.7733C5.57683 13.6899 5.51025 13.5649 5.4936 13.4315V13.3481V7.63697Z" fill="#919EAB"/>
<path id="Vector_2" d="M14.5992 3.49308C14.4993 3.40136 14.3661 3.35134 14.233 3.35134H10.3128V3.2096C10.2795 2.52593 9.97991 1.87561 9.48053 1.40872C8.98115 0.933485 8.31531 0.666687 7.63282 0.666687C6.92536 0.666687 6.24288 0.95016 5.7435 1.45041C5.24412 1.95065 4.96113 2.63432 4.96113 3.343H1.03267L0.966089 3.35134C0.841243 3.36801 0.724721 3.43471 0.633168 3.52643C0.541615 3.61814 0.5 3.75154 0.5 3.88493L0.508323 3.95997C0.524969 4.08503 0.591553 4.20176 0.683106 4.29347C0.782982 4.36851 0.907828 4.41853 1.03267 4.41853H1.79007H2.86374H4.96113H6.0348H9.24749H10.3212H12.4186H13.4922H14.2496L14.3245 4.41019C14.4577 4.39352 14.5825 4.32682 14.6658 4.21843C14.749 4.11005 14.7906 3.97665 14.7823 3.84325C14.7573 3.70985 14.6991 3.58479 14.5992 3.49308ZM6.02648 3.343V3.23461C6.05977 2.82608 6.24288 2.4509 6.54251 2.16742C6.84214 1.89229 7.23332 1.73388 7.64114 1.73388C8.04897 1.73388 8.44015 1.89229 8.73978 2.16742C9.03941 2.44256 9.21419 2.82608 9.24749 3.23461V3.343H6.02648Z" fill="#919EAB"/>
</g>
</svg>
