<svg width="15" height="14" viewBox="0 0 15 14" fill="none" xmlns="http://www.w3.org/2000/svg">
<path d="M9.14408 9.46182C9.06442 9.54437 9.02038 9.6549 9.02143 9.76961C9.02248 9.88432 9.06854 9.99403 9.1497 10.0751C9.23085 10.1562 9.3406 10.2022 9.45532 10.2031C9.57003 10.204 9.68052 10.1599 9.763 10.0802L12.6779 7.16173C12.7598 7.0797 12.8059 6.9685 12.8059 6.85257C12.8059 6.73663 12.7598 6.62543 12.6779 6.5434L9.76241 3.6279C9.67994 3.54817 9.56945 3.50402 9.45473 3.50496C9.34002 3.5059 9.23027 3.55186 9.14911 3.63294C9.06796 3.71402 9.0219 3.82373 9.02085 3.93844C9.01979 4.05315 9.06384 4.16368 9.1435 4.24623L11.3135 6.41623H6.739C5.80858 6.41623 5.09983 6.5574 4.47041 6.8619L4.32691 6.9354C3.68689 7.27457 3.16342 7.79805 2.82425 8.43807C2.469 9.10307 2.30566 9.84857 2.30566 10.8496C2.30566 10.9656 2.35176 11.0769 2.4338 11.1589C2.51585 11.241 2.62713 11.2871 2.74316 11.2871C2.8592 11.2871 2.97048 11.241 3.05252 11.1589C3.13457 11.0769 3.18066 10.9656 3.18066 10.8496C3.18066 9.9839 3.31366 9.37957 3.59658 8.8499C3.85415 8.36256 4.25258 7.96413 4.73991 7.70657C5.22816 7.44523 5.78175 7.31223 6.54475 7.29298L6.73958 7.29065H11.3112L9.14408 9.46123V9.46182Z" fill="#2C2C2C"/>
</svg>
