<svg width="50" height="50" viewBox="0 0 50 50" fill="none" xmlns="http://www.w3.org/2000/svg">
<path fill-rule="evenodd" clip-rule="evenodd" d="M34.5 23C39.1944 23 43 19.1944 43 14.5C43 9.80558 39.1944 6 34.5 6C29.8056 6 26 9.80558 26 14.5C26 19.1944 29.8056 23 34.5 23ZM14 8H26.2532C24.8421 9.78785 24 12.0456 24 14.5C24 20.299 28.701 25 34.5 25C36.5166 25 38.4005 24.4315 40 23.446V37C40 41.9706 35.9706 46 31 46H14C9.02944 46 5 41.9706 5 37V17C5 12.0294 9.02944 8 14 8Z" fill="url(#paint0_linear_13501_410338)"/>
<path d="M34.5363 11.9758L33.7101 15.2239C33.7025 15.2465 33.7063 15.2691 33.7214 15.2918C33.744 15.3069 33.7667 15.3144 33.7893 15.3144H35.3058C35.3285 15.3144 35.3473 15.3069 35.3624 15.2918C35.3851 15.2691 35.3926 15.2465 35.3851 15.2239L34.5589 11.9758C34.5589 11.9682 34.5551 11.9644 34.5476 11.9644C34.54 11.9644 34.5363 11.9682 34.5363 11.9758ZM31.5145 18.5625C31.3561 18.5625 31.2278 18.4984 31.1297 18.3701C31.0392 18.2418 31.0203 18.1023 31.0731 17.9514L33.3593 10.9119C33.4196 10.7308 33.5252 10.5837 33.6761 10.4705C33.8346 10.3574 34.0081 10.3008 34.1967 10.3008H34.9437C35.1399 10.3008 35.3172 10.3574 35.4756 10.4705C35.6341 10.5837 35.7397 10.7308 35.7925 10.9119L38.0673 17.9514C38.1201 18.1023 38.0975 18.2418 37.9994 18.3701C37.9089 18.4984 37.7844 18.5625 37.6259 18.5625H36.8677C36.679 18.5625 36.5093 18.5059 36.3584 18.3927C36.2075 18.272 36.1094 18.1211 36.0641 17.94L35.7925 16.8649C35.785 16.8045 35.7472 16.7743 35.6793 16.7743H33.4158C33.3555 16.7743 33.3178 16.8045 33.3027 16.8649L33.031 17.94C32.9858 18.1211 32.8877 18.272 32.7368 18.3927C32.5859 18.5059 32.4161 18.5625 32.2275 18.5625H31.5145Z" fill="white"/>
<rect x="17.7866" y="28.75" width="17.8999" height="3" rx="1.5" fill="white"/>
<path fill-rule="evenodd" clip-rule="evenodd" d="M15.9418 28.0791C16.2764 28.4137 16.2764 28.9563 15.9418 29.2909L12.7728 32.46C12.612 32.6207 12.394 32.711 12.1667 32.7109C11.9394 32.7109 11.7214 32.6205 11.5607 32.4597L10.3543 31.2525C10.0198 30.9177 10.0199 30.3752 10.3547 30.0407C10.6895 29.7061 11.232 29.7063 11.5665 30.0411L12.167 30.642L14.7299 28.0791C15.0646 27.7445 15.6071 27.7445 15.9418 28.0791Z" fill="white"/>
<rect x="17.7866" y="35.8906" width="17.8999" height="3" rx="1.5" fill="white"/>
<path fill-rule="evenodd" clip-rule="evenodd" d="M15.9418 35.2197C16.2764 35.5544 16.2764 36.0969 15.9418 36.4316L12.7728 39.6006C12.612 39.7613 12.394 39.8516 12.1667 39.8516C11.9394 39.8515 11.7214 39.7612 11.5607 39.6004L10.3543 38.3931C10.0198 38.0584 10.0199 37.5158 10.3547 37.1813C10.6895 36.8468 11.232 36.8469 11.5665 37.1817L12.167 37.7826L14.7299 35.2197C15.0646 34.8851 15.6071 34.8851 15.9418 35.2197Z" fill="white"/>
<defs>
<linearGradient id="paint0_linear_13501_410338" x1="5" y1="6" x2="44.9474" y2="43.9501" gradientUnits="userSpaceOnUse">
<stop stop-color="#535AC7"/>
<stop offset="1" stop-color="#B936B4"/>
</linearGradient>
</defs>
</svg>
