<svg width="12" height="12" viewBox="0 0 12 12" fill="none" xmlns="http://www.w3.org/2000/svg">
<g clip-path="url(#clip0_884_40256)">
<path d="M8.40625 1.41666H7.8333V0.95833C7.8333 0.705335 7.62845 0.5 7.375 0.5C7.12155 0.5 6.91665 0.705335 6.91665 0.95833V1.41666H3.24999V0.95833C3.24999 0.705335 3.04512 0.5 2.79166 0.5C2.53821 0.5 2.33333 0.705335 2.33333 0.95833V1.41666H1.76041C1.06512 1.41666 0.5 1.98179 0.5 2.67708V7.8333C0.5 8.5914 1.11691 9.2083 1.87499 9.2083H4.16666C4.42011 9.2083 4.62499 9.003 4.62499 8.75C4.62499 8.497 4.42011 8.29165 4.16666 8.29165H1.87499C1.622 8.29165 1.41666 8.08585 1.41666 7.8333V4.16666H8.75C8.75 4.41966 8.95485 4.62499 9.2083 4.62499C9.46175 4.62499 9.66665 4.41966 9.66665 4.16666V2.67708C9.66665 1.98179 9.10155 1.41666 8.40625 1.41666Z" fill="#637381"/>
<path opacity="0.48" d="M8.52017 5.54175C6.87752 5.54175 5.54102 6.87825 5.54102 8.5209C5.54102 10.1635 6.87752 11.5 8.52017 11.5C10.1628 11.5 11.4993 10.1635 11.4993 8.5209C11.4993 6.87825 10.1628 5.54175 8.52017 5.54175ZM9.89792 8.019L8.40837 9.73775C8.32492 9.834 8.20532 9.89085 8.07837 9.8959C8.07287 9.8959 8.06737 9.8959 8.06187 9.8959C7.94037 9.8959 7.82397 9.84775 7.73782 9.7616L6.93572 8.9595C6.75652 8.7803 6.75652 8.49065 6.93572 8.31145C7.11492 8.1322 7.40462 8.1322 7.58382 8.31145L8.03802 8.76565L9.20492 7.41905C9.37082 7.2275 9.66052 7.20775 9.85162 7.37275C10.0428 7.53825 10.0634 7.8279 9.89792 8.019Z" fill="#637381"/>
</g>
<defs>
<clipPath id="clip0_884_40256">
<rect width="12" height="12" fill="white"/>
</clipPath>
</defs>
</svg>
