<svg width="12" height="12" viewBox="0 0 12 12" fill="none" xmlns="http://www.w3.org/2000/svg">
<g clip-path="url(#clip0_884_40262)">
<path d="M11.8929 9.75042H0.107143C0.0482143 9.75042 0 9.79863 0 9.85756V10.6076C0 10.6665 0.0482143 10.7147 0.107143 10.7147H11.8929C11.9518 10.7147 12 10.6665 12 10.6076V9.85756C12 9.79863 11.9518 9.75042 11.8929 9.75042ZM11.8929 1.28613H0.107143C0.0482143 1.28613 0 1.33435 0 1.39328V2.14328C0 2.2022 0.0482143 2.25042 0.107143 2.25042H11.8929C11.9518 2.25042 12 2.2022 12 2.14328V1.39328C12 1.33435 11.9518 1.28613 11.8929 1.28613ZM10.5 7.98256C10.6179 7.98256 10.7143 7.88613 10.7143 7.76828V4.23256C10.7143 4.1147 10.6179 4.01828 10.5 4.01828H1.5C1.38214 4.01828 1.28571 4.1147 1.28571 4.23256V7.76828C1.28571 7.88613 1.38214 7.98256 1.5 7.98256H10.5ZM2.25 4.98256H9.75V7.01828H2.25V4.98256Z" fill="#637381"/>
</g>
<defs>
<clipPath id="clip0_884_40262">
<rect width="12" height="12" fill="white"/>
</clipPath>
</defs>
</svg>
