<svg width="12" height="12" viewBox="0 0 12 12" fill="none" xmlns="http://www.w3.org/2000/svg">
<path d="M11.7824 5.47086L6.53241 0.220857C6.40012 0.087981 6.22287 0.00947223 6.03557 0.000802786C5.84828 -0.00786666 5.66453 0.053932 5.52053 0.17402C5.37654 0.294108 5.28275 0.463774 5.25765 0.649582C5.23254 0.835391 5.27795 1.02386 5.38491 1.17786L5.47041 1.28136L10.1894 6.00036L5.46891 10.7209C5.33603 10.8531 5.25752 11.0304 5.24885 11.2177C5.24018 11.405 5.30198 11.5887 5.42207 11.7327C5.54216 11.8767 5.71182 11.9705 5.89763 11.9956C6.08344 12.0207 6.27191 11.9753 6.42591 11.8684L6.53091 11.7814L11.7809 6.53136C11.9049 6.40707 11.9814 6.24322 11.997 6.06835C12.0126 5.89347 11.9664 5.71866 11.8664 5.57436L11.7809 5.46936L11.7824 5.47086Z" fill="#637381"/>
<path opacity="0.48" d="M6.78241 5.47086L1.53241 0.220857C1.40012 0.087981 1.22287 0.00947223 1.03557 0.000802786C0.848276 -0.00786666 0.664526 0.053932 0.520533 0.17402C0.376541 0.294108 0.282751 0.463774 0.257647 0.649582C0.232543 0.835391 0.277946 1.02386 0.384908 1.17786L0.470407 1.28136L5.18941 6.00036L0.468907 10.7209C0.336031 10.8531 0.257523 11.0304 0.248853 11.2177C0.240184 11.405 0.301983 11.5887 0.422071 11.7327C0.542158 11.8767 0.711825 11.9705 0.897633 11.9956C1.08344 12.0207 1.27191 11.9753 1.42591 11.8684L1.53091 11.7814L6.78091 6.53136C6.90492 6.40707 6.9814 6.24322 6.99702 6.06835C7.01265 5.89347 6.96642 5.71866 6.86641 5.57436L6.78091 5.46936L6.78241 5.47086Z" fill="#637381"/>
</svg>
