<svg width="16" height="16" viewBox="0 0 16 16" fill="none" xmlns="http://www.w3.org/2000/svg">
<path d="M1.5285 4.20353C1.65352 4.07855 1.82306 4.00833 1.99984 4.00833C2.17661 4.00833 2.34615 4.07855 2.47117 4.20353L7.99984 9.73219L13.5285 4.20353C13.59 4.13985 13.6636 4.08906 13.7449 4.05412C13.8262 4.01919 13.9137 4.00079 14.0022 4.00003C14.0908 3.99926 14.1785 4.01612 14.2605 4.04964C14.3424 4.08317 14.4168 4.13267 14.4794 4.19526C14.542 4.25786 14.5915 4.33229 14.6251 4.41422C14.6586 4.49615 14.6754 4.58394 14.6747 4.67246C14.6739 4.76098 14.6555 4.84846 14.6206 4.9298C14.5856 5.01113 14.5348 5.08469 14.4712 5.14619L8.47117 11.1462C8.34615 11.2712 8.17661 11.3414 7.99984 11.3414C7.82306 11.3414 7.65352 11.2712 7.5285 11.1462L1.5285 5.14619C1.40352 5.02117 1.33331 4.85164 1.33331 4.67486C1.33331 4.49808 1.40352 4.32854 1.5285 4.20353Z" fill="#2C2C2C"/>
</svg>
