<svg width="12" height="12" viewBox="0 0 12 12" fill="none" xmlns="http://www.w3.org/2000/svg">
<path d="M5.70737 7.14269e-09C6.15927 -4.06199e-05 6.59399 0.173232 6.92196 0.484125C7.24993 0.795018 7.44618 1.21985 7.47028 1.67112L7.47263 1.76526H10.0617C10.1511 1.76529 10.2372 1.79927 10.3026 1.86034C10.368 1.92141 10.4077 2.00501 10.4138 2.09425C10.4199 2.18349 10.3919 2.27173 10.3354 2.34111C10.279 2.4105 10.1983 2.45588 10.1097 2.46807L10.0617 2.47137H9.56317L8.98887 9.55737C8.95304 9.99943 8.75212 10.4118 8.42608 10.7125C8.10004 11.0131 7.67277 11.18 7.22926 11.18H4.18548C3.74197 11.18 3.3147 11.0131 2.98866 10.7125C2.66262 10.4118 2.4617 9.99943 2.42586 9.55737L1.85109 2.47137H1.35305C1.26774 2.47136 1.18531 2.44047 1.12101 2.38439C1.05671 2.32832 1.0149 2.25085 1.0033 2.16633L1 2.11832C1 2.033 1.0309 1.95057 1.08698 1.88628C1.14305 1.82198 1.22051 1.78016 1.30504 1.76856L1.35305 1.76526H3.94211C3.94211 1.29709 4.12809 0.848085 4.45914 0.517034C4.79019 0.185983 5.23919 7.14269e-09 5.70737 7.14269e-09ZM8.85519 2.47137H2.55955L3.12961 9.50041C3.15114 9.76564 3.27171 10.0131 3.46736 10.1934C3.663 10.3738 3.91937 10.4739 4.18548 10.4739H7.22926C7.49537 10.4739 7.75174 10.3738 7.94738 10.1934C8.14302 10.0131 8.2636 9.76564 8.28512 9.50041L8.85519 2.47137ZM4.64821 4.23663C4.73353 4.23664 4.81595 4.26753 4.88025 4.32361C4.94455 4.37968 4.98636 4.45715 4.99797 4.54167L5.00126 4.58968V8.35558C5.00124 8.44503 4.96725 8.53114 4.90619 8.5965C4.84512 8.66186 4.76152 8.70161 4.67227 8.7077C4.58303 8.7138 4.4948 8.68579 4.42541 8.62934C4.35602 8.57289 4.31065 8.49221 4.29845 8.40359L4.29516 8.35558V4.58968C4.29516 4.49605 4.33235 4.40625 4.39856 4.34004C4.46477 4.27383 4.55457 4.23663 4.64821 4.23663ZM6.76653 4.23663C6.85184 4.23664 6.93427 4.26753 6.99857 4.32361C7.06286 4.37968 7.10468 4.45715 7.11628 4.54167L7.11958 4.58968V8.35558C7.11955 8.44503 7.08557 8.53114 7.0245 8.5965C6.96343 8.66186 6.87983 8.70161 6.79059 8.7077C6.70135 8.7138 6.61312 8.68579 6.54373 8.62934C6.47434 8.57289 6.42896 8.49221 6.41677 8.40359L6.41347 8.35558V4.58968C6.41347 4.49605 6.45067 4.40625 6.51688 4.34004C6.58309 4.27383 6.67289 4.23663 6.76653 4.23663ZM5.70737 0.706105C5.43899 0.706072 5.1806 0.807923 4.98443 0.991075C4.78826 1.17423 4.66893 1.42502 4.65056 1.69277L4.64821 1.76526H6.76653L6.76417 1.69277C6.7458 1.42502 6.62647 1.17423 6.4303 0.991075C6.23413 0.807923 5.97575 0.706072 5.70737 0.706105Z" fill="#637381"/>
</svg>
