<svg width="19" height="20" viewBox="0 0 19 20" fill="none" xmlns="http://www.w3.org/2000/svg">
<rect x="0.160156" y="7.92969" width="1.04" height="4.14815" rx="0.52" fill="#016EFF"/>
<rect x="1.71973" y="6.89062" width="1.04" height="6.22222" rx="0.52" fill="#016EFF"/>
<rect x="3.28027" y="3.77734" width="1.04" height="12.4444" rx="0.52" fill="#016EFF"/>
<rect x="4.83984" y="5.85547" width="1.04" height="8.2963" rx="0.52" fill="#016EFF"/>
<rect x="6.40039" y="0.667969" width="1.04" height="18.6667" rx="0.52" fill="#016EFF"/>
<rect x="7.95996" y="2.74219" width="1.04" height="14.5185" rx="0.52" fill="#016EFF"/>
<rect x="9.52051" y="4.29688" width="1.04" height="11.4074" rx="0.52" fill="#016EFF"/>
<rect x="11.0801" y="6.37109" width="1.04" height="7.25926" rx="0.52" fill="#016EFF"/>
<rect x="12.6406" y="6.66797" width="1.04" height="6.66667" rx="0.52" fill="#016EFF"/>
<rect x="14.2002" y="7.92969" width="1.04" height="4.14815" rx="0.52" fill="#016EFF"/>
<rect x="15.7598" y="7.33594" width="1.04" height="5.33333" rx="0.52" fill="#016EFF"/>
<rect x="17.3203" y="8.66797" width="1.04" height="2.66667" rx="0.52" fill="#016EFF"/>
</svg>
