<svg width="15" height="14" viewBox="0 0 15 14" fill="none" xmlns="http://www.w3.org/2000/svg">
<path d="M5.96745 9.46182C6.0471 9.54437 6.09115 9.6549 6.0901 9.76961C6.08905 9.88432 6.04298 9.99403 5.96183 10.0751C5.88067 10.1562 5.77092 10.2022 5.65621 10.2031C5.5415 10.204 5.431 10.1599 5.34853 10.0802L2.43361 7.16173C2.35168 7.0797 2.30566 6.9685 2.30566 6.85257C2.30566 6.73663 2.35168 6.62543 2.43361 6.5434L5.34911 3.6279C5.43159 3.54817 5.54208 3.50402 5.65679 3.50496C5.77151 3.5059 5.88126 3.55186 5.96241 3.63294C6.04357 3.71402 6.08963 3.82373 6.09068 3.93844C6.09173 4.05315 6.04769 4.16368 5.96803 4.24623L3.79745 6.41623H8.37195C9.30236 6.41623 10.0111 6.5574 10.6405 6.8619L10.784 6.9354C11.424 7.2746 11.9475 7.79807 12.2867 8.43807C12.6425 9.10307 12.8059 9.84857 12.8059 10.8502C12.8059 10.9662 12.7598 11.0775 12.6777 11.1595C12.5957 11.2416 12.4844 11.2877 12.3684 11.2877C12.2523 11.2877 12.1411 11.2416 12.059 11.1595C11.977 11.0775 11.9309 10.9662 11.9309 10.8502C11.9309 9.98448 11.7979 9.38015 11.5149 8.85048C11.2574 8.36314 10.859 7.96472 10.3716 7.70715C9.88278 7.44582 9.32978 7.31282 8.56678 7.29357L8.37253 7.29123H3.80036L5.96745 9.46182Z" fill="#2C2C2C"/>
</svg>
