<svg width="18" height="18" viewBox="0 0 18 18" fill="none" xmlns="http://www.w3.org/2000/svg">
<g id="Group 625797">
<rect id="Rectangle 3464291" opacity="0.48" y="0.75" width="17.9996" height="2.99993" rx="0.6" fill="#637381"/>
<path id="Vector" d="M10.4035 12.7501C10.4035 13.1602 10.5659 13.5534 10.8549 13.8433C11.144 14.1332 11.536 14.2961 11.9448 14.2961C12.3536 14.2961 12.7456 14.1332 13.0347 13.8433C13.3237 13.5534 13.4861 13.1602 13.4861 12.7501C13.4861 12.3401 13.3237 11.9469 13.0347 11.657C12.7456 11.367 12.3536 11.2042 11.9448 11.2042C11.536 11.2042 11.144 11.367 10.8549 11.657C10.5659 11.9469 10.4035 12.3401 10.4035 12.7501ZM17.9202 12.394C16.6156 9.63748 14.6435 8.25024 11.9998 8.25024C9.35481 8.25024 7.3841 9.63748 6.07947 12.3954C6.02714 12.5065 6 12.6279 6 12.7508C6 12.8737 6.02714 12.9951 6.07947 13.1063C7.3841 15.8628 9.35618 17.25 11.9998 17.25C14.6449 17.25 16.6156 15.8628 17.9202 13.1049C18.0262 12.8813 18.0262 12.6218 17.9202 12.394ZM11.9448 15.1795C10.6071 15.1795 9.5227 14.0918 9.5227 12.7501C9.5227 11.4084 10.6071 10.3207 11.9448 10.3207C13.2825 10.3207 14.3669 11.4084 14.3669 12.7501C14.3669 14.0918 13.2825 15.1795 11.9448 15.1795Z" fill="#637381"/>
<path id="Subtract" opacity="0.48" fill-rule="evenodd" clip-rule="evenodd" d="M13.5007 8.41449C13.027 8.30436 12.5267 8.24923 11.9996 8.24923C10.4098 8.24923 9.06365 8.75038 7.95928 9.74907H12.9007C13.2321 9.74907 13.5007 9.48044 13.5007 9.14907V8.41449ZM5.93112 9.74907H0.60104C0.269669 9.74907 0.0010389 9.48044 0.0010389 9.14907V7.34915C0.0010389 7.01778 0.269668 6.74915 0.601039 6.74915H12.9007C13.0138 6.74915 13.1196 6.78045 13.21 6.83487C12.8164 6.7776 12.4126 6.74927 11.9996 6.74927C10.3995 6.74927 8.9383 7.1742 7.67571 8.0594C7.01879 8.51996 6.4395 9.0882 5.93112 9.74907ZM4.49981 12.7489H0.600977C0.269606 12.7489 0.000976562 13.0175 0.000976562 13.3489V15.1488C0.000976562 15.4802 0.269606 15.7488 0.600977 15.7488H5.40083C5.55876 15.7488 5.70244 15.6878 5.80957 15.588C5.40129 15.0332 5.04048 14.4167 4.72346 13.7469L4.72218 13.7442C4.5757 13.4331 4.49981 13.0935 4.49981 12.7498C4.49981 12.7495 4.49981 12.7492 4.49981 12.7489Z" fill="#637381"/>
</g>
</svg>
