<svg width="20" height="20" viewBox="0 0 20 20" fill="none" xmlns="http://www.w3.org/2000/svg">
<path d="M10 12.1897C8.7914 12.1897 7.81034 11.2086 7.81034 10C7.81034 8.7914 8.7914 7.81034 10 7.81034C11.2086 7.81034 12.1897 8.7914 12.1897 10C12.1897 11.2086 11.2086 12.1897 10 12.1897ZM10 8.18966C9.00193 8.18966 8.18966 9.00193 8.18966 10C8.18966 10.9981 9.00193 11.8103 10 11.8103C10.9981 11.8103 11.8103 10.9981 11.8103 10C11.8103 9.00193 10.9981 8.18966 10 8.18966Z" stroke="#637381" stroke-width="0.62069"/>
<path d="M12.1397 16.7933C11.9997 16.7933 11.8597 16.7733 11.7197 16.74C11.3063 16.6267 10.9597 16.3667 10.7397 16L10.6597 15.8667C10.2663 15.1867 9.72634 15.1867 9.33301 15.8667L9.25967 15.9933C9.03967 16.3667 8.69301 16.6333 8.27967 16.74C7.85967 16.8533 7.42634 16.7933 7.05967 16.5733L5.91301 15.9133C5.50634 15.68 5.21301 15.3 5.08634 14.84C4.96634 14.38 5.02634 13.9067 5.25967 13.5C5.45301 13.16 5.50634 12.8533 5.39301 12.66C5.27967 12.4667 4.99301 12.3533 4.59967 12.3533C3.62634 12.3533 2.83301 11.56 2.83301 10.5867V9.41332C2.83301 8.43999 3.62634 7.64665 4.59967 7.64665C4.99301 7.64665 5.27967 7.53332 5.39301 7.33999C5.50634 7.14665 5.45967 6.83999 5.25967 6.49999C5.02634 6.09332 4.96634 5.61332 5.08634 5.15999C5.20634 4.69999 5.49967 4.31999 5.91301 4.08665L7.06634 3.42665C7.81967 2.97999 8.81301 3.23999 9.26634 4.00665L9.34634 4.13999C9.73967 4.81999 10.2797 4.81999 10.673 4.13999L10.7463 4.01332C11.1997 3.23999 12.193 2.97999 12.953 3.43332L14.0997 4.09332C14.5063 4.32665 14.7997 4.70665 14.9263 5.16665C15.0463 5.62665 14.9863 6.09999 14.753 6.50665C14.5597 6.84665 14.5063 7.15332 14.6197 7.34665C14.733 7.53999 15.0197 7.65332 15.413 7.65332C16.3863 7.65332 17.1797 8.44665 17.1797 9.41999V10.5933C17.1797 11.5667 16.3863 12.36 15.413 12.36C15.0197 12.36 14.733 12.4733 14.6197 12.6667C14.5063 12.86 14.553 13.1667 14.753 13.5067C14.9863 13.9133 15.053 14.3933 14.9263 14.8467C14.8063 15.3067 14.513 15.6867 14.0997 15.92L12.9463 16.58C12.693 16.72 12.4197 16.7933 12.1397 16.7933ZM9.99967 14.3267C10.593 14.3267 11.1463 14.7 11.5263 15.36L11.5997 15.4867C11.6797 15.6267 11.813 15.7267 11.973 15.7667C12.133 15.8067 12.293 15.7867 12.4263 15.7067L13.5797 15.04C13.753 14.94 13.8863 14.7733 13.9397 14.5733C13.993 14.3733 13.9663 14.1667 13.8663 13.9933C13.4863 13.34 13.4397 12.6667 13.733 12.1533C14.0263 11.64 14.633 11.3467 15.393 11.3467C15.8197 11.3467 16.1597 11.0067 16.1597 10.58V9.40665C16.1597 8.98665 15.8197 8.63999 15.393 8.63999C14.633 8.63999 14.0263 8.34665 13.733 7.83332C13.4397 7.31999 13.4863 6.64665 13.8663 5.99332C13.9663 5.81999 13.993 5.61332 13.9397 5.41332C13.8863 5.21332 13.7597 5.05332 13.5863 4.94665L12.433 4.28665C12.1463 4.11332 11.7663 4.21332 11.593 4.50665L11.5197 4.63332C11.1397 5.29332 10.5863 5.66665 9.99301 5.66665C9.39967 5.66665 8.84634 5.29332 8.46634 4.63332L8.39301 4.49999C8.22634 4.21999 7.85301 4.11999 7.56634 4.28665L6.41301 4.95332C6.23967 5.05332 6.10634 5.21999 6.05301 5.41999C5.99967 5.61999 6.02634 5.82665 6.12634 5.99999C6.50634 6.65332 6.55301 7.32665 6.25967 7.83999C5.96634 8.35332 5.35967 8.64665 4.59967 8.64665C4.17301 8.64665 3.83301 8.98665 3.83301 9.41332V10.5867C3.83301 11.0067 4.17301 11.3533 4.59967 11.3533C5.35967 11.3533 5.96634 11.6467 6.25967 12.16C6.55301 12.6733 6.50634 13.3467 6.12634 14C6.02634 14.1733 5.99967 14.38 6.05301 14.58C6.10634 14.78 6.23301 14.94 6.40634 15.0467L7.55967 15.7067C7.69967 15.7933 7.86634 15.8133 8.01967 15.7733C8.17967 15.7333 8.31301 15.6267 8.39967 15.4867L8.47301 15.36C8.85301 14.7067 9.40634 14.3267 9.99967 14.3267Z" fill="#637381"/>
</svg>
