<svg width="15" height="14" viewBox="0 0 15 14" fill="none" xmlns="http://www.w3.org/2000/svg">
<path d="M8.77197 3.15916C8.84431 3.23166 8.88892 3.32724 8.89804 3.42925C8.90715 3.53126 8.88019 3.63324 8.82184 3.71741L8.77109 3.77866L6.42434 6.12366L7.55572 6.12454C10.6375 6.12454 12.7051 7.85354 12.8022 10.3184L12.8057 10.4995C12.8057 10.6156 12.7596 10.7268 12.6776 10.8089C12.5955 10.8909 12.4842 10.937 12.3682 10.937C12.2522 10.937 12.1409 10.8909 12.0589 10.8089C11.9768 10.7268 11.9307 10.6156 11.9307 10.4995C11.9307 8.51066 10.3496 7.08354 7.78497 7.00304L7.55572 6.99954H6.42434L8.77109 9.34629C8.8486 9.42345 8.8944 9.52685 8.89946 9.63611C8.90451 9.74536 8.86847 9.85255 8.79841 9.93654C8.72836 10.0205 8.62939 10.0753 8.521 10.0899C8.41261 10.1045 8.30267 10.0781 8.21284 10.0157L8.15247 9.96579L5.03222 6.84204L4.98847 6.78079L4.96484 6.73179L4.94472 6.67229L4.93509 6.62154L4.93159 6.57516V6.52529L4.94559 6.45004L4.96309 6.39491L4.99809 6.32841L5.04622 6.26716L8.15247 3.15916C8.23451 3.07714 8.34577 3.03107 8.46178 3.03107C8.57779 3.03107 8.68905 3.07714 8.77109 3.15916H8.77197ZM2.43259 6.25316L5.49509 3.19066C5.57226 3.11315 5.67566 3.06735 5.78491 3.0623C5.89417 3.05724 6.00136 3.09329 6.08535 3.16334C6.16935 3.23339 6.22406 3.33236 6.2387 3.44075C6.25335 3.54914 6.22686 3.65908 6.16447 3.74891L6.11459 3.80929L3.36184 6.56204L6.11547 9.31566C6.19298 9.39283 6.23878 9.49622 6.24383 9.60548C6.24889 9.71474 6.21284 9.82192 6.14279 9.90592C6.07274 9.98992 5.97377 10.0446 5.86538 10.0593C5.75699 10.0739 5.64705 10.0474 5.55722 9.98503L5.49597 9.93429L2.43347 6.87179C2.36113 6.79929 2.31651 6.70371 2.3074 6.6017C2.29829 6.49968 2.32525 6.39771 2.38359 6.31354L2.43347 6.25229L2.43259 6.25316Z" fill="#2C2C2C"/>
</svg>
