<svg width="20" height="20" viewBox="0 0 20 20" fill="none" xmlns="http://www.w3.org/2000/svg">
<path d="M12.5003 18.9584H7.50033C2.97533 18.9584 1.04199 17.0251 1.04199 12.5001V7.50008C1.04199 2.97508 2.97533 1.04175 7.50033 1.04175H12.5003C17.0253 1.04175 18.9587 2.97508 18.9587 7.50008V12.5001C18.9587 17.0251 17.0253 18.9584 12.5003 18.9584ZM7.50033 2.29175C3.65866 2.29175 2.29199 3.65841 2.29199 7.50008V12.5001C2.29199 16.3417 3.65866 17.7084 7.50033 17.7084H12.5003C16.342 17.7084 17.7087 16.3417 17.7087 12.5001V7.50008C17.7087 3.65841 16.342 2.29175 12.5003 2.29175H7.50033Z" fill="black"/>
<path d="M8.33301 18.9584C7.99134 18.9584 7.70801 18.6751 7.70801 18.3334V1.66675C7.70801 1.32508 7.99134 1.04175 8.33301 1.04175C8.67467 1.04175 8.95801 1.32508 8.95801 1.66675V18.3334C8.95801 18.6751 8.67467 18.9584 8.33301 18.9584Z" fill="black"/>
<path d="M18.333 10.625H8.33301C7.99134 10.625 7.70801 10.3417 7.70801 10C7.70801 9.65833 7.99134 9.375 8.33301 9.375H18.333C18.6747 9.375 18.958 9.65833 18.958 10C18.958 10.3417 18.6747 10.625 18.333 10.625Z" fill="black"/>
</svg>
