<svg width="16" height="18" viewBox="0 0 16 18" fill="none" xmlns="http://www.w3.org/2000/svg">
<g id="update">
<path id="Union" fill-rule="evenodd" clip-rule="evenodd" d="M11.2142 0.234865C11.5143 -0.0671308 12.0023 -0.0687204 12.3043 0.231315L15.2912 3.19884C15.4451 3.33976 15.5415 3.54231 15.5415 3.76739C15.5415 3.94973 15.4782 4.1173 15.3724 4.24928C15.3541 4.27208 15.3345 4.29394 15.3136 4.31472L12.3043 7.30449C12.0023 7.60453 11.5143 7.60294 11.2142 7.30094C10.9142 6.99895 10.9158 6.5109 11.2178 6.21087L12.9014 4.53819H4.23813C3.64282 4.53819 3.0729 4.77318 2.65348 5.18988C2.23423 5.60641 1.99961 6.17028 1.99961 6.75716V8.25205C1.99961 8.67775 1.65451 9.02285 1.22881 9.02285C0.803108 9.02285 0.458008 8.67775 0.458008 8.25205V6.75716C0.458008 5.75817 0.857497 4.80111 1.56696 4.09626C2.27625 3.39157 3.23719 2.99658 4.23813 2.99658H12.9003L11.2178 1.32494C10.9158 1.0249 10.9142 0.536861 11.2142 0.234865ZM15.5415 9.74688C15.5415 9.32117 15.1964 8.97607 14.7707 8.97607C14.345 8.97607 13.9999 9.32117 13.9999 9.74688V11.2418C13.9999 11.8286 13.7653 12.3925 13.3461 12.809C12.9266 13.2257 12.3567 13.4607 11.7614 13.4607H3.09902L4.78139 11.7893C5.08339 11.4893 5.08498 11.0012 4.78494 10.6992C4.48491 10.3972 3.99686 10.3956 3.69487 10.6957L0.705843 13.6653C0.553441 13.8061 0.458008 14.0077 0.458008 14.2315V14.2319V14.2323C0.458008 14.3042 0.468072 14.3752 0.487417 14.4432C0.523259 14.5691 0.590962 14.6851 0.685549 14.7791L3.69487 17.7688C3.99686 18.0689 4.48491 18.0673 4.78494 17.7653C5.08498 17.4633 5.08339 16.9753 4.78139 16.6752L3.09758 15.0023H11.7614C12.7624 15.0023 13.7233 14.6074 14.4326 13.9027C15.1421 13.1978 15.5415 12.2408 15.5415 11.2418V9.74688Z" fill="#637381"/>
</g>
</svg>
