<svg width="40" height="41" viewBox="0 0 40 41" fill="none" xmlns="http://www.w3.org/2000/svg">
<rect y="0.138916" width="40" height="40" rx="2" fill="url(#paint0_linear_16855_14553)"/>
<g opacity="0.9">
<path d="M30.9565 6.13892H9.04348C7.3647 6.13892 6 7.50483 6 9.18239V31.0954C6 32.773 7.3647 34.1389 9.04348 34.1389H30.9565C32.6353 34.1389 34 32.773 34 31.0954V9.18239C34 7.50483 32.6353 6.13892 30.9565 6.13892ZM13.913 8.5737C14.249 8.5737 14.5217 8.84639 14.5217 9.18239C14.5217 9.51839 14.249 9.79109 13.913 9.79109C13.577 9.79109 13.3043 9.51839 13.3043 9.18239C13.3043 8.84639 13.577 8.5737 13.913 8.5737ZM11.4783 8.5737C11.8143 8.5737 12.087 8.84639 12.087 9.18239C12.087 9.51839 11.8143 9.79109 11.4783 9.79109C11.1423 9.79109 10.8696 9.51839 10.8696 9.18239C10.8696 8.84639 11.1423 8.5737 11.4783 8.5737ZM9.04348 8.5737C9.37948 8.5737 9.65217 8.84639 9.65217 9.18239C9.65217 9.51839 9.37948 9.79109 9.04348 9.79109C8.70748 9.79109 8.43478 9.51839 8.43478 9.18239C8.43478 8.84639 8.70748 8.5737 9.04348 8.5737ZM32 30.1389C32 31.1457 31.0068 32.1389 30 32.1389H10C8.99322 32.1389 8 31.1457 8 30.1389V12.2259H32V30.1389Z" fill="white"/>
</g>
<path fill-rule="evenodd" clip-rule="evenodd" d="M17.9424 18.3147C18.3525 17.9046 18.3525 17.2398 17.9424 16.8298C17.5324 16.4197 16.8675 16.4197 16.4575 16.8298L11.7908 21.4964C11.3808 21.9065 11.3808 22.5713 11.7908 22.9813L16.4575 27.648C16.8675 28.0581 17.5324 28.0581 17.9424 27.648C18.3525 27.238 18.3525 26.5731 17.9424 26.1631L14.0182 22.2389L17.9424 18.3147ZM23.5424 16.8298C23.1324 16.4197 22.4675 16.4197 22.0575 16.8298C21.6474 17.2398 21.6474 17.9046 22.0575 18.3147L25.9817 22.2389L22.0575 26.1631C21.6474 26.5731 21.6474 27.238 22.0575 27.648C22.4675 28.0581 23.1324 28.0581 23.5424 27.648L28.2091 22.9813C28.6191 22.5713 28.6191 21.9065 28.2091 21.4964L23.5424 16.8298Z" fill="white"/>
<defs>
<linearGradient id="paint0_linear_16855_14553" x1="38.5" y1="2.13892" x2="-0.607429" y2="41.0309" gradientUnits="userSpaceOnUse">
<stop stop-color="#AC07F9"/>
<stop offset="1" stop-color="#FF0D47"/>
</linearGradient>
</defs>
</svg>
