<svg width="24" height="24" viewBox="0 0 24 24" fill="none" xmlns="http://www.w3.org/2000/svg">
<mask id="path-1-inside-1_10277_288119" fill="white">
<path d="M17.75 3C18.612 3 19.4386 3.34241 20.0481 3.9519C20.6576 4.5614 21 5.38805 21 6.25V17.75C21 18.612 20.6576 19.4386 20.0481 20.0481C19.4386 20.6576 18.612 21 17.75 21H6.25C5.38805 21 4.5614 20.6576 3.9519 20.0481C3.34241 19.4386 3 18.612 3 17.75V6.25C3 5.38805 3.34241 4.5614 3.9519 3.9519C4.5614 3.34241 5.38805 3 6.25 3H17.75ZM18.33 19.401L12.525 13.715C12.3984 13.5909 12.2318 13.5156 12.055 13.5026C11.8782 13.4896 11.7024 13.5397 11.559 13.644L11.475 13.714L5.668 19.401C5.85 19.465 6.046 19.5 6.25 19.5H17.75C17.953 19.5 18.149 19.465 18.33 19.401ZM17.75 4.5H6.25C5.78587 4.5 5.34075 4.68437 5.01256 5.01256C4.68437 5.34075 4.5 5.78587 4.5 6.25V17.75C4.5 17.958 4.536 18.158 4.603 18.344L10.426 12.643C10.8252 12.2522 11.3554 12.0239 11.9136 12.0025C12.4718 11.981 13.018 12.168 13.446 12.527L13.574 12.643L19.396 18.345C19.463 18.159 19.5 17.959 19.5 17.75V6.25C19.5 5.78587 19.3156 5.34075 18.9874 5.01256C18.6592 4.68437 18.2141 4.5 17.75 4.5ZM15.252 6.5C15.8493 6.5 16.4221 6.73726 16.8444 7.1596C17.2667 7.58193 17.504 8.15473 17.504 8.752C17.504 9.34927 17.2667 9.92207 16.8444 10.3444C16.4221 10.7667 15.8493 11.004 15.252 11.004C14.6547 11.004 14.0819 10.7667 13.6596 10.3444C13.2373 9.92207 13 9.34927 13 8.752C13 8.15473 13.2373 7.58193 13.6596 7.1596C14.0819 6.73726 14.6547 6.5 15.252 6.5ZM15.252 8C15.0526 8 14.8613 8.07923 14.7203 8.22026C14.5792 8.36128 14.5 8.55256 14.5 8.752C14.5 8.95144 14.5792 9.14272 14.7203 9.28374C14.8613 9.42477 15.0526 9.504 15.252 9.504C15.4514 9.504 15.6427 9.42477 15.7837 9.28374C15.9248 9.14272 16.004 8.95144 16.004 8.752C16.004 8.55256 15.9248 8.36128 15.7837 8.22026C15.6427 8.07923 15.4514 8 15.252 8Z"/>
</mask>
<path d="M17.75 3C18.612 3 19.4386 3.34241 20.0481 3.9519C20.6576 4.5614 21 5.38805 21 6.25V17.75C21 18.612 20.6576 19.4386 20.0481 20.0481C19.4386 20.6576 18.612 21 17.75 21H6.25C5.38805 21 4.5614 20.6576 3.9519 20.0481C3.34241 19.4386 3 18.612 3 17.75V6.25C3 5.38805 3.34241 4.5614 3.9519 3.9519C4.5614 3.34241 5.38805 3 6.25 3H17.75ZM18.33 19.401L12.525 13.715C12.3984 13.5909 12.2318 13.5156 12.055 13.5026C11.8782 13.4896 11.7024 13.5397 11.559 13.644L11.475 13.714L5.668 19.401C5.85 19.465 6.046 19.5 6.25 19.5H17.75C17.953 19.5 18.149 19.465 18.33 19.401ZM17.75 4.5H6.25C5.78587 4.5 5.34075 4.68437 5.01256 5.01256C4.68437 5.34075 4.5 5.78587 4.5 6.25V17.75C4.5 17.958 4.536 18.158 4.603 18.344L10.426 12.643C10.8252 12.2522 11.3554 12.0239 11.9136 12.0025C12.4718 11.981 13.018 12.168 13.446 12.527L13.574 12.643L19.396 18.345C19.463 18.159 19.5 17.959 19.5 17.75V6.25C19.5 5.78587 19.3156 5.34075 18.9874 5.01256C18.6592 4.68437 18.2141 4.5 17.75 4.5ZM15.252 6.5C15.8493 6.5 16.4221 6.73726 16.8444 7.1596C17.2667 7.58193 17.504 8.15473 17.504 8.752C17.504 9.34927 17.2667 9.92207 16.8444 10.3444C16.4221 10.7667 15.8493 11.004 15.252 11.004C14.6547 11.004 14.0819 10.7667 13.6596 10.3444C13.2373 9.92207 13 9.34927 13 8.752C13 8.15473 13.2373 7.58193 13.6596 7.1596C14.0819 6.73726 14.6547 6.5 15.252 6.5ZM15.252 8C15.0526 8 14.8613 8.07923 14.7203 8.22026C14.5792 8.36128 14.5 8.55256 14.5 8.752C14.5 8.95144 14.5792 9.14272 14.7203 9.28374C14.8613 9.42477 15.0526 9.504 15.252 9.504C15.4514 9.504 15.6427 9.42477 15.7837 9.28374C15.9248 9.14272 16.004 8.95144 16.004 8.752C16.004 8.55256 15.9248 8.36128 15.7837 8.22026C15.6427 8.07923 15.4514 8 15.252 8Z" fill="#252424"/>
<path d="M21 17.75H25H21ZM6.25 21V25V21ZM3 17.75H-1H3ZM6.25 3V-1V3ZM18.33 19.401L19.6635 23.1722L25.7127 21.0332L21.129 16.5434L18.33 19.401ZM12.525 13.715L9.72512 16.5717L9.72601 16.5726L12.525 13.715ZM11.559 13.644L9.20688 10.4086L9.09988 10.4864L8.99826 10.5711L11.559 13.644ZM11.475 13.714L8.91426 10.6411L8.79094 10.7439L8.67626 10.8562L11.475 13.714ZM5.668 19.401L2.86926 16.5432L-1.72414 21.0417L4.34106 23.1745L5.668 19.401ZM4.603 18.344L0.839709 19.6996L2.9506 25.5597L7.40133 21.2022L4.603 18.344ZM10.426 12.643L7.6278 9.78466L7.62767 9.78479L10.426 12.643ZM13.446 12.527L16.1321 9.56304L16.0753 9.51164L16.0167 9.46244L13.446 12.527ZM13.574 12.643L16.3728 9.78527L16.3175 9.73107L16.2601 9.67904L13.574 12.643ZM19.396 18.345L16.5972 21.2027L21.048 25.5618L23.1593 19.7006L19.396 18.345ZM17.75 7C17.5511 7 17.3603 6.92098 17.2197 6.78033L22.8765 1.12348C21.5169 -0.236164 19.6728 -1 17.75 -1V7ZM17.2197 6.78033C17.079 6.63968 17 6.44891 17 6.25H25C25 4.32718 24.2362 2.48312 22.8765 1.12348L17.2197 6.78033ZM17 6.25V17.75H25V6.25H17ZM17 17.75C17 17.5511 17.079 17.3603 17.2197 17.2197L22.8765 22.8765C24.2362 21.5169 25 19.6728 25 17.75H17ZM17.2197 17.2197C17.3603 17.079 17.5511 17 17.75 17V25C19.6728 25 21.5169 24.2362 22.8765 22.8765L17.2197 17.2197ZM17.75 17H6.25V25H17.75V17ZM6.25 17C6.44891 17 6.63968 17.079 6.78033 17.2197L1.12348 22.8765C2.48312 24.2362 4.32718 25 6.25 25V17ZM6.78033 17.2197C6.92098 17.3603 7 17.5511 7 17.75H-1C-1 19.6728 -0.236164 21.5169 1.12348 22.8765L6.78033 17.2197ZM7 17.75V6.25H-1V17.75H7ZM7 6.25C7 6.44891 6.92098 6.63968 6.78033 6.78033L1.12348 1.12348C-0.236163 2.48311 -1 4.32718 -1 6.25H7ZM6.78033 6.78033C6.63968 6.92098 6.44891 7 6.25 7V-1C4.32718 -1 2.48311 -0.236163 1.12348 1.12348L6.78033 6.78033ZM6.25 7H17.75V-1H6.25V7ZM21.129 16.5434L15.324 10.8574L9.72601 16.5726L15.531 22.2586L21.129 16.5434ZM15.3249 10.8583C14.5228 10.0722 13.4682 9.59573 12.3482 9.51341L11.7618 17.4919C10.9955 17.4356 10.2739 17.1095 9.72512 16.5717L15.3249 10.8583ZM12.3482 9.51341C11.2282 9.43109 10.1152 9.74827 9.20688 10.4086L13.9111 16.8794C13.2896 17.3312 12.5281 17.5482 11.7618 17.4919L12.3482 9.51341ZM8.99826 10.5711L8.91426 10.6411L14.0357 16.7869L14.1197 16.7169L8.99826 10.5711ZM8.67626 10.8562L2.86926 16.5432L8.46675 22.2588L14.2737 16.5718L8.67626 10.8562ZM4.34106 23.1745C4.94174 23.3857 5.58602 23.5 6.25 23.5V15.5C6.50598 15.5 6.75826 15.5443 6.99494 15.6275L4.34106 23.1745ZM6.25 23.5H17.75V15.5H6.25V23.5ZM17.75 23.5C18.413 23.5 19.0596 23.3857 19.6635 23.1722L16.9965 15.6298C17.2384 15.5443 17.493 15.5 17.75 15.5V23.5ZM17.75 0.5H6.25V8.5H17.75V0.5ZM6.25 0.5C4.725 0.5 3.26247 1.1058 2.18414 2.18414L7.84099 7.84099C7.41903 8.26295 6.84674 8.5 6.25 8.5V0.5ZM2.18414 2.18414C1.1058 3.26247 0.5 4.725 0.5 6.25H8.5C8.5 6.84674 8.26295 7.41903 7.84099 7.84099L2.18414 2.18414ZM0.5 6.25V17.75H8.5V6.25H0.5ZM0.5 17.75C0.5 18.4225 0.616886 19.081 0.839709 19.6996L8.36629 16.9884C8.45511 17.235 8.5 17.4935 8.5 17.75H0.5ZM7.40133 21.2022L13.2243 15.5012L7.62767 9.78479L1.80467 15.4858L7.40133 21.2022ZM13.2242 15.5013C12.9137 15.8053 12.5013 15.9829 12.0672 15.9995L11.7601 8.00542C10.2096 8.06498 8.73661 8.69918 7.6278 9.78466L13.2242 15.5013ZM12.0672 15.9995C11.633 16.0162 11.2082 15.8708 10.8753 15.5916L16.0167 9.46244C14.8279 8.46522 13.3106 7.94586 11.7601 8.00542L12.0672 15.9995ZM10.7599 15.491L10.8879 15.607L16.2601 9.67904L16.1321 9.56304L10.7599 15.491ZM10.7752 15.5007L16.5972 21.2027L22.1948 15.4873L16.3728 9.78527L10.7752 15.5007ZM23.1593 19.7006C23.378 19.0935 23.5 18.4354 23.5 17.75H15.5C15.5 17.4826 15.548 17.2245 15.6327 16.9894L23.1593 19.7006ZM23.5 17.75V6.25H15.5V17.75H23.5ZM23.5 6.25C23.5 4.725 22.8942 3.26247 21.8159 2.18414L16.159 7.84099C15.7371 7.41904 15.5 6.84674 15.5 6.25H23.5ZM21.8159 2.18414C20.7375 1.1058 19.275 0.5 17.75 0.5V8.5C17.1533 8.5 16.581 8.26295 16.159 7.84099L21.8159 2.18414ZM15.252 10.5C14.7884 10.5 14.3438 10.3158 14.016 9.98802L19.6728 4.33117C18.5004 3.15869 16.9101 2.5 15.252 2.5V10.5ZM14.016 9.98802C13.6882 9.66021 13.504 9.2156 13.504 8.752H21.504C21.504 7.09387 20.8453 5.50365 19.6728 4.33117L14.016 9.98802ZM13.504 8.752C13.504 8.2884 13.6882 7.84379 14.016 7.51598L19.6728 13.1728C20.8453 12.0004 21.504 10.4101 21.504 8.752H13.504ZM14.016 7.51598C14.3438 7.18816 14.7884 7.004 15.252 7.004V15.004C16.9101 15.004 18.5004 14.3453 19.6728 13.1728L14.016 7.51598ZM15.252 7.004C15.7156 7.004 16.1602 7.18816 16.488 7.51598L10.8312 13.1728C12.0036 14.3453 13.5939 15.004 15.252 15.004V7.004ZM16.488 7.51598C16.8158 7.84379 17 8.2884 17 8.752H9C9 10.4101 9.65869 12.0004 10.8312 13.1728L16.488 7.51598ZM17 8.752C17 9.2156 16.8158 9.66021 16.488 9.98802L10.8312 4.33117C9.65869 5.50365 9 7.09387 9 8.752H17ZM16.488 9.98802C16.1602 10.3158 15.7156 10.5 15.252 10.5V2.5C13.5939 2.5 12.0036 3.15869 10.8312 4.33117L16.488 9.98802ZM15.252 4C13.9917 4 12.783 4.50066 11.8918 5.39183L17.5487 11.0487C16.9396 11.6578 16.1134 12 15.252 12V4ZM11.8918 5.39183C11.0007 6.283 10.5 7.49169 10.5 8.752H18.5C18.5 9.61343 18.1578 10.4396 17.5487 11.0487L11.8918 5.39183ZM10.5 8.752C10.5 10.0123 11.0007 11.221 11.8918 12.1122L17.5487 6.45532C18.1578 7.06443 18.5 7.89057 18.5 8.752H10.5ZM11.8918 12.1122C12.783 13.0033 13.9917 13.504 15.252 13.504V5.504C16.1134 5.504 16.9396 5.8462 17.5487 6.45532L11.8918 12.1122ZM15.252 13.504C16.5123 13.504 17.721 13.0033 18.6122 12.1122L12.9553 6.45532C13.5644 5.8462 14.3906 5.504 15.252 5.504V13.504ZM18.6122 12.1122C19.5033 11.221 20.004 10.0123 20.004 8.752H12.004C12.004 7.89057 12.3462 7.06443 12.9553 6.45532L18.6122 12.1122ZM20.004 8.752C20.004 7.49169 19.5033 6.283 18.6122 5.39183L12.9553 11.0487C12.3462 10.4396 12.004 9.61343 12.004 8.752H20.004ZM18.6122 5.39183C17.721 4.50066 16.5123 4 15.252 4V12C14.3906 12 13.5644 11.6578 12.9553 11.0487L18.6122 5.39183Z" fill="#252424" mask="url(#path-1-inside-1_10277_288119)"/>
</svg>
