<svg width="20" height="20" viewBox="0 0 20 20" fill="none" xmlns="http://www.w3.org/2000/svg">
<g id="Group 625764">
<g id="Group 625763">
<path id="Vector" d="M15.8335 6.66797C17.2142 6.66797 18.3335 5.54868 18.3335 4.16797C18.3335 2.78726 17.2142 1.66797 15.8335 1.66797C14.4528 1.66797 13.3335 2.78726 13.3335 4.16797C13.3335 5.54868 14.4528 6.66797 15.8335 6.66797Z" stroke="#2C2C2C" stroke-width="1.5" stroke-linecap="round" stroke-linejoin="round"/>
<path id="Vector_2" d="M11.6665 1.66797H7.49984C3.33317 1.66797 1.6665 3.33464 1.6665 7.5013V12.5013C1.6665 16.668 3.33317 18.3346 7.49984 18.3346H12.4998C16.6665 18.3346 18.3332 16.668 18.3332 12.5013V8.33464" stroke="#2C2C2C" stroke-width="1.5" stroke-linecap="round" stroke-linejoin="round"/>
<path id="1" d="M8.39706 9.57945C8.31471 9.64977 8.22647 9.65936 8.13235 9.60822C8.04412 9.55708 8 9.47717 8 9.36849V8.98493C8 8.62694 8.13235 8.33607 8.39706 8.11233L9.34118 7.32603C9.60588 7.10868 9.90588 7 10.2412 7H10.5059C10.6412 7 10.7559 7.05434 10.85 7.16301C10.95 7.27169 11 7.39954 11 7.54658V13.4534C11 13.6005 10.95 13.7283 10.85 13.837C10.7559 13.9457 10.6412 14 10.5059 14H10.2412C10.1059 14 9.98824 13.9457 9.88824 13.837C9.78824 13.7283 9.73824 13.6005 9.73824 13.4534V8.47671L9.72941 8.46712L9.72059 8.47671L8.39706 9.57945Z" fill="#2C2C2C"/>
</g>
</g>
</svg>
