<svg width="18" height="18" viewBox="0 0 18 18" fill="none" xmlns="http://www.w3.org/2000/svg">
<path d="M9 1.125C4.65117 1.125 1.125 4.65117 1.125 9C1.125 13.3488 4.65117 16.875 9 16.875C13.3488 16.875 16.875 13.3488 16.875 9C16.875 4.65117 13.3488 1.125 9 1.125ZM9 15.5391C5.38945 15.5391 2.46094 12.6105 2.46094 9C2.46094 5.38945 5.38945 2.46094 9 2.46094C12.6105 2.46094 15.5391 5.38945 15.5391 9C15.5391 12.6105 12.6105 15.5391 9 15.5391Z" fill="black" fill-opacity="0.45"/>
<path d="M8.15598 5.90625C8.15598 6.13003 8.24487 6.34464 8.4031 6.50287C8.56134 6.66111 8.77595 6.75 8.99973 6.75C9.2235 6.75 9.43811 6.66111 9.59635 6.50287C9.75458 6.34464 9.84348 6.13003 9.84348 5.90625C9.84348 5.68247 9.75458 5.46786 9.59635 5.30963C9.43811 5.15139 9.2235 5.0625 8.99973 5.0625C8.77595 5.0625 8.56134 5.15139 8.4031 5.30963C8.24487 5.46786 8.15598 5.68247 8.15598 5.90625ZM9.4216 7.875H8.57785C8.50051 7.875 8.43723 7.93828 8.43723 8.01562V12.7969C8.43723 12.8742 8.50051 12.9375 8.57785 12.9375H9.4216C9.49894 12.9375 9.56223 12.8742 9.56223 12.7969V8.01562C9.56223 7.93828 9.49894 7.875 9.4216 7.875Z" fill="black" fill-opacity="0.45"/>
</svg>
