<svg width="44" height="44" viewBox="0 0 44 44" fill="none" xmlns="http://www.w3.org/2000/svg">
<rect width="44" height="44" rx="8" fill="#EEDDF7"/>
<path fill-rule="evenodd" clip-rule="evenodd" d="M22 13.75C17.4437 13.75 13.75 17.4437 13.75 22C13.75 23.5001 14.1497 24.9046 14.8479 26.1152C14.8529 26.1239 14.8585 26.1334 14.8644 26.1435C14.919 26.2372 15.0069 26.3877 15.0511 26.5473C15.0893 26.6855 15.1032 26.8213 15.0934 26.9656C15.0821 27.1302 15.0283 27.2887 14.9958 27.3843C14.9923 27.3946 14.9891 27.4041 14.9862 27.4128L14.2174 29.7193C14.2062 29.7528 14.1957 29.7844 14.1858 29.8142C14.2157 29.8043 14.2473 29.7937 14.2809 29.7825L16.5874 29.0137C16.596 29.0108 16.6054 29.0076 16.6155 29.0042C16.7118 28.9715 16.8695 28.918 17.0342 28.9068C17.1772 28.897 17.3133 28.9104 17.4527 28.949C17.6125 28.9931 17.7628 29.0808 17.8569 29.1358C17.8669 29.1416 17.8763 29.1471 17.885 29.1521C19.0956 29.8503 20.5 30.25 22.0001 30.25C26.5565 30.25 30.25 26.5564 30.25 22C30.25 17.4437 26.5563 13.75 22 13.75ZM12.25 22C12.25 16.6152 16.6152 12.25 22 12.25C27.3848 12.25 31.75 16.6152 31.75 22C31.75 27.3848 27.3849 31.75 22.0001 31.75C20.23 31.75 18.5679 31.2776 17.1356 30.4515C17.1195 30.4422 17.1052 30.434 17.0923 30.4265C17.0829 30.4297 17.0728 30.433 17.0617 30.4367L14.7283 31.2145C14.5078 31.2881 14.2961 31.3586 14.1195 31.4001C13.9469 31.4407 13.6652 31.4918 13.3706 31.3868C13.0175 31.2609 12.7391 30.9829 12.613 30.6292C12.5079 30.3345 12.5592 30.0528 12.5998 29.8803C12.6411 29.7044 12.7115 29.4935 12.7847 29.2739L13.5642 26.9354C13.5675 26.9255 13.5706 26.9163 13.5734 26.9078C13.566 26.8949 13.5578 26.8806 13.5485 26.8646C12.7224 25.4322 12.25 23.7701 12.25 22ZM13.6231 26.9974C13.6231 26.9974 13.623 26.9971 13.6227 26.9964L13.6231 26.9974Z" fill="#A34CCC"/>
</svg>
