<svg width="44" height="44" viewBox="0 0 44 44" fill="none" xmlns="http://www.w3.org/2000/svg">
<rect width="44" height="44" rx="8" fill="#CDF8F8"/>
<path fill-rule="evenodd" clip-rule="evenodd" d="M16.1698 13.25H27.8307C28.3648 13.25 28.8105 13.25 29.1747 13.2797C29.5545 13.3108 29.9111 13.3779 30.2483 13.5497C30.7654 13.8132 31.1867 14.2338 31.4505 14.7515C31.6224 15.0889 31.6894 15.4456 31.7204 15.8254C31.75 16.189 31.75 16.6339 31.75 17.1668V24.8331C31.75 25.366 31.75 25.811 31.7204 26.1745C31.6894 26.5544 31.6224 26.9112 31.4505 27.2485C31.1866 27.7664 30.7653 28.1868 30.2483 28.4502C29.9111 28.6221 29.5545 28.6892 29.1746 28.7202C28.8104 28.75 28.3644 28.75 27.8301 28.75H19.1226C18.6765 28.75 18.5572 28.7535 18.4501 28.7755C18.34 28.7981 18.2335 28.8355 18.1329 28.8869C18.0355 28.9366 17.9403 29.0082 17.5921 29.2868L16.0411 30.5276C15.6484 30.8418 15.3138 31.1095 15.0331 31.295C14.7577 31.4771 14.4089 31.669 14.0018 31.6694C13.4688 31.67 12.9647 31.4276 12.6323 31.0111C12.3783 30.6929 12.3103 30.3008 12.2804 29.9719C12.25 29.6371 12.25 29.209 12.25 28.7065L12.25 17.1695C12.25 16.6354 12.25 16.1895 12.2797 15.8253C12.3108 15.4454 12.3779 15.0888 12.5497 14.7515C12.8133 14.2343 13.2337 13.8135 13.7513 13.5497C14.0886 13.3779 14.4454 13.3108 14.8253 13.2797C15.1897 13.25 15.6356 13.25 16.1698 13.25ZM14.9474 14.7748C14.6602 14.7982 14.5228 14.8401 14.4323 14.8862C14.1973 15.006 14.0062 15.1971 13.8862 15.4325C13.8401 15.5231 13.7982 15.6604 13.7748 15.9475C13.7506 16.2433 13.75 16.6275 13.75 17.2V28.671C13.75 29.2188 13.7507 29.5777 13.7742 29.8363C13.7892 30.0005 13.8101 30.0698 13.8165 30.0892C13.8596 30.1358 13.9188 30.1642 13.982 30.1688C14.0011 30.1617 14.0683 30.1347 14.206 30.0437C14.4226 29.9005 14.7033 29.6769 15.1311 29.3347L16.6551 28.1155C16.671 28.1027 16.6868 28.0901 16.7025 28.0776C16.981 27.8545 17.2002 27.679 17.4505 27.5511C17.6709 27.4385 17.9055 27.356 18.1485 27.3061C18.4238 27.2497 18.7047 27.2498 19.0612 27.25C19.0814 27.25 19.1019 27.25 19.1226 27.25H27.8001C28.3725 27.25 28.7566 27.2494 29.0524 27.2252C29.3394 27.2018 29.4767 27.1599 29.5673 27.1137C29.8029 26.9937 29.9943 26.8024 30.114 26.5675C30.1601 26.4771 30.2019 26.3398 30.2253 26.0526C30.2495 25.7567 30.25 25.3725 30.25 24.8V17.2C30.25 16.6274 30.2495 16.2433 30.2253 15.9473C30.2019 15.6602 30.1601 15.523 30.114 15.4325C29.9943 15.1976 29.8028 15.0062 29.5673 14.8862C29.4767 14.8401 29.3395 14.7982 29.0525 14.7748C28.7567 14.7506 28.3726 14.75 27.8002 14.75H16.2002C15.6278 14.75 15.2434 14.7506 14.9474 14.7748Z" fill="#20A2A2"/>
<path d="M18.5163 16.6898C19.0387 16.6898 19.4622 17.1134 19.4622 17.6358V24.2751C19.4622 24.7976 19.0387 25.2211 18.5163 25.2211C17.9938 25.2211 17.5703 24.7976 17.5703 24.2751V17.6358C17.5703 17.1134 17.9938 16.6898 18.5163 16.6898Z" fill="#20A2A2"/>
<path d="M25.4826 23.0154C25.7075 22.618 26.0345 22.2244 26.4912 22.2244H26.6737C27.2441 22.2244 27.7191 22.7137 27.5171 23.247C27.4441 23.4397 27.3518 23.6223 27.2404 23.7947C26.9474 24.2478 26.5412 24.6013 26.0216 24.8552C25.506 25.1052 24.8966 25.2302 24.1935 25.2302C23.6232 25.2302 23.1134 25.1345 22.6642 24.9431C22.2189 24.7517 21.84 24.4763 21.5275 24.1169C21.2189 23.7576 20.9826 23.322 20.8185 22.8103C20.6584 22.2986 20.5783 21.7224 20.5783 21.0818V20.6189C20.5783 19.9783 20.6623 19.4021 20.8302 18.8904C21.0021 18.3748 21.2443 17.9373 21.5568 17.5779C21.8732 17.2146 22.2521 16.9373 22.6935 16.7458C23.1349 16.5544 23.6252 16.4587 24.1642 16.4587C24.9064 16.4587 25.5334 16.5916 26.0451 16.8572C26.5568 17.1228 26.9533 17.488 27.2345 17.9529C27.3361 18.1193 27.4226 18.2942 27.4942 18.4775C27.7057 19.0196 27.2326 19.5291 26.6507 19.5291H26.507C26.048 19.5291 25.7139 19.1413 25.5177 18.7263C25.4162 18.5076 25.256 18.3435 25.0373 18.2341C24.8185 18.1248 24.5275 18.0701 24.1642 18.0701C23.9103 18.0701 23.6896 18.1169 23.5021 18.2107C23.3146 18.3044 23.1584 18.4529 23.0334 18.656C22.9084 18.8591 22.8146 19.1228 22.7521 19.447C22.6935 19.7673 22.6642 20.1541 22.6642 20.6072V21.0818C22.6642 21.5349 22.6916 21.9216 22.7462 22.2419C22.8009 22.5623 22.8888 22.824 23.0099 23.0271C23.131 23.2302 23.2873 23.3806 23.4787 23.4783C23.674 23.572 23.9123 23.6189 24.1935 23.6189C24.506 23.6189 24.7697 23.5701 24.9845 23.4724C25.1994 23.3708 25.3654 23.2185 25.4826 23.0154Z" fill="#20A2A2"/>
</svg>
