<svg width="44" height="44" viewBox="0 0 44 44" fill="none" xmlns="http://www.w3.org/2000/svg">
<rect width="44" height="44" rx="8" fill="#D3E0FF"/>
<path fill-rule="evenodd" clip-rule="evenodd" d="M14.4762 20.481C16.4183 24.7108 19.8736 28.0738 24.1696 29.8974L24.9274 30.235C26.5484 30.9572 28.4538 30.4443 29.4931 29.0058L30.7675 27.242C31.3124 26.4879 31.172 25.4393 30.4478 24.8551L28.2231 23.0603C27.4489 22.4358 26.3105 22.5812 25.7183 23.3804L25.2221 24.0499C23.0277 22.919 21.2354 21.1266 20.1045 18.9322L20.774 18.4361C21.5731 17.8438 21.7186 16.7054 21.094 15.9312L19.299 13.7062C18.715 12.9823 17.6668 12.8417 16.9126 13.3861L15.1393 14.6663C13.6914 15.7116 13.1814 17.633 13.9205 19.2587L14.475 20.4785L14.4762 20.481ZM24.7615 28.5191C20.8078 26.8425 17.6273 23.7483 15.84 19.8564L15.8394 19.8551L15.286 18.638C14.8426 17.6625 15.1485 16.5097 16.0173 15.8825L17.7906 14.6023C17.8984 14.5245 18.0481 14.5446 18.1315 14.648L19.9266 16.8731C20.0158 16.9837 19.995 17.1463 19.8808 17.2309L18.7125 18.0968C18.4287 18.3071 18.3301 18.6868 18.4757 19.0086C19.8137 21.965 22.1894 24.3407 25.1458 25.6786C25.4675 25.8242 25.8473 25.7256 26.0576 25.4419L26.9234 24.2735C27.008 24.1593 27.1707 24.1385 27.2813 24.2278L29.506 26.0226C29.6095 26.106 29.6295 26.2558 29.5517 26.3636L28.2773 28.1273C27.6537 28.9904 26.5105 29.2982 25.5378 28.8648L24.774 28.5244L24.7615 28.5191Z" fill="#3567E7"/>
<path d="M23.7497 19C23.7497 19.1989 23.8287 19.3897 23.9694 19.5304C24.11 19.671 24.3008 19.75 24.4997 19.75H28.3281C28.7424 19.75 29.0781 19.4142 29.0781 19C29.0781 18.5858 28.7424 18.25 28.3281 18.25H26.3104L29.4694 15.091C29.7623 14.7981 29.7623 14.3233 29.4694 14.0304C29.1765 13.7375 28.7016 13.7375 28.4087 14.0304L25.2497 17.1894V15.1716C25.2497 14.7574 24.9139 14.4216 24.4997 14.4216C24.0855 14.4216 23.7497 14.7574 23.7497 15.1716V19Z" fill="#3567E7"/>
</svg>
