<svg width="44" height="44" viewBox="0 0 44 44" fill="none" xmlns="http://www.w3.org/2000/svg">
<rect width="44" height="44" rx="8" fill="#DAFFEF"/>
<path fill-rule="evenodd" clip-rule="evenodd" d="M15.84 19.8564C17.6273 23.7483 20.8078 26.8425 24.7615 28.5191L24.774 28.5244L25.5378 28.8648C26.5105 29.2982 27.6537 28.9904 28.2773 28.1273L29.5517 26.3636C29.6295 26.2558 29.6095 26.106 29.506 26.0226L27.2813 24.2278C27.1707 24.1385 27.008 24.1593 26.9234 24.2735L26.0576 25.4419C25.8473 25.7256 25.4675 25.8242 25.1458 25.6786C22.1894 24.3407 19.8137 21.965 18.4757 19.0086C18.3301 18.6868 18.4287 18.3071 18.7125 18.0968L19.8808 17.2309C19.995 17.1463 20.0158 16.9837 19.9266 16.8731L18.1315 14.648C18.0481 14.5446 17.8984 14.5245 17.7906 14.6023L16.0173 15.8825C15.1485 16.5097 14.8426 17.6625 15.286 18.638L15.8394 19.8551L15.84 19.8564ZM24.1696 29.8974C19.8736 28.0738 16.4183 24.7108 14.4762 20.481L14.475 20.4785L13.9205 19.2587C13.1814 17.633 13.6914 15.7116 15.1393 14.6663L16.9126 13.3861C17.6668 12.8417 18.715 12.9823 19.299 13.7062L21.094 15.9312C21.7186 16.7054 21.5731 17.8438 20.774 18.4361L20.1045 18.9322C21.2354 21.1266 23.0277 22.919 25.2221 24.0499L25.7183 23.3804C26.3105 22.5812 27.4489 22.4358 28.2231 23.0603L30.4478 24.8551C31.172 25.4393 31.3124 26.4879 30.7675 27.242L29.4931 29.0058C28.4538 30.4443 26.5484 30.9572 24.9274 30.235L24.1696 29.8974Z" fill="#20BD7B"/>
<path fill-rule="evenodd" clip-rule="evenodd" d="M29.4694 14.0304C29.61 14.171 29.689 14.3618 29.689 14.5607V18.3891C29.689 18.8034 29.3533 19.1391 28.939 19.1391C28.5248 19.1391 28.189 18.8034 28.189 18.3891V16.3714L25.03 19.5304C24.7371 19.8233 24.2623 19.8233 23.9694 19.5304C23.6765 19.2375 23.6765 18.7626 23.9694 18.4697L27.1284 15.3107L25.1106 15.3107C24.6964 15.3107 24.3606 14.9749 24.3606 14.5607C24.3606 14.1465 24.6964 13.8107 25.1106 13.8107L28.939 13.8107C29.138 13.8107 29.3287 13.8897 29.4694 14.0304Z" fill="#20BD7B"/>
</svg>
