<svg width="44" height="44" viewBox="0 0 44 44" fill="none" xmlns="http://www.w3.org/2000/svg">
<rect width="44" height="44" rx="8" fill="#DAE0FB"/>
<path fill-rule="evenodd" clip-rule="evenodd" d="M21.5401 12.8699C22.0127 12.7488 22.5087 12.7558 22.9776 12.8898C23.5132 13.0429 23.975 13.4133 24.5652 13.8868C24.5997 13.9144 24.6346 13.9425 24.67 13.9708L30.269 18.4537C30.2902 18.4706 30.3112 18.4874 30.3319 18.504C30.7104 18.8066 31.007 19.0438 31.2269 19.3473C31.4198 19.6137 31.5639 19.9129 31.6514 20.2307C31.7507 20.5913 31.7504 20.9708 31.7501 21.4533C31.7501 21.4809 31.7501 21.5089 31.7501 21.5372V27.8332C31.7501 28.366 31.7501 28.811 31.7205 29.1745C31.6895 29.5543 31.6224 29.911 31.4506 30.2484C31.1868 30.7661 30.7655 31.1867 30.2484 31.4502C29.9111 31.622 29.5546 31.6892 29.1748 31.7202C28.8105 31.75 28.3647 31.75 27.8303 31.75H16.1702C15.6359 31.75 15.1898 31.75 14.8254 31.7202C14.4455 31.6892 14.0887 31.6221 13.7514 31.4502C13.2337 31.1865 12.8134 30.7656 12.5498 30.2484C12.378 29.9111 12.3109 29.5545 12.2798 29.1746C12.2501 28.8103 12.2501 28.3645 12.2501 27.8303L12.2501 21.592C12.2501 21.5626 12.2501 21.5336 12.25 21.5049C12.2497 21.0062 12.2494 20.614 12.3549 20.243C12.4477 19.9166 12.6001 19.61 12.8047 19.3388C13.0367 19.0312 13.3496 18.795 13.7465 18.4953C13.77 18.4776 13.7937 18.4597 13.8177 18.4415L19.8187 13.9037C19.8557 13.8758 19.8921 13.8481 19.9281 13.8209C20.5298 13.365 21.0011 13.0079 21.5401 12.8699ZM22.5655 14.3321C22.3522 14.2711 22.1269 14.268 21.9121 14.323C21.7044 14.3762 21.4892 14.5211 20.7234 15.1002L14.749 19.6179L22.2158 25.0624L29.2959 19.5961L23.7325 15.1417C22.9834 14.542 22.7718 14.391 22.5655 14.3321ZM30.2315 20.7688L22.687 26.5936C22.423 26.7974 22.0562 26.8025 21.7868 26.606L13.7743 20.7636C13.754 20.9006 13.7501 21.1114 13.7501 21.592V27.7999C13.7501 28.3723 13.7507 28.7565 13.7748 29.0524C13.7983 29.3396 13.8402 29.4768 13.8863 29.5674C14.0063 29.8028 14.1974 29.994 14.4324 30.1137C14.5229 30.1598 14.6603 30.2017 14.9475 30.2252C15.2435 30.2494 15.6279 30.25 16.2003 30.25H27.8003C28.3727 30.25 28.7568 30.2494 29.0526 30.2252C29.3395 30.2018 29.4768 30.1599 29.5674 30.1137C29.8029 29.9937 29.9944 29.8023 30.114 29.5674C30.1602 29.4769 30.202 29.3397 30.2254 29.0526C30.2495 28.7567 30.2501 28.3725 30.2501 27.8V21.5372C30.2501 21.1092 30.2469 20.9026 30.2315 20.7688Z" fill="#5C73D9"/>
</svg>
