<svg width="44" height="44" viewBox="0 0 44 44" fill="none" xmlns="http://www.w3.org/2000/svg">
<rect width="44" height="44" rx="8" fill="#FFEBEB"/>
<path fill-rule="evenodd" clip-rule="evenodd" d="M16.1698 14.25H27.8307C28.3648 14.25 28.8105 14.25 29.1747 14.2797C29.5545 14.3108 29.9111 14.3779 30.2483 14.5497C30.7654 14.8132 31.1867 15.2338 31.4505 15.7515C31.6224 16.0889 31.6894 16.4456 31.7204 16.8254C31.75 17.189 31.75 17.6339 31.75 18.1668V25.8331C31.75 26.366 31.75 26.811 31.7204 27.1745C31.6894 27.5544 31.6224 27.9112 31.4505 28.2485C31.1866 28.7664 30.7653 29.1868 30.2483 29.4502C29.9111 29.6221 29.5546 29.6892 29.1747 29.7202C28.8105 29.75 28.3646 29.75 27.8303 29.75H16.1702C15.6358 29.75 15.1897 29.75 14.8253 29.7202C14.4454 29.6892 14.0886 29.6221 13.7513 29.4502C13.2337 29.1865 12.8133 28.7659 12.5497 28.2485C12.3779 27.9113 12.3108 27.5546 12.2797 27.1747C12.25 26.8104 12.25 26.3645 12.25 25.8304V18.1695C12.25 17.6354 12.25 17.1895 12.2797 16.8253C12.3108 16.4454 12.3779 16.0888 12.5497 15.7515C12.8133 15.2343 13.2337 14.8135 13.7513 14.5497C14.0886 14.3779 14.4454 14.3108 14.8253 14.2797C15.1897 14.25 15.6356 14.25 16.1698 14.25ZM14.9624 15.7736L22.2157 21.0624L29.0633 15.7757C29.0597 15.7754 29.0561 15.7751 29.0525 15.7748C28.7567 15.7506 28.3726 15.75 27.8002 15.75H16.2002C15.6374 15.75 15.2564 15.7506 14.9624 15.7736ZM30.2084 16.7865L22.6869 22.5937C22.423 22.7974 22.0561 22.8025 21.7867 22.606L13.793 16.7772C13.7861 16.8273 13.78 16.8837 13.7748 16.9475C13.7506 17.2433 13.75 17.6275 13.75 18.2V25.8C13.75 26.3724 13.7506 26.7566 13.7748 27.0525C13.7982 27.3397 13.8401 27.477 13.8862 27.5675C14.0061 27.8029 14.1972 27.9939 14.4323 28.1137C14.5228 28.1599 14.6602 28.2018 14.9475 28.2252C15.2435 28.2494 15.6278 28.25 16.2002 28.25H27.8002C28.3726 28.25 28.7567 28.2494 29.0525 28.2252C29.3395 28.2018 29.4767 28.1599 29.5673 28.1137C29.8029 27.9937 29.9943 27.8024 30.114 27.5675C30.1601 27.4771 30.2019 27.3398 30.2253 27.0526C30.2495 26.7567 30.25 26.3725 30.25 25.8V18.2C30.25 17.6274 30.2495 17.2433 30.2253 16.9473C30.2205 16.8876 30.2148 16.8343 30.2084 16.7865Z" fill="#F66F6F"/>
</svg>
