<svg width="44" height="36" viewBox="0 0 44 36" fill="none" xmlns="http://www.w3.org/2000/svg">
<path d="M34.7061 0H9.29432C4.61432 0 0.82373 3.79059 0.82373 8.47059V27.5294C0.82373 32.2094 4.61432 36 9.29432 36H34.7061C39.3861 36 43.1767 32.2094 43.1767 27.5294V8.47059C43.1767 3.79059 39.3861 0 34.7061 0ZM17.7437 11.2659C18.9296 11.2659 19.8826 12.2188 19.8826 13.3835C19.8826 14.5482 18.9296 15.5012 17.7649 15.5012C16.6002 15.5012 15.6473 14.5482 15.6473 13.3835C15.6473 12.2188 16.579 11.2659 17.7437 11.2659ZM11.0731 11.2659C12.259 11.2659 13.212 12.2188 13.212 13.3835C13.212 14.5482 12.259 15.5012 11.0943 15.5012C9.92961 15.5012 8.97667 14.5482 8.97667 13.3835C8.97667 12.2188 9.88726 11.2659 11.0731 11.2659ZM33.139 27.2329H10.9037C10.0143 27.2329 9.29432 26.5129 9.29432 25.6447C9.29432 24.7765 9.99314 24.0565 10.8614 24.0565H33.1602C34.0284 24.0565 34.7484 24.7765 34.7484 25.6447C34.7484 26.5129 34.0284 27.2329 33.139 27.2329ZM33.139 14.9718H25.3461C24.4778 14.9718 23.7578 14.2518 23.7578 13.3835C23.7578 12.5153 24.4778 11.7953 25.3461 11.7953H33.139C34.0073 11.7953 34.7273 12.5153 34.7273 13.3835C34.7273 14.2518 34.0284 14.9718 33.139 14.9718Z" fill="url(#paint0_linear_9509_81238)"/>
<defs>
<linearGradient id="paint0_linear_9509_81238" x1="0.82373" y1="0" x2="36.3535" y2="41.7997" gradientUnits="userSpaceOnUse">
<stop stop-color="#59DD66"/>
<stop offset="1" stop-color="#159700"/>
</linearGradient>
</defs>
</svg>
