<svg width="40" height="40" viewBox="0 0 40 40" fill="none" xmlns="http://www.w3.org/2000/svg">
<path d="M14.1 0.000329891C15.962 -0.0193288 17.7 0.840671 18.84 2.30067L20.6 4.64067C21.16 5.34067 22 5.76067 22.9 5.76067H29.04C36.42 5.76067 40.02 9.70067 40.0001 17.7807V27.5207C40.0001 35.2407 35.24 40.0007 27.5 40.0007H12.48C4.78 40.0007 0 35.2407 0 27.5007V12.4807C0 4.20067 3.68 0.000329891 10.94 0.000329891H14.1ZM29.26 23.5807H10.74C9.9 23.5807 9.24 24.2407 9.24 25.0807C9.24 25.9007 9.9 26.5807 10.74 26.5807H29.26C30.08 26.5807 30.74 25.9007 30.74 25.0807C30.74 24.2407 30.08 23.5807 29.26 23.5807Z" fill="url(#paint0_linear_9509_82770)"/>
<path d="M29.26 23.5807H10.74C9.9 23.5807 9.24 24.2407 9.24 25.0807C9.24 25.9007 9.9 26.5807 10.74 26.5807H29.26C30.08 26.5807 30.74 25.9007 30.74 25.0807C30.74 24.2407 30.08 23.5807 29.26 23.5807Z" fill="url(#paint1_linear_9509_82770)"/>
<path d="M24.9345 16.8539C22.7835 14.7101 19.2952 14.7101 17.1587 16.8539C15.6544 18.3437 15.2038 20.4875 15.7852 22.377L12.3696 25.7925C12.1298 26.0396 11.9627 26.5265 12.0135 26.8753L12.2316 28.4596C12.3115 28.9828 12.7984 29.477 13.3216 29.5497L14.9059 29.7677C15.2547 29.8185 15.7416 29.6587 15.9887 29.4043L16.5846 28.8084C16.7299 28.6703 16.7299 28.4378 16.5846 28.2924L15.1748 26.8826C14.964 26.6719 14.964 26.323 15.1748 26.1123C15.3855 25.9015 15.7343 25.9015 15.9451 26.1123L17.3622 27.5294C17.5002 27.6675 17.7328 27.6675 17.8709 27.5294L19.4115 25.996C21.2937 26.5847 23.4375 26.1268 24.9345 24.6371C27.0783 22.4933 27.0783 18.9978 24.9345 16.8539ZM21.0902 22.5078C20.0873 22.5078 19.2734 21.6939 19.2734 20.691C19.2734 19.6881 20.0873 18.8742 21.0902 18.8742C22.0931 18.8742 22.907 19.6881 22.907 20.691C22.907 21.6939 22.0931 22.5078 21.0902 22.5078Z" fill="white"/>
<defs>
<linearGradient id="paint0_linear_9509_82770" x1="0" y1="0" x2="40.0007" y2="40.0002" gradientUnits="userSpaceOnUse">
<stop stop-color="#FF9D6C"/>
<stop offset="1" stop-color="#E94A83"/>
</linearGradient>
<linearGradient id="paint1_linear_9509_82770" x1="0" y1="0" x2="40.0007" y2="40.0002" gradientUnits="userSpaceOnUse">
<stop stop-color="#FF9D6C"/>
<stop offset="1" stop-color="#E94A83"/>
</linearGradient>
</defs>
</svg>
