<svg width="21" height="21" viewBox="0 0 21 21" fill="none" xmlns="http://www.w3.org/2000/svg">
<g id="Link" clip-path="url(#clip0_16254_48094)">
<path id="Vector (Stroke)" fill-rule="evenodd" clip-rule="evenodd" d="M11.5831 2.83911C12.5261 1.92832 13.7892 1.42434 15.1001 1.43574C16.4111 1.44713 17.6652 1.97297 18.5922 2.90001C19.5193 3.82705 20.0451 5.08112 20.0565 6.3921C20.0679 7.70308 19.5639 8.9661 18.6531 9.90911L18.643 9.91944L16.1431 12.4193C15.6362 12.9264 15.0262 13.3185 14.3544 13.5691C13.6827 13.8197 12.9649 13.9229 12.2497 13.8717C11.5346 13.8204 10.8388 13.616 10.2096 13.2723C9.58045 12.9285 9.03254 12.4535 8.60309 11.8793C8.32742 11.5108 8.4027 10.9885 8.77125 10.7129C9.13979 10.4372 9.66203 10.5125 9.9377 10.881C10.224 11.2638 10.5893 11.5805 11.0087 11.8097C11.4282 12.0388 11.892 12.1751 12.3688 12.2093C12.8456 12.2434 13.3241 12.1746 13.7719 12.0076C14.2198 11.8405 14.6264 11.5791 14.9644 11.241L14.9645 11.2409L17.4591 8.74633C18.0633 8.11819 18.3975 7.27829 18.3899 6.40658C18.3823 5.53259 18.0317 4.69655 17.4137 4.07852C16.7957 3.4605 15.9596 3.10993 15.0857 3.10234C14.2136 3.09476 13.3733 3.42927 12.7451 4.03396L11.3163 5.45448C10.9899 5.77897 10.4622 5.77743 10.1378 5.45105C9.81327 5.12466 9.81481 4.59703 10.1412 4.27254L11.5745 2.84754L11.5831 2.83911Z" fill="#919EAB"/>
<path id="Vector (Stroke)_2" fill-rule="evenodd" clip-rule="evenodd" d="M7.51964 7.52431C8.1914 7.27373 8.90919 7.17054 9.62434 7.22176C10.3395 7.27298 11.0352 7.4774 11.6644 7.82115C12.2936 8.16491 12.8415 8.63996 13.271 9.21409C13.5467 9.58263 13.4714 10.1049 13.1028 10.3805C12.7343 10.6562 12.212 10.5809 11.9364 10.2124C11.6501 9.82964 11.2848 9.51293 10.8653 9.28376C10.4459 9.05459 9.98204 8.91831 9.50528 8.88417C9.02852 8.85002 8.54999 8.91881 8.10215 9.08587C7.65431 9.25293 7.24763 9.51434 6.90971 9.85239L4.41501 12.3471C3.81081 12.9752 3.4766 13.8151 3.48418 14.6868C3.49177 15.5608 3.84233 16.3969 4.46036 17.0149C5.07839 17.6329 5.91443 17.9835 6.78842 17.9911C7.66012 17.9987 8.50001 17.6644 9.12815 17.0603L10.5478 15.6407C10.8732 15.3152 11.4008 15.3152 11.7263 15.6407C12.0517 15.9661 12.0517 16.4937 11.7263 16.8192L10.3013 18.2442L10.2909 18.2543C9.34793 19.1651 8.08492 19.6691 6.77394 19.6577C5.46295 19.6463 4.20889 19.1204 3.28185 18.1934C2.35481 17.2664 1.82896 16.0123 1.81757 14.7013C1.80618 13.3903 2.31015 12.1273 3.22094 11.1843L3.23109 11.174L5.73099 8.67409C5.73095 8.67413 5.73102 8.67406 5.73099 8.67409C6.23785 8.16707 6.84793 7.77488 7.51964 7.52431Z" fill="#919EAB"/>
</g>
<defs>
<clipPath id="clip0_16254_48094">
<rect width="20" height="20" fill="white" transform="translate(0.937012 0.546875)"/>
</clipPath>
</defs>
</svg>
