<svg width="40" height="40" viewBox="0 0 40 40" fill="none" xmlns="http://www.w3.org/2000/svg">
<rect width="40" height="40" rx="10" fill="url(#paint0_linear_9509_80344)"/>
<path d="M21.2881 13.8109C19.1798 13.6749 17.6326 14.5618 17.1225 15.0223C15.9749 16.2337 16.825 17.6151 18.6314 17.3814C20.4379 17.1476 22.0532 17.7639 22.627 18.0402C23.2008 18.3165 26.1762 19.5067 26.0062 17.1051C25.8362 14.7036 23.9234 13.9809 21.2881 13.8109Z" fill="white"/>
<path d="M25.4434 14.4492C25.7896 14.4492 26.0703 14.1685 26.0703 13.8223C26.0703 13.476 25.7896 13.1953 25.4434 13.1953C25.0971 13.1953 24.8164 13.476 24.8164 13.8223C24.8164 14.1685 25.0971 14.4492 25.4434 14.4492Z" fill="white"/>
<path d="M26.6411 15.5938C26.9874 15.5938 27.2681 15.3131 27.2681 14.9668C27.2681 14.6205 26.9874 14.3398 26.6411 14.3398C26.2949 14.3398 26.0142 14.6205 26.0142 14.9668C26.0142 15.3131 26.2949 15.5938 26.6411 15.5938Z" fill="white"/>
<path d="M27.1499 17.4414C27.4962 17.4414 27.7769 17.1607 27.7769 16.8145C27.7769 16.4682 27.4962 16.1875 27.1499 16.1875C26.8036 16.1875 26.5229 16.4682 26.5229 16.8145C26.5229 17.1607 26.8036 17.4414 27.1499 17.4414Z" fill="white"/>
<path d="M27.1499 19.207C27.4962 19.207 27.7769 18.9263 27.7769 18.5801C27.7769 18.2338 27.4962 17.9531 27.1499 17.9531C26.8036 17.9531 26.5229 18.2338 26.5229 18.5801C26.5229 18.9263 26.8036 19.207 27.1499 19.207Z" fill="white"/>
<path d="M8.18766 18.1203C6.54154 18.0142 5.3335 18.7067 4.93525 19.0662C4.03917 20.012 4.70293 21.0906 6.11341 20.9081C7.5239 20.7256 8.78504 21.2068 9.23307 21.4226C9.68111 21.6382 12.0043 22.5675 11.8715 20.6924C11.7388 18.8173 10.2453 18.2531 8.18766 18.1203Z" fill="#DDDDDD"/>
<path d="M11.4319 18.6197C11.7023 18.6197 11.9214 18.4005 11.9214 18.1301C11.9214 17.8598 11.7023 17.6406 11.4319 17.6406C11.1615 17.6406 10.9424 17.8598 10.9424 18.1301C10.9424 18.4005 11.1615 18.6197 11.4319 18.6197Z" fill="#DDDDDD"/>
<path d="M12.367 19.5142C12.6373 19.5142 12.8565 19.295 12.8565 19.0247C12.8565 18.7543 12.6373 18.5352 12.367 18.5352C12.0966 18.5352 11.8774 18.7543 11.8774 19.0247C11.8774 19.295 12.0966 19.5142 12.367 19.5142Z" fill="#DDDDDD"/>
<path d="M12.7644 20.9556C13.0348 20.9556 13.2539 20.7364 13.2539 20.4661C13.2539 20.1957 13.0348 19.9766 12.7644 19.9766C12.4941 19.9766 12.2749 20.1957 12.2749 20.4661C12.2749 20.7364 12.4941 20.9556 12.7644 20.9556Z" fill="#DDDDDD"/>
<path d="M12.7644 22.3306C13.0348 22.3306 13.2539 22.1114 13.2539 21.8411C13.2539 21.5707 13.0348 21.3516 12.7644 21.3516C12.4941 21.3516 12.2749 21.5707 12.2749 21.8411C12.2749 22.1114 12.4941 22.3306 12.7644 22.3306Z" fill="#DDDDDD"/>
<path d="M14.9225 29.2698C13.2764 29.376 12.0684 28.6835 11.6701 28.3239C10.774 27.3781 11.4378 26.2995 12.8483 26.482C14.2587 26.6646 15.5199 26.1833 15.9679 25.9676C16.416 25.7519 18.7391 24.8226 18.6064 26.6977C18.4736 28.5728 16.9802 29.137 14.9225 29.2698Z" fill="#DDDDDD"/>
<path d="M18.1668 28.7749C18.4371 28.7749 18.6563 28.994 18.6563 29.2644C18.6563 29.5347 18.4371 29.7539 18.1668 29.7539C17.8964 29.7539 17.6772 29.5347 17.6772 29.2644C17.6772 28.994 17.8964 28.7749 18.1668 28.7749Z" fill="#DDDDDD"/>
<path d="M19.1004 27.8764C19.3707 27.8764 19.5899 28.0956 19.5899 28.3659C19.5899 28.6363 19.3707 28.8555 19.1004 28.8555C18.83 28.8555 18.6108 28.6363 18.6108 28.3659C18.6108 28.0956 18.83 27.8764 19.1004 27.8764Z" fill="#DDDDDD"/>
<path d="M19.4993 26.4389C19.7696 26.4389 19.9888 26.6581 19.9888 26.9284C19.9888 27.1988 19.7696 27.418 19.4993 27.418C19.2289 27.418 19.0098 27.1988 19.0098 26.9284C19.0098 26.6581 19.2289 26.4389 19.4993 26.4389Z" fill="#DDDDDD"/>
<path d="M19.4993 25.06C19.7696 25.06 19.9888 25.2792 19.9888 25.5495C19.9888 25.8199 19.7696 26.0391 19.4993 26.0391C19.2289 26.0391 19.0098 25.8199 19.0098 25.5495C19.0098 25.2792 19.2289 25.06 19.4993 25.06Z" fill="#DDDDDD"/>
<path fill-rule="evenodd" clip-rule="evenodd" d="M22.4555 23.5665C26.235 23.5665 29.2989 20.5026 29.2989 16.7231C29.2989 12.9436 26.235 9.87971 22.4555 9.87971C18.676 9.87971 15.6121 12.9436 15.6121 16.7231C15.6121 20.5026 18.676 23.5665 22.4555 23.5665ZM28.657 22.0936C29.9043 20.6546 30.6591 18.777 30.6591 16.7231C30.6591 12.1924 26.9863 8.51953 22.4555 8.51953C17.9248 8.51953 14.252 12.1924 14.252 16.7231C14.252 21.2538 17.9248 24.9267 22.4555 24.9267C24.3161 24.9267 26.0321 24.3073 27.4084 23.2634L27.8482 23.8048C27.7558 24.1021 27.8091 24.4388 28.0203 24.6986L33.2452 31.1278C33.5805 31.5405 34.1869 31.6031 34.5996 31.2678L35.1172 30.8471C35.5299 30.5117 35.5926 29.9053 35.2572 29.4926L30.0324 23.0635C29.8144 22.7952 29.4818 22.6748 29.1624 22.7156L28.657 22.0936Z" fill="#016EC0"/>
<defs>
<linearGradient id="paint0_linear_9509_80344" x1="0" y1="0" x2="40" y2="40" gradientUnits="userSpaceOnUse">
<stop stop-color="#F5CBFF"/>
<stop offset="1" stop-color="#C80FC6"/>
</linearGradient>
</defs>
</svg>
