<svg width="33" height="32" viewBox="0 0 33 32" fill="none" xmlns="http://www.w3.org/2000/svg">
<path d="M29.1475 12.6545L16.8161 2.51806C16.4471 2.21474 15.9151 2.21474 15.5461 2.51806L3.21461 12.6545C2.98352 12.8444 2.84961 13.1278 2.84961 13.427V27.7602C2.84961 28.3214 3.31136 28.7728 3.87244 28.76L28.5354 28.1968C29.0786 28.1844 29.5125 27.7405 29.5125 27.1971V13.427C29.5125 13.1278 29.3786 12.8444 29.1475 12.6545Z" fill="#E59F23" stroke="#D38B18"/>
<rect x="6.18262" y="5.31641" width="20" height="20.1188" rx="1" fill="#E4EAF8"/>
<path d="M6.18262 6.31641C6.18262 5.76412 6.63033 5.31641 7.18262 5.31641H7.88708V25.4352H6.18262V6.31641Z" fill="#D8DCE5"/>
<path d="M9.27246 9.87891C9.27246 9.60276 9.49632 9.37891 9.77246 9.37891H23.2878C23.564 9.37891 23.7878 9.60276 23.7878 9.87891C23.7878 10.155 23.564 10.3789 23.2878 10.3789H9.77246C9.49632 10.3789 9.27246 10.155 9.27246 9.87891Z" fill="#C3C8D1"/>
<path d="M9.27246 12.8789C9.27246 12.6028 9.49632 12.3789 9.77246 12.3789H23.2878C23.564 12.3789 23.7878 12.6028 23.7878 12.8789C23.7878 13.155 23.564 13.3789 23.2878 13.3789H9.77246C9.49632 13.3789 9.27246 13.155 9.27246 12.8789Z" fill="#C3C8D1"/>
<path d="M9.27246 15.8789C9.27246 15.6028 9.49632 15.3789 9.77246 15.3789H24.7611C25.0373 15.3789 25.2611 15.6028 25.2611 15.8789C25.2611 16.155 25.0373 16.3789 24.7611 16.3789H9.77246C9.49632 16.3789 9.27246 16.155 9.27246 15.8789Z" fill="#C3C8D1"/>
<path d="M9.27246 18.8789C9.27246 18.6028 9.49632 18.3789 9.77246 18.3789H23.2878C23.564 18.3789 23.7878 18.6028 23.7878 18.8789C23.7878 19.155 23.564 19.3789 23.2878 19.3789H9.77246C9.49632 19.3789 9.27246 19.155 9.27246 18.8789Z" fill="#C3C8D1"/>
<path d="M28.9549 29.334C28.3891 29.7501 27.6708 30.0006 26.8882 30.0006C24.3133 30.0006 7.02165 30.0006 5.47575 30.0006C4.69129 30.0006 3.97012 29.7492 3.40527 29.3314C15.0878 20.1557 13.5735 21.3452 14.6773 20.4798C15.5423 19.8019 16.8188 19.8054 17.6799 20.4798C18.8125 21.3679 17.2781 20.1636 28.9549 29.334Z" fill="#FFC850"/>
<path d="M30.1828 14.2729V26.9915C30.1828 27.8806 29.7532 28.7398 28.9687 29.3249C28.9639 29.3275 28.9591 29.3319 28.9553 29.3345L18.5156 21.1354C19.4276 20.3498 20.3914 19.5098 29.054 12C29.1691 12.1051 29.2161 12.1384 29.3283 12.2505V12.2514C29.5614 12.4852 29.7522 12.755 29.8749 13.0011C29.9737 13.1938 30.0284 13.3532 30.0811 13.5363C30.1483 13.7719 30.1828 14.0189 30.1828 14.2729Z" fill="#F9B428"/>
<path d="M13.8421 21.1349L3.40534 29.3323C3.40054 29.3288 3.39575 29.3253 3.39191 29.3218C2.65348 28.77 2.18262 27.9309 2.18262 26.9919V14.2733C2.18262 13.6287 2.4051 13.0322 2.78199 12.5426C2.86063 12.4401 3.16943 12.1265 3.23081 12.074L3.30752 12.0039C11.4724 19.081 13.821 21.1166 13.8421 21.1349Z" fill="#F9B428"/>
<circle cx="22.9787" cy="10.1174" r="5.76581" fill="#4884FA"/>
<path fill-rule="evenodd" clip-rule="evenodd" d="M23.5255 4.37715C20.5975 4.65256 18.3064 7.1174 18.3064 10.1174C18.3064 13.1173 20.5975 15.5822 23.5255 15.8576C23.3455 15.8745 23.1631 15.8832 22.9787 15.8832C19.7943 15.8832 17.2129 13.3017 17.2129 10.1174C17.2129 6.933 19.7943 4.35156 22.9787 4.35156C23.1631 4.35156 23.3455 4.36022 23.5255 4.37715Z" fill="#2666E5"/>
<path fill-rule="evenodd" clip-rule="evenodd" d="M23.3233 7.05063C23.5752 6.98098 23.8563 7.04513 24.0543 7.24311C24.3471 7.536 24.3471 8.01087 24.0543 8.30377L22.9894 9.36865H22.5881L23.653 8.30377C23.9459 8.01087 23.9459 7.536 23.653 7.24311C23.5581 7.14819 23.4441 7.08403 23.3233 7.05063ZM23.3233 13.1867C23.4441 13.1533 23.5581 13.0891 23.653 12.9942C23.9459 12.7013 23.9459 12.2264 23.653 11.9335L22.5881 10.8687H22.9894L24.0543 11.9335C24.3471 12.2264 24.3471 12.7013 24.0543 12.9942C23.8563 13.1922 23.5752 13.2563 23.3233 13.1867ZM25.4679 10.8687C25.8821 10.8687 26.2179 10.5329 26.2179 10.1187C26.2179 9.70444 25.8821 9.36865 25.4679 9.36865H25.8691C26.2834 9.36865 26.6191 9.70444 26.6191 10.1187C26.6191 10.5329 26.2834 10.8687 25.8691 10.8687H25.4679Z" fill="#D8DCE5"/>
<path d="M25.5273 10.1177H20.9014M20.9014 10.1177L23.2144 7.80469M20.9014 10.1177L23.2144 12.4307" stroke="#E4EAF8" stroke-width="1.5" stroke-linecap="round" stroke-linejoin="round"/>
</svg>
