<svg width="48" height="48" viewBox="0 0 48 48" fill="none" xmlns="http://www.w3.org/2000/svg">
<rect width="47.9167" height="47.9167" rx="6" fill="#D80808"/>
<path d="M21.2221 24.4167L8.82821 13.7168C8.31989 14.2018 8 14.8915 8 15.6593V32.3451C8 33.1512 8.35168 33.8717 8.90499 34.359L22.0809 24.9903C21.7789 24.8365 21.4896 24.6475 21.2221 24.4167Z" fill="white"/>
<path d="M40.0006 32.3451V15.6593C40.0006 14.8915 39.6807 14.2018 39.1724 13.7168L26.7785 24.4167C26.511 24.6477 26.2217 24.8365 25.9199 24.9903L39.0958 34.359C39.6489 33.8717 40.0006 33.151 40.0006 32.3451Z" fill="white"/>
<path d="M24.2891 23.2156L23.9993 23.0095L23.7096 23.2156L21.7904 24.5802L8.61455 33.9489L8.1003 34.3146L8.57383 34.7316C9.11394 35.2073 9.81945 35.4999 10.5944 35.4999H37.404C38.179 35.4999 38.8845 35.2073 39.4246 34.7316L39.8981 34.3146L39.3839 33.9489L26.2082 24.5802L24.2891 23.2156Z" fill="white" stroke="#D80808"/>
<path d="M39.498 14.0934L39.9149 13.7335L39.5165 13.3533C38.9659 12.8279 38.2246 12.5 37.4044 12.5H10.595C9.77489 12.5 9.03329 12.8278 8.48286 13.3533L8.08456 13.7336L8.50138 14.0934L20.8953 24.7934C20.8953 24.7934 20.8953 24.7934 20.8953 24.7934C22.6876 26.3408 25.3118 26.3408 27.1041 24.7934L39.498 14.0934Z" fill="white" stroke="#D80808"/>
</svg>
