<svg width="24" height="24" viewBox="0 0 24 24" fill="none" xmlns="http://www.w3.org/2000/svg">
<path d="M5 9L9.5 12L14 9" stroke="#096DD9" stroke-width="1.5" stroke-linecap="round" stroke-linejoin="round"/>
<path d="M13 19H3C2.46957 19 1.96086 18.7893 1.58579 18.4142C1.21071 18.0391 1 17.5304 1 17V7C1 6.46957 1.21071 5.96086 1.58579 5.58579C1.96086 5.21071 2.46957 5 3 5H16C16.5304 5 17.0391 5.21071 17.4142 5.58579C17.7893 5.96086 18 6.46957 18 7V8.5" stroke="#096DD9" stroke-width="1.5" stroke-linecap="round"/>
<path d="M18 19C20.2091 19 22 17.2091 22 15C22 12.7909 20.2091 11 18 11C15.7909 11 14 12.7909 14 15C14 17.2091 15.7909 19 18 19Z" stroke="#096DD9" stroke-width="1.5" stroke-linecap="round" stroke-linejoin="round"/>
<path d="M18 12.8008V15.2008L19.6 16.0008" stroke="#096DD9" stroke-linecap="round" stroke-linejoin="round"/>
</svg>
