<svg width="33" height="32" viewBox="0 0 33 32" fill="none" xmlns="http://www.w3.org/2000/svg">
<path d="M29.1475 12.6584L16.8161 2.52197C16.4471 2.21865 15.9151 2.21865 15.5461 2.52197L3.21461 12.6584C2.98352 12.8483 2.84961 13.1318 2.84961 13.4309V27.7641C2.84961 28.3253 3.31136 28.7767 3.87244 28.7639L28.5354 28.2007C29.0786 28.1883 29.5125 27.7444 29.5125 27.201V13.4309C29.5125 13.1318 29.3786 12.8483 29.1475 12.6584Z" fill="#E59F23" stroke="#D38B18"/>
<rect x="6.18262" y="5.32031" width="20" height="20.1188" rx="1" fill="#E4EAF8"/>
<path d="M6.18262 6.32031C6.18262 5.76803 6.63033 5.32031 7.18262 5.32031H7.88708V25.4391H6.18262V6.32031Z" fill="#D8DCE5"/>
<path d="M9.27246 9.88281C9.27246 9.60667 9.49632 9.38281 9.77246 9.38281H23.2878C23.564 9.38281 23.7878 9.60667 23.7878 9.88281C23.7878 10.159 23.564 10.3828 23.2878 10.3828H9.77246C9.49632 10.3828 9.27246 10.159 9.27246 9.88281Z" fill="#C3C8D1"/>
<path d="M9.27246 12.8828C9.27246 12.6067 9.49632 12.3828 9.77246 12.3828H23.2878C23.564 12.3828 23.7878 12.6067 23.7878 12.8828C23.7878 13.159 23.564 13.3828 23.2878 13.3828H9.77246C9.49632 13.3828 9.27246 13.159 9.27246 12.8828Z" fill="#C3C8D1"/>
<path d="M9.27246 15.8828C9.27246 15.6067 9.49632 15.3828 9.77246 15.3828H24.7611C25.0373 15.3828 25.2611 15.6067 25.2611 15.8828C25.2611 16.159 25.0373 16.3828 24.7611 16.3828H9.77246C9.49632 16.3828 9.27246 16.159 9.27246 15.8828Z" fill="#C3C8D1"/>
<path d="M9.27246 18.8828C9.27246 18.6067 9.49632 18.3828 9.77246 18.3828H23.2878C23.564 18.3828 23.7878 18.6067 23.7878 18.8828C23.7878 19.159 23.564 19.3828 23.2878 19.3828H9.77246C9.49632 19.3828 9.27246 19.159 9.27246 18.8828Z" fill="#C3C8D1"/>
<path d="M28.9549 29.338C28.3891 29.754 27.6708 30.0045 26.8882 30.0045C24.3133 30.0045 7.02165 30.0045 5.47575 30.0045C4.69129 30.0045 3.97012 29.7531 3.40527 29.3353C15.0878 20.1596 13.5735 21.3491 14.6773 20.4837C15.5423 19.8058 16.8188 19.8093 17.6799 20.4837C18.8125 21.3718 17.2781 20.1675 28.9549 29.338Z" fill="#FFC850"/>
<path d="M30.1828 14.2768V26.9955C30.1828 27.8845 29.7532 28.7437 28.9687 29.3288C28.9639 29.3314 28.9591 29.3358 28.9553 29.3384L18.5156 21.1393C19.4276 20.3537 20.3914 19.5137 29.054 12.0039C29.1691 12.109 29.2161 12.1423 29.3283 12.2544V12.2553C29.5614 12.4891 29.7522 12.7589 29.8749 13.005C29.9737 13.1977 30.0284 13.3571 30.0811 13.5402C30.1483 13.7758 30.1828 14.0228 30.1828 14.2768Z" fill="#F9B428"/>
<path d="M13.8421 21.1389L3.40534 29.3362C3.40054 29.3327 3.39575 29.3292 3.39191 29.3257C2.65348 28.7739 2.18262 27.9348 2.18262 26.9959V14.2772C2.18262 13.6326 2.4051 13.0361 2.78199 12.5465C2.86063 12.444 3.16943 12.1304 3.23081 12.0779L3.30752 12.0078C11.4724 19.0849 13.821 21.1205 13.8421 21.1389Z" fill="#F9B428"/>
<circle cx="23.1037" cy="8.12128" r="5.76581" fill="#7CE854"/>
<path fill-rule="evenodd" clip-rule="evenodd" d="M23.6505 2.38105C20.7225 2.65646 18.4314 5.12131 18.4314 8.12128C18.4314 11.1212 20.7225 13.5861 23.6505 13.8615C23.4705 13.8784 23.2881 13.8871 23.1037 13.8871C19.9193 13.8871 17.3379 11.3056 17.3379 8.12128C17.3379 4.93691 19.9193 2.35547 23.1037 2.35547C23.2881 2.35547 23.4705 2.36413 23.6505 2.38105Z" fill="#5EC62E"/>
<path fill-rule="evenodd" clip-rule="evenodd" d="M23.3046 5.05063C23.0528 4.98098 22.7716 5.04513 22.5737 5.24311C22.2808 5.536 22.2808 6.01087 22.5737 6.30377L23.6386 7.36865H24.0398L22.9749 6.30377C22.682 6.01087 22.682 5.536 22.9749 5.24311C23.0698 5.14819 23.1839 5.08403 23.3046 5.05063ZM23.3046 11.1867C23.1839 11.1533 23.0698 11.0891 22.9749 10.9942C22.682 10.7013 22.682 10.2264 22.9749 9.93354L24.0398 8.86865H23.6386L22.5737 9.93354C22.2808 10.2264 22.2808 10.7013 22.5737 10.9942C22.7716 11.1922 23.0528 11.2563 23.3046 11.1867ZM21.16 8.86865C20.7458 8.86865 20.41 8.53287 20.41 8.11865C20.41 7.70444 20.7458 7.36865 21.16 7.36865H20.7588C20.3446 7.36865 20.0088 7.70444 20.0088 8.11865C20.0088 8.53287 20.3446 8.86865 20.7588 8.86865H21.16Z" fill="#D8DCE5"/>
<path d="M20.9824 8.12158H25.6084M25.6084 8.12158L23.2954 5.80859M25.6084 8.12158L23.2954 10.4346" stroke="#E4EAF8" stroke-width="1.5" stroke-linecap="round" stroke-linejoin="round"/>
</svg>
