<svg width="24" height="24" viewBox="0 0 24 24" fill="none" xmlns="http://www.w3.org/2000/svg">
<path d="M5 9L9.5 12L14 9" stroke="#9B9B9B" stroke-width="1.5" stroke-linecap="round" stroke-linejoin="round"/>
<path d="M12.5 19H3C2.46957 19 1.96086 18.7893 1.58579 18.4142C1.21071 18.0391 1 17.5304 1 17V7C1 6.46957 1.21071 5.96086 1.58579 5.58579C1.96086 5.21071 2.46957 5 3 5H16C16.5304 5 17.0391 5.21071 17.4142 5.58579C17.7893 5.96086 18 6.46957 18 7V11" stroke="#9B9B9B" stroke-width="1.5" stroke-linecap="round"/>
<path d="M20.117 12.3231C20.3239 12.1162 20.6044 12 20.897 12C21.0418 12 21.1853 12.0285 21.3191 12.084C21.4529 12.1394 21.5745 12.2207 21.6769 12.3231C21.7794 12.4255 21.8606 12.5471 21.916 12.681C21.9715 12.8148 22 12.9582 22 13.1031C22 13.248 21.9715 13.3914 21.916 13.5252C21.8606 13.6591 21.7794 13.7807 21.6769 13.8831L17.0799 18.48L15 19L15.52 16.92L20.117 12.3231Z" stroke="#9B9B9B" stroke-width="1.5" stroke-linecap="round" stroke-linejoin="round"/>
<path d="M19.5 13C19.5 13.3333 19.8 14.1 21 14.5" stroke="#9B9B9B"/>
</svg>
