<svg width="20" height="18" viewBox="0 0 20 18" fill="none" xmlns="http://www.w3.org/2000/svg">
<path d="M18.6121 17.9529C9.05861 17.9664 1.80751 10.629 1.81759 1.15838C1.81759 0.539093 2.31929 0.0351562 2.93745 0.0351562H5.89388C6.44821 0.0351562 6.91967 0.442785 7.00142 0.991517C7.19639 2.30741 7.57918 3.58852 8.13808 4.79568L8.25343 5.04429C8.33091 5.21159 8.34758 5.40068 8.30056 5.57895C8.25353 5.75722 8.14577 5.91349 7.99586 6.02081C7.07981 6.67481 6.73042 7.99064 7.44377 9.01643C8.33854 10.3043 9.46624 11.4331 10.7541 12.3279C11.781 13.0401 13.0968 12.6907 13.7497 11.7758C13.8569 11.6254 14.0133 11.5172 14.1918 11.47C14.3704 11.4228 14.5598 11.4394 14.7273 11.5171L14.9748 11.6313C16.182 12.1912 17.4632 12.5742 18.779 12.7691C19.3277 12.8508 19.7354 13.3223 19.7354 13.8777V16.8331C19.7354 16.9802 19.7063 17.1259 19.65 17.2619C19.5937 17.3978 19.5111 17.5213 19.407 17.6253C19.3028 17.7293 19.1793 17.8118 19.0433 17.868C18.9073 17.9242 18.7615 17.9531 18.6144 17.9529H18.6121Z" fill="white"/>
</svg>
