<svg width="48" height="48" viewBox="0 0 48 48" fill="none" xmlns="http://www.w3.org/2000/svg">
<rect width="48" height="48" rx="5" fill="#1877F2"/>
<path d="M24.9441 8.01032C24.6295 8.00077 24.3147 8.00077 24.0002 8.01032C15.4775 7.70161 8.31963 14.3589 8.01085 22.878C8.00285 23.094 7.99965 23.3099 8.00125 23.5258C7.97352 25.6861 8.40731 27.8273 9.27365 29.8065C10.14 31.7857 11.4189 33.5571 13.0249 35.0025C13.2873 35.2361 13.4425 35.564 13.4569 35.9143L13.5449 38.7599C13.5516 38.9692 13.6095 39.1736 13.7136 39.3554C13.8177 39.5371 13.9647 39.6906 14.1418 39.8023C14.319 39.9141 14.5208 39.9807 14.7297 39.9964C14.9386 40.0121 15.1481 39.9764 15.34 39.8923L18.5141 38.4927C18.783 38.3737 19.0848 38.3511 19.3685 38.4288C20.8772 38.8398 22.4355 39.0462 24.0002 39.043C32.5708 39.3037 39.7319 32.568 39.9927 23.9993C40.2535 15.429 33.5163 8.27104 24.9457 8.01032H24.9441ZM33.6059 19.9509L28.9086 27.4015C28.7317 27.6817 28.4986 27.9223 28.2241 28.108C27.9496 28.2938 27.6396 28.4207 27.3136 28.4808C26.9876 28.5409 26.6528 28.5329 26.33 28.4572C26.0073 28.3816 25.7038 28.24 25.4385 28.0413L21.7011 25.239C21.5343 25.1141 21.3314 25.0468 21.123 25.0474C20.9146 25.048 20.7121 25.1163 20.546 25.2421L15.4951 29.0746C15.3532 29.1814 15.1784 29.2352 15.001 29.2265C14.8236 29.2178 14.6548 29.1473 14.524 29.0272C14.3932 28.907 14.3086 28.7449 14.2849 28.5689C14.2613 28.3929 14.3 28.2142 14.3944 28.0637L19.0949 20.6099C19.2719 20.3297 19.5049 20.0891 19.7794 19.9034C20.054 19.7176 20.3639 19.5907 20.6899 19.5306C21.0159 19.4705 21.3508 19.4785 21.6735 19.5542C21.9962 19.6298 22.2998 19.7714 22.5651 19.9701L26.3024 22.7725C26.469 22.8976 26.6719 22.9651 26.8802 22.9648C27.0886 22.9645 27.2913 22.8964 27.4575 22.7709L32.5052 18.94C32.6471 18.8332 32.8219 18.7794 32.9994 18.7881C33.1768 18.7968 33.3455 18.8673 33.4763 18.9874C33.6072 19.1076 33.6917 19.2697 33.7154 19.4457C33.7391 19.6217 33.7003 19.8005 33.6059 19.9509Z" fill="white"/>
</svg>
