<svg width="13" height="13" viewBox="0 0 13 13" fill="none" xmlns="http://www.w3.org/2000/svg">
<path d="M3.683 6.69781H8.81693C8.87831 6.69781 8.92853 6.64759 8.92853 6.58621V5.91656C8.92853 5.85518 8.87831 5.80496 8.81693 5.80496H3.683C3.62161 5.80496 3.57139 5.85518 3.57139 5.91656V6.58621C3.57139 6.64759 3.62161 6.69781 3.683 6.69781Z" fill="#2C2C2C"/>
<path d="M11.3842 0.671875H1.11635C0.86942 0.671875 0.669922 0.871373 0.669922 1.1183V11.3862C0.669922 11.6331 0.86942 11.8326 1.11635 11.8326H11.3842C11.6311 11.8326 11.8306 11.6331 11.8306 11.3862V1.1183C11.8306 0.871373 11.6311 0.671875 11.3842 0.671875ZM10.8262 10.8281H1.67439V1.67634H10.8262V10.8281Z" fill="#2C2C2C"/>
</svg>
