<svg width="18" height="18" viewBox="0 0 18 18" fill="none" xmlns="http://www.w3.org/2000/svg">
<rect width="18" height="18" rx="5" fill="#0BB865"/>
<path d="M13.3939 13.6877C8.39462 13.6947 4.6002 9.85518 4.60547 4.89929C4.60547 4.57523 4.86801 4.31152 5.19148 4.31152H6.73855C7.02863 4.31152 7.27534 4.52483 7.31812 4.81198C7.42014 5.50057 7.62045 6.17096 7.91292 6.80265L7.97327 6.93275C8.01382 7.02029 8.02254 7.11924 7.99794 7.21253C7.97333 7.30581 7.91694 7.38759 7.83849 7.44375C7.35914 7.78598 7.1763 8.47454 7.54959 9.01133C8.01781 9.68524 8.60792 10.2759 9.28184 10.7442C9.81921 11.1169 10.5078 10.934 10.8494 10.4553C10.9055 10.3766 10.9874 10.32 11.0808 10.2952C11.1742 10.2705 11.2733 10.2792 11.361 10.3199L11.4905 10.3797C12.1222 10.6727 12.7926 10.8731 13.4812 10.975C13.7683 11.0178 13.9816 11.2645 13.9816 11.5552V13.1017C13.9816 13.1787 13.9665 13.2549 13.937 13.3261C13.9075 13.3972 13.8643 13.4618 13.8098 13.5163C13.7553 13.5707 13.6906 13.6138 13.6195 13.6432C13.5483 13.6727 13.472 13.6878 13.395 13.6877H13.3939Z" fill="white"/>
</svg>
