<svg width="18" height="18" viewBox="0 0 18 18" fill="none" xmlns="http://www.w3.org/2000/svg">
<rect width="18" height="18" rx="5" fill="#CF1322"/>
<path d="M15.2144 8.89005C11.6844 5.35008 6.28635 5.38198 2.78574 8.89005C2.55659 9.1192 2.55576 9.49131 2.78449 9.72004L3.87843 10.814C4.08355 11.0191 4.40883 11.0427 4.64212 10.8699C5.20117 10.4552 5.81685 10.1228 6.47033 9.88289L6.605 9.83358C6.69557 9.80034 6.77171 9.73654 6.82027 9.65318C6.86884 9.56982 6.88679 9.47212 6.87103 9.37694C6.77406 8.79599 7.13167 8.17982 7.77519 8.06421C8.5828 7.91877 9.41776 7.91835 10.2254 8.0638C10.8689 8.18023 11.2265 8.79641 11.1295 9.37653C11.1136 9.47183 11.1314 9.56973 11.18 9.65327C11.2286 9.73681 11.3048 9.80073 11.3956 9.83399L11.5294 9.8833C12.1833 10.1228 12.799 10.4551 13.358 10.8699C13.5913 11.0427 13.9166 11.0191 14.1221 10.8136L15.2156 9.72004C15.2701 9.66559 15.3133 9.60094 15.3427 9.52979C15.3722 9.45864 15.3873 9.38238 15.3873 9.30538C15.3872 9.22837 15.372 9.15213 15.3425 9.08101C15.313 9.00988 15.2697 8.94528 15.2152 8.89088L15.2144 8.89005Z" fill="white"/>
<rect x="0.0631128" y="0.347875" width="9.03301" height="1.42857" transform="matrix(-0.569524 0.821975 0.821975 0.569524 11.4401 3.77463)" fill="white" stroke="#CF1322" stroke-width="0.5"/>
</svg>
