<svg width="6" height="8" viewBox="0 0 6 8" fill="none" xmlns="http://www.w3.org/2000/svg">
<path d="M1.55847 7.99897C1.42525 7.99923 1.29615 7.95283 1.19357 7.86783C1.07697 7.77116 1.00362 7.63207 0.989714 7.48124C0.975809 7.33042 1.02249 7.18026 1.11945 7.0639L3.67378 4.00782L1.21067 0.94604C1.11502 0.828247 1.07026 0.677184 1.08631 0.526295C1.10236 0.375406 1.1779 0.23714 1.2962 0.142109C1.41546 0.0371761 1.57309 -0.013247 1.7311 0.00298786C1.88912 0.0192227 2.03321 0.100643 2.12864 0.227633L4.88253 3.64862C5.05547 3.85901 5.05547 4.16233 4.88253 4.37272L2.03171 7.79371C1.9157 7.93365 1.73992 8.0099 1.55847 7.99897Z" fill="white"/>
</svg>
