<svg width="15" height="14" viewBox="0 0 15 14" fill="none" xmlns="http://www.w3.org/2000/svg">
<path d="M10.2092 4.52905C10.2092 4.4603 10.1529 4.40405 10.0842 4.40405L9.05291 4.40874L7.49978 6.2603L5.94822 4.4103L4.91541 4.40562C4.84666 4.40562 4.79041 4.4603 4.79041 4.53062C4.79041 4.5603 4.80134 4.58843 4.82009 4.61187L6.85291 7.03374L4.82009 9.45405C4.80121 9.47695 4.79074 9.50562 4.79041 9.5353C4.79041 9.60405 4.84666 9.6603 4.91541 9.6603L5.94822 9.65561L7.49978 7.80405L9.05134 9.65405L10.0826 9.65874C10.1513 9.65874 10.2076 9.60405 10.2076 9.53374C10.2076 9.50405 10.1967 9.47593 10.1779 9.45249L8.14822 7.03218L10.181 4.6103C10.1998 4.58843 10.2092 4.55874 10.2092 4.52905Z" fill="white"/>
<path d="M7.5 0C3.63437 0 0.5 3.13437 0.5 7C0.5 10.8656 3.63437 14 7.5 14C11.3656 14 14.5 10.8656 14.5 7C14.5 3.13437 11.3656 0 7.5 0ZM7.5 12.8125C4.29063 12.8125 1.6875 10.2094 1.6875 7C1.6875 3.79063 4.29063 1.1875 7.5 1.1875C10.7094 1.1875 13.3125 3.79063 13.3125 7C13.3125 10.2094 10.7094 12.8125 7.5 12.8125Z" fill="white"/>
</svg>
