<svg width="38" height="38" viewBox="0 0 38 38" fill="none" xmlns="http://www.w3.org/2000/svg">
<path fill-rule="evenodd" clip-rule="evenodd" d="M7 0C3.13401 0 0 3.13401 0 7V31C0 34.866 3.13401 38 7 38H8.5C9.05229 38 9.5 37.5523 9.5 37V1C9.5 0.447715 9.05228 0 8.5 0H7ZM13.6656 0C13.1134 0 12.6656 0.447715 12.6656 0.999999V14.8333C12.6656 15.3856 13.1134 15.8333 13.6656 15.8333H36.999C37.5513 15.8333 37.999 15.3856 37.999 14.8333V7C37.999 3.13401 34.865 0 30.999 0H13.6656ZM12.6656 20C12.6656 19.4477 13.1134 19 13.6656 19H22.749C23.3013 19 23.749 19.4477 23.749 20V37C23.749 37.5523 23.3013 38 22.749 38H13.6656C13.1133 38 12.6656 37.5523 12.6656 37V20ZM27.5997 19C27.0474 19 26.5997 19.4477 26.5997 20V37C26.5997 37.5523 27.0474 38 27.5997 38H30.9997C34.8657 38 37.9997 34.866 37.9997 31V20C37.9997 19.4477 37.552 19 36.9997 19H27.5997Z" fill="url(#paint0_linear_9509_81204)"/>
<rect x="15.936" y="3.67969" width="7.35484" height="2.45161" rx="1.22581" fill="white"/>
<rect x="15.936" y="8.58594" width="18.3871" height="2.45161" rx="1.22581" fill="white"/>
<defs>
<linearGradient id="paint0_linear_9509_81204" x1="18.9999" y1="0" x2="18.9999" y2="38" gradientUnits="userSpaceOnUse">
<stop stop-color="#E8807A"/>
<stop offset="1" stop-color="#D1665F"/>
</linearGradient>
</defs>
</svg>
