<svg width="50" height="50" viewBox="0 0 50 50" fill="none" xmlns="http://www.w3.org/2000/svg">
<rect x="5" y="5" width="40" height="40" rx="10" fill="url(#paint0_linear_12903_424817)"/>
<path fill-rule="evenodd" clip-rule="evenodd" d="M12.4585 21.4987C12.4585 21.977 12.8552 22.3737 13.3335 22.3737C13.8118 22.3737 14.2085 21.977 14.2085 21.4987C14.2085 18.0454 16.6118 15.152 19.8435 14.3937L19.5285 14.9187C19.2718 15.3387 19.4118 15.8754 19.8202 16.1204C20.2402 16.377 20.7768 16.237 21.0218 15.8287L22.2468 13.7754C22.4102 13.507 22.4102 13.1687 22.2585 12.9004C22.1068 12.632 21.8152 12.457 21.5002 12.457C16.5185 12.457 12.4585 16.517 12.4585 21.4987ZM27.7418 37.0979C27.8935 37.3663 28.1852 37.5413 28.5002 37.5413C33.4818 37.5413 37.5418 33.4813 37.5535 28.4996C37.5535 28.0213 37.1568 27.6246 36.6785 27.6246C36.2002 27.6246 35.8035 28.0213 35.8035 28.4996C35.8035 31.9529 33.3885 34.8463 30.1685 35.6046L30.4835 35.0796C30.7285 34.6596 30.6002 34.1229 30.1802 33.8779C29.7602 33.6329 29.2235 33.7613 28.9785 34.1813L27.7535 36.2229C27.5902 36.4913 27.5902 36.8296 27.7418 37.0979ZM23.4482 27.1589L19.7849 25.1872C19.3999 24.9772 18.9332 24.9772 18.5482 25.1872L14.8849 27.1589C14.6166 27.2989 14.4532 27.5905 14.4532 27.9055C14.4532 28.2205 14.6166 28.5122 14.8849 28.6522L18.5482 30.6239C18.7466 30.7289 18.9566 30.7755 19.1666 30.7755C19.3766 30.7755 19.5866 30.7289 19.7849 30.6239L23.4482 28.6522C23.7166 28.5122 23.8799 28.2205 23.8799 27.9055C23.8799 27.5905 23.7049 27.3105 23.4482 27.1589ZM14.5352 29.6078L17.9418 31.3111C18.4435 31.5561 18.7585 32.0578 18.7585 32.6061V35.8261C18.7585 36.1178 18.6068 36.3861 18.3618 36.5378C18.2218 36.6194 18.0702 36.6661 17.9185 36.6661C17.7902 36.6661 17.6618 36.6311 17.5452 36.5844L14.1385 34.8811C13.6368 34.6361 13.3335 34.1344 13.3335 33.5744V30.3544C13.3335 30.0628 13.4852 29.7944 13.7185 29.6428C13.9752 29.4911 14.2785 29.4794 14.5352 29.6078ZM24.6034 29.6428C24.3584 29.4911 24.055 29.4794 23.7867 29.6078L20.38 31.3111C19.8784 31.5561 19.575 32.0578 19.575 32.6178V35.8378C19.575 36.1294 19.7267 36.3978 19.9717 36.5494C20.1117 36.6194 20.2634 36.6661 20.415 36.6661C20.5434 36.6661 20.6717 36.6311 20.7884 36.5728L24.195 34.8694C24.6967 34.6244 25 34.1228 25 33.5628V30.3428C25 30.0628 24.8484 29.7944 24.6034 29.6428ZM31.4518 13.495L35.1151 15.4667C35.3718 15.6067 35.5468 15.8867 35.5468 16.2133C35.5468 16.5283 35.3835 16.82 35.1151 16.96L31.4518 18.9317C31.2535 19.0367 31.0435 19.0833 30.8335 19.0833C30.6235 19.0833 30.4135 19.0367 30.2151 18.9317L26.5518 16.96C26.2835 16.82 26.1201 16.5283 26.1201 16.2133C26.1201 15.8983 26.2835 15.6067 26.5518 15.4667L30.2151 13.495C30.6001 13.285 31.0668 13.285 31.4518 13.495ZM29.6084 19.6107L26.2017 17.9074C25.945 17.779 25.6417 17.7907 25.385 17.9424C25.1517 18.094 25 18.3624 25 18.654V21.874C25 22.434 25.3034 22.9357 25.805 23.1807L29.2117 24.884C29.3284 24.9424 29.4567 24.9774 29.5851 24.9774C29.7367 24.9774 29.8884 24.9307 30.0284 24.849C30.2734 24.6974 30.425 24.429 30.425 24.1374V20.9174C30.425 20.3574 30.1101 19.8557 29.6084 19.6107ZM35.4533 17.9074C35.7216 17.779 36.0249 17.7907 36.2699 17.9424C36.5149 18.094 36.6666 18.3624 36.6666 18.654V21.874C36.6666 22.4224 36.3633 22.924 35.8616 23.1807L32.4549 24.884C32.3383 24.9424 32.2099 24.9774 32.0816 24.9774C31.9299 24.9774 31.7783 24.9307 31.6383 24.849C31.3933 24.6974 31.2416 24.429 31.2416 24.1374V20.9174C31.2416 20.3574 31.5449 19.8557 32.0466 19.6107L35.4533 17.9074Z" fill="white"/>
<defs>
<linearGradient id="paint0_linear_12903_424817" x1="5" y1="5" x2="45" y2="45" gradientUnits="userSpaceOnUse">
<stop stop-color="#92FFC0"/>
<stop offset="1" stop-color="#002661"/>
</linearGradient>
</defs>
</svg>
