<svg width="44" height="36" viewBox="0 0 44 36" fill="none" xmlns="http://www.w3.org/2000/svg">
<path d="M28.9087 6.48438H8.79026C8.19353 6.48438 7.63942 6.50569 7.12794 6.527C2.07702 6.82536 0.734375 8.6795 0.734375 14.4337V15.6698C0.734375 16.8419 1.69341 17.801 2.86556 17.801H34.8334C36.0055 17.801 36.9646 16.8419 36.9646 15.6698V14.4337C36.9646 8.08276 35.3449 6.48438 28.9087 6.48438Z" fill="url(#paint0_linear_9509_78766)"/>
<path d="M2.86556 19.7148C1.69341 19.7148 0.734375 20.6739 0.734375 21.846V28.0478C0.734375 34.3987 2.35408 35.9971 8.79026 35.9971H28.9087C35.2383 35.9971 36.9006 34.4627 36.9646 28.3888V21.846C36.9646 20.6739 36.0055 19.7148 34.8334 19.7148H2.86556ZM11.3051 30.797H7.66073C6.78695 30.797 6.06234 30.0724 6.06234 29.1986C6.06234 28.3248 6.78695 27.6002 7.66073 27.6002H11.3264C12.2002 27.6002 12.9248 28.3248 12.9248 29.1986C12.9248 30.0724 12.2002 30.797 11.3051 30.797ZM23.2184 30.797H15.8871C15.0133 30.797 14.2887 30.0724 14.2887 29.1986C14.2887 28.3248 15.0133 27.6002 15.8871 27.6002H23.2184C24.0922 27.6002 24.8168 28.3248 24.8168 29.1986C24.8168 30.0724 24.1135 30.797 23.2184 30.797Z" fill="url(#paint1_linear_9509_78766)"/>
<path d="M43.2653 20.7365V9.56903C43.2653 2.89842 39.4505 0 33.6963 0H14.6648C13.0451 0 11.5959 0.234431 10.3172 0.724604C9.3155 1.08691 8.4204 1.6197 7.6958 2.32299C7.31218 2.6853 7.61055 3.28203 8.16466 3.28203H31.3307C36.1258 3.28203 40.0046 7.16079 40.0046 11.956V27.2366C40.0046 27.7694 40.58 28.0677 40.9636 27.6841C42.4342 26.1284 43.2653 23.848 43.2653 20.7365Z" fill="url(#paint2_linear_9509_78766)"/>
<defs>
<linearGradient id="paint0_linear_9509_78766" x1="0.734375" y1="6.48438" x2="7.1755" y2="27.1057" gradientUnits="userSpaceOnUse">
<stop stop-color="#6AE1D5" stop-opacity="0.9"/>
<stop offset="0.0001" stop-color="#5FC2B8" stop-opacity="0.5"/>
<stop offset="1" stop-color="#019B8B"/>
</linearGradient>
<linearGradient id="paint1_linear_9509_78766" x1="0.734375" y1="19.7148" x2="12.9101" y2="46.8075" gradientUnits="userSpaceOnUse">
<stop stop-color="#6AE1D5" stop-opacity="0.9"/>
<stop offset="0.0001" stop-color="#24C8B6" stop-opacity="0.5"/>
<stop offset="1" stop-color="#019B8B"/>
</linearGradient>
<linearGradient id="paint2_linear_9509_78766" x1="7.52295" y1="0" x2="34.5372" y2="34.6603" gradientUnits="userSpaceOnUse">
<stop stop-color="#6AE1D5" stop-opacity="0.9"/>
<stop offset="0.0001" stop-color="#5FC2B8" stop-opacity="0.5"/>
<stop offset="1" stop-color="#019B8B"/>
</linearGradient>
</defs>
</svg>
