<svg width="12" height="12" viewBox="0 0 12 12" fill="none" xmlns="http://www.w3.org/2000/svg">
<g clip-path="url(#clip0_110440_62689)">
<path d="M11.5714 1.2832H0.428571C0.191518 1.2832 0 1.47472 0 1.71177V10.2832C0 10.5203 0.191518 10.7118 0.428571 10.7118H11.5714C11.8085 10.7118 12 10.5203 12 10.2832V1.71177C12 1.47472 11.8085 1.2832 11.5714 1.2832ZM11.0357 4.06892H8.19643V2.24749H11.0357V4.06892ZM11.0357 7.06892H8.19643V4.92606H11.0357V7.06892ZM4.66071 4.92606H7.33929V7.06892H4.66071V4.92606ZM7.33929 4.06892H4.66071V2.24749H7.33929V4.06892ZM0.964286 4.92606H3.80357V7.06892H0.964286V4.92606ZM0.964286 2.24749H3.80357V4.06892H0.964286V2.24749ZM0.964286 7.92606H3.80357V9.74749H0.964286V7.92606ZM4.66071 7.92606H7.33929V9.74749H4.66071V7.92606ZM11.0357 9.74749H8.19643V7.92606H11.0357V9.74749Z" fill="#2C2C2C"/>
</g>
<defs>
<clipPath id="clip0_110440_62689">
<rect width="12" height="12" fill="white"/>
</clipPath>
</defs>
</svg>
