<svg width="14" height="16" viewBox="0 0 14 16" fill="none" xmlns="http://www.w3.org/2000/svg">
<path fill-rule="evenodd" clip-rule="evenodd" d="M7.31154 1.47497C7.93572 0.850787 8.7823 0.500122 9.66504 0.500122C10.5478 0.500122 11.3944 0.850787 12.0185 1.47497C12.6427 2.09916 12.9934 2.94574 12.9934 3.82847C12.9934 4.71121 12.6427 5.55779 12.0185 6.18197L6.26154 11.939C6.08379 12.1168 5.87277 12.2578 5.64051 12.3541C5.40825 12.4504 5.15931 12.4999 4.90789 12.5C4.40014 12.5001 3.91314 12.2984 3.55404 11.9395C3.19493 11.5805 2.99314 11.0936 2.99305 10.5858C2.99295 10.0781 3.19457 9.59108 3.55354 9.23197L9.13854 3.64597L9.84654 4.35397L4.26054 9.93897C4.17564 10.0239 4.10829 10.1247 4.06234 10.2356C4.0164 10.3465 3.99275 10.4654 3.99275 10.5855C3.99275 10.7055 4.0164 10.8244 4.06234 10.9354C4.10829 11.0463 4.17564 11.1471 4.26054 11.232C4.34544 11.3169 4.44623 11.3842 4.55715 11.4302C4.66808 11.4761 4.78697 11.4998 4.90704 11.4998C5.0271 11.4998 5.14599 11.4761 5.25692 11.4302C5.36785 11.3842 5.46864 11.3169 5.55354 11.232L11.3105 5.47497C11.5268 5.25875 11.6983 5.00206 11.8153 4.71955C11.9323 4.43705 11.9925 4.13426 11.9925 3.82847C11.9925 3.52269 11.9323 3.2199 11.8153 2.93739C11.6983 2.65489 11.5268 2.3982 11.3105 2.18197C11.0943 1.96575 10.8376 1.79424 10.5551 1.67722C10.2726 1.5602 9.96982 1.49997 9.66404 1.49997C9.35825 1.49997 9.05546 1.5602 8.77296 1.67722C8.49045 1.79424 8.23376 1.96575 8.01754 2.18197L2.08954 8.11097C1.40186 8.8158 1.01964 9.76322 1.0257 10.7479C1.03176 11.7326 1.42563 12.6753 2.12193 13.3716C2.81823 14.0679 3.76088 14.4617 4.74558 14.4678C5.73029 14.4739 6.67771 14.0917 7.38254 13.404L13.1395 7.64597L13.8475 8.35397L8.08954 14.111C7.1947 14.9736 5.99699 15.4506 4.7541 15.4391C3.5112 15.4277 2.32246 14.9288 1.44363 14.0499C0.564801 13.1709 0.0661201 11.9821 0.0548816 10.7392C0.0436432 9.49632 0.520745 8.29868 1.38354 7.40397L7.31154 1.47397V1.47497Z" fill="#2C2C2C"/>
</svg>
