<svg width="42" height="50" viewBox="0 0 42 50" fill="none" xmlns="http://www.w3.org/2000/svg">
<path d="M8.3125 0.5C6.62812 0.5 5.25 1.87812 5.25 3.5625V46.4375C5.25 48.1219 6.62812 49.5 8.3125 49.5H38.9375C40.6219 49.5 42 48.1219 42 46.4375V12.75L29.75 0.5H8.3125Z" fill="#E2E5E7"/>
<path d="M32.8125 12.75H42L29.75 0.5V9.6875C29.75 11.3719 31.1281 12.75 32.8125 12.75Z" fill="#B0B7BD"/>
<path d="M42 21.5L33.25 12.75H42V21.5Z" fill="#CAD1D8"/>
<path d="M36.75 40.8958C36.75 41.7781 36.0609 42.5 35.2188 42.5H1.53125C0.689063 42.5 0 41.7781 0 40.8958V24.8542C0 23.9719 0.689063 23.25 1.53125 23.25H35.2188C36.0609 23.25 36.75 23.9719 36.75 24.8542V40.8958Z" fill="#EF5748"/>
<path d="M35.2625 42.5H7V44.25H35.2625C36.0806 44.25 36.75 43.4625 36.75 42.5V40.75C36.75 41.7125 36.0806 42.5 35.2625 42.5Z" fill="#CAD1D8"/>
<path d="M12.9102 30.9844C13.7227 30.9844 14.3652 31.2793 14.8379 31.8691C15.3145 32.459 15.5527 33.2676 15.5527 34.2949C15.5527 35.3184 15.3164 36.127 14.8438 36.7207C14.375 37.3105 13.7363 37.6055 12.9277 37.6055C12.4707 37.6055 12.0703 37.5117 11.7266 37.3242C11.3867 37.1328 11.1348 36.8672 10.9707 36.5273H10.8711V39.6328H9.41797V31.0898H10.8184V32.1504H10.918C11.1016 31.7871 11.3691 31.502 11.7207 31.2949C12.0762 31.0879 12.4727 30.9844 12.9102 30.9844ZM12.4531 36.3691C12.957 36.3691 13.3496 36.1855 13.6309 35.8184C13.916 35.4512 14.0586 34.9434 14.0586 34.2949C14.0586 33.6465 13.916 33.1387 13.6309 32.7715C13.3496 32.4043 12.959 32.2207 12.459 32.2207C11.9629 32.2207 11.5703 32.4062 11.2812 32.7773C10.9922 33.1484 10.8457 33.6543 10.8418 34.2949C10.8457 34.9355 10.9902 35.4414 11.2754 35.8125C11.5645 36.1836 11.957 36.3691 12.4531 36.3691ZM19.332 37.6055C18.5195 37.6055 17.877 37.3086 17.4043 36.7148C16.9316 36.1172 16.6953 35.3086 16.6953 34.2891C16.6953 33.2773 16.9316 32.4746 17.4043 31.8809C17.8809 31.2832 18.5234 30.9844 19.332 30.9844C19.7695 30.9844 20.1602 31.084 20.5039 31.2832C20.8477 31.4824 21.1055 31.7578 21.2773 32.1094H21.377V28.6113H22.8301V37.5H21.4238V36.4863H21.3242C21.1406 36.8379 20.873 37.1133 20.5215 37.3125C20.1738 37.5078 19.7773 37.6055 19.332 37.6055ZM20.9609 32.7773C20.6719 32.4062 20.2793 32.2207 19.7832 32.2207C19.2871 32.2207 18.8965 32.4062 18.6113 32.7773C18.3262 33.1445 18.1836 33.6504 18.1836 34.2949C18.1836 34.9434 18.3242 35.4512 18.6055 35.8184C18.8906 36.1855 19.2832 36.3691 19.7832 36.3691C20.2832 36.3691 20.6758 36.1855 20.9609 35.8184C21.25 35.4473 21.3945 34.9395 21.3945 34.2949C21.3945 33.6543 21.25 33.1484 20.9609 32.7773ZM25.1328 37.5V32.291H24.084V31.1309H25.1328V30.457C25.1328 29.8164 25.3008 29.3379 25.6367 29.0215C25.9766 28.7051 26.5 28.5469 27.207 28.5469C27.5 28.5469 27.7695 28.5684 28.0156 28.6113V29.6777C27.8867 29.6582 27.7207 29.6484 27.5176 29.6484C27.1816 29.6484 26.9375 29.7227 26.7852 29.8711C26.6367 30.0156 26.5625 30.2422 26.5625 30.5508V31.1309H27.957V32.291H26.5801V37.5H25.1328Z" fill="white"/>
</svg>
