<svg width="15" height="14" viewBox="0 0 15 14" fill="none" xmlns="http://www.w3.org/2000/svg">
<path d="M12.0434 0.0361328L14.8255 2.93611V13.964H4.43262V14H14.861V2.97261L12.0434 0.0361328Z" fill="#909090"/>
<path d="M12.0092 0H4.39746V13.9639H14.8258V2.93648L12.0087 0" fill="#DD2025"/>
<path d="M4.32109 0.75H1.12598V4.16347H11.1763V0.75H4.32109Z" fill="#7A7B7C"/>
<path d="M11.1793 4.05555H1.24043V0.739575H11.1793V4.05555Z" fill="white" stroke="#DD2025" stroke-width="0.1"/>
<path d="M4.51873 1.26685H3.86523V3.66685H4.37923V2.85735L4.49273 2.86385C4.60302 2.86195 4.71227 2.84219 4.81623 2.80535C4.90739 2.77399 4.99124 2.7245 5.06273 2.65985C5.13548 2.59826 5.19284 2.52052 5.23023 2.43285C5.28038 2.28709 5.29829 2.1322 5.28273 1.97885C5.27961 1.8693 5.26041 1.76081 5.22573 1.65685C5.19417 1.5818 5.14733 1.51415 5.08819 1.45819C5.02905 1.40224 4.95891 1.35921 4.88223 1.33185C4.81594 1.30785 4.74744 1.29043 4.67773 1.27985C4.62495 1.2717 4.57164 1.26736 4.51823 1.26685H4.51873ZM4.42373 2.41385H4.37923V1.67385H4.47573C4.51832 1.67077 4.56106 1.67731 4.60078 1.69298C4.64051 1.70864 4.6762 1.73303 4.70523 1.76435C4.76539 1.84485 4.79753 1.94285 4.79673 2.04335C4.79673 2.16635 4.79673 2.27785 4.68573 2.35635C4.60577 2.40033 4.51475 2.42013 4.42373 2.41335" fill="#464648"/>
<path d="M6.26002 1.26035C6.20452 1.26035 6.15052 1.26435 6.11252 1.26585L5.99352 1.26885H5.60352V3.66885H6.06252C6.23793 3.67366 6.41257 3.64393 6.57652 3.58135C6.70847 3.52901 6.82532 3.44464 6.91652 3.33585C7.0052 3.22608 7.06885 3.09827 7.10302 2.96135C7.1423 2.80628 7.16145 2.64681 7.16002 2.48685C7.16971 2.29793 7.15509 2.10854 7.11652 1.92335C7.07991 1.78703 7.01135 1.66139 6.91652 1.55685C6.84211 1.47243 6.75103 1.40433 6.64902 1.35685C6.56141 1.31631 6.46925 1.28643 6.37452 1.26785C6.33684 1.26163 6.29869 1.25878 6.26052 1.25935L6.26002 1.26035ZM6.16952 3.22785H6.11952V1.69585H6.12602C6.22909 1.68399 6.33339 1.70259 6.42602 1.74935C6.49385 1.80351 6.54912 1.87175 6.58802 1.94935C6.62999 2.03102 6.65419 2.12065 6.65902 2.21235C6.66352 2.32235 6.65902 2.41235 6.65902 2.48685C6.66105 2.57267 6.65553 2.6585 6.64252 2.74335C6.6271 2.83046 6.59862 2.91475 6.55802 2.99335C6.51206 3.06643 6.44997 3.128 6.37652 3.17335C6.31483 3.21325 6.24178 3.23186 6.16852 3.22635" fill="#464648"/>
<path d="M8.70816 1.26892H7.49316V3.66892H8.00716V2.71692H8.65716V2.27092H8.00716V1.71492H8.70716V1.26892" fill="#464648"/>
<path d="M10.8837 9.12747C10.8837 9.12747 12.4777 8.83848 12.4777 9.38297C12.4777 9.92747 11.4902 9.70597 10.8837 9.12747ZM9.70513 9.16897C9.45186 9.22493 9.20505 9.30687 8.9686 9.41347L9.16861 8.96348C9.36861 8.51348 9.57612 7.89998 9.57612 7.89998C9.81479 8.30165 10.0925 8.6788 10.4052 9.02597C10.1694 9.06113 9.93566 9.10921 9.70513 9.16997V9.16897ZM9.0741 5.919C9.0741 5.4445 9.22761 5.315 9.34711 5.315C9.46662 5.315 9.60112 5.3725 9.60562 5.7845C9.56669 6.19878 9.47994 6.60716 9.34711 7.00149C9.16517 6.67041 9.07101 6.29827 9.0736 5.9205L9.0741 5.919ZM6.74952 11.177C6.2605 10.8845 7.77506 9.98397 8.04957 9.95497C8.04807 9.95547 7.26154 11.483 6.74952 11.177ZM12.9432 9.44747C12.9382 9.39747 12.8932 8.84398 11.9082 8.86748C11.4976 8.86086 11.0872 8.8898 10.6817 8.95398C10.2888 8.55818 9.95045 8.11174 9.67562 7.62649C9.84877 7.1262 9.95355 6.60483 9.98714 6.0765C9.97264 5.4765 9.82913 5.1325 9.36911 5.1375C8.9091 5.1425 8.8421 5.545 8.9026 6.144C8.96186 6.54652 9.07365 6.93953 9.23511 7.31299C9.23511 7.31299 9.0226 7.97448 8.74159 8.63248C8.46058 9.29047 8.26858 9.63547 8.26858 9.63547C7.77992 9.79454 7.31991 10.0309 6.90603 10.3355C6.49401 10.719 6.32651 11.0135 6.54351 11.308C6.73052 11.562 7.38504 11.6195 7.97006 10.853C8.2809 10.4571 8.56488 10.0408 8.82009 9.60697C8.82009 9.60697 9.71213 9.36247 9.98964 9.29547C10.2671 9.22847 10.6027 9.17547 10.6027 9.17547C10.6027 9.17547 11.4172 9.99497 12.2027 9.96597C12.9882 9.93697 12.9502 9.49647 12.9452 9.44847" fill="white"/>
<path d="M11.9707 0.0384521V2.97493H14.7873L11.9707 0.0384521Z" fill="#909090"/>
<path d="M13.653 2.43648H12.5088V1.24359L13.653 2.43648Z" fill="#F4F4F4" stroke="#ED7C7F"/>
<path d="M4.48065 1.22852H3.82715V3.62852H4.34315V2.81952L4.45715 2.82602C4.56743 2.82412 4.67668 2.80436 4.78065 2.76752C4.87179 2.73615 4.95565 2.68666 5.02715 2.62202C5.09935 2.56026 5.15619 2.48254 5.19315 2.39502C5.2433 2.24926 5.26121 2.09437 5.24565 1.94102C5.24253 1.83147 5.22332 1.72298 5.18865 1.61902C5.15709 1.54397 5.11024 1.47632 5.0511 1.42036C4.99197 1.36441 4.92183 1.32138 4.84515 1.29402C4.77855 1.26978 4.70971 1.2522 4.63965 1.24152C4.58686 1.23337 4.53356 1.22903 4.48015 1.22852H4.48065ZM4.38565 2.37552H4.34115V1.63552H4.43815C4.48074 1.63244 4.52347 1.63898 4.5632 1.65465C4.60292 1.67031 4.63862 1.6947 4.66765 1.72602C4.72781 1.80652 4.75995 1.90452 4.75915 2.00502C4.75915 2.12802 4.75915 2.23952 4.64815 2.31802C4.56818 2.362 4.47716 2.3818 4.38615 2.37502" fill="#DD2025"/>
<path d="M6.22141 1.22202C6.16591 1.22202 6.11191 1.22602 6.07391 1.22752L5.95641 1.23052H5.56641V3.63052H6.02541C6.20082 3.63533 6.37547 3.6056 6.53941 3.54302C6.67136 3.49068 6.78821 3.40631 6.87941 3.29752C6.96809 3.18775 7.03174 3.05994 7.06591 2.92302C7.10519 2.76795 7.12435 2.60848 7.12291 2.44852C7.1326 2.2596 7.11799 2.07021 7.07941 1.88502C7.0428 1.7487 6.97424 1.62306 6.87941 1.51852C6.805 1.4341 6.71392 1.366 6.61191 1.31852C6.5243 1.27798 6.43214 1.2481 6.33741 1.22952C6.29974 1.2233 6.26158 1.22045 6.22341 1.22102L6.22141 1.22202ZM6.13241 3.18952H6.08241V1.65752H6.08891C6.19199 1.64566 6.29628 1.66426 6.38891 1.71102C6.45674 1.76518 6.51201 1.83342 6.55091 1.91102C6.59288 1.99269 6.61708 2.08232 6.62191 2.17402C6.62641 2.28402 6.62191 2.37402 6.62191 2.44852C6.62394 2.53434 6.61842 2.62017 6.60541 2.70502C6.59 2.79213 6.56151 2.87642 6.52091 2.95502C6.47495 3.0281 6.41286 3.08967 6.33941 3.13502C6.27772 3.17492 6.20467 3.19353 6.13141 3.18802" fill="#DD2025"/>
<path d="M8.67008 1.23047H7.45508V3.63047H7.96908V2.67847H8.61908V2.23247H7.96908V1.67647H8.66908V1.23047" fill="#DD2025"/>
</svg>
