<svg width="18" height="18" viewBox="0 0 18 18" fill="none" xmlns="http://www.w3.org/2000/svg">
<path d="M10.5155 1.34375C10.6312 1.34375 10.744 1.3805 10.8376 1.44871C10.9312 1.51691 11.0007 1.61305 11.0361 1.72328L11.6376 3.5925C11.8903 3.71609 12.132 3.855 12.3628 4.01141L14.2834 3.59797C14.3967 3.57379 14.5147 3.58618 14.6204 3.63336C14.7262 3.68053 14.8142 3.76005 14.8719 3.86047L16.3878 6.48438C16.4457 6.58473 16.4702 6.70088 16.4578 6.81608C16.4454 6.93127 16.3968 7.03955 16.3189 7.12531L15.0009 8.58C15.0201 8.85894 15.0201 9.13887 15.0009 9.41781L16.3189 10.8747C16.3968 10.9604 16.4454 11.0687 16.4578 11.1839C16.4702 11.2991 16.4457 11.4153 16.3878 11.5156L14.8719 14.1406C14.814 14.2408 14.7259 14.3201 14.6202 14.3671C14.5145 14.4141 14.3966 14.4263 14.2834 14.402L12.3628 13.9886C12.1331 14.1439 11.8903 14.2839 11.6387 14.4075L11.0361 16.2767C11.0007 16.3869 10.9312 16.4831 10.8376 16.5513C10.744 16.6195 10.6312 16.6562 10.5155 16.6562H7.48359C7.3678 16.6562 7.25501 16.6195 7.16145 16.5513C7.06789 16.4831 6.99839 16.3869 6.96296 16.2767L6.36249 14.4086C6.11051 14.2854 5.86747 14.1447 5.63515 13.9875L3.71562 14.402C3.60238 14.4262 3.48438 14.4138 3.37863 14.3666C3.27289 14.3195 3.18484 14.2399 3.12718 14.1395L1.61124 11.5156C1.55335 11.4153 1.52884 11.2991 1.54122 11.1839C1.5536 11.0687 1.60225 10.9604 1.68015 10.8747L2.99812 9.41781C2.97903 9.1396 2.97903 8.8604 2.99812 8.58219L1.68015 7.12531C1.60225 7.03955 1.5536 6.93127 1.54122 6.81608C1.52884 6.70088 1.55335 6.58473 1.61124 6.48438L3.12718 3.85938C3.185 3.75916 3.27311 3.67986 3.37885 3.63289C3.48458 3.58592 3.60249 3.57369 3.71562 3.59797L5.63515 4.0125C5.86702 3.85609 6.10984 3.715 6.36249 3.59141L6.96405 1.72328C6.99937 1.61341 7.06854 1.51752 7.16166 1.44935C7.25478 1.38118 7.36708 1.34422 7.48249 1.34375H10.5144H10.5155ZM10.1151 2.4375H7.8839L7.26265 4.37016L6.84374 4.57469C6.63781 4.67546 6.43901 4.79021 6.24874 4.91813L5.86155 5.18062L3.8753 4.75188L2.75968 6.68562L4.1214 8.19281L4.08859 8.65656C4.07287 8.88525 4.07287 9.11475 4.08859 9.34344L4.1214 9.80719L2.75749 11.3144L3.87421 13.2481L5.86046 12.8205L6.24765 13.0819C6.43792 13.2098 6.63671 13.3245 6.84265 13.4253L7.26155 13.6298L7.8839 15.5625H10.1173L10.7408 13.6288L11.1586 13.4253C11.3643 13.3248 11.5627 13.21 11.7525 13.0819L12.1386 12.8205L14.1259 13.2481L15.2416 11.3144L13.8787 9.80719L13.9116 9.34344C13.9273 9.11439 13.9273 8.88452 13.9116 8.65547L13.8787 8.19172L15.2426 6.68562L14.1259 4.75188L12.1386 5.17844L11.7525 4.91813C11.5628 4.78995 11.3643 4.67519 11.1586 4.57469L10.7408 4.37125L10.1162 2.4375H10.1151ZM8.99952 5.71875C9.86977 5.71875 10.7044 6.06445 11.3197 6.67981C11.9351 7.29516 12.2808 8.12976 12.2808 9C12.2808 9.87024 11.9351 10.7048 11.3197 11.3202C10.7044 11.9355 9.86977 12.2812 8.99952 12.2812C8.12928 12.2812 7.29468 11.9355 6.67933 11.3202C6.06398 10.7048 5.71827 9.87024 5.71827 9C5.71827 8.12976 6.06398 7.29516 6.67933 6.67981C7.29468 6.06445 8.12928 5.71875 8.99952 5.71875ZM8.99952 6.8125C8.41936 6.8125 7.86296 7.04297 7.45273 7.4532C7.04249 7.86344 6.81202 8.41984 6.81202 9C6.81202 9.58016 7.04249 10.1366 7.45273 10.5468C7.86296 10.957 8.41936 11.1875 8.99952 11.1875C9.57968 11.1875 10.1361 10.957 10.5463 10.5468C10.9566 10.1366 11.187 9.58016 11.187 9C11.187 8.41984 10.9566 7.86344 10.5463 7.4532C10.1361 7.04297 9.57968 6.8125 8.99952 6.8125Z" fill="#2C2C2C"/>
</svg>
