<svg width="40" height="40" viewBox="0 0 40 40" fill="none" xmlns="http://www.w3.org/2000/svg">
<rect width="40" height="40" rx="20" fill="url(#paint0_linear_9509_79699)"/>
<path d="M31.602 9.6144L30.3893 8.40172C30.3435 8.35596 30.2863 8.33594 30.2263 8.33594C30.1662 8.33594 30.109 8.35882 30.0632 8.40172L27.8867 10.5783C26.9405 9.93717 25.8234 9.59537 24.6805 9.59724C23.2162 9.59724 21.7518 10.155 20.6335 11.2733L17.7191 14.1877C17.6765 14.2307 17.6526 14.2888 17.6526 14.3493C17.6526 14.4098 17.6765 14.4679 17.7191 14.5109L25.4899 22.2818C25.5357 22.3275 25.5929 22.3475 25.653 22.3475C25.7102 22.3475 25.7702 22.3247 25.816 22.2818L28.7304 19.3673C30.701 17.3939 30.9327 14.3421 29.4254 12.117L31.602 9.94045C31.6906 9.84893 31.6906 9.70306 31.602 9.6144ZM27.3519 17.9916L25.653 19.6905L20.3103 14.3479L22.0092 12.649C22.7214 11.9368 23.6709 11.5421 24.6805 11.5421C25.6901 11.5421 26.6368 11.9339 27.3519 12.649C28.064 13.3611 28.4587 14.3107 28.4587 15.3203C28.4587 16.3299 28.064 17.2766 27.3519 17.9916ZM21.912 20.9947C21.869 20.9521 21.8109 20.9282 21.7504 20.9282C21.6898 20.9282 21.6318 20.9521 21.5888 20.9947L19.6839 22.8995L17.1013 20.3169L19.009 18.4092C19.0976 18.3205 19.0976 18.1747 19.009 18.086L17.9679 17.0449C17.9249 17.0023 17.8668 16.9785 17.8063 16.9785C17.7458 16.9785 17.6877 17.0023 17.6447 17.0449L15.737 18.9526L14.5072 17.7228C14.4858 17.7014 14.4604 17.6846 14.4324 17.6733C14.4044 17.662 14.3743 17.6564 14.3441 17.657C14.2869 17.657 14.2269 17.6799 14.1811 17.7228L11.2695 20.6372C9.29894 22.6107 9.06727 25.6624 10.5745 27.8875L8.39801 30.0641C8.35543 30.1071 8.33154 30.1652 8.33154 30.2257C8.33154 30.2862 8.35543 30.3443 8.39801 30.3873L9.61069 31.5999C9.65645 31.6457 9.71366 31.6657 9.77372 31.6657C9.83378 31.6657 9.89098 31.6428 9.93674 31.5999L12.1133 29.4234C13.0771 30.0784 14.1983 30.4044 15.3194 30.4044C16.7838 30.4044 18.2482 29.8467 19.3665 28.7284L22.2809 25.814C22.3696 25.7253 22.3696 25.5794 22.2809 25.4908L21.0511 24.2609L22.9588 22.3533C23.0474 22.2646 23.0474 22.1187 22.9588 22.0301L21.912 20.9947ZM17.9879 27.3556C17.6379 27.7074 17.2215 27.9864 16.763 28.1764C16.3045 28.3664 15.8129 28.4636 15.3166 28.4624C14.307 28.4624 13.3603 28.0706 12.6453 27.3556C12.2934 27.0055 12.0144 26.5892 11.8244 26.1307C11.6345 25.6722 11.5372 25.1806 11.5384 24.6842C11.5384 23.6746 11.9302 22.7279 12.6453 22.0129L14.3441 20.314L19.6868 25.6567L17.9879 27.3556Z" fill="white"/>
<defs>
<linearGradient id="paint0_linear_9509_79699" x1="20" y1="0" x2="20" y2="40" gradientUnits="userSpaceOnUse">
<stop stop-color="#5DC5F9"/>
<stop offset="1" stop-color="#1A7AF3"/>
</linearGradient>
</defs>
</svg>
