<svg width="16" height="16" viewBox="0 0 16 16" fill="none" xmlns="http://www.w3.org/2000/svg">
<path d="M14.2106 5.26183L10.7381 1.78934C10.5164 1.56768 10.2452 1.40188 9.94679 1.30559C9.64843 1.2093 9.33145 1.18529 9.02199 1.23553C8.71253 1.28578 8.41943 1.40883 8.16685 1.59457C7.91427 1.7803 7.70944 2.02339 7.56924 2.30381L5.81716 5.80796C5.75413 5.93431 5.64409 6.03092 5.51064 6.07707L2.51304 7.11321C2.36895 7.16299 2.23988 7.24859 2.13795 7.36195C2.03602 7.47532 1.96458 7.61273 1.93034 7.76129C1.8961 7.90984 1.90018 8.06466 1.94219 8.21121C1.98421 8.35775 2.06279 8.49121 2.17054 8.59905L4.40399 10.8325L1.20996 14.0273V14.79H1.97267L5.16742 11.5952L7.40087 13.8294C7.5087 13.9373 7.64221 14.016 7.78884 14.0581C7.93547 14.1003 8.09041 14.1044 8.23908 14.0701C8.38775 14.0359 8.52526 13.9644 8.63868 13.8623C8.7521 13.7603 8.8377 13.6311 8.88743 13.4869L9.92357 10.4893C9.96955 10.356 10.0659 10.2459 10.192 10.1828L13.6961 8.43068C13.9765 8.29048 14.2196 8.08565 14.4054 7.83307C14.5911 7.58049 14.7141 7.2874 14.7644 6.97793C14.8146 6.66847 14.7906 6.3515 14.6943 6.05313C14.598 5.75477 14.4322 5.48355 14.2106 5.26183Z" fill="#08D8BF"/>
</svg>
