<svg width="20" height="20" viewBox="0 0 20 20" fill="none" xmlns="http://www.w3.org/2000/svg">
<g id="PlayCircle">
<path id="Vector" d="M10 0C4.75379 0 0.5 4.25379 0.5 9.5C0.5 14.7462 4.75379 19 10 19C15.2462 19 19.5 14.7462 19.5 9.5C19.5 4.25379 15.2462 0 10 0ZM10 17.3884C5.64442 17.3884 2.11161 13.8556 2.11161 9.5C2.11161 5.14442 5.64442 1.61161 10 1.61161C14.3556 1.61161 17.8884 5.14442 17.8884 9.5C17.8884 13.8556 14.3556 17.3884 10 17.3884Z" fill="#2C2C2C"/>
<path id="Vector_2" d="M14.359 8.72091L8.03993 4.0666C7.98925 4.02891 7.92925 4.00624 7.86662 4.00112C7.80398 3.99599 7.74117 4.00861 7.68519 4.03756C7.62921 4.06651 7.58225 4.11067 7.54955 4.1651C7.51686 4.21954 7.4997 4.28211 7.5 4.34586V13.6545C7.5 13.9381 7.81585 14.0983 8.03993 13.9337L14.359 9.27943C14.4027 9.24754 14.4382 9.20559 14.4627 9.15704C14.4872 9.10849 14.5 9.05472 14.5 9.00017C14.5 8.94562 14.4872 8.89186 14.4627 8.8433C14.4382 8.79475 14.4027 8.7528 14.359 8.72091ZM8.86157 11.6217V6.3786L12.4191 9.00017L8.86157 11.6217Z" fill="#2C2C2C"/>
</g>
</svg>
