<svg width="13" height="13" viewBox="0 0 13 13" fill="none" xmlns="http://www.w3.org/2000/svg">
<path d="M3.683 6.69909H5.80353V8.81962C5.80353 8.88101 5.85376 8.93123 5.91514 8.93123H6.58478C6.64617 8.93123 6.69639 8.88101 6.69639 8.81962V6.69909H8.81693C8.87831 6.69909 8.92853 6.64886 8.92853 6.58748V5.91784C8.92853 5.85645 8.87831 5.80623 8.81693 5.80623H6.69639V3.68569C6.69639 3.62431 6.64617 3.57408 6.58478 3.57408H5.91514C5.85376 3.57408 5.80353 3.62431 5.80353 3.68569V5.80623H3.683C3.62161 5.80623 3.57139 5.85645 3.57139 5.91784V6.58748C3.57139 6.64886 3.62161 6.69909 3.683 6.69909Z" fill="#2C2C2C"/>
<path d="M11.3842 0.671875H1.11635C0.86942 0.671875 0.669922 0.871373 0.669922 1.1183V11.3862C0.669922 11.6331 0.86942 11.8326 1.11635 11.8326H11.3842C11.6311 11.8326 11.8306 11.6331 11.8306 11.3862V1.1183C11.8306 0.871373 11.6311 0.671875 11.3842 0.671875ZM10.8262 10.8281H1.67439V1.67634H10.8262V10.8281Z" fill="#2C2C2C"/>
</svg>
