<svg width="18" height="18" viewBox="0 0 18 18" fill="none" xmlns="http://www.w3.org/2000/svg">
<path d="M16.8699 6.42402L11.5761 1.13027C11.4365 0.990625 11.2539 0.921875 11.0713 0.921875C10.8886 0.921875 10.706 0.990625 10.5664 1.13027L7.10524 4.59355C6.84313 4.56348 6.57887 4.55059 6.31461 4.55059C4.74196 4.55059 3.1693 5.06836 1.87809 6.10391C1.7999 6.16669 1.73581 6.24524 1.69 6.33444C1.64419 6.42364 1.61769 6.5215 1.61222 6.62162C1.60674 6.72175 1.62242 6.82191 1.65824 6.91557C1.69405 7.00924 1.7492 7.0943 1.82008 7.16523L5.72379 11.0689L1.09606 15.6924C1.03935 15.7487 1.00435 15.8233 0.99723 15.9029L0.924184 16.7021C0.904848 16.9041 1.06598 17.076 1.26579 17.076C1.27653 17.076 1.28727 17.076 1.29801 17.0738L2.09723 17.0008C2.17672 16.9943 2.25192 16.9578 2.30778 16.902L6.93551 12.2742L10.8392 16.1779C10.9789 16.3176 11.1615 16.3863 11.3441 16.3863C11.5525 16.3863 11.7588 16.2961 11.9005 16.1199C13.1101 14.6096 13.6129 12.7189 13.4088 10.8906L16.8699 7.42949C17.147 7.15449 17.147 6.70332 16.8699 6.42402ZM12.3131 9.80137L11.7867 10.3277L11.8683 11.0668C11.9963 12.2099 11.7682 13.3647 11.2152 14.3732L3.62907 6.78281C3.90621 6.63027 4.1941 6.50137 4.49489 6.39824C5.07926 6.19629 5.69157 6.09531 6.31461 6.09531C6.52086 6.09531 6.72926 6.10605 6.93551 6.12969L7.67457 6.21133L8.20094 5.68496L11.0734 2.8125L15.1877 6.92676L12.3131 9.80137Z" fill="#20a2a2"/>
</svg>
