<svg width="15" height="14" viewBox="0 0 15 14" fill="none" xmlns="http://www.w3.org/2000/svg">
<path d="M9.26146 0.160645V1.59214C10.9615 1.60164 12.9401 1.57464 14.6387 1.60014C14.9597 1.60014 14.9737 1.88414 14.9777 2.13214C15.0047 5.10314 14.9712 8.15965 14.9937 11.1321C14.9877 11.2491 14.9907 11.6821 14.9872 11.8051C14.9762 12.2166 14.7702 12.2346 14.3586 12.2471C14.2926 12.2471 14.0986 12.2501 14.0346 12.2531C12.4441 12.2451 10.8535 12.2486 9.26146 12.2486V13.8396L0.993164 12.5671V1.43664L9.26146 0.161144" fill="#D33922"/>
<path d="M9.26126 2.06885H14.5115V11.7688H9.26126V10.4998H13.0784V9.86235H9.26126V9.06735H13.0784V8.43135H9.26277C9.26277 8.11935 9.26277 7.80785 9.25977 7.49635C9.57206 7.60901 9.90555 7.65064 10.236 7.6182C10.5664 7.58577 10.8854 7.48009 11.1698 7.30885C11.4597 7.11835 11.6999 6.86131 11.8703 6.55915C12.0407 6.257 12.1364 5.91849 12.1494 5.57185C11.4493 5.56685 10.7528 5.56885 10.0563 5.56885C10.0563 4.87685 10.0643 4.18535 10.0418 3.49485C9.78078 3.54485 9.52027 3.59985 9.26077 3.65535V2.06935" fill="white"/>
<path d="M10.3765 3.16187C10.9189 3.19585 11.4303 3.426 11.8154 3.80938C12.2006 4.19276 12.433 4.70317 12.4695 5.24536C11.7695 5.25336 11.073 5.25037 10.375 5.25037V3.16187" fill="#D33922"/>
<path d="M3.54271 4.363C4.40624 4.4045 5.45277 4.021 6.1688 4.6685C6.85433 5.5005 6.67282 7.0305 5.65678 7.528C5.28735 7.67428 4.88686 7.72451 4.49274 7.674C4.49274 8.29599 4.48974 8.918 4.49274 9.5395C4.17773 9.5125 3.86122 9.4855 3.54621 9.46C3.53171 7.76 3.52871 6.06 3.54621 4.36" fill="white"/>
<path d="M4.49014 5.22296C4.80364 5.20846 5.19014 5.15146 5.40314 5.44546C5.4883 5.60555 5.53454 5.78346 5.5381 5.96476C5.54166 6.14606 5.50245 6.32565 5.42364 6.48896C5.24214 6.81646 4.83214 6.78496 4.51564 6.82296C4.48214 6.28996 4.48564 5.75746 4.49014 5.22296Z" fill="#D33922"/>
</svg>
