<svg width="6" height="8" viewBox="0 0 6 8" fill="none" xmlns="http://www.w3.org/2000/svg">
<path d="M4.44153 7.99897C4.57475 7.99923 4.70385 7.95283 4.80643 7.86783C4.92303 7.77116 4.99638 7.63207 5.01029 7.48124C5.02419 7.33042 4.97751 7.18026 4.88055 7.0639L2.32622 4.00782L4.78933 0.94604C4.88498 0.828247 4.92974 0.677184 4.91369 0.526295C4.89764 0.375406 4.8221 0.23714 4.7038 0.142109C4.58454 0.0371761 4.42691 -0.013247 4.2689 0.00298786C4.11088 0.0192227 3.96679 0.100643 3.87136 0.227633L1.11747 3.64862C0.944531 3.85901 0.944531 4.16233 1.11747 4.37272L3.96829 7.79371C4.0843 7.93365 4.26008 8.0099 4.44153 7.99897Z" fill="white"/>
</svg>
