<svg width="12" height="12" viewBox="0 0 12 12" fill="none" xmlns="http://www.w3.org/2000/svg">
<g clip-path="url(#clip0_3015_52747)">
<mask id="path-1-inside-1_3015_52747" fill="white">
<path d="M11.5282 7.52478L10.651 6.77478C10.6925 6.52031 10.7139 6.26049 10.7139 6.00067C10.7139 5.74085 10.6925 5.48103 10.651 5.22656L11.5282 4.47656C11.5944 4.41992 11.6417 4.34448 11.664 4.26027C11.6862 4.17606 11.6823 4.08707 11.6527 4.00513L11.6407 3.97031C11.3992 3.29535 11.0376 2.66965 10.5733 2.12344L10.5492 2.09531C10.4928 2.02909 10.4178 1.98148 10.3339 1.95877C10.2499 1.93606 10.1611 1.9393 10.0791 1.96808L8.99024 2.35513C8.58845 2.02567 8.13979 1.76585 7.65497 1.58371L7.4447 0.445312C7.42884 0.359655 7.38729 0.280851 7.32557 0.219372C7.26385 0.157893 7.18488 0.116647 7.09917 0.101116L7.06301 0.0944196C6.36524 -0.0314732 5.63131 -0.0314732 4.93354 0.0944196L4.89738 0.101116C4.81166 0.116647 4.7327 0.157893 4.67098 0.219372C4.60926 0.280851 4.56771 0.359655 4.55184 0.445312L4.34024 1.58906C3.85928 1.77124 3.4114 2.03093 3.01434 2.35781L1.91747 1.96808C1.83546 1.93907 1.74656 1.93571 1.6626 1.95844C1.57863 1.98116 1.50357 2.0289 1.44738 2.09531L1.42327 2.12344C0.95954 2.67003 0.597973 3.29563 0.355862 3.97031L0.343808 4.00513C0.283541 4.17254 0.333094 4.36004 0.468362 4.47656L1.35631 5.2346C1.31479 5.48638 1.2947 5.74353 1.2947 5.99933C1.2947 6.25647 1.31479 6.51362 1.35631 6.76406L0.468362 7.5221C0.402196 7.57874 0.354839 7.65418 0.332591 7.7384C0.310342 7.82261 0.314254 7.91159 0.343808 7.99353L0.355862 8.02835C0.598273 8.70335 0.957201 9.32612 1.42327 9.87522L1.44738 9.90335C1.5037 9.96957 1.57877 10.0172 1.66269 10.0399C1.7466 10.0626 1.83543 10.0594 1.91747 10.0306L3.01434 9.64085C3.41345 9.96897 3.85943 10.2288 4.34024 10.4096L4.55184 11.5533C4.56771 11.639 4.60926 11.7178 4.67098 11.7793C4.7327 11.8408 4.81166 11.882 4.89738 11.8975L4.93354 11.9042C5.63772 12.0308 6.35883 12.0308 7.06301 11.9042L7.09917 11.8975C7.18488 11.882 7.26385 11.8408 7.32557 11.7793C7.38729 11.7178 7.42884 11.639 7.4447 11.5533L7.65497 10.415C8.13959 10.2333 8.59079 9.97262 8.99024 9.64353L10.0791 10.0306C10.1611 10.0596 10.25 10.063 10.334 10.0402C10.4179 10.0175 10.493 9.96976 10.5492 9.90335L10.5733 9.87522C11.0393 9.32478 11.3983 8.70335 11.6407 8.02835L11.6527 7.99353C11.713 7.8288 11.6635 7.6413 11.5282 7.52478ZM9.70006 5.3846C9.73354 5.58683 9.75095 5.79442 9.75095 6.00201C9.75095 6.2096 9.73354 6.41719 9.70006 6.61942L9.61167 7.15647L10.6121 8.01228C10.4604 8.36168 10.269 8.69244 10.0416 8.99799L8.79872 8.55737L8.37818 8.9029C8.05809 9.1654 7.70184 9.37165 7.31613 9.5163L6.80586 9.70781L6.56613 11.0069C6.18788 11.0498 5.80599 11.0498 5.42774 11.0069L5.188 9.70513L4.68176 9.51094C4.30006 9.36629 3.94515 9.16004 3.62774 8.89888L3.2072 8.55201L1.95631 8.99665C1.72863 8.68996 1.53845 8.35915 1.38577 8.01094L2.39693 7.1471L2.30988 6.61138C2.27774 6.41183 2.26033 6.20558 2.26033 6.00201C2.26033 5.7971 2.2764 5.59219 2.30988 5.39263L2.39693 4.85692L1.38577 3.99308C1.53711 3.64353 1.72863 3.31406 1.95631 3.00737L3.2072 3.45201L3.62774 3.10513C3.94515 2.84397 4.30006 2.63772 4.68176 2.49308L5.18934 2.30156L5.42908 0.999777C5.80542 0.95692 6.18979 0.95692 6.56747 0.999777L6.8072 2.29888L7.31747 2.4904C7.70185 2.63504 8.05943 2.84129 8.37952 3.10379L8.80006 3.44933L10.0429 3.00871C10.2706 3.3154 10.4608 3.64621 10.6135 3.99442L9.61301 4.85022L9.70006 5.3846ZM5.99961 3.51094C4.69783 3.51094 3.64247 4.56629 3.64247 5.86808C3.64247 7.16987 4.69783 8.22522 5.99961 8.22522C7.3014 8.22522 8.35676 7.16987 8.35676 5.86808C8.35676 4.56629 7.3014 3.51094 5.99961 3.51094ZM7.06033 6.9288C6.9212 7.06832 6.75587 7.17896 6.57383 7.25435C6.39179 7.32973 6.19664 7.36839 5.99961 7.36808C5.59917 7.36808 5.22283 7.21138 4.9389 6.9288C4.79938 6.78967 4.68874 6.62434 4.61335 6.4423C4.53796 6.26026 4.49931 6.06511 4.49961 5.86808C4.49961 5.46763 4.65631 5.09129 4.9389 4.80737C5.22283 4.52344 5.59917 4.36808 5.99961 4.36808C6.40006 4.36808 6.7764 4.52344 7.06033 4.80737C7.19985 4.94649 7.31049 5.11182 7.38588 5.29386C7.46127 5.4759 7.49992 5.67105 7.49961 5.86808C7.49961 6.26853 7.34292 6.64487 7.06033 6.9288Z"/>
</mask>
<path d="M11.5282 7.52478L10.651 6.77478C10.6925 6.52031 10.7139 6.26049 10.7139 6.00067C10.7139 5.74085 10.6925 5.48103 10.651 5.22656L11.5282 4.47656C11.5944 4.41992 11.6417 4.34448 11.664 4.26027C11.6862 4.17606 11.6823 4.08707 11.6527 4.00513L11.6407 3.97031C11.3992 3.29535 11.0376 2.66965 10.5733 2.12344L10.5492 2.09531C10.4928 2.02909 10.4178 1.98148 10.3339 1.95877C10.2499 1.93606 10.1611 1.9393 10.0791 1.96808L8.99024 2.35513C8.58845 2.02567 8.13979 1.76585 7.65497 1.58371L7.4447 0.445312C7.42884 0.359655 7.38729 0.280851 7.32557 0.219372C7.26385 0.157893 7.18488 0.116647 7.09917 0.101116L7.06301 0.0944196C6.36524 -0.0314732 5.63131 -0.0314732 4.93354 0.0944196L4.89738 0.101116C4.81166 0.116647 4.7327 0.157893 4.67098 0.219372C4.60926 0.280851 4.56771 0.359655 4.55184 0.445312L4.34024 1.58906C3.85928 1.77124 3.4114 2.03093 3.01434 2.35781L1.91747 1.96808C1.83546 1.93907 1.74656 1.93571 1.6626 1.95844C1.57863 1.98116 1.50357 2.0289 1.44738 2.09531L1.42327 2.12344C0.95954 2.67003 0.597973 3.29563 0.355862 3.97031L0.343808 4.00513C0.283541 4.17254 0.333094 4.36004 0.468362 4.47656L1.35631 5.2346C1.31479 5.48638 1.2947 5.74353 1.2947 5.99933C1.2947 6.25647 1.31479 6.51362 1.35631 6.76406L0.468362 7.5221C0.402196 7.57874 0.354839 7.65418 0.332591 7.7384C0.310342 7.82261 0.314254 7.91159 0.343808 7.99353L0.355862 8.02835C0.598273 8.70335 0.957201 9.32612 1.42327 9.87522L1.44738 9.90335C1.5037 9.96957 1.57877 10.0172 1.66269 10.0399C1.7466 10.0626 1.83543 10.0594 1.91747 10.0306L3.01434 9.64085C3.41345 9.96897 3.85943 10.2288 4.34024 10.4096L4.55184 11.5533C4.56771 11.639 4.60926 11.7178 4.67098 11.7793C4.7327 11.8408 4.81166 11.882 4.89738 11.8975L4.93354 11.9042C5.63772 12.0308 6.35883 12.0308 7.06301 11.9042L7.09917 11.8975C7.18488 11.882 7.26385 11.8408 7.32557 11.7793C7.38729 11.7178 7.42884 11.639 7.4447 11.5533L7.65497 10.415C8.13959 10.2333 8.59079 9.97262 8.99024 9.64353L10.0791 10.0306C10.1611 10.0596 10.25 10.063 10.334 10.0402C10.4179 10.0175 10.493 9.96976 10.5492 9.90335L10.5733 9.87522C11.0393 9.32478 11.3983 8.70335 11.6407 8.02835L11.6527 7.99353C11.713 7.8288 11.6635 7.6413 11.5282 7.52478ZM9.70006 5.3846C9.73354 5.58683 9.75095 5.79442 9.75095 6.00201C9.75095 6.2096 9.73354 6.41719 9.70006 6.61942L9.61167 7.15647L10.6121 8.01228C10.4604 8.36168 10.269 8.69244 10.0416 8.99799L8.79872 8.55737L8.37818 8.9029C8.05809 9.1654 7.70184 9.37165 7.31613 9.5163L6.80586 9.70781L6.56613 11.0069C6.18788 11.0498 5.80599 11.0498 5.42774 11.0069L5.188 9.70513L4.68176 9.51094C4.30006 9.36629 3.94515 9.16004 3.62774 8.89888L3.2072 8.55201L1.95631 8.99665C1.72863 8.68996 1.53845 8.35915 1.38577 8.01094L2.39693 7.1471L2.30988 6.61138C2.27774 6.41183 2.26033 6.20558 2.26033 6.00201C2.26033 5.7971 2.2764 5.59219 2.30988 5.39263L2.39693 4.85692L1.38577 3.99308C1.53711 3.64353 1.72863 3.31406 1.95631 3.00737L3.2072 3.45201L3.62774 3.10513C3.94515 2.84397 4.30006 2.63772 4.68176 2.49308L5.18934 2.30156L5.42908 0.999777C5.80542 0.95692 6.18979 0.95692 6.56747 0.999777L6.8072 2.29888L7.31747 2.4904C7.70185 2.63504 8.05943 2.84129 8.37952 3.10379L8.80006 3.44933L10.0429 3.00871C10.2706 3.3154 10.4608 3.64621 10.6135 3.99442L9.61301 4.85022L9.70006 5.3846ZM5.99961 3.51094C4.69783 3.51094 3.64247 4.56629 3.64247 5.86808C3.64247 7.16987 4.69783 8.22522 5.99961 8.22522C7.3014 8.22522 8.35676 7.16987 8.35676 5.86808C8.35676 4.56629 7.3014 3.51094 5.99961 3.51094ZM7.06033 6.9288C6.9212 7.06832 6.75587 7.17896 6.57383 7.25435C6.39179 7.32973 6.19664 7.36839 5.99961 7.36808C5.59917 7.36808 5.22283 7.21138 4.9389 6.9288C4.79938 6.78967 4.68874 6.62434 4.61335 6.4423C4.53796 6.26026 4.49931 6.06511 4.49961 5.86808C4.49961 5.46763 4.65631 5.09129 4.9389 4.80737C5.22283 4.52344 5.59917 4.36808 5.99961 4.36808C6.40006 4.36808 6.7764 4.52344 7.06033 4.80737C7.19985 4.94649 7.31049 5.11182 7.38588 5.29386C7.46127 5.4759 7.49992 5.67105 7.49961 5.86808C7.49961 6.26853 7.34292 6.64487 7.06033 6.9288Z" fill="#6B6B6B" stroke="#6B6B6B" stroke-width="0.00223214" mask="url(#path-1-inside-1_3015_52747)"/>
</g>
<defs>
<clipPath id="clip0_3015_52747">
<rect width="12" height="12" fill="white"/>
</clipPath>
</defs>
</svg>
