<svg width="40" height="40" viewBox="0 0 40 40" fill="none" xmlns="http://www.w3.org/2000/svg">
<rect width="40" height="40" rx="20" fill="url(#paint0_linear_9509_81171)"/>
<path fill-rule="evenodd" clip-rule="evenodd" d="M14.2242 19.3326C14.7207 20.1944 15.8219 20.4905 16.6837 19.9939L16.6854 19.9929L16.9525 19.8386C17.4568 20.2701 18.0364 20.6046 18.6621 20.8255V21.1335C18.6621 22.1281 19.4684 22.9344 20.463 22.9344C21.4576 22.9344 22.2639 22.1281 22.2639 21.1335V20.8255C22.8898 20.6043 23.4694 20.2693 23.9735 19.8374L24.2419 19.9923C25.1038 20.4896 26.2058 20.194 26.7031 19.332C27.2004 18.47 26.9047 17.3681 26.0427 16.8708L25.7762 16.7171C25.8962 16.0643 25.8962 15.395 25.7762 14.7421L26.0427 14.5885C26.9047 14.0912 27.2004 12.9893 26.7031 12.1273C26.2058 11.2653 25.1039 10.9696 24.2419 11.4669L23.9747 11.6212C23.47 11.1903 22.89 10.8564 22.2639 10.6362V10.3282C22.2639 9.33363 21.4576 8.52734 20.463 8.52734C19.4684 8.52734 18.6621 9.33363 18.6621 10.3282V10.6362C18.0363 10.8574 17.4567 11.1924 16.9525 11.6243L16.6842 11.4688C15.8222 10.9715 14.7203 11.2671 14.223 12.1291C13.7257 12.9911 14.0213 14.093 14.8833 14.5903L15.1498 14.744C15.0299 15.3968 15.0299 16.0661 15.1498 16.7189L14.8833 16.8726C14.0237 17.3712 13.729 18.471 14.2242 19.3326ZM20.463 13.3297C21.7891 13.3297 22.8642 14.4047 22.8642 15.7309C22.8642 17.057 21.7891 18.132 20.463 18.132C19.1369 18.132 18.0619 17.057 18.0619 15.7309C18.0619 14.4047 19.1369 13.3297 20.463 13.3297ZM12.1479 26.5258C13.5119 26.5258 14.6176 25.4201 14.6176 24.0561C14.6176 22.6921 13.5119 21.5864 12.1479 21.5864C10.7839 21.5864 9.67816 22.6921 9.67816 24.0561C9.67816 25.4201 10.7839 26.5258 12.1479 26.5258ZM12.1313 27.3526C10.0863 27.3549 8.42903 29.0122 8.42676 31.0572C8.42676 31.2845 8.61104 31.4688 8.83837 31.4688H15.4243C15.6516 31.4688 15.8359 31.2845 15.8359 31.0572C15.8337 29.0122 14.1764 27.3549 12.1313 27.3526ZM27.8857 26.5258C29.2496 26.5258 30.3554 25.4201 30.3554 24.0561C30.3554 22.6921 29.2496 21.5864 27.8857 21.5864C26.5217 21.5864 25.4159 22.6921 25.4159 24.0561C25.4159 25.4201 26.5217 26.5258 27.8857 26.5258ZM27.8691 27.3526C25.8241 27.3549 24.1668 29.0122 24.1645 31.0572C24.1645 31.2845 24.3488 31.4688 24.5761 31.4688H31.1621C31.3894 31.4688 31.5737 31.2845 31.5737 31.0572C31.5714 29.0122 29.9142 27.3549 27.8691 27.3526ZM19.5373 26.7762C19.5373 27.0524 19.3134 27.2762 19.0373 27.2762H18.1854C17.9093 27.2762 17.6854 27.5001 17.6854 27.7762V28.3966C17.6854 28.6727 17.9093 28.8966 18.1854 28.8966H22.741C23.0171 28.8966 23.241 28.6727 23.241 28.3966V27.7762C23.241 27.5001 23.0171 27.2762 22.741 27.2762H21.8891C21.613 27.2762 21.3891 27.0524 21.3891 26.7762V24.767C21.3891 24.4908 21.1653 24.267 20.8891 24.267H20.0373C19.7611 24.267 19.5373 24.4908 19.5373 24.767V26.7762Z" fill="white"/>
<defs>
<linearGradient id="paint0_linear_9509_81171" x1="0" y1="0" x2="40" y2="40" gradientUnits="userSpaceOnUse">
<stop stop-color="#FCCF31"/>
<stop offset="1" stop-color="#FD3232"/>
</linearGradient>
</defs>
</svg>
