<svg width="12" height="12" viewBox="0 0 12 12" fill="none" xmlns="http://www.w3.org/2000/svg">
<circle cx="6" cy="6" r="4.5" stroke="#888888"/>
<path d="M5.56932 3.34991C6.08626 2.97226 5.64787 2.243 5.36362 1.74237C3.18046 1.86319 2.07876 3.1747 1.80081 3.81535L1.68078 5.33639C1.7302 5.53678 2.19982 5.65067 2.4962 6.18689C2.79259 6.7231 4.00318 6.69559 4.57142 6.6148C4.86146 8.17215 5.59907 8.67611 6.06732 8.51013C6.53558 8.34415 7.96731 9.87488 8.02754 9.96827C8.07572 10.043 8.79095 9.51156 8.89143 9.16844C8.97565 8.97175 9.43175 7.54876 9.10484 6.42398C8.97517 5.97782 8.11511 4.97681 8.11418 5.72239C7.47073 5.60985 6.76272 5.77427 6.4458 5.85718C6.13424 6.08055 5.29109 6.56206 5.19908 5.95957C5.08405 5.20645 4.50749 5.84511 4.20048 5.85999C3.89347 5.87487 4.09079 6.07906 3.84029 5.51102C3.5898 4.94299 4.2022 4.61734 4.09932 4.52368C3.99644 4.43001 4.73129 4.76096 5.06385 4.73779C5.32989 4.71926 5.52952 4.31711 5.49743 4.16756C5.17153 3.84981 5.31748 3.53389 5.56932 3.34991Z" fill="#888888" stroke="#888888" stroke-width="0.5"/>
</svg>
