<svg width="16" height="16" viewBox="0 0 16 16" fill="none" xmlns="http://www.w3.org/2000/svg">
<path d="M14.3739 3.25781V6.8143H10.8174" stroke="#A9A9A9" stroke-width="1.5" stroke-linecap="round" stroke-linejoin="round"/>
<path d="M1.33301 12.744V9.1875H4.8895" stroke="#A9A9A9" stroke-width="1.5" stroke-linecap="round" stroke-linejoin="round"/>
<path d="M2.82081 6.22306C3.12143 5.37352 3.63236 4.61398 4.30592 4.01532C4.97948 3.41665 5.79372 2.99837 6.67266 2.7995C7.5516 2.60062 8.46659 2.62765 9.33226 2.87804C10.1979 3.12844 10.9861 3.59405 11.6231 4.23142L14.3735 6.81581M1.33301 9.1868L4.08336 11.7712C4.72042 12.4086 5.50855 12.8742 6.37422 13.1246C7.23989 13.375 8.15489 13.402 9.03383 13.2031C9.91277 13.0042 10.727 12.586 11.4006 11.9873C12.0741 11.3886 12.5851 10.6291 12.8857 9.77955" stroke="#A9A9A9" stroke-width="1.5" stroke-linecap="round" stroke-linejoin="round"/>
</svg>
