<svg width="20" height="20" viewBox="0 0 20 20" fill="none" xmlns="http://www.w3.org/2000/svg">
<path fill-rule="evenodd" clip-rule="evenodd" d="M7.21967 4.79337L8.71967 3.23782C9.01256 2.93407 9.48744 2.93407 9.78033 3.23782C10.0507 3.51819 10.0715 3.95937 9.84272 4.26449L9.78033 4.33776L9.54187 4.58347C9.6937 4.57156 9.84649 4.56557 10 4.56557C13.3137 4.56557 16 7.35135 16 10.7878C16 14.2242 13.3137 17.01 10 17.01C6.68629 17.01 4 14.2242 4 10.7878C4 10.3582 4.33579 10.01 4.75 10.01C5.16421 10.01 5.5 10.3582 5.5 10.7878C5.5 13.3651 7.51472 15.4545 10 15.4545C12.4853 15.4545 14.5 13.3651 14.5 10.7878C14.5 8.21046 12.4853 6.12112 10 6.12112C9.8597 6.12112 9.72034 6.12776 9.58221 6.14091L9.78033 6.34893C10.0732 6.65267 10.0732 7.14513 9.78033 7.44887C9.50997 7.72925 9.08454 7.75081 8.79033 7.51357L8.71967 7.44887L7.21967 5.89332C6.94931 5.61294 6.92851 5.17176 7.15728 4.86664L7.21967 4.79337L8.71967 3.23782L7.21967 4.79337Z" fill="#212B36"/>
</svg>
