<svg width="36" height="40" viewBox="0 0 36 40" fill="none" xmlns="http://www.w3.org/2000/svg">
<path d="M9.45603 0.0979004L23 0L36 10.9729L36 31.0419C36 35.9898 31.7857 39.9999 26.5859 39.9999H9.89633C4.44496 39.9999 0 35.7902 0 30.603L0 9.0958C0 4.14795 4.23529 0.0979004 9.45603 0.0979004Z" fill="url(#paint0_linear_9509_81112)"/>
<g clip-path="url(#clip0_9509_81112)">
<path fill-rule="evenodd" clip-rule="evenodd" d="M12.7017 17.4678C13.9297 16.2403 15.5949 15.5508 17.3312 15.5508C19.0674 15.5508 20.7327 16.2403 21.9607 17.4678C22.5288 18.0357 22.529 18.9567 21.9611 19.5249C21.3932 20.093 20.4722 20.0932 19.904 19.5253C19.2216 18.8431 18.2961 18.4599 17.3312 18.4599C16.3662 18.4599 15.4408 18.8431 14.7583 19.5252M14.7583 19.5252L11.1561 23.1263C11.1561 23.1263 11.1562 23.1262 11.1561 23.1263C10.4738 23.8087 10.0902 24.7344 10.0902 25.6995C10.0902 26.6647 10.4737 27.5903 11.1561 28.2728C11.8386 28.9553 12.7642 29.3387 13.7294 29.3387C14.6945 29.3387 15.6202 28.9553 16.3026 28.2728L18.1032 26.4722C18.6713 25.9041 19.5922 25.9041 20.1603 26.4722C20.7283 27.0402 20.7283 27.9612 20.1603 28.5292L18.3597 30.3298C17.1316 31.5578 15.4661 32.2478 13.7294 32.2478C11.9927 32.2478 10.3271 31.5578 9.09908 30.3298C7.87105 29.1018 7.18115 27.4362 7.18115 25.6995C7.18115 23.9628 7.87105 22.2973 9.09908 21.0692L12.7017 17.4678" fill="white"/>
<path fill-rule="evenodd" clip-rule="evenodd" d="M19.1166 10.9179C20.3446 9.6899 22.0102 9 23.7469 9C25.4836 9 27.1491 9.6899 28.3772 10.9179C29.6052 12.146 30.2951 13.8115 30.2951 15.5482C30.2951 17.2849 29.6052 18.9505 28.3772 20.1785L24.7746 23.7799C23.5466 25.0074 21.8814 25.697 20.1451 25.697C18.4088 25.697 16.7436 25.0074 15.5156 23.7799C14.9474 23.212 14.9473 22.291 15.5152 21.7229C16.0831 21.1547 17.0041 21.1545 17.5722 21.7225C18.2547 22.4047 19.1801 22.7879 20.1451 22.7879C21.11 22.7879 22.0355 22.4047 22.7179 21.7225M22.7179 21.7225L26.3201 18.1215C27.0025 17.439 27.386 16.5133 27.386 15.5482C27.386 14.5831 27.0026 13.6574 26.3201 12.975C25.6377 12.2925 24.712 11.9091 23.7469 11.9091C22.7817 11.9091 21.8561 12.2925 21.1736 12.975L19.373 14.7756C18.805 15.3436 17.884 15.3436 17.316 14.7756C16.7479 14.2075 16.7479 13.2866 17.316 12.7185L19.1166 10.9179" fill="white"/>
</g>
<g filter="url(#filter0_b_9509_81112)">
<path d="M27.6672 11.981C29.6256 11.9973 32.3483 12.0043 34.6579 11.9973C35.8408 11.995 36.442 10.8212 35.6216 10.1142C32.6545 7.55208 27.3469 2.96686 24.3096 0.344062C23.4695 -0.38164 22 0.117717 22 1.12343V7.2744C22 9.85519 24.5597 11.981 27.6672 11.981Z" fill="url(#paint1_linear_9509_81112)"/>
</g>
<defs>
<filter id="filter0_b_9509_81112" x="7" y="-15" width="44" height="42" filterUnits="userSpaceOnUse" color-interpolation-filters="sRGB">
<feFlood flood-opacity="0" result="BackgroundImageFix"/>
<feGaussianBlur in="BackgroundImageFix" stdDeviation="7.5"/>
<feComposite in2="SourceAlpha" operator="in" result="effect1_backgroundBlur_9509_81112"/>
<feBlend mode="normal" in="SourceGraphic" in2="effect1_backgroundBlur_9509_81112" result="shape"/>
</filter>
<linearGradient id="paint0_linear_9509_81112" x1="36" y1="26.9367" x2="-12.0669" y2="23.1999" gradientUnits="userSpaceOnUse">
<stop stop-color="#EA05B7"/>
<stop offset="1" stop-color="#FFB775"/>
</linearGradient>
<linearGradient id="paint1_linear_9509_81112" x1="35.0074" y1="2.16696" x2="19.4187" y2="2.75993" gradientUnits="userSpaceOnUse">
<stop stop-color="white"/>
<stop offset="1" stop-color="white" stop-opacity="0.2"/>
</linearGradient>
<clipPath id="clip0_9509_81112">
<rect width="25.4545" height="25.4545" fill="white" transform="translate(5.45459 7.27344)"/>
</clipPath>
</defs>
</svg>
