<svg width="41" height="40" viewBox="0 0 41 40" fill="none" xmlns="http://www.w3.org/2000/svg">
<g id="Group 625869">
<circle id="Ellipse 571" cx="20.1768" cy="20" r="20" fill="#53A7F5"/>
<path id="Intersect" fill-rule="evenodd" clip-rule="evenodd" d="M6.17687 28C17.2226 28 26.1769 19.0457 26.1769 8C26.1769 5.35575 25.6637 2.83135 24.7315 0.520962C23.2684 0.180185 21.7436 0 20.1768 0C9.13106 0 0.176758 8.9543 0.176758 20C0.176758 22.6443 0.689918 25.1687 1.62208 27.479C3.0852 27.8198 4.60999 28 6.17687 28Z" fill="#6FBAFF"/>
<g id="Group">
<path id="Vector" d="M14.6174 26.4701C14.7916 26.3126 15.054 26.3265 15.2211 26.4915C16.5968 27.8508 18.3834 28.6408 20.35 28.7447C24.2768 28.9207 27.6596 26.1558 28.3565 22.3923C28.4038 22.1373 28.2039 21.9019 27.9451 21.8898L26.2278 21.8106C25.8395 21.7928 25.6667 21.3138 25.9543 21.0522L30.9318 16.5248C31.1103 16.3627 31.3865 16.3759 31.5483 16.5547L36.0621 21.5375C36.3228 21.8251 36.1059 22.2842 35.7183 22.2657L34.364 22.2012C33.8311 22.1758 33.3761 22.575 33.2858 23.1009C32.2101 29.3622 26.604 33.9905 20.0947 33.6898C16.8513 33.5177 13.8302 32.168 11.567 29.8341C11.3964 29.6581 11.4109 29.3722 11.5926 29.2076L14.6174 26.4701Z" fill="white"/>
<path id="Vector_2" d="M4.61174 18.6246H6.7842C7.00536 18.6246 7.18669 18.4582 7.21336 18.2388C7.57923 15.239 8.91542 12.4475 11.0726 10.2896C13.65 7.72354 17.0637 6.29668 20.6894 6.29668C24.166 6.27179 27.4482 7.56531 29.9805 9.944C30.1589 10.1115 30.1589 10.3977 29.9858 10.5708L27.285 13.2717C26.8941 13.6625 26.2636 13.6565 25.829 13.315C24.3769 12.1739 22.5794 11.5483 20.6894 11.5483C18.4764 11.5483 16.3985 12.4393 14.8081 14.0137C13.6778 15.144 12.93 16.5659 12.615 18.0959C12.5602 18.3611 12.7739 18.6065 13.0449 18.6065H14.8877C15.276 18.6065 15.4705 19.0754 15.1967 19.3503L10.0671 24.4973C9.89711 24.668 9.62084 24.6684 9.45053 24.4984L4.30383 19.3698C4.02863 19.0953 4.22276 18.6246 4.61174 18.6246Z" fill="white"/>
</g>
</g>
</svg>
