<svg width="40" height="40" viewBox="0 0 40 40" fill="none" xmlns="http://www.w3.org/2000/svg">
<rect width="40" height="40" rx="10" fill="url(#paint0_linear_9509_81142)"/>
<ellipse cx="18.7942" cy="13.0914" rx="6.06614" ry="6.13832" fill="white"/>
<path fill-rule="evenodd" clip-rule="evenodd" d="M22.2929 31.2567C21.8052 30.5032 21.5221 29.6051 21.5221 28.6408C21.5221 26.1145 23.4656 24.042 25.9391 23.8371C24.1158 22.07 21.6424 20.9844 18.9184 20.9844C14.6772 20.9844 11.0435 23.6162 9.52521 27.3539C8.69381 29.4006 10.5577 31.2567 12.7669 31.2567H18.9184H22.2929Z" fill="white"/>
<path d="M30.5684 29.8127L29.935 29.2711C29.965 29.0873 29.9804 28.8997 29.9804 28.7121C29.9804 28.5245 29.965 28.3368 29.935 28.1531L30.5684 27.6115C30.6162 27.5706 30.6504 27.5161 30.6665 27.4553C30.6825 27.3945 30.6797 27.3302 30.6584 27.2711L30.6497 27.2459C30.4753 26.7585 30.2141 26.3067 29.8789 25.9123L29.8615 25.892C29.8208 25.8441 29.7666 25.8098 29.706 25.7934C29.6454 25.777 29.5813 25.7793 29.522 25.8001L28.7357 26.0796C28.4456 25.8417 28.1216 25.6541 27.7715 25.5225L27.6197 24.7005C27.6082 24.6386 27.5782 24.5817 27.5337 24.5373C27.4891 24.4929 27.4321 24.4631 27.3702 24.4519L27.3441 24.4471C26.8402 24.3562 26.3102 24.3562 25.8063 24.4471L25.7802 24.4519C25.7183 24.4631 25.6613 24.4929 25.6167 24.5373C25.5722 24.5817 25.5422 24.6386 25.5307 24.7005L25.3779 25.5264C25.0306 25.658 24.7072 25.8455 24.4204 26.0815L23.6284 25.8001C23.5692 25.7791 23.505 25.7767 23.4443 25.7931C23.3837 25.8095 23.3295 25.844 23.2889 25.892L23.2715 25.9123C22.9366 26.307 22.6755 26.7587 22.5007 27.2459L22.492 27.2711C22.4485 27.392 22.4843 27.5274 22.582 27.6115L23.2232 28.1589C23.1932 28.3407 23.1787 28.5264 23.1787 28.7111C23.1787 28.8968 23.1932 29.0825 23.2232 29.2634L22.582 29.8107C22.5342 29.8516 22.5 29.9061 22.4839 29.9669C22.4678 30.0277 22.4707 30.092 22.492 30.1512L22.5007 30.1763C22.6758 30.6637 22.935 31.1135 23.2715 31.51L23.2889 31.5303C23.3296 31.5781 23.3838 31.6125 23.4444 31.6289C23.505 31.6453 23.5691 31.6429 23.6284 31.6222L24.4204 31.3407C24.7087 31.5777 25.0307 31.7653 25.3779 31.8959L25.5307 32.7218C25.5422 32.7836 25.5722 32.8405 25.6167 32.8849C25.6613 32.9293 25.7183 32.9591 25.7802 32.9703L25.8063 32.9752C26.3148 33.0666 26.8356 33.0666 27.3441 32.9752L27.3702 32.9703C27.4321 32.9591 27.4891 32.9293 27.5337 32.8849C27.5782 32.8405 27.6082 32.7836 27.6197 32.7218L27.7715 31.8997C28.1215 31.7685 28.4473 31.5803 28.7357 31.3427L29.522 31.6222C29.5812 31.6431 29.6454 31.6455 29.7061 31.6291C29.7667 31.6127 29.8209 31.5782 29.8615 31.5303L29.8789 31.51C30.2154 31.1125 30.4746 30.6637 30.6497 30.1763L30.6584 30.1512C30.7019 30.0322 30.6661 29.8968 30.5684 29.8127ZM29.2483 28.2672C29.2725 28.4133 29.2851 28.5632 29.2851 28.7131C29.2851 28.863 29.2725 29.0129 29.2483 29.1589L29.1845 29.5467L29.9069 30.1647C29.7974 30.417 29.6592 30.6559 29.4949 30.8765L28.5974 30.5583L28.2938 30.8078C28.0626 30.9974 27.8054 31.1463 27.5268 31.2508L27.1584 31.3891L26.9853 32.3272C26.7121 32.3581 26.4363 32.3581 26.1632 32.3272L25.9901 31.3871L25.6245 31.2469C25.3489 31.1425 25.0926 30.9935 24.8634 30.8049L24.5597 30.5545L23.6564 30.8755C23.492 30.6541 23.3547 30.4152 23.2444 30.1637L23.9746 29.5399L23.9117 29.1531C23.8885 29.009 23.876 28.8601 23.876 28.7131C23.876 28.5651 23.8876 28.4171 23.9117 28.273L23.9746 27.8862L23.2444 27.2624C23.3537 27.01 23.492 26.772 23.6564 26.5506L24.5597 26.8717L24.8634 26.6212C25.0926 26.4326 25.3489 26.2837 25.6245 26.1792L25.9911 26.0409L26.1642 25.1009C26.4359 25.0699 26.7135 25.0699 26.9862 25.1009L27.1593 26.039L27.5278 26.1773C27.8054 26.2817 28.0636 26.4307 28.2947 26.6202L28.5984 26.8697L29.4959 26.5515C29.6603 26.773 29.7976 27.0119 29.9079 27.2633L29.1855 27.8813L29.2483 28.2672ZM26.5762 26.9142C25.6361 26.9142 24.874 27.6763 24.874 28.6163C24.874 29.5564 25.6361 30.3185 26.5762 30.3185C27.5162 30.3185 28.2783 29.5564 28.2783 28.6163C28.2783 27.6763 27.5162 26.9142 26.5762 26.9142ZM27.3421 29.3823C27.2417 29.4831 27.1223 29.563 26.9908 29.6174C26.8594 29.6718 26.7184 29.6997 26.5762 29.6995C26.287 29.6995 26.0152 29.5864 25.8102 29.3823C25.7095 29.2818 25.6296 29.1625 25.5751 29.031C25.5207 28.8995 25.4928 28.7586 25.493 28.6163C25.493 28.3272 25.6061 28.0554 25.8102 27.8504C26.0152 27.6454 26.287 27.5332 26.5762 27.5332C26.8653 27.5332 27.1371 27.6454 27.3421 27.8504C27.4429 27.9509 27.5228 28.0702 27.5772 28.2017C27.6316 28.3331 27.6596 28.4741 27.6593 28.6163C27.6593 28.9055 27.5462 29.1773 27.3421 29.3823Z" fill="white"/>
<path fill-rule="evenodd" clip-rule="evenodd" d="M29.2483 28.2672C29.2725 28.4133 29.2851 28.5632 29.2851 28.7131C29.2851 28.863 29.2725 29.0129 29.2483 29.1589L29.1845 29.5467L29.9069 30.1647C29.7974 30.417 29.6592 30.6559 29.4949 30.8765L28.5974 30.5583L28.2938 30.8078C28.0626 30.9974 27.8054 31.1463 27.5268 31.2508L27.1584 31.3891L26.9853 32.3272C26.7121 32.3581 26.4363 32.3581 26.1632 32.3272L25.9901 31.3871L25.6245 31.2469C25.3489 31.1425 25.0926 30.9935 24.8634 30.8049L24.5597 30.5545L23.6564 30.8755C23.492 30.6541 23.3547 30.4152 23.2444 30.1637L23.9746 29.5399L23.9117 29.1531C23.8885 29.009 23.876 28.8601 23.876 28.7131C23.876 28.5651 23.8876 28.4171 23.9117 28.273L23.9746 27.8862L23.2444 27.2624C23.3537 27.01 23.492 26.772 23.6564 26.5506L24.5597 26.8717L24.8634 26.6212C25.0926 26.4326 25.3489 26.2837 25.6245 26.1792L25.9911 26.0409L26.1642 25.1009C26.4359 25.0699 26.7135 25.0699 26.9862 25.1009L27.1593 26.039L27.5278 26.1773C27.8054 26.2817 28.0636 26.4307 28.2947 26.6202L28.5984 26.8697L29.4959 26.5515C29.6603 26.773 29.7976 27.0119 29.9079 27.2633L29.1855 27.8813L29.2483 28.2672ZM24.874 28.6163C24.874 27.6763 25.6361 26.9142 26.5762 26.9142C27.5162 26.9142 28.2783 27.6763 28.2783 28.6163C28.2783 29.5564 27.5162 30.3185 26.5762 30.3185C25.6361 30.3185 24.874 29.5564 24.874 28.6163Z" fill="white"/>
<defs>
<linearGradient id="paint0_linear_9509_81142" x1="20" y1="0" x2="20" y2="40" gradientUnits="userSpaceOnUse">
<stop stop-color="#8DC9F4"/>
<stop offset="1" stop-color="#1099FC"/>
</linearGradient>
</defs>
</svg>
