<svg width="25" height="25" viewBox="0 0 25 25" fill="none" xmlns="http://www.w3.org/2000/svg">
<path d="M21.4099 11.4172C21.4099 16.3072 17.8599 20.8872 13.0099 22.2272C12.6799 22.3172 12.3198 22.3172 11.9898 22.2272C7.13984 20.8872 3.58984 16.3072 3.58984 11.4172V7.02715C3.58984 6.20715 4.20986 5.27716 4.97986 4.96716L10.5498 2.68719C11.7998 2.17719 13.2098 2.17719 14.4598 2.68719L20.0298 4.96716C20.7898 5.27716 21.4199 6.20715 21.4199 7.02715L21.4099 11.4172Z" stroke="#6B6B6B" stroke-width="1.5" stroke-linecap="round" stroke-linejoin="round"/>
<path d="M12.5 12.7969C13.6046 12.7969 14.5 11.9014 14.5 10.7969C14.5 9.69231 13.6046 8.79688 12.5 8.79688C11.3954 8.79688 10.5 9.69231 10.5 10.7969C10.5 11.9014 11.3954 12.7969 12.5 12.7969Z" stroke="#6B6B6B" stroke-width="1.5" stroke-miterlimit="10" stroke-linecap="round" stroke-linejoin="round"/>
<path d="M12.5 12.7969V15.7969" stroke="#6B6B6B" stroke-width="1.5" stroke-miterlimit="10" stroke-linecap="round" stroke-linejoin="round"/>
</svg>
