<svg width="40" height="40" viewBox="0 0 40 40" fill="none" xmlns="http://www.w3.org/2000/svg">
<rect width="40" height="40" rx="20" fill="url(#paint0_linear_9509_81190)"/>
<path fill-rule="evenodd" clip-rule="evenodd" d="M16.7974 14.7314C15.6834 14.727 14.784 13.8204 14.7884 12.7065C14.7865 12.1908 14.9821 11.694 15.3351 11.318C16.0978 10.5058 17.3746 10.4656 18.1868 11.2283L21.1847 9.86606C21.1635 9.75358 21.1519 9.63951 21.15 9.52506C21.149 8.86009 21.475 8.23716 22.022 7.85898C22.9404 7.22397 24.1998 7.45369 24.8348 8.37211C25.4698 9.29053 25.2401 10.5498 24.3217 11.1848C23.4032 11.8198 22.1439 11.5901 21.5089 10.6717L18.6888 11.9533C18.888 12.4382 18.8872 12.9822 18.6866 13.4666L21.5106 14.7416C21.8909 14.1899 22.519 13.8614 23.1891 13.8635C24.3107 13.867 25.2171 14.7791 25.2135 15.9007C25.21 17.0223 24.2979 17.9287 23.1762 17.9251C22.0546 17.9216 21.1482 17.0095 21.1518 15.8879C21.1537 15.7736 21.1652 15.6597 21.1861 15.5473L18.1803 14.1902C17.8049 14.5399 17.3104 14.7334 16.7974 14.7314ZM9.99561 23.392C9.99561 22.8397 10.4433 22.392 10.9956 22.392H29.0044C29.5567 22.392 30.0044 22.8397 30.0044 23.392V25.0163C30.0044 25.5686 29.5567 26.0163 29.0044 26.0163H10.9956C10.4433 26.0163 9.99561 25.5686 9.99561 25.0163V23.392ZM9.99561 29.7108C9.99561 29.1585 10.4433 28.7108 10.9956 28.7108H29.0044C29.5567 28.7108 30.0044 29.1585 30.0044 29.7108V31.5C30.0044 32.0523 29.5567 32.5 29.0044 32.5H10.9956C10.4433 32.5 9.99561 32.0523 9.99561 31.5V29.7108Z" fill="white"/>
<defs>
<linearGradient id="paint0_linear_9509_81190" x1="0" y1="0" x2="40" y2="40" gradientUnits="userSpaceOnUse">
<stop stop-color="#F5B879"/>
<stop offset="1" stop-color="#E95D7A"/>
</linearGradient>
</defs>
</svg>
