<svg width="24" height="24" viewBox="0 0 24 24" fill="none" xmlns="http://www.w3.org/2000/svg">
<path d="M16.8214 15.0536C16.2488 15.0536 15.7205 15.2545 15.3067 15.59L11.1442 12.5786C11.2139 12.196 11.2139 11.804 11.1442 11.4214L15.3067 8.41004C15.7205 8.74554 16.2488 8.94643 16.8214 8.94643C18.1513 8.94643 19.2321 7.86563 19.2321 6.53571C19.2321 5.2058 18.1513 4.125 16.8214 4.125C15.4915 4.125 14.4107 5.2058 14.4107 6.53571C14.4107 6.76875 14.4428 6.99174 14.5051 7.20469L10.5515 10.0674C9.96492 9.28996 9.03278 8.78571 7.98211 8.78571C6.20622 8.78571 4.76782 10.2241 4.76782 12C4.76782 13.7759 6.20622 15.2143 7.98211 15.2143C9.03278 15.2143 9.96492 14.71 10.5515 13.9326L14.5051 16.7953C14.4428 17.0083 14.4107 17.2333 14.4107 17.4643C14.4107 18.7942 15.4915 19.875 16.8214 19.875C18.1513 19.875 19.2321 18.7942 19.2321 17.4643C19.2321 16.1344 18.1513 15.0536 16.8214 15.0536ZM16.8214 5.49107C17.398 5.49107 17.866 5.95915 17.866 6.53571C17.866 7.11228 17.398 7.58036 16.8214 7.58036C16.2448 7.58036 15.7768 7.11228 15.7768 6.53571C15.7768 5.95915 16.2448 5.49107 16.8214 5.49107ZM7.98211 13.7679C7.00778 13.7679 6.21425 12.9743 6.21425 12C6.21425 11.0257 7.00778 10.2321 7.98211 10.2321C8.95644 10.2321 9.74997 11.0257 9.74997 12C9.74997 12.9743 8.95644 13.7679 7.98211 13.7679ZM16.8214 18.5089C16.2448 18.5089 15.7768 18.0408 15.7768 17.4643C15.7768 16.8877 16.2448 16.4196 16.8214 16.4196C17.398 16.4196 17.866 16.8877 17.866 17.4643C17.866 18.0408 17.398 18.5089 16.8214 18.5089Z" fill="#20a2a2"/>
</svg>
