<svg width="46" height="39" viewBox="0 0 46 39" fill="none" xmlns="http://www.w3.org/2000/svg">
<path d="M9.27745 21.1133C4.6119 21.1133 0.833008 24.8922 0.833008 29.5577C0.833008 34.2233 4.6119 38.0022 9.27745 38.0022C13.943 38.0022 17.7219 34.2233 17.7219 29.5577C17.7219 24.8922 13.943 21.1133 9.27745 21.1133ZM11.3886 28.8822C11.3886 30.1699 10.6919 31.3944 9.59412 32.0488L7.98967 33.0199C7.73634 33.1888 7.44079 33.2522 7.16634 33.2522C6.63856 33.2522 6.11079 32.9777 5.81523 32.4922C5.3719 31.7533 5.72088 30.8517 6.48088 30.4084L8.08532 29.4372C8.2331 29.3528 8.31352 29.0511 8.31352 28.8822V27.455V26.0278C8.31352 25.1411 8.93967 24.4445 9.80523 24.4445C10.6708 24.4445 11.3886 25.1623 11.3886 26.0278V28.8822Z" fill="url(#paint0_linear_9509_79475)"/>
<path d="M34.611 0H13.4999C7.16656 0 2.94434 3.16667 2.94434 10.5556V18.0711C2.94434 18.8522 3.74656 19.3378 4.44322 19.0211C6.51211 18.0711 8.89767 17.7122 11.4099 18.1556C16.9621 19.1478 21.0366 24.2989 20.8888 29.9356C20.8677 30.8222 20.741 31.6878 20.5088 32.5322C20.3399 33.1867 20.8677 33.7989 21.5432 33.7989H34.611C40.9443 33.7989 45.1666 30.6322 45.1666 23.2433V10.5556C45.1666 3.16667 40.9443 0 34.611 0ZM24.0554 22.1667C21.1421 22.1667 18.7777 19.8022 18.7777 16.8889C18.7777 13.9756 21.1421 11.6111 24.0554 11.6111C26.9688 11.6111 29.3332 13.9756 29.3332 16.8889C29.3332 19.8022 26.9688 22.1667 24.0554 22.1667ZM39.361 21.1111C39.361 21.9767 38.6432 22.6944 37.7777 22.6944C36.9121 22.6944 36.1943 21.9767 36.1943 21.1111V12.6667C36.1943 11.8011 36.9121 11.0833 37.7777 11.0833C38.6432 11.0833 39.361 11.8011 39.361 12.6667V21.1111Z" fill="url(#paint1_linear_9509_79475)"/>
<defs>
<linearGradient id="paint0_linear_9509_79475" x1="0.833008" y1="21.1133" x2="17.7219" y2="38.0022" gradientUnits="userSpaceOnUse">
<stop stop-color="#FFBDA1"/>
<stop offset="1" stop-color="#B0B331"/>
</linearGradient>
<linearGradient id="paint1_linear_9509_79475" x1="2.94434" y1="0" x2="35.9234" y2="41.1981" gradientUnits="userSpaceOnUse">
<stop stop-color="#FFBDA1"/>
<stop offset="1" stop-color="#B0B331"/>
</linearGradient>
</defs>
</svg>
