<svg width="40" height="41" viewBox="0 0 40 41" fill="none" xmlns="http://www.w3.org/2000/svg">
<g clip-path="url(#clip0_6515_240501)">
<rect y="0.15625" width="40" height="40" rx="2" fill="url(#paint0_linear_6515_240501)"/>
<ellipse cx="20" cy="9.02344" rx="32.3154" ry="19.6836" fill="#33A45E"/>
<path d="M20 33.6562C27.4558 33.6562 33.5 27.6121 33.5 20.1562C33.5 12.7004 27.4558 6.65625 20 6.65625C12.5442 6.65625 6.5 12.7004 6.5 20.1562C6.5 22.8394 7.28276 25.3397 8.63237 27.4413C8.72449 27.5847 8.75533 27.7596 8.71329 27.9249L7.75744 31.6812C7.64613 32.1186 8.03951 32.5177 8.47849 32.4127L12.3221 31.4933C12.4834 31.4547 12.6532 31.4852 12.7934 31.5739C14.8787 32.8928 17.3502 33.6562 20 33.6562Z" fill="white"/>
<path fill-rule="evenodd" clip-rule="evenodd" d="M20 32.6562C26.9036 32.6562 32.5 27.0598 32.5 20.1562C32.5 13.2527 26.9036 7.65625 20 7.65625C13.0964 7.65625 7.5 13.2527 7.5 20.1562C7.5 22.6421 8.22462 24.9557 9.47381 26.9009L8.63853 27.4373L9.47381 26.9009C9.70998 27.2687 9.79539 27.7274 9.6824 28.1715L8.88985 31.2861L12.0894 30.5207C12.5231 30.417 12.9684 30.5013 13.328 30.7288C15.258 31.9495 17.5449 32.6562 20 32.6562ZM8.24585 31.4401C8.24602 31.4401 8.24619 31.44 8.24637 31.44L8.24585 31.4401ZM33.5 20.1562C33.5 27.6121 27.4558 33.6562 20 33.6562C17.3502 33.6562 14.8787 32.8928 12.7934 31.5739C12.6532 31.4852 12.4834 31.4547 12.3221 31.4933L8.47849 32.4127C8.03951 32.5177 7.64613 32.1186 7.75744 31.6812L8.71329 27.9249C8.75533 27.7596 8.72449 27.5847 8.63237 27.4413C7.28276 25.3397 6.5 22.8394 6.5 20.1562C6.5 12.7004 12.5442 6.65625 20 6.65625C27.4558 6.65625 33.5 12.7004 33.5 20.1562Z" fill="white"/>
<path d="M12.5701 23.7572C12.1568 23.7572 11.7701 23.7272 11.4101 23.6672C11.0568 23.6072 10.7501 23.5205 10.4901 23.4072V22.2172C10.7835 22.3372 11.1001 22.4339 11.4401 22.5072C11.7801 22.5805 12.1135 22.6172 12.4401 22.6172C12.9068 22.6172 13.2501 22.5739 13.4701 22.4872C13.6901 22.4005 13.8001 22.2039 13.8001 21.8972C13.8001 21.7039 13.7535 21.5505 13.6601 21.4372C13.5668 21.3239 13.4035 21.2239 13.1701 21.1372C12.9435 21.0439 12.6201 20.9405 12.2001 20.8272C11.5268 20.6405 11.0535 20.4072 10.7801 20.1272C10.5068 19.8472 10.3701 19.4605 10.3701 18.9672C10.3701 18.3739 10.5868 17.9172 11.0201 17.5972C11.4535 17.2772 12.0835 17.1172 12.9101 17.1172C13.2968 17.1172 13.6568 17.1439 13.9901 17.1972C14.3235 17.2505 14.5935 17.3139 14.8001 17.3872V18.5772C14.2535 18.3705 13.6835 18.2672 13.0901 18.2672C12.6701 18.2672 12.3401 18.3139 12.1001 18.4072C11.8601 18.4939 11.7401 18.6805 11.7401 18.9672C11.7401 19.1339 11.7835 19.2672 11.8701 19.3672C11.9568 19.4672 12.1035 19.5572 12.3101 19.6372C12.5235 19.7172 12.8201 19.8072 13.2001 19.9072C13.7268 20.0472 14.1335 20.2139 14.4201 20.4072C14.7068 20.6005 14.9035 20.8205 15.0101 21.0672C15.1235 21.3139 15.1801 21.5905 15.1801 21.8972C15.1801 22.4572 14.9668 22.9072 14.5401 23.2472C14.1135 23.5872 13.4568 23.7572 12.5701 23.7572Z" fill="#00AA66"/>
<path d="M16.517 23.6572V17.2172H17.877L19.767 21.0872L21.657 17.2172H23.007V23.6572H21.657V19.4672L20.157 22.5472H19.377L17.867 19.4672V23.6572H16.517Z" fill="#00AA66"/>
<path d="M26.5439 23.7572C26.1306 23.7572 25.7439 23.7272 25.3839 23.6672C25.0306 23.6072 24.7239 23.5205 24.4639 23.4072V22.2172C24.7573 22.3372 25.0739 22.4339 25.4139 22.5072C25.7539 22.5805 26.0873 22.6172 26.4139 22.6172C26.8806 22.6172 27.2239 22.5739 27.4439 22.4872C27.6639 22.4005 27.7739 22.2039 27.7739 21.8972C27.7739 21.7039 27.7273 21.5505 27.6339 21.4372C27.5406 21.3239 27.3773 21.2239 27.1439 21.1372C26.9173 21.0439 26.5939 20.9405 26.1739 20.8272C25.5006 20.6405 25.0273 20.4072 24.7539 20.1272C24.4806 19.8472 24.3439 19.4605 24.3439 18.9672C24.3439 18.3739 24.5606 17.9172 24.9939 17.5972C25.4273 17.2772 26.0573 17.1172 26.8839 17.1172C27.2706 17.1172 27.6306 17.1439 27.9639 17.1972C28.2973 17.2505 28.5673 17.3139 28.7739 17.3872V18.5772C28.2273 18.3705 27.6573 18.2672 27.0639 18.2672C26.6439 18.2672 26.3139 18.3139 26.0739 18.4072C25.8339 18.4939 25.7139 18.6805 25.7139 18.9672C25.7139 19.1339 25.7573 19.2672 25.8439 19.3672C25.9306 19.4672 26.0773 19.5572 26.2839 19.6372C26.4973 19.7172 26.7939 19.8072 27.1739 19.9072C27.7006 20.0472 28.1073 20.2139 28.3939 20.4072C28.6806 20.6005 28.8773 20.8205 28.9839 21.0672C29.0973 21.3139 29.1539 21.5905 29.1539 21.8972C29.1539 22.4572 28.9406 22.9072 28.5139 23.2472C28.0873 23.5872 27.4306 23.7572 26.5439 23.7572Z" fill="#00AA66"/>
</g>
<defs>
<linearGradient id="paint0_linear_6515_240501" x1="38.5" y1="2.15625" x2="-0.607429" y2="41.0482" gradientUnits="userSpaceOnUse">
<stop stop-color="#16C27B"/>
<stop offset="1" stop-color="#1DAC44"/>
</linearGradient>
<clipPath id="clip0_6515_240501">
<rect y="0.15625" width="40" height="40" rx="2" fill="white"/>
</clipPath>
</defs>
</svg>
