<svg width="33" height="32" viewBox="0 0 33 32" fill="none" xmlns="http://www.w3.org/2000/svg">
<g filter="url(#filter0_i_7194_324049)">
<path d="M28.6412 14.2071C28.6412 19.6057 23.1239 25.484 18.322 28.3027C17.4175 28.8336 16.6025 27.6383 16.2805 26.6402C16.168 26.2915 15.8982 26.0665 15.4085 26.0665C8.10027 26.0665 2.17578 20.7568 2.17578 14.2071C2.17578 7.65729 8.10027 2.34766 15.4085 2.34766C22.7167 2.34766 28.6412 7.65729 28.6412 14.2071Z" fill="url(#paint0_linear_7194_324049)"/>
<path d="M28.6412 14.2071C28.6412 19.6057 23.1239 25.484 18.322 28.3027C17.4175 28.8336 16.6025 27.6383 16.2805 26.6402C16.168 26.2915 15.8982 26.0665 15.4085 26.0665C8.10027 26.0665 2.17578 20.7568 2.17578 14.2071C2.17578 7.65729 8.10027 2.34766 15.4085 2.34766C22.7167 2.34766 28.6412 7.65729 28.6412 14.2071Z" fill="url(#paint1_linear_7194_324049)"/>
</g>
<path d="M8.54883 10.7493C8.54883 10.48 8.76714 10.2617 9.03644 10.2617H21.7811C22.0504 10.2617 22.2687 10.48 22.2687 10.7493C22.2687 11.0186 22.0504 11.2369 21.7811 11.2369H9.03644C8.76714 11.2369 8.54883 11.0186 8.54883 10.7493Z" fill="#F5F5F5"/>
<path d="M8.54883 14.0618C8.54883 13.7925 8.76714 13.5742 9.03644 13.5742H21.7811C22.0504 13.5742 22.2687 13.7925 22.2687 14.0618C22.2687 14.3311 22.0504 14.5494 21.7811 14.5494H9.03644C8.76714 14.5494 8.54883 14.3311 8.54883 14.0618Z" fill="#F5F5F5"/>
<path d="M8.54883 17.3704C8.54883 17.1011 8.76714 16.8828 9.03644 16.8828H21.7811C22.0504 16.8828 22.2687 17.1011 22.2687 17.3704C22.2687 17.6397 22.0504 17.858 21.7811 17.858H9.03644C8.76714 17.858 8.54883 17.6397 8.54883 17.3704Z" fill="#F5F5F5"/>
<circle cx="24.6662" cy="9.55096" r="5.76581" fill="#4BCC1B"/>
<path fill-rule="evenodd" clip-rule="evenodd" d="M25.213 3.81074C22.285 4.08615 19.9939 6.551 19.9939 9.55096C19.9939 12.5509 22.285 15.0158 25.213 15.2912C25.033 15.3081 24.8506 15.3168 24.6662 15.3168C21.4818 15.3168 18.9004 12.7353 18.9004 9.55096C18.9004 6.3666 21.4818 3.78516 24.6662 3.78516C24.8506 3.78516 25.033 3.79381 25.213 3.81074Z" fill="#42AD11"/>
<path fill-rule="evenodd" clip-rule="evenodd" d="M24.7413 6.40885C24.4905 6.34107 24.2114 6.40561 24.0145 6.60248C23.7216 6.89538 23.7216 7.37025 24.0145 7.66314L25.0301 8.67866H25.4229L24.4073 7.66314C24.1144 7.37025 24.1144 6.89538 24.4073 6.60248C24.5034 6.50646 24.619 6.44191 24.7413 6.40885ZM24.7413 12.4485C24.619 12.4154 24.5034 12.3509 24.4073 12.2548C24.1144 11.9619 24.1144 11.4871 24.4073 11.1942L25.4229 10.1787H25.0301L24.0145 11.1942C23.7216 11.4871 23.7216 11.9619 24.0145 12.2548C24.2114 12.4517 24.4905 12.5163 24.7413 12.4485ZM22.6418 10.1787C22.2276 10.1787 21.8918 9.84288 21.8918 9.42866C21.8918 9.01445 22.2276 8.67866 22.6418 8.67866H22.249C21.8348 8.67866 21.499 9.01445 21.499 9.42866C21.499 9.84288 21.8348 10.1787 22.249 10.1787H22.6418Z" fill="#D8DCE5"/>
<path d="M22.4678 9.42836H26.9964M26.9964 9.42836L24.7321 7.16406M26.9964 9.42836L24.7321 11.6927" stroke="#E4EAF8" stroke-width="1.5" stroke-linecap="round" stroke-linejoin="round"/>
<defs>
<filter id="filter0_i_7194_324049" x="-13.4594" y="2.34766" width="42.101" height="26.0859" filterUnits="userSpaceOnUse" color-interpolation-filters="sRGB">
<feFlood flood-opacity="0" result="BackgroundImageFix"/>
<feBlend mode="normal" in="SourceGraphic" in2="BackgroundImageFix" result="shape"/>
<feColorMatrix in="SourceAlpha" type="matrix" values="0 0 0 0 0 0 0 0 0 0 0 0 0 0 0 0 0 0 127 0" result="hardAlpha"/>
<feOffset dx="-15.6352"/>
<feGaussianBlur stdDeviation="15.6352"/>
<feComposite in2="hardAlpha" operator="arithmetic" k2="-1" k3="1"/>
<feColorMatrix type="matrix" values="0 0 0 0 0.80575 0 0 0 0 0.7375 0 0 0 0 1 0 0 0 0.3 0"/>
<feBlend mode="normal" in2="shape" result="effect1_innerShadow_7194_324049"/>
</filter>
<linearGradient id="paint0_linear_7194_324049" x1="28.6412" y1="-0.52149" x2="2.98161" y2="31.2421" gradientUnits="userSpaceOnUse">
<stop offset="0.1201" stop-color="#D641EE"/>
<stop offset="0.479384" stop-color="#8D41EE"/>
<stop offset="0.971334" stop-color="#7041EE"/>
</linearGradient>
<linearGradient id="paint1_linear_7194_324049" x1="28.6412" y1="-0.52149" x2="2.98161" y2="31.2421" gradientUnits="userSpaceOnUse">
<stop offset="0.1201" stop-color="#D641EE"/>
<stop offset="0.479384" stop-color="#8D41EE"/>
<stop offset="0.971334" stop-color="#7041EE"/>
</linearGradient>
</defs>
</svg>
