<svg width="33" height="32" viewBox="0 0 33 32" fill="none" xmlns="http://www.w3.org/2000/svg">
<g filter="url(#filter0_i_7194_324048)">
<path d="M29.5123 14.2055C29.5123 19.6267 23.7768 25.5312 18.8066 28.3412C17.8909 28.8589 17.0897 27.6282 16.743 26.6349C16.6241 26.2941 16.3463 26.075 15.8475 26.075C8.30057 26.075 2.18262 20.7608 2.18262 14.2055C2.18262 7.65011 8.30057 2.33594 15.8475 2.33594C23.3943 2.33594 29.5123 7.65011 29.5123 14.2055Z" fill="url(#paint0_linear_7194_324048)"/>
<path d="M29.5123 14.2055C29.5123 19.6267 23.7768 25.5312 18.8066 28.3412C17.8909 28.8589 17.0897 27.6282 16.743 26.6349C16.6241 26.2941 16.3463 26.075 15.8475 26.075C8.30057 26.075 2.18262 20.7608 2.18262 14.2055C2.18262 7.65011 8.30057 2.33594 15.8475 2.33594C23.3943 2.33594 29.5123 7.65011 29.5123 14.2055Z" fill="url(#paint1_linear_7194_324048)"/>
</g>
<path d="M8.76367 10.7458C8.76367 10.4763 8.98217 10.2578 9.2517 10.2578H22.4435C22.7131 10.2578 22.9316 10.4763 22.9316 10.7458C22.9316 11.0154 22.7131 11.2339 22.4435 11.2339H9.2517C8.98217 11.2339 8.76367 11.0154 8.76367 10.7458Z" fill="#F5F5F5"/>
<path d="M8.76367 14.0583C8.76367 13.7888 8.98217 13.5703 9.2517 13.5703H22.4435C22.7131 13.5703 22.9316 13.7888 22.9316 14.0583C22.9316 14.3279 22.7131 14.5464 22.4435 14.5464H9.2517C8.98217 14.5464 8.76367 14.3279 8.76367 14.0583Z" fill="#F5F5F5"/>
<path d="M8.76367 17.3747C8.76367 17.1052 8.98217 16.8867 9.2517 16.8867H22.4435C22.7131 16.8867 22.9316 17.1052 22.9316 17.3747C22.9316 17.6443 22.7131 17.8628 22.4435 17.8628H9.2517C8.98217 17.8628 8.76367 17.6443 8.76367 17.3747Z" fill="#F5F5F5"/>
<circle cx="24.6926" cy="9.85956" r="5.76581" fill="#4884FA"/>
<path fill-rule="evenodd" clip-rule="evenodd" d="M25.2393 4.11934C22.3114 4.39474 20.0203 6.85959 20.0203 9.85956C20.0203 12.8595 22.3114 15.3244 25.2393 15.5998C25.0593 15.6167 24.877 15.6254 24.6926 15.6254C21.5082 15.6254 18.9268 13.0439 18.9268 9.85956C18.9268 6.67519 21.5082 4.09375 24.6926 4.09375C24.877 4.09375 25.0593 4.10241 25.2393 4.11934Z" fill="#2666E5"/>
<path fill-rule="evenodd" clip-rule="evenodd" d="M24.8911 6.70948C25.1417 6.64195 25.4205 6.70655 25.6172 6.90326C25.9101 7.19616 25.9101 7.67103 25.6172 7.96392L24.6085 8.97266H24.2169L25.2256 7.96392C25.5185 7.67103 25.5185 7.19616 25.2256 6.90326C25.1294 6.80709 25.0136 6.74249 24.8911 6.70948ZM24.8911 12.7358C25.0136 12.7028 25.1294 12.6382 25.2256 12.5421C25.5185 12.2492 25.5185 11.7743 25.2256 11.4814L24.2169 10.4727H24.6085L25.6172 11.4814C25.9101 11.7743 25.9101 12.2492 25.6172 12.5421C25.4205 12.7388 25.1417 12.8034 24.8911 12.7358ZM26.9843 10.4727C27.3986 10.4727 27.7343 10.1369 27.7343 9.72266C27.7343 9.30845 27.3986 8.97266 26.9843 8.97266H27.376C27.7902 8.97266 28.126 9.30845 28.126 9.72266C28.126 10.1369 27.7902 10.4727 27.376 10.4727H26.9843Z" fill="#D8DCE5"/>
<path d="M27.043 9.72246H22.5277M22.5277 9.72246L24.7854 7.46484M22.5277 9.72246L24.7854 11.9801" stroke="#E4EAF8" stroke-width="1.5" stroke-linecap="round" stroke-linejoin="round"/>
<defs>
<filter id="filter0_i_7194_324048" x="-13.4526" y="2.33594" width="42.9653" height="26.1289" filterUnits="userSpaceOnUse" color-interpolation-filters="sRGB">
<feFlood flood-opacity="0" result="BackgroundImageFix"/>
<feBlend mode="normal" in="SourceGraphic" in2="BackgroundImageFix" result="shape"/>
<feColorMatrix in="SourceAlpha" type="matrix" values="0 0 0 0 0 0 0 0 0 0 0 0 0 0 0 0 0 0 127 0" result="hardAlpha"/>
<feOffset dx="-15.6352"/>
<feGaussianBlur stdDeviation="15.6352"/>
<feComposite in2="hardAlpha" operator="arithmetic" k2="-1" k3="1"/>
<feColorMatrix type="matrix" values="0 0 0 0 0.80575 0 0 0 0 0.7375 0 0 0 0 1 0 0 0 0.3 0"/>
<feBlend mode="normal" in2="shape" result="effect1_innerShadow_7194_324048"/>
</filter>
<linearGradient id="paint0_linear_7194_324048" x1="29.5123" y1="-0.535659" x2="4.01099" y2="32.0351" gradientUnits="userSpaceOnUse">
<stop offset="0.1201" stop-color="#D641EE"/>
<stop offset="0.479384" stop-color="#8D41EE"/>
<stop offset="0.971334" stop-color="#7041EE"/>
</linearGradient>
<linearGradient id="paint1_linear_7194_324048" x1="29.5123" y1="-0.535659" x2="4.01099" y2="32.0351" gradientUnits="userSpaceOnUse">
<stop offset="0.1201" stop-color="#D641EE"/>
<stop offset="0.479384" stop-color="#8D41EE"/>
<stop offset="0.971334" stop-color="#7041EE"/>
</linearGradient>
</defs>
</svg>
