<svg width="48" height="38" viewBox="0 0 48 38" fill="none" xmlns="http://www.w3.org/2000/svg">
<path fill-rule="evenodd" clip-rule="evenodd" d="M25.963 0.5H11.163C3.76299 0.5 0.0629883 4.2 0.0629883 11.6V35.65C0.0629883 36.6675 0.895488 37.5 1.91299 37.5H25.963C31.1572 37.5 34.5284 35.6771 36.0767 32.0312C29.3226 31.5257 23.9939 25.8801 23.9939 18.9974C23.9939 12.1155 29.3215 6.47029 36.0746 5.9638C34.5253 2.32127 31.1548 0.5 25.963 0.5ZM20.0138 25.0125H9.31299C8.55449 25.0125 7.92549 24.3835 7.92549 23.625C7.92549 22.8665 8.55449 22.2375 9.31299 22.2375H20.0138C20.7723 22.2375 21.4013 22.8665 21.4013 23.625C21.4013 24.3835 20.7723 25.0125 20.0138 25.0125ZM16.5669 15.7625H9.31299C8.55449 15.7625 7.92549 15.1335 7.92549 14.375C7.92549 13.6165 8.55449 12.9875 9.31299 12.9875H16.5669C17.3254 12.9875 17.9544 13.6165 17.9544 14.375C17.9544 15.1335 17.3254 15.7625 16.5669 15.7625ZM36.9291 30.0085C30.8527 30.0085 25.921 25.0768 25.921 19.0003C25.921 12.9239 30.8527 7.99223 36.9291 7.99223C43.0056 7.99223 47.9373 12.9239 47.9373 19.0003C47.9373 25.0768 43.0056 30.0085 36.9291 30.0085ZM41.3654 18.4169L38.063 15.1145C37.7437 14.7952 37.2154 14.7952 36.8961 15.1145C36.5769 15.4337 36.5769 15.9621 36.8961 16.2813L38.7895 18.1747H33.0763C32.625 18.1747 32.2507 18.549 32.2507 19.0003C32.2507 19.4517 32.625 19.826 33.0763 19.826H38.7895L36.8961 21.7194C36.5769 22.0386 36.5769 22.567 36.8961 22.8862C37.2154 23.2054 37.7437 23.2054 38.063 22.8862L41.3654 19.5838C41.5305 19.4187 41.6076 19.2095 41.6076 19.0003C41.6076 18.7912 41.5305 18.582 41.3654 18.4169Z" fill="url(#paint0_linear_9509_81411)"/>
<defs>
<linearGradient id="paint0_linear_9509_81411" x1="24.0001" y1="0.5" x2="24.0001" y2="37.5" gradientUnits="userSpaceOnUse">
<stop stop-color="#51BC54"/>
<stop offset="1" stop-color="#209B23"/>
</linearGradient>
</defs>
</svg>
