<svg width="48" height="38" viewBox="0 0 48 38" fill="none" xmlns="http://www.w3.org/2000/svg">
<path fill-rule="evenodd" clip-rule="evenodd" d="M11.1947 0.765625H25.7811C30.8982 0.765625 34.2202 2.5608 35.747 6.15116C29.0912 6.65018 23.8403 12.214 23.8403 18.9967C23.8403 25.78 29.092 31.3441 35.7485 31.8423C34.2225 35.4352 30.9 37.2316 25.7811 37.2316H2.07818C1.07537 37.2316 0.254883 36.4111 0.254883 35.4083V11.7054C0.254883 4.41222 3.90148 0.765625 11.1947 0.765625ZM9.37137 24.9243H19.9177C20.6653 24.9243 21.2852 24.3044 21.2852 23.5569C21.2852 22.8093 20.6653 22.1894 19.9177 22.1894H9.37137C8.62382 22.1894 8.0039 22.8093 8.0039 23.5569C8.0039 24.3044 8.62382 24.9243 9.37137 24.9243ZM9.37137 15.8078H16.5206C17.2682 15.8078 17.8881 15.1879 17.8881 14.4404C17.8881 13.6928 17.2682 13.0729 16.5206 13.0729H9.37137C8.62382 13.0729 8.0039 13.6928 8.0039 14.4404C8.0039 15.1879 8.62382 15.8078 9.37137 15.8078ZM36.8964 8.15028C30.9079 8.15028 26.0478 12.9888 26.0478 18.9989C26.0478 24.9873 30.9079 29.8475 36.8964 29.8475C42.9065 29.8475 47.745 24.9873 47.745 18.9989C47.745 12.9888 42.9065 8.15028 36.8964 8.15028ZM41.3443 18.0225L40.5415 18.8036L35.8115 23.5553C35.5946 23.7506 35.1823 23.9676 34.8785 24.011L32.7522 24.3147C31.9928 24.4232 31.4504 23.8808 31.5589 23.1214L31.8626 20.9951C31.906 20.6913 32.1013 20.279 32.3183 20.0621L37.0483 15.3538L37.8294 14.551C38.3501 14.0302 38.9359 13.6831 39.5435 13.6831C40.0642 13.6831 40.65 13.9218 41.3009 14.551C42.7547 15.9613 42.299 17.0679 41.3443 18.0225ZM35.6015 22.1729L39.5681 18.2056V18.205L37.6891 16.3267L33.7232 20.294C33.5103 20.5065 33.3591 20.7729 33.2858 21.0647L32.9058 22.587C32.892 22.6425 32.8928 22.7008 32.9082 22.7559C32.9235 22.8111 32.9529 22.8614 32.9935 22.9018C33.034 22.9423 33.0843 22.9716 33.1395 22.9869C33.1947 23.0022 33.2529 23.0029 33.3085 22.989L34.8307 22.609C35.1221 22.5363 35.3888 22.3849 35.6015 22.1729ZM40.5082 17.2662C41.0263 16.7474 41.0263 15.9066 40.5082 15.3879H40.5076C40.2585 15.1388 39.9207 14.9989 39.5684 14.9989C39.2162 14.9989 38.8784 15.1388 38.6293 15.3879L38.1592 15.8566L40.0375 17.7356L40.5082 17.2662Z" fill="url(#paint0_linear_9509_78510)"/>
<defs>
<linearGradient id="paint0_linear_9509_78510" x1="23.9999" y1="0.765625" x2="23.9999" y2="37.2316" gradientUnits="userSpaceOnUse">
<stop stop-color="#FFA16C"/>
<stop offset="1" stop-color="#E87A3D"/>
</linearGradient>
</defs>
</svg>
