<svg width="20" height="20" viewBox="0 0 20 20" fill="none" xmlns="http://www.w3.org/2000/svg">
<g id="Component 374">
<g id="vuesax/outline/happyemoji">
<g id="happyemoji">
<path id="Vector" d="M9.97493 18.9582C5.0416 18.9582 1.0166 14.9415 1.0166 9.99984C1.0166 5.05817 5.0416 1.0415 9.97493 1.0415C14.9083 1.0415 18.9333 5.05817 18.9333 9.99984C18.9333 14.9415 14.9166 18.9582 9.97493 18.9582ZM9.97493 2.2915C5.72494 2.2915 2.2666 5.74984 2.2666 9.99984C2.2666 14.2498 5.72494 17.7082 9.97493 17.7082C14.2249 17.7082 17.6833 14.2498 17.6833 9.99984C17.6833 5.74984 14.2249 2.2915 9.97493 2.2915Z" fill="#A9A9A9"/>
<path id="Vector_2" d="M10.0002 16.0416C8.20856 16.0416 6.52522 15.1666 5.50022 13.6916C5.30022 13.4083 5.37522 13.0166 5.65856 12.8249C5.94189 12.6249 6.33356 12.6999 6.52522 12.9833C7.31689 14.1166 8.61689 14.7999 10.0002 14.7999C11.3836 14.7999 12.6836 14.1249 13.4752 12.9833C13.6752 12.6999 14.0586 12.6333 14.3419 12.8249C14.6252 13.0249 14.6919 13.4083 14.5002 13.6916C13.4752 15.1666 11.7919 16.0416 10.0002 16.0416Z" fill="#A9A9A9"/>
</g>
</g>
</g>
</svg>
