<svg width="21" height="20" viewBox="0 0 21 20" fill="none" xmlns="http://www.w3.org/2000/svg">
<path d="M4.35719 9.86072C4.37504 9.08036 4.53576 8.32322 4.83754 7.61072C5.14647 6.87857 5.58933 6.22321 6.15362 5.65714C6.7179 5.09107 7.37504 4.64821 8.10719 4.33929C8.86433 4.01964 9.6679 3.85714 10.4983 3.85714C11.3286 3.85714 12.1322 4.01964 12.8875 4.33929C13.6176 4.64758 14.2805 5.09521 14.8393 5.65714C15.0161 5.83393 15.1822 6.02143 15.3358 6.21786L14.2608 7.05714C14.2395 7.0736 14.2233 7.09572 14.214 7.12097C14.2048 7.14622 14.2028 7.17356 14.2084 7.19987C14.214 7.22617 14.2269 7.25036 14.2457 7.26965C14.2644 7.28895 14.2882 7.30256 14.3143 7.30893L17.4518 8.07679C17.5411 8.09821 17.6286 8.03036 17.6286 7.93929L17.6429 4.70893C17.6429 4.58929 17.5054 4.52143 17.4125 4.59643L16.4054 5.38393C15.0322 3.62679 12.8965 2.5 10.4965 2.5C6.4054 2.5 3.07683 5.77857 3.00004 9.85357C2.99957 9.87263 3.00291 9.89159 3.00988 9.90934C3.01684 9.92709 3.02729 9.94326 3.0406 9.9569C3.05392 9.97055 3.06983 9.98139 3.0874 9.9888C3.10496 9.9962 3.12384 10 3.1429 10H4.21433C4.2929 10 4.3554 9.9375 4.35719 9.86072ZM17.8572 10H16.7858C16.7072 10 16.6447 10.0625 16.6429 10.1393C16.625 10.9196 16.4643 11.6768 16.1625 12.3893C15.8536 13.1214 15.4108 13.7786 14.8465 14.3429C14.2769 14.9148 13.5998 15.3683 12.8541 15.6772C12.1084 15.9861 11.309 16.1444 10.5018 16.1429C9.69496 16.1444 8.89578 15.9861 8.1504 15.6771C7.40502 15.3682 6.72819 14.9147 6.15897 14.3429C5.98219 14.1661 5.81612 13.9786 5.66254 13.7821L6.73754 12.9429C6.75881 12.9264 6.77501 12.9043 6.78426 12.879C6.79352 12.8538 6.79546 12.8264 6.78986 12.8001C6.78427 12.7738 6.77136 12.7496 6.75263 12.7304C6.7339 12.7111 6.7101 12.6974 6.68397 12.6911L3.54647 11.9232C3.45719 11.9018 3.36969 11.9696 3.36969 12.0607L3.35719 15.2929C3.35719 15.4125 3.49469 15.4804 3.58754 15.4054L4.59469 14.6179C5.9679 16.3732 8.10362 17.5 10.5036 17.5C14.5965 17.5 17.9233 14.2196 18 10.1464C18.0005 10.1274 17.9972 10.1084 17.9902 10.0907C17.9832 10.0729 17.9728 10.0567 17.9595 10.0431C17.9462 10.0295 17.9303 10.0186 17.9127 10.0112C17.8951 10.0038 17.8763 10 17.8572 10V10Z" fill="#A9A9A9"/>
</svg>
