<svg width="17" height="16" viewBox="0 0 17 16" fill="none" xmlns="http://www.w3.org/2000/svg">
<path d="M14.6663 6.1024C13.1263 3.6824 10.873 2.28906 8.49967 2.28906C7.31301 2.28906 6.15967 2.63573 5.10634 3.2824C4.05301 3.93573 3.10634 4.88906 2.33301 6.1024C1.66634 7.14906 1.66634 8.84906 2.33301 9.89573C3.87301 12.3224 6.12634 13.7091 8.49967 13.7091C9.68634 13.7091 10.8397 13.3624 11.893 12.7157C12.9463 12.0624 13.893 11.1091 14.6663 9.89573C15.333 8.85573 15.333 7.14906 14.6663 6.1024ZM8.49967 10.6957C7.00634 10.6957 5.80634 9.48906 5.80634 8.0024C5.80634 6.51573 7.00634 5.30906 8.49967 5.30906C9.99301 5.30906 11.193 6.51573 11.193 8.0024C11.193 9.48906 9.99301 10.6957 8.49967 10.6957Z" fill="#919EAB"/>
<path d="M8.49961 6.0957C7.45294 6.0957 6.59961 6.94904 6.59961 8.00237C6.59961 9.04904 7.45294 9.90237 8.49961 9.90237C9.54628 9.90237 10.4063 9.04904 10.4063 8.00237C10.4063 6.9557 9.54628 6.0957 8.49961 6.0957Z" fill="#919EAB"/>
</svg>
