<svg width="17" height="16" viewBox="0 0 17 16" fill="none" xmlns="http://www.w3.org/2000/svg">
<path d="M12.0234 4.91211H11.9701H4.445H4.39173H3.58594L4.2319 12.7351C4.27852 13.2592 4.51825 13.7572 4.91116 14.111C5.30406 14.4713 5.8235 14.6679 6.36291 14.6679H10.0522C10.5916 14.6679 11.1111 14.4713 11.504 14.111C11.8969 13.7506 12.1433 13.2592 12.1832 12.7351L12.8292 4.91211H12.0234ZM9.06663 6.81216C9.06663 6.70078 9.11324 6.59595 9.19316 6.51732C9.27307 6.4387 9.37962 6.39284 9.49283 6.39284C9.59938 6.39284 9.69927 6.43215 9.77252 6.49767C9.85244 6.56319 9.89905 6.65491 9.91237 6.75974L9.91903 6.81871V11.3133C9.91903 11.4181 9.87908 11.523 9.80582 11.6016C9.73257 11.6802 9.63268 11.7261 9.51947 11.7326C9.41292 11.7392 9.30637 11.7064 9.21979 11.6409C9.13322 11.5754 9.07995 11.4771 9.06663 11.3723L9.05997 11.3133V6.81216H9.06663ZM6.4961 6.81216C6.4961 6.70078 6.54271 6.58939 6.62263 6.51077C6.70254 6.43215 6.80909 6.38629 6.9223 6.38629C7.02885 6.38629 7.12874 6.4256 7.20199 6.49112C7.28191 6.55663 7.32852 6.64836 7.34184 6.75319L7.3485 6.81216V11.3068C7.3485 11.4116 7.30854 11.5164 7.23529 11.595C7.16204 11.6737 7.06215 11.7195 6.94894 11.7261C6.83573 11.7326 6.73584 11.6999 6.64926 11.6344C6.56269 11.5688 6.50942 11.4706 6.4961 11.3657V11.3002V6.81216Z" fill="#919EAB"/>
<path d="M13.781 3.55605C13.7011 3.48398 13.5946 3.44467 13.488 3.44467H10.3514V3.33329C10.3248 2.79603 10.0851 2.28499 9.6855 1.91808C9.28593 1.54462 8.75318 1.33496 8.20711 1.33496C7.64106 1.33496 7.09499 1.55773 6.69542 1.95084C6.29586 2.34395 6.06944 2.88121 6.06944 3.43812H2.9262L2.87293 3.44467C2.77304 3.45777 2.6798 3.51019 2.60655 3.58226C2.5333 3.65433 2.5 3.75916 2.5 3.86399L2.50666 3.92296C2.51998 4.02124 2.57325 4.11296 2.64651 4.18503C2.72642 4.244 2.82631 4.28331 2.9262 4.28331H3.53221H4.39127H6.06944H6.9285H9.49903H10.3581H12.0363H12.8953H13.5013L13.5613 4.27676C13.6678 4.26366 13.7677 4.21124 13.8343 4.12607C13.9009 4.04089 13.9342 3.93606 13.9275 3.83123C13.9076 3.7264 13.8609 3.62812 13.781 3.55605ZM6.92184 3.43812V3.35294C6.94848 3.0319 7.09499 2.73707 7.33473 2.5143C7.57447 2.29809 7.88746 2.1736 8.21377 2.1736C8.54008 2.1736 8.85307 2.29809 9.09281 2.5143C9.33255 2.73051 9.4724 3.0319 9.49903 3.35294V3.43812H6.92184Z" fill="#919EAB"/>
</svg>
