<svg width="17" height="16" viewBox="0 0 17 16" fill="none" xmlns="http://www.w3.org/2000/svg">
<path d="M13.4997 13.557H3.49967C3.2719 13.557 3.08301 13.3681 3.08301 13.1403C3.08301 12.9125 3.2719 12.7236 3.49967 12.7236H13.4997C13.7275 12.7236 13.9163 12.9125 13.9163 13.1403C13.9163 13.3681 13.7275 13.557 13.4997 13.557Z" fill="#919EAB"/>
<path d="M11.8389 5.89814L6.88136 10.8565C6.61553 11.1215 6.28219 11.3106 5.91803 11.4015L4.01553 11.8765C3.94607 11.8938 3.87332 11.8929 3.80433 11.8738C3.73533 11.8547 3.67245 11.8181 3.62179 11.7675C3.57113 11.7169 3.53442 11.6541 3.51521 11.5852C3.49601 11.5162 3.49497 11.4435 3.51219 11.374L3.98719 9.47147C4.07876 9.10676 4.26772 8.77378 4.53386 8.50814L9.49053 3.5498L11.8389 5.8973V5.89814Z" fill="#919EAB"/>
<path d="M13.014 2.37678C13.6615 3.02511 13.6615 4.07595 13.014 4.72428L12.4256 5.31095L10.0781 2.96261L10.6656 2.37678C10.9769 2.0655 11.3991 1.89063 11.8394 1.89062C12.2796 1.89063 12.7018 2.0655 13.0131 2.37678H13.014Z" fill="#919EAB"/>
</svg>
