<svg width="48" height="48" viewBox="0 0 48 48" fill="none" xmlns="http://www.w3.org/2000/svg">
<rect width="48" height="48" rx="5" fill="#26A5E4"/>
<path fill-rule="evenodd" clip-rule="evenodd" d="M8.15676 22.1928C16.5785 18.5236 22.1943 16.1047 25.0041 14.9359C33.0269 11.599 34.694 11.0193 35.7805 11.0002C36.0195 10.996 36.5539 11.0552 36.9 11.3361C37.1922 11.5732 37.2727 11.8936 37.3111 12.1184C37.3496 12.3433 37.3975 12.8555 37.3594 13.2557C36.9247 17.8237 35.0435 28.9091 34.0865 34.0253C33.6815 36.1902 32.8841 36.9161 32.1122 36.9871C30.4345 37.1415 29.1606 35.8784 27.5357 34.8133C24.9931 33.1466 23.5567 32.1091 21.0887 30.4827C18.2365 28.6031 20.0854 27.57 21.7109 25.8817C22.1363 25.4399 29.528 18.7166 29.6711 18.1067C29.689 18.0304 29.7056 17.7461 29.5367 17.5959C29.3678 17.4458 29.1184 17.4971 28.9385 17.538C28.6835 17.5958 24.6217 20.2806 16.753 25.5921C15.6001 26.3838 14.5558 26.7696 13.6201 26.7494C12.5886 26.7271 10.6045 26.1661 9.12946 25.6867C7.32029 25.0986 5.88239 24.7877 6.0076 23.7889C6.07282 23.2687 6.7892 22.7367 8.15676 22.1928Z" fill="white"/>
</svg>
