<svg width="49" height="48" viewBox="0 0 49 48" fill="none" xmlns="http://www.w3.org/2000/svg">
<g clip-path="url(#clip0_7995_321872)">
<path d="M0.75 6C0.75 2.6863 3.43629 0 6.75 0H42.6667C45.9804 0 48.6667 2.68629 48.6667 6V41.9167C48.6667 45.2304 45.9804 47.9167 42.6667 47.9167H6.75C3.4363 47.9167 0.75 45.2304 0.75 41.9167V6Z" fill="#4663E1"/>
<path d="M19.6694 36.2603C17.6211 36.2603 15.7325 35.8938 14.0037 35.161L14.9339 31.0174C16.4184 31.6187 17.7996 31.9194 19.0775 31.9194C20.6184 31.9194 21.3888 31.3462 21.3888 30.1999C21.3888 29.3919 20.9942 28.8187 20.205 28.4805C19.4157 28.1422 18.1003 27.9731 16.2587 27.9731V24.4779C17.9312 24.4779 19.1808 24.3087 20.0077 23.9705C20.8533 23.6322 21.2761 23.153 21.2761 22.5329C21.2761 21.6873 20.5526 21.2645 19.1056 21.2645C17.7339 21.2645 16.3151 21.5839 14.8493 22.2228L13.75 18.3893C15.8171 17.3746 17.9875 16.8672 20.2613 16.8672C21.9902 16.8672 23.3902 17.2806 24.4613 18.1074C25.5512 18.9343 26.0962 20.0618 26.0962 21.49C26.0962 22.4108 25.8519 23.247 25.3633 23.9987C24.8935 24.7503 24.2546 25.3517 23.4465 25.8027C24.5177 26.2913 25.3633 26.9584 25.9834 27.804C26.6224 28.6496 26.9418 29.5892 26.9418 30.6228C26.9418 31.7691 26.6317 32.765 26.0116 33.6106C25.4103 34.4563 24.5553 35.114 23.4465 35.5838C22.3566 36.0348 21.0976 36.2603 19.6694 36.2603Z" fill="white"/>
<path d="M22.9824 15.7233H25.9562V17.1609C26.1723 16.6065 26.4636 16.1978 26.83 15.9347C27.2059 15.6623 27.6428 15.526 28.1408 15.526L28.5495 17.8233C27.6569 17.8233 26.9992 17.922 26.5763 18.1193C26.1629 18.3072 25.9562 18.6079 25.9562 19.0213V22.6857H22.9824V15.7233Z" fill="white"/>
<path d="M32.3589 22.7984C31.72 22.7984 31.1374 22.6293 30.6112 22.291C30.0945 21.9528 29.6858 21.5065 29.3851 20.9521C29.0844 20.3884 28.9341 19.7917 28.9341 19.1622C28.9341 18.4951 29.0891 17.8844 29.3992 17.33C29.7186 16.7663 30.1415 16.3247 30.6676 16.0052C31.2032 15.6857 31.7716 15.526 32.373 15.526C32.9179 15.526 33.3783 15.6388 33.7542 15.8643C34.1394 16.0898 34.4495 16.4515 34.6844 16.9495V13.3978L37.6582 12.9609V22.6857H34.6844V21.3749C34.2428 22.3239 33.4676 22.7984 32.3589 22.7984ZM33.2891 20.5716C33.6837 20.5716 34.0126 20.4307 34.2756 20.1488C34.5481 19.8669 34.6844 19.5381 34.6844 19.1622V19.1058C34.6844 18.7394 34.5434 18.4246 34.2615 18.1616C33.9797 17.8891 33.6555 17.7528 33.2891 17.7528C32.8944 17.7528 32.5609 17.8938 32.2884 18.1756C32.0253 18.4481 31.8938 18.777 31.8938 19.1622C31.8938 19.5568 32.03 19.8904 32.3025 20.1629C32.5844 20.4354 32.9132 20.5716 33.2891 20.5716Z" fill="white"/>
<path fill-rule="evenodd" clip-rule="evenodd" d="M22.1533 14.8931H26.7852V14.997C27.2021 14.7942 27.6582 14.6958 28.1407 14.6958H28.8353L29.1162 16.2748C29.4314 15.886 29.8052 15.5577 30.2373 15.2954L30.2429 15.292C30.9019 14.8989 31.6164 14.6958 32.3729 14.6958C32.9016 14.6958 33.4027 14.7838 33.8553 14.9837V12.6805L38.4872 12V23.5135H33.8553V23.3319C33.3979 23.5353 32.8925 23.6263 32.3588 23.6263C31.5645 23.6263 30.8258 23.4134 30.1629 22.9872L30.1571 22.9835C29.523 22.5685 29.021 22.0186 28.6563 21.3462L28.6535 21.3411C28.2898 20.6591 28.105 19.9287 28.105 19.161C28.105 18.9917 28.1134 18.8246 28.1302 18.6599C27.518 18.6866 27.1358 18.7719 26.9269 18.8694L26.9194 18.8729C26.8678 18.8963 26.8361 18.9171 26.8181 18.9314C26.8007 18.945 26.7951 18.9532 26.7944 18.9542C26.7939 18.9549 26.7929 18.9561 26.7913 18.9617C26.7894 18.9682 26.7852 18.9861 26.7852 19.0201V23.5135H22.1533V14.8931ZM28.1407 15.5248C27.6427 15.5248 27.2058 15.6611 26.83 15.9335C26.8149 15.9444 26.8 15.9554 26.7852 15.9667C26.4397 16.2304 26.1634 16.6281 25.9562 17.1597V15.7221H22.9824V22.6845H25.9562V19.0201C25.9562 18.6067 26.1629 18.306 26.5763 18.1181C26.854 17.9885 27.2331 17.9014 27.7136 17.857C27.8931 17.8403 28.0868 17.8297 28.2946 17.8249C28.3773 17.8231 28.4622 17.8221 28.5494 17.8221L28.1407 15.5248ZM28.9656 18.6512C28.9446 18.8173 28.934 18.9872 28.934 19.161C28.934 19.7906 29.0844 20.3872 29.385 20.9509C29.6857 21.5053 30.0944 21.9516 30.6112 22.2899C31.1374 22.6281 31.7199 22.7972 32.3588 22.7972C32.9536 22.7972 33.4525 22.6607 33.8553 22.3875C34.2033 22.1515 34.4796 21.8136 34.6843 21.3738V22.6845H37.6581V12.9598L34.6843 13.3967V16.9483C34.4703 16.4947 34.194 16.1541 33.8553 15.9266C33.8221 15.9043 33.7884 15.8832 33.7541 15.8631C33.3783 15.6376 32.9179 15.5248 32.3729 15.5248C31.7716 15.5248 31.2031 15.6846 30.6676 16.004C30.1414 16.3235 29.7186 16.7651 29.3991 17.3288C29.3743 17.3732 29.3505 17.418 29.3276 17.4631C29.2876 17.5421 29.2507 17.6222 29.2168 17.7034C29.0913 18.0041 29.0075 18.32 28.9656 18.6512ZM34.2756 20.1476C34.0125 20.4295 33.6836 20.5704 33.289 20.5704C32.9132 20.5704 32.5843 20.4342 32.3025 20.1617C32.03 19.8892 31.8937 19.5557 31.8937 19.161C31.8937 18.7758 32.0253 18.4469 32.2884 18.1745C32.5608 17.8926 32.8944 17.7516 33.289 17.7516C33.6555 17.7516 33.9796 17.8879 34.2615 18.1604C34.5434 18.4235 34.6843 18.7382 34.6843 19.1047V19.161C34.6843 19.5369 34.5481 19.8657 34.2756 20.1476ZM32.8848 18.7503C32.7737 18.8653 32.7228 18.9865 32.7228 19.161C32.7228 19.3391 32.7743 19.4591 32.8838 19.5706C33.0166 19.697 33.1402 19.7414 33.289 19.7414C33.46 19.7414 33.5673 19.6914 33.6695 19.5819L33.6745 19.5766L33.6795 19.5714C33.8097 19.4367 33.8553 19.3118 33.8553 19.161V19.1047C33.8553 18.9812 33.8196 18.8819 33.6958 18.7664L33.6905 18.7615L33.6853 18.7564C33.5461 18.6219 33.4244 18.5807 33.289 18.5807C33.1176 18.5807 32.9998 18.6315 32.8848 18.7503Z" fill="#4663E1"/>
</g>
<defs>
<clipPath id="clip0_7995_321872">
<rect x="0.75" width="48" height="48" rx="5" fill="white"/>
</clipPath>
</defs>
</svg>
