<svg width="14" height="14" viewBox="0 0 14 14" fill="none" xmlns="http://www.w3.org/2000/svg">
<g clip-path="url(#clip0_3_65616)">
<path d="M13.5625 8.75262C13.321 8.75262 13.125 8.55662 13.125 8.31512C13.125 6.62637 11.7512 5.25262 10.0625 5.25262H5.83333V7.14845C5.83333 7.53345 5.37017 7.72829 5.09367 7.46462L1.88533 4.40212C1.799 4.31987 1.75 4.20554 1.75 4.08595C1.75 3.96637 1.799 3.85204 1.88533 3.76979L5.09367 0.707287C5.37133 0.442454 5.83333 0.639621 5.83333 1.02345V2.91929H9.47917C11.9717 2.91929 14 4.94754 14 7.44012V8.31512C14 8.55662 13.804 8.75262 13.5625 8.75262Z" fill="#252424"/>
<path d="M8.16667 12.9792V11.0833H4.52083C2.02825 11.0833 0 9.05508 0 6.5625V5.6875C0 5.446 0.196 5.25 0.4375 5.25C0.679 5.25 0.875 5.446 0.875 5.6875C0.875 7.37625 2.24875 8.75 3.9375 8.75H8.16667V6.85417C8.16667 6.47092 8.62808 6.272 8.90633 6.538L12.1147 9.6005C12.201 9.68275 12.25 9.79708 12.25 9.91667C12.25 10.0362 12.201 10.1506 12.1147 10.2328L8.90633 13.2953C8.62808 13.5602 8.16667 13.363 8.16667 12.9792Z" fill="#252424"/>
</g>
<defs>
<clipPath id="clip0_3_65616">
<rect width="14" height="14" fill="white"/>
</clipPath>
</defs>
</svg>
