<svg width="24" height="24" viewBox="0 0 24 24" fill="none" xmlns="http://www.w3.org/2000/svg">
<g id="vuesax/outline/lock-slash">
<g id="lock-slash">
<path id="Vector" d="M12.0001 19.2483C10.9801 19.2483 10.0401 18.7883 9.42005 17.9783C9.17005 17.6483 9.23005 17.1783 9.56005 16.9283C9.89005 16.6783 10.3601 16.7383 10.6101 17.0683C10.9401 17.5083 11.4501 17.7483 12.0001 17.7483C12.9601 17.7483 13.7501 16.9583 13.7501 15.9983C13.7501 15.6083 13.6301 15.2383 13.3901 14.9383C13.1401 14.6083 13.2001 14.1383 13.5301 13.8883C13.8601 13.6383 14.3301 13.6983 14.5801 14.0283C15.0201 14.5983 15.2501 15.2783 15.2501 15.9983C15.2501 17.7883 13.7901 19.2483 12.0001 19.2483Z" fill="#E84F3D"/>
<path id="Vector_2" d="M17 22.75H7C6.63 22.75 6.28 22.74 5.95 22.72C5.54 22.7 5.22 22.34 5.24 21.93C5.26 21.52 5.61 21.22 6.03 21.22C6.33 21.24 6.65 21.24 6.99 21.24H16.99C20.56 21.24 21.24 20.56 21.24 16.99V14.99C21.24 11.48 20.5 10.91 17.95 10.76C17.65 10.74 17.33 10.74 16.99 10.74H7C3.43 10.74 2.75 11.42 2.75 14.99V16.99C2.75 18.73 2.95 19.76 3.41 20.32C3.67 20.64 3.62 21.12 3.29 21.37C2.97 21.63 2.5 21.58 2.24 21.25C1.54 20.4 1.25 19.16 1.25 17V15C1.25 10.59 2.59 9.25 7 9.25H17C17.37 9.25 17.72 9.26 18.04 9.28C22 9.5 22.75 11.46 22.75 15V17C22.75 21.41 21.41 22.75 17 22.75Z" fill="#E84F3D"/>
<path id="Vector_3" d="M6 10.75C5.59 10.75 5.25 10.41 5.25 10V8C5.25 5.1 5.95 1.25 12 1.25C16.07 1.25 18.18 2.58 18.64 5.44C18.71 5.85 18.43 6.23 18.02 6.3C17.61 6.37 17.23 6.09 17.16 5.68C16.91 4.16 16.12 2.75 12 2.75C7.64 2.75 6.75 4.85 6.75 8V10C6.75 10.41 6.41 10.75 6 10.75Z" fill="#E84F3D"/>
<path id="Vector_4" d="M1.99994 22.7514C1.80994 22.7514 1.61994 22.6814 1.46994 22.5314C1.17994 22.2414 1.17994 21.7614 1.46994 21.4714L21.4699 1.47141C21.7599 1.18141 22.2399 1.18141 22.5299 1.47141C22.8199 1.76141 22.8199 2.24141 22.5299 2.53141L2.52994 22.5314C2.37994 22.6814 2.18994 22.7514 1.99994 22.7514Z" fill="#E84F3D"/>
</g>
</g>
</svg>
