<svg width="22" height="22" viewBox="0 0 22 22" fill="none" xmlns="http://www.w3.org/2000/svg">
<path d="M10.2008 7.68496L9.67441 8.21133L8.93535 8.12969C8.7291 8.10605 8.5207 8.09531 8.31445 8.09531C7.69141 8.09531 7.0791 8.19629 6.49473 8.39824C6.19395 8.50137 5.90605 8.63027 5.62891 8.78281L13.215 16.3732C13.7681 15.3647 13.9962 14.2099 13.8682 13.0668L13.7865 12.3277L14.3129 11.8014L17.1875 8.92676L13.0732 4.8125L10.2008 7.68496Z" fill="#20a2a2"/>
<path d="M18.8699 8.42402L13.5761 3.13027C13.4365 2.99062 13.2539 2.92188 13.0713 2.92188C12.8886 2.92188 12.706 2.99062 12.5664 3.13027L9.10524 6.59355C8.84313 6.56348 8.57887 6.55059 8.31461 6.55059C6.74196 6.55059 5.1693 7.06836 3.87809 8.10391C3.7999 8.16669 3.73581 8.24524 3.69 8.33444C3.64419 8.42364 3.61769 8.5215 3.61222 8.62162C3.60674 8.72175 3.62242 8.82191 3.65824 8.91557C3.69406 9.00924 3.7492 9.0943 3.82008 9.16523L7.72379 13.0689L3.09606 17.6924C3.03935 17.7487 3.00435 17.8233 2.99723 17.9029L2.92418 18.7021C2.90485 18.9041 3.06598 19.076 3.26579 19.076C3.27653 19.076 3.28727 19.076 3.29801 19.0738L4.09723 19.0008C4.17672 18.9943 4.25192 18.9578 4.30778 18.902L8.93551 14.2742L12.8392 18.1779C12.9789 18.3176 13.1615 18.3863 13.3441 18.3863C13.5525 18.3863 13.7588 18.2961 13.9006 18.1199C15.1101 16.6096 15.6129 14.7189 15.4088 12.8906L18.8699 9.42949C19.147 9.15449 19.147 8.70332 18.8699 8.42402ZM14.3131 11.8014L13.7867 12.3277L13.8683 13.0668C13.9963 14.2099 13.7682 15.3647 13.2152 16.3732L5.62907 8.78281C5.90622 8.63027 6.19411 8.50137 6.49489 8.39824C7.07926 8.19629 7.69157 8.09531 8.31461 8.09531C8.52086 8.09531 8.72926 8.10605 8.93551 8.12969L9.67457 8.21133L10.2009 7.68496L13.0734 4.8125L17.1877 8.92676L14.3131 11.8014Z" fill="#20a2a2"/>
</svg>
