<svg width="16" height="16" viewBox="0 0 16 16" fill="none" xmlns="http://www.w3.org/2000/svg">
<path d="M14.2106 5.26183L10.7381 1.78934C10.5164 1.56768 10.2452 1.40188 9.94679 1.30559C9.64843 1.2093 9.33145 1.18529 9.02199 1.23553C8.71253 1.28578 8.41943 1.40883 8.16685 1.59457C7.91427 1.7803 7.70944 2.02339 7.56924 2.30381L5.81716 5.80796C5.75413 5.93431 5.64409 6.03092 5.51064 6.07707L2.51304 7.11321C2.36895 7.16299 2.23988 7.24859 2.13795 7.36195C2.03602 7.47532 1.96458 7.61273 1.93034 7.76129C1.8961 7.90984 1.90018 8.06466 1.94219 8.21121C1.98421 8.35775 2.06279 8.49121 2.17054 8.59905L4.40399 10.8325L1.20996 14.0273V14.79H1.97267L5.16742 11.5952L7.40087 13.8294C7.5087 13.9373 7.64221 14.016 7.78884 14.0581C7.93547 14.1003 8.09041 14.1044 8.23908 14.0701C8.38775 14.0359 8.52526 13.9644 8.63868 13.8623C8.7521 13.7603 8.8377 13.6311 8.88743 13.4869L9.92357 10.4893C9.96955 10.356 10.0659 10.2459 10.192 10.1828L13.6961 8.43068C13.9765 8.29048 14.2196 8.08565 14.4054 7.83307C14.5911 7.58049 14.7141 7.2874 14.7644 6.97793C14.8146 6.66847 14.7906 6.3515 14.6943 6.05313C14.598 5.75477 14.4322 5.48355 14.2106 5.26183Z" fill="#08D8BF"/>
<rect x="9" y="9" width="7" height="7" rx="3.5" fill="white"/>
<path d="M13.8546 11.2645C13.8546 11.2302 13.8265 11.202 13.7921 11.202L13.2765 11.2044L12.4999 12.1302L11.7241 11.2052L11.2077 11.2028C11.1733 11.2028 11.1452 11.2302 11.1452 11.2653C11.1452 11.2802 11.1507 11.2942 11.16 11.3059L12.1765 12.5169L11.16 13.727C11.1506 13.7385 11.1454 13.7528 11.1452 13.7677C11.1452 13.802 11.1733 13.8302 11.2077 13.8302L11.7241 13.8278L12.4999 12.902L13.2757 13.827L13.7913 13.8294C13.8257 13.8294 13.8538 13.802 13.8538 13.7669C13.8538 13.752 13.8483 13.738 13.839 13.7262L12.8241 12.5161L13.8405 11.3052C13.8499 11.2942 13.8546 11.2794 13.8546 11.2645Z" fill="#F5222D"/>
<path d="M12.5 9C10.5672 9 9 10.5672 9 12.5C9 14.4328 10.5672 16 12.5 16C14.4328 16 16 14.4328 16 12.5C16 10.5672 14.4328 9 12.5 9ZM12.5 15.4062C10.8953 15.4062 9.59375 14.1047 9.59375 12.5C9.59375 10.8953 10.8953 9.59375 12.5 9.59375C14.1047 9.59375 15.4063 10.8953 15.4063 12.5C15.4063 14.1047 14.1047 15.4062 12.5 15.4062Z" fill="#F5222D"/>
</svg>
