<svg width="18" height="19" viewBox="0 0 18 19" fill="none" xmlns="http://www.w3.org/2000/svg">
<path d="M15.4967 17.3724L16.2528 17.105L15.6799 16.5438L9.87498 10.8579C9.87495 10.8579 9.87491 10.8578 9.87487 10.8578C9.66383 10.651 9.38634 10.5257 9.09165 10.504C8.79691 10.4823 8.50402 10.5658 8.26499 10.7396L8.25161 10.7493L8.23891 10.7599L8.15491 10.8299L8.13949 10.8427L8.12516 10.8568L2.31816 16.5438L1.74398 17.1061L2.50213 17.3727C2.73647 17.4551 2.9885 17.5 3.25 17.5H14.75C15.0105 17.5 15.2628 17.4551 15.4967 17.3724ZM1.13259 16.0134L1.39645 16.746L1.95279 16.2013L7.77577 10.5003C7.77578 10.5003 7.77578 10.5003 7.77579 10.5003C8.08626 10.1964 8.49867 10.0188 8.93282 10.0021C9.36398 9.98554 9.78595 10.1289 10.1178 10.4043L10.2311 10.507L16.0461 16.2022L16.6025 16.7471L16.8664 16.0144C16.9524 15.7758 17 15.5186 17 15.25V3.75C17 3.15326 16.7629 2.58097 16.341 2.15901C15.919 1.73705 15.3467 1.5 14.75 1.5H3.25C2.65326 1.5 2.08097 1.73705 1.65901 2.15901C1.23705 2.58097 1 3.15326 1 3.75V15.25C1 15.5161 1.04611 15.7734 1.13259 16.0134ZM14.75 1C15.4793 1 16.1788 1.28973 16.6945 1.80546C17.2103 2.32118 17.5 3.02065 17.5 3.75V15.25C17.5 15.9793 17.2103 16.6788 16.6945 17.1945C16.1788 17.7103 15.4793 18 14.75 18H3.25C2.52065 18 1.82118 17.7103 1.30546 17.1945C0.789731 16.6788 0.5 15.9793 0.5 15.25V3.75C0.5 3.02065 0.789731 2.32118 1.30546 1.80546C1.82118 1.28973 2.52065 1 3.25 1H14.75ZM12.252 4.5C12.7167 4.5 13.1623 4.68459 13.4909 5.01315C13.8194 5.34171 14.004 5.78734 14.004 6.252C14.004 6.71666 13.8194 7.16229 13.4909 7.49085C13.1623 7.81941 12.7167 8.004 12.252 8.004C11.7873 8.004 11.3417 7.81941 11.0131 7.49085C10.6846 7.16229 10.5 6.71666 10.5 6.252C10.5 5.78734 10.6846 5.34171 11.0131 5.01315C11.3417 4.68459 11.7873 4.5 12.252 4.5ZM12.252 5C11.9199 5 11.6015 5.13191 11.3667 5.3667C11.1319 5.6015 11 5.91995 11 6.252C11 6.58405 11.1319 6.9025 11.3667 7.1373C11.6015 7.37209 11.9199 7.504 12.252 7.504C12.5841 7.504 12.9025 7.37209 13.1373 7.1373C13.3721 6.9025 13.504 6.58405 13.504 6.252C13.504 5.91995 13.3721 5.6015 13.1373 5.3667C12.9025 5.13191 12.5841 5 12.252 5Z" fill="#252424" stroke="#6B6B6B"/>
</svg>
