<svg width="44" height="36" viewBox="0 0 44 36" fill="none" xmlns="http://www.w3.org/2000/svg">
<path d="M34.8981 0.205714C33.9312 0.0617141 32.8203 0 31.2569 0H12.7426C11.1998 0 10.0683 0.0617141 9.16321 0.185143C2.27178 0.946286 0.914062 5.04 0.914062 11.8286V24.1714C0.914062 30.96 2.27178 35.0537 9.10149 35.7943C10.0683 35.9383 11.1792 36 12.7426 36H31.2569C32.7998 36 33.9312 35.9383 34.8363 35.8149C41.7278 35.0537 43.0855 30.9806 43.0855 24.1714V11.8286C43.0855 5.04 41.7278 0.946286 34.8981 0.205714ZM18.0706 11.8286C19.2226 11.8286 20.1483 12.7543 20.1483 13.8857C20.1483 15.0171 19.2226 15.9429 18.0912 15.9429C16.9598 15.9429 16.0341 15.0171 16.0341 13.8857C16.0341 12.7543 16.9392 11.8286 18.0706 11.8286ZM11.8992 11.8286C13.0718 11.8286 13.9769 12.7543 13.9769 13.8857C13.9769 15.0171 13.0512 15.9429 11.9198 15.9429C10.7883 15.9429 9.86263 15.0171 9.86263 13.8857C9.86263 12.7543 10.7678 11.8286 11.8992 11.8286ZM32.2855 26.7429H11.7552C10.9118 26.7429 10.1918 26.0434 10.1918 25.2C10.1918 24.3566 10.8706 23.6571 11.7141 23.6571H32.2855C33.1289 23.6571 33.8283 24.3566 33.8283 25.2C33.8283 26.0434 33.1289 26.7429 32.2855 26.7429ZM32.2855 15.4286H25.0855C24.2421 15.4286 23.5426 14.7291 23.5426 13.8857C23.5426 13.0423 24.2421 12.3429 25.0855 12.3429H32.2855C33.1289 12.3429 33.8283 13.0423 33.8283 13.8857C33.8283 14.7291 33.1289 15.4286 32.2855 15.4286Z" fill="url(#paint0_linear_9509_79981)"/>
<path d="M32.2855 26.7429H11.7552C10.9118 26.7429 10.1918 26.0434 10.1918 25.2C10.1918 24.3566 10.8706 23.6571 11.7141 23.6571H32.2855C33.1289 23.6571 33.8283 24.3566 33.8283 25.2C33.8283 26.0434 33.1289 26.7429 32.2855 26.7429Z" fill="url(#paint1_linear_9509_79981)"/>
<path d="M18.0706 11.8286C19.2226 11.8286 20.1483 12.7543 20.1483 13.8857C20.1483 15.0171 19.2226 15.9429 18.0912 15.9429C16.9598 15.9429 16.0341 15.0171 16.0341 13.8857C16.0341 12.7543 16.9392 11.8286 18.0706 11.8286Z" fill="url(#paint2_linear_9509_79981)"/>
<path d="M11.8992 11.8286C13.0718 11.8286 13.9769 12.7543 13.9769 13.8857C13.9769 15.0171 13.0512 15.9429 11.9198 15.9429C10.7883 15.9429 9.86263 15.0171 9.86263 13.8857C9.86263 12.7543 10.7678 11.8286 11.8992 11.8286Z" fill="url(#paint3_linear_9509_79981)"/>
<path d="M32.2855 15.4286H25.0855C24.2421 15.4286 23.5426 14.7291 23.5426 13.8857C23.5426 13.0423 24.2421 12.3429 25.0855 12.3429H32.2855C33.1289 12.3429 33.8283 13.0423 33.8283 13.8857C33.8283 14.7291 33.1289 15.4286 32.2855 15.4286Z" fill="url(#paint4_linear_9509_79981)"/>
<path fill-rule="evenodd" clip-rule="evenodd" d="M20.07 11.8404C21.7149 11.8408 23.2923 12.4943 24.4555 13.6575C25.6186 14.8206 26.2722 16.398 26.2725 18.0429C26.2727 18.804 25.6558 19.4211 24.8948 19.4212C24.1338 19.4214 23.5167 18.8046 23.5165 18.0435C23.5163 17.1293 23.1531 16.2527 22.5067 15.6062C21.8603 14.9598 20.9836 14.5966 20.0695 14.5964M20.0695 14.5964L15.2441 14.5956C14.3298 14.5957 13.4528 14.9589 12.8063 15.6054C12.1597 16.2519 11.7965 17.1289 11.7965 18.0432C11.7965 18.9576 12.1597 19.8345 12.8063 20.481C13.4528 21.1276 14.3298 21.4908 15.2441 21.4908L17.6565 21.4908C18.4176 21.4908 19.0345 22.1078 19.0345 22.8688C19.0345 23.6299 18.4176 24.2468 17.6565 24.2468H15.2441C13.5988 24.2468 12.0209 23.5932 10.8575 22.4298C9.69412 21.2664 9.04053 19.6885 9.04053 18.0432C9.04053 16.3979 9.69412 14.82 10.8575 13.6566C12.0209 12.4932 13.5988 11.8396 15.2441 11.8396L20.07 11.8404" fill="white"/>
<path fill-rule="evenodd" clip-rule="evenodd" d="M28.755 11.75C30.4003 11.75 31.9782 12.4036 33.1416 13.567C34.305 14.7304 34.9586 16.3083 34.9586 17.9536C34.9586 19.5989 34.305 21.1768 33.1416 22.3402C31.9782 23.5036 30.4003 24.1572 28.755 24.1572L23.9292 24.1564C22.2843 24.156 20.7068 23.5025 19.5436 22.3393C18.3805 21.1762 17.7269 19.5988 17.7266 17.9539C17.7264 17.1928 18.3433 16.5758 19.1043 16.5756C19.8653 16.5754 20.4824 17.1923 20.4826 17.9533C20.4828 18.8675 20.846 19.7441 21.4924 20.3906C22.1388 21.037 23.0155 21.4002 23.9296 21.4004M23.9296 21.4004L28.755 21.4012C29.6693 21.4011 30.5463 21.0379 31.1928 20.3914C31.8394 19.7449 32.2026 18.8679 32.2026 17.9536C32.2026 17.0392 31.8394 16.1623 31.1928 15.5158C30.5463 14.8692 29.6693 14.506 28.755 14.506L26.3426 14.506C25.5815 14.506 24.9646 13.889 24.9646 13.128C24.9646 12.3669 25.5815 11.75 26.3426 11.75L28.755 11.75" fill="white"/>
<defs>
<linearGradient id="paint0_linear_9509_79981" x1="21.9998" y1="0" x2="21.9998" y2="36" gradientUnits="userSpaceOnUse">
<stop stop-color="#FFB566"/>
<stop offset="1" stop-color="#FA8C16"/>
</linearGradient>
<linearGradient id="paint1_linear_9509_79981" x1="21.9998" y1="0" x2="21.9998" y2="36" gradientUnits="userSpaceOnUse">
<stop stop-color="#FFB566"/>
<stop offset="1" stop-color="#FA8C16"/>
</linearGradient>
<linearGradient id="paint2_linear_9509_79981" x1="21.9998" y1="0" x2="21.9998" y2="36" gradientUnits="userSpaceOnUse">
<stop stop-color="#FFB566"/>
<stop offset="1" stop-color="#FA8C16"/>
</linearGradient>
<linearGradient id="paint3_linear_9509_79981" x1="21.9998" y1="0" x2="21.9998" y2="36" gradientUnits="userSpaceOnUse">
<stop stop-color="#FFB566"/>
<stop offset="1" stop-color="#FA8C16"/>
</linearGradient>
<linearGradient id="paint4_linear_9509_79981" x1="21.9998" y1="0" x2="21.9998" y2="36" gradientUnits="userSpaceOnUse">
<stop stop-color="#FFB566"/>
<stop offset="1" stop-color="#FA8C16"/>
</linearGradient>
</defs>
</svg>
