<svg width="32" height="32" viewBox="0 0 32 32" fill="none" xmlns="http://www.w3.org/2000/svg">
<g clip-path="url(#clip0_11365_342737)">
<path d="M8.0563 13.3563C7.8229 13.3563 7.63379 13.1671 7.63379 12.9338V6.73892C7.63379 6.50557 7.82295 6.31641 8.0563 6.31641C8.28966 6.31641 8.47882 6.50557 8.47882 6.73892V12.9337C8.47882 13.1671 8.28971 13.3563 8.0563 13.3563Z" fill="#5E54AC"/>
<path d="M22.9335 30.0017H3.37891C3.93158 29.3183 4.6313 28.7589 5.42963 28.3713C6.22342 27.9859 7.11472 27.7695 8.05616 27.7695H18.2563C19.1976 27.7695 20.0884 27.9859 20.8822 28.3713C21.6805 28.7589 22.3807 29.3183 22.9335 30.0017Z" fill="#F9F6F9"/>
<path d="M12.9685 27.7695C11.0797 27.7695 9.39366 28.6398 8.29137 30.0016H3.37891C4.48119 28.6398 6.1672 27.7695 8.056 27.7695H12.9685Z" fill="#CECAE6"/>
<path d="M20.8822 28.3713C20.0889 28.7566 19.1976 28.973 18.2563 28.973H8.05562C7.11423 28.973 6.22293 28.7566 5.42969 28.3713C6.22348 27.9859 7.11477 27.7695 8.05622 27.7695H18.2563C19.1977 27.7696 20.0884 27.9859 20.8822 28.3713Z" fill="#CECAE6"/>
<path d="M18.2561 28.3285H8.05595C4.73291 28.3285 2.03906 25.6347 2.03906 22.3116V17.3919C2.03906 14.0689 4.73291 11.375 8.05595 11.375H18.2561C21.5792 11.375 24.273 14.0689 24.273 17.3919V22.3116C24.273 25.6347 21.5792 28.3285 18.2561 28.3285Z" fill="#F8F4F8"/>
<path d="M12.9685 28.3282H8.05605C4.73297 28.3282 2.03906 25.6343 2.03906 22.3118V17.392C2.03906 14.0689 4.73297 11.375 8.05605 11.375H12.9685C9.64538 11.375 6.95153 14.0689 6.95153 17.392V22.3118C6.95153 25.6343 9.64544 28.3282 12.9685 28.3282Z" fill="#CECAE6"/>
<path d="M17.1382 23.3759H9.17348C7.08753 23.3759 5.39648 21.6849 5.39648 19.5989V17.5817C5.39648 15.4957 7.08748 13.8047 9.17348 13.8047H17.1382C19.2242 13.8047 20.9152 15.4957 20.9152 17.5817V19.5989C20.9152 21.6849 19.2242 23.3759 17.1382 23.3759Z" fill="#9DC6FB"/>
<path d="M12.2113 23.3757H9.17353C7.08753 23.3757 5.39648 21.6847 5.39648 19.5987V17.5812C5.39648 15.4957 7.08753 13.8047 9.17353 13.8047H12.2113C10.1253 13.8047 8.43421 15.4957 8.43421 17.5812V19.5987C8.43421 21.6847 10.1253 23.3757 12.2113 23.3757Z" fill="#80B4FB"/>
<path d="M9.54852 19.851C10.4447 19.851 11.1713 19.1244 11.1713 18.2282C11.1713 17.332 10.4447 16.6055 9.54852 16.6055C8.65231 16.6055 7.92578 17.332 7.92578 18.2282C7.92578 19.1244 8.65231 19.851 9.54852 19.851Z" fill="#FFC850"/>
<path d="M16.7643 19.851C17.6606 19.851 18.3871 19.1244 18.3871 18.2282C18.3871 17.332 17.6606 16.6055 16.7643 16.6055C15.8681 16.6055 15.1416 17.332 15.1416 18.2282C15.1416 19.1244 15.8681 19.851 16.7643 19.851Z" fill="#FFC850"/>
<path d="M16.8083 2H26.3092C28.3262 2 29.9612 3.63505 29.9612 5.65198V8.70868C29.9612 10.7256 28.3262 12.3607 26.3092 12.3607H21.5349L19.2495 14.9721C18.5716 15.7467 17.2957 15.2673 17.2957 14.238V12.3606H16.8082C14.7913 12.3606 13.1562 10.7256 13.1562 8.70863V5.65198C13.1563 3.63505 14.7914 2 16.8083 2Z" fill="#FFC850"/>
<path d="M19.206 15.0196C18.5183 15.7261 17.2958 15.2457 17.2958 14.2382V12.3607H16.8082C14.7915 12.3607 13.1562 10.7256 13.1562 8.70879V5.65192C13.1562 3.63516 14.7915 2 16.8082 2H18.4025C16.3853 2 14.7506 3.63516 14.7506 5.65192V8.70884C14.7506 10.7256 16.3853 12.3608 18.4025 12.3608H18.8902V14.2383C18.8902 14.5594 19.0145 14.8272 19.206 15.0196Z" fill="#F9B428"/>
<path d="M10.0562 19.7735C9.89661 19.8263 9.72588 19.855 9.5483 19.855C8.6522 19.855 7.92578 19.1286 7.92578 18.2324C7.92578 17.3364 8.6522 16.6094 9.5483 16.6094C9.72582 16.6094 9.89661 16.638 10.0562 16.6908C9.40841 16.9038 8.941 17.5139 8.941 18.2324C8.941 18.951 9.40841 19.5605 10.0562 19.7735Z" fill="#F9B428"/>
<path d="M17.2726 19.7735C17.113 19.8263 16.9422 19.855 16.7647 19.855C15.868 19.855 15.1416 19.1286 15.1416 18.2324C15.1416 17.3364 15.868 16.6094 16.7647 16.6094C16.9422 16.6094 17.113 16.638 17.2726 16.6908C16.6248 16.9038 16.1574 17.5139 16.1574 18.2324C16.1574 18.951 16.6248 19.5611 17.2726 19.7735Z" fill="#F9B428"/>
<path d="M14.7238 21.6653H11.5876C11.3541 21.6653 11.165 21.4762 11.165 21.2428C11.165 21.0095 11.3542 20.8203 11.5876 20.8203H14.7238C14.9572 20.8203 15.1463 21.0095 15.1463 21.2428C15.1463 21.4762 14.9571 21.6653 14.7238 21.6653Z" fill="#5E54AC"/>
<path d="M26.9565 6.54425H22.1936C22.0866 6.54425 22 6.35509 22 6.12173C22 5.88838 22.0867 5.69922 22.1936 5.69922H26.9565C27.0634 5.69922 27.1501 5.88838 27.1501 6.12173C27.1501 6.35509 27.0635 6.54425 26.9565 6.54425Z" fill="#5E54AC"/>
<path d="M25.44 8.78253H22.1936C22.0866 8.78253 22 8.59337 22 8.36002C22 8.12666 22.0867 7.9375 22.1936 7.9375H25.44C25.5469 7.9375 25.6335 8.12666 25.6335 8.36002C25.6335 8.59337 25.5469 8.78253 25.44 8.78253Z" fill="#5E54AC"/>
<path d="M8.05635 8.2963C9.03671 8.2963 9.83145 7.50156 9.83145 6.5212C9.83145 5.54083 9.03671 4.74609 8.05635 4.74609C7.07599 4.74609 6.28125 5.54083 6.28125 6.5212C6.28125 7.50156 7.07599 8.2963 8.05635 8.2963Z" fill="#E27A66"/>
<path d="M8.66781 8.18774C8.47739 8.25796 8.27116 8.29619 8.05657 8.29619C7.07619 8.29619 6.28125 7.50125 6.28125 6.52087C6.28125 5.54048 7.07619 4.74609 8.05657 4.74609C8.27116 4.74609 8.47739 4.78427 8.66781 4.85394C7.98914 5.10337 7.50428 5.75508 7.50428 6.52081C7.50428 7.28655 7.98914 7.93891 8.66781 8.18774Z" fill="#DD636E"/>
<path d="M15.3579 7.36241L17.9307 10.7883C18.0606 10.9612 18.2708 10.9612 18.4007 10.7883L20.9735 7.36241C21.0301 7.28698 20.99 7.15755 20.9099 7.15755L19.51 7.15755L19.51 4.23954C19.51 3.79771 19.1518 3.43954 18.71 3.43954L17.6217 3.43954C17.1798 3.43954 16.8217 3.79771 16.8217 4.23954L16.8217 7.15755L15.4217 7.15755C15.3414 7.15788 15.301 7.28698 15.3579 7.36241Z" fill="#2666E5"/>
<path fill-rule="evenodd" clip-rule="evenodd" d="M18.1934 3.43954L17.6216 3.43954C17.1798 3.43954 16.8216 3.79771 16.8216 4.23954L16.8216 7.15755L15.4217 7.15755C15.3413 7.15788 15.301 7.28698 15.3579 7.36241L17.9307 10.7883C18.0027 10.8841 18.0994 10.9269 18.1934 10.9164L18.1934 3.43954Z" fill="#2666E5"/>
</g>
<defs>
<clipPath id="clip0_11365_342737">
<rect width="28" height="28" fill="white" transform="translate(2 2)"/>
</clipPath>
</defs>
</svg>
