<svg width="48" height="48" viewBox="0 0 48 48" fill="none" xmlns="http://www.w3.org/2000/svg">
<rect width="47.9167" height="47.9167" rx="6" fill="#7C509A"/>
<path d="M32.5699 7.83074C26.8083 6.72309 20.8251 6.72309 15.0635 7.83074C12.5151 8.38456 9.3019 11.486 8.7479 13.9228C7.7507 18.6857 7.7507 23.5594 8.7479 28.3223C9.4127 30.7591 12.6259 33.8605 15.0635 34.4144C15.1743 34.4144 15.2851 34.5251 15.2851 34.6359V41.6141C15.2851 41.9464 15.7283 42.1679 15.9499 41.8356L19.2739 38.4019C19.2739 38.4019 21.9331 35.6328 22.3763 35.1897C22.3763 35.1897 22.4871 35.079 22.5979 35.079C25.9219 35.1897 29.3567 34.8574 32.6807 34.3036C35.2291 33.7498 38.4423 30.6483 38.9963 28.2115C39.9935 23.4486 39.9935 18.575 38.9963 13.8121C38.3315 11.486 35.1183 8.38456 32.5699 7.83074ZM32.6807 28.6546C32.1267 29.7622 31.4619 30.6483 30.3539 31.2022C30.0215 31.3129 29.6891 31.4237 29.3567 31.5345C28.9135 31.4237 28.5811 31.3129 28.2487 31.2022C24.7031 29.7622 21.3791 27.7685 18.7199 24.8886C17.2795 23.2271 16.0607 21.3441 15.0635 19.3503C14.6203 18.3534 14.1771 17.4673 13.8447 16.4704C13.5123 15.5843 14.0663 14.6982 14.6203 14.0336C15.1743 13.369 15.8391 12.9259 16.6147 12.5936C17.1687 12.2613 17.7227 12.4829 18.1659 12.9259C19.0523 14.0336 19.9387 15.1412 20.6035 16.3596C21.0467 17.135 20.9359 18.0211 20.1603 18.575C19.9387 18.6857 19.8279 18.7965 19.6063 19.018C19.4955 19.1288 19.2739 19.2395 19.1631 19.4611C18.9415 19.7934 18.9415 20.1257 19.0523 20.458C19.9387 23.0056 21.6007 24.9993 24.1491 26.107C24.5923 26.3285 24.9247 26.4393 25.4787 26.4393C26.2543 26.3285 26.5867 25.4424 27.1407 24.9993C27.6947 24.5563 28.3595 24.5563 29.0243 24.8886C29.5783 25.2209 30.1323 25.6639 30.7971 26.107C31.3511 26.55 31.9051 26.8823 32.4591 27.3254C32.7915 27.5469 32.9023 28.1008 32.6807 28.6546ZM28.0271 20.3472C27.8055 20.3472 27.9163 20.3472 28.0271 20.3472C27.5839 20.3472 27.4731 20.1257 27.3623 19.7934C27.3623 19.5718 27.3623 19.2395 27.2515 19.018C27.1407 18.575 26.9191 18.1319 26.4759 17.7996C26.2543 17.6888 26.0327 17.5781 25.8111 17.4673C25.4787 17.3565 25.2571 17.3565 24.9247 17.3565C24.5923 17.2458 24.4815 17.0242 24.4815 16.6919C24.4815 16.4704 24.8139 16.2489 25.0355 16.2489C26.8083 16.3597 28.1379 17.3565 28.3595 19.4611C28.3595 19.5718 28.3595 19.7934 28.3595 19.9041C28.3595 20.1257 28.2487 20.3472 28.0271 20.3472ZM26.9191 15.4735C26.3651 15.252 25.8111 15.0305 25.1463 14.9197C24.9247 14.9197 24.5923 14.8089 24.3707 14.8089C24.0383 14.8089 23.8167 14.5874 23.9275 14.2551C23.9275 13.9228 24.1491 13.7013 24.4815 13.8121C25.5895 13.9228 26.5867 14.1443 27.5839 14.5874C29.5783 15.5843 30.6863 17.2458 31.0187 19.4611C31.0187 19.5718 31.0187 19.6826 31.0187 19.7934C31.0187 20.0149 31.0187 20.2364 31.0187 20.5687C31.0187 20.6795 31.0187 20.7903 31.0187 20.901C30.9079 21.3441 30.1323 21.4548 30.0215 20.901C30.0215 20.7903 29.9107 20.5687 29.9107 20.458C29.9107 19.4611 29.6891 18.4642 29.2459 17.5781C28.5811 16.5812 27.8055 15.9166 26.9191 15.4735ZM32.9023 22.1194C32.5699 22.1194 32.3483 21.7871 32.3483 21.4548C32.3483 20.7903 32.2375 20.1257 32.1267 19.4611C31.6835 15.9166 28.8027 13.0367 25.3679 12.4829C24.8139 12.3721 24.2599 12.3721 23.8167 12.2613C23.4843 12.2613 23.0411 12.2613 22.9303 11.8183C22.8195 11.486 23.1519 11.1537 23.4843 11.1537C23.5951 11.1537 23.7059 11.1537 23.7059 11.1537C23.9275 11.1537 28.2487 11.2645 23.7059 11.1537C28.3595 11.2645 32.2375 14.3659 33.0131 19.018C33.1239 19.7934 33.2347 20.5687 33.2347 21.4548C33.4563 21.7871 33.2347 22.1194 32.9023 22.1194Z" fill="white"/>
</svg>
