<svg width="24" height="24" viewBox="0 0 24 24" fill="none" xmlns="http://www.w3.org/2000/svg">
<path d="M4.875 4.125C3.97989 4.125 3.12145 4.48058 2.48851 5.11351C1.85558 5.74645 1.5 6.60489 1.5 7.5V16.5C1.5 17.3951 1.85558 18.2535 2.48851 18.8865C3.12145 19.5194 3.97989 19.875 4.875 19.875H13.875C14.7701 19.875 15.6285 19.5194 16.2615 18.8865C16.8944 18.2535 17.25 17.3951 17.25 16.5V15.375L20.4 17.7375C21.2648 18.3862 22.5 17.769 22.5 16.6875V7.3125C22.5 6.231 21.2648 5.61375 20.4 6.2625L17.25 8.625V7.5C17.25 6.60489 16.8944 5.74645 16.2615 5.11351C15.6285 4.48058 14.7701 4.125 13.875 4.125H4.875ZM17.25 10.5L21 7.6875V16.3125L17.25 13.5V10.5ZM15.75 7.5V16.5C15.75 16.9973 15.5525 17.4742 15.2008 17.8258C14.8492 18.1775 14.3723 18.375 13.875 18.375H4.875C4.37772 18.375 3.90081 18.1775 3.54917 17.8258C3.19754 17.4742 3 16.9973 3 16.5V7.5C3 7.00272 3.19754 6.52581 3.54917 6.17417C3.90081 5.82254 4.37772 5.625 4.875 5.625H13.875C14.3723 5.625 14.8492 5.82254 15.2008 6.17417C15.5525 6.52581 15.75 7.00272 15.75 7.5Z" fill="black"/>
</svg>
