<svg width="40" height="40" viewBox="0 0 40 40" fill="none" xmlns="http://www.w3.org/2000/svg">
<path fill-rule="evenodd" clip-rule="evenodd" d="M10.5 2H22.875L33 12.125V33.5C33 34.6935 32.5259 35.8381 31.682 36.682C30.8381 37.5259 29.6935 38 28.5 38H10.5C9.30653 38 8.16193 37.5259 7.31802 36.682C6.47411 35.8381 6 34.6935 6 33.5V6.5C6 5.30653 6.47411 4.16193 7.31802 3.31802C8.16193 2.47411 9.30653 2 10.5 2ZM23.8635 11.1365C23.2306 10.5036 22.875 9.64511 22.875 8.75V4.25H10.5C9.90326 4.25 9.33097 4.48705 8.90901 4.90901C8.48705 5.33097 8.25 5.90326 8.25 6.5V33.5C8.25 34.0967 8.48705 34.669 8.90901 35.091C9.33097 35.5129 9.90326 35.75 10.5 35.75H28.5C29.0967 35.75 29.669 35.5129 30.091 35.091C30.5129 34.669 30.75 34.0967 30.75 33.5V12.125H26.25C25.3549 12.125 24.4964 11.7694 23.8635 11.1365ZM23.8875 29.2812V27.425V23.7125V21.8563C23.8875 20.8353 23.0522 20 22.0312 20H14.6062C13.5853 20 12.75 20.8353 12.75 21.8563V29.2812C12.75 30.3022 13.5853 31.1375 14.6062 31.1375H22.0312C23.0522 31.1375 23.8875 30.3022 23.8875 29.2812ZM27.3068 21.9003L23.8879 23.7123V27.4248L27.3068 29.2367C27.44 29.3073 27.6004 29.2108 27.6004 29.06V22.077C27.6004 21.9262 27.44 21.8297 27.3068 21.9003Z" fill="#6B6B6B"/>
</svg>
