<svg width="40" height="40" viewBox="0 0 40 40" fill="none" xmlns="http://www.w3.org/2000/svg">
<rect width="40" height="40" rx="20" fill="url(#paint0_linear_9509_81524)"/>
<path fill-rule="evenodd" clip-rule="evenodd" d="M31.6151 7.97266H21.0078C20.6165 7.97266 20.3033 8.29273 20.3033 8.69276V15.0826C20.3033 15.4826 20.6165 15.8027 21.0078 15.8027H31.6151C32.0769 15.8027 32.3002 15.6002 32.3002 15.0826V8.69276C32.3393 8.29274 32.0066 7.97266 31.6151 7.97266ZM22.6713 13.037C22.6713 13.257 22.4952 13.437 22.28 13.437C22.0647 13.437 21.8886 13.257 21.8886 13.037L21.8885 10.7166C21.8885 10.4966 22.0646 10.3166 22.2798 10.3166C22.4951 10.3166 22.6712 10.4966 22.6712 10.7166L22.6713 13.037ZM24.2957 12.3769C24.2957 12.5969 24.1196 12.7769 23.9043 12.7769C23.6891 12.7769 23.5129 12.5969 23.5129 12.3769V11.3967C23.5129 11.1767 23.6891 10.9967 23.9043 10.9967C24.1196 10.9967 24.2957 11.1767 24.2957 11.3967V12.3769ZM25.9004 13.037C25.9004 13.257 25.7243 13.437 25.509 13.437C25.2938 13.437 25.1177 13.257 25.1177 13.037V10.7166C25.1177 10.4966 25.2938 10.3166 25.509 10.3166C25.7243 10.3166 25.9004 10.4966 25.9004 10.7166V13.037ZM27.5248 13.717C27.5248 13.9371 27.3487 14.117 27.1334 14.117C26.9181 14.117 26.742 13.9371 26.742 13.717V10.0565C26.742 9.83646 26.9181 9.65648 27.1334 9.65648C27.3487 9.65648 27.5248 9.83647 27.5248 10.0565V13.717ZM29.1491 13.037C29.1491 13.257 28.973 13.437 28.7578 13.437C28.5425 13.437 28.3664 13.257 28.3664 13.037V10.7166C28.3664 10.4966 28.5425 10.3166 28.7578 10.3166C28.973 10.3166 29.1491 10.4966 29.1491 10.7166V13.037ZM30.7735 12.3769C30.7735 12.5969 30.5974 12.7769 30.3821 12.7769C30.1668 12.7769 29.9907 12.5969 29.9907 12.3769V11.3967C29.9907 11.1767 30.1668 10.9967 30.3821 10.9967C30.5974 10.9967 30.7735 11.1767 30.7735 11.3967V12.3769ZM16.1581 32.0253C7.69695 32.0253 7.69695 27.4687 7.69695 27.4687L7.69678 27.4685C7.69678 27.0812 7.85075 26.7096 8.12466 26.4357C8.39858 26.1618 8.77024 26.0078 9.15769 26.0078H23.1683C23.5557 26.0078 23.9274 26.1618 24.2013 26.4357C24.4752 26.7096 24.6292 27.0812 24.6292 27.4685C24.6292 27.4685 24.6292 32.0253 16.1581 32.0253L16.1581 32.0253ZM21.0012 17.3666H12.005C11.1036 17.3666 10.3726 18.0974 10.3726 18.999V20.6306C10.2824 20.5746 10.176 20.5423 10.0621 20.5423H8.34252C8.07834 20.5423 7.75269 20.8065 7.75269 21.1322V21.1794C7.75269 21.5052 8.01687 21.7692 8.34252 21.7692H10.0621C10.1638 21.7692 10.2747 21.73 10.3726 21.6632V23.7596C10.3726 24.4905 11.1034 25.3921 12.005 25.3921H21.0012C21.9026 25.3921 22.6336 24.6613 22.6336 23.7596V21.5902C22.7408 21.7006 22.8909 21.7692 23.0569 21.7692H24.7764C25.0406 21.7692 25.3662 21.505 25.3662 21.1794V21.1322C25.3662 20.8063 25.1021 20.5423 24.7764 20.5423H23.0569C22.9132 20.5423 22.7514 20.6204 22.6336 20.744V18.999C22.6336 18.2682 21.9028 17.3666 21.0012 17.3666ZM13.6049 21.8274C14.0364 21.8274 14.3862 21.4776 14.3862 21.0461C14.3862 20.6143 14.0364 20.2646 13.6049 20.2646C13.1733 20.2646 12.8234 20.6144 12.8234 21.0461C12.8234 21.4776 13.1733 21.8274 13.6049 21.8274ZM20.0694 21.157C20.0694 21.5885 19.7195 21.9383 19.2879 21.9383C18.8564 21.9383 18.5066 21.5885 18.5066 21.157C18.5066 20.7254 18.8564 20.3755 19.2879 20.3755C19.7195 20.3755 20.0694 20.7254 20.0694 21.157Z" fill="white"/>
<defs>
<linearGradient id="paint0_linear_9509_81524" x1="20" y1="0" x2="20" y2="40" gradientUnits="userSpaceOnUse">
<stop stop-color="#FF85AE"/>
<stop offset="1" stop-color="#EC407A"/>
<stop offset="1" stop-color="#EC407A"/>
</linearGradient>
</defs>
</svg>
