<svg width="40" height="40" viewBox="0 0 40 40" fill="none" xmlns="http://www.w3.org/2000/svg">
<rect width="40" height="40" rx="20" fill="url(#paint0_linear_9509_81486)"/>
<path fill-rule="evenodd" clip-rule="evenodd" d="M20.1037 8.30078H30.8043C31.1993 8.30078 31.535 8.62099 31.4954 9.02117V15.4135C31.4954 15.9313 31.2702 16.1339 30.8043 16.1339H20.1037C19.7088 16.1339 19.3929 15.8137 19.3929 15.4135V9.02117C19.3929 8.62099 19.7088 8.30078 20.1037 8.30078ZM21.387 13.7673C21.6042 13.7673 21.7818 13.5872 21.7818 13.3671L21.7817 11.0458C21.7817 10.8257 21.604 10.6456 21.3869 10.6456C21.1697 10.6456 20.992 10.8257 20.992 11.0458L20.9922 13.3671C20.9922 13.5872 21.1698 13.7673 21.387 13.7673ZM23.0257 13.1069C23.2428 13.1069 23.4205 12.9269 23.4205 12.7067V11.7262C23.4205 11.5061 23.2428 11.326 23.0257 11.326C22.8085 11.326 22.6308 11.506 22.6308 11.7262V12.7067C22.6308 12.9268 22.8085 13.1069 23.0257 13.1069ZM24.6445 13.7673C24.8617 13.7673 25.0393 13.5872 25.0393 13.3671V11.0458C25.0393 10.8257 24.8617 10.6456 24.6445 10.6456C24.4273 10.6456 24.2497 10.8257 24.2497 11.0458V13.3671C24.2497 13.5872 24.4273 13.7673 24.6445 13.7673ZM26.2832 14.4476C26.5003 14.4476 26.678 14.2675 26.678 14.0474V10.3854C26.678 10.1653 26.5003 9.98527 26.2832 9.98527C26.066 9.98527 25.8883 10.1653 25.8883 10.3854V14.0474C25.8883 14.2675 26.066 14.4476 26.2832 14.4476ZM27.9218 13.7673C28.139 13.7673 28.3167 13.5872 28.3167 13.3671V11.0458C28.3167 10.8257 28.139 10.6456 27.9218 10.6456C27.7047 10.6456 27.527 10.8257 27.527 11.0458V13.3671C27.527 13.5872 27.7047 13.7673 27.9218 13.7673ZM29.5605 13.1069C29.7777 13.1069 29.9553 12.9269 29.9553 12.7067V11.7262C29.9553 11.5061 29.7777 11.326 29.5605 11.326C29.3433 11.326 29.1657 11.506 29.1657 11.7262V12.7067C29.1657 12.9268 29.3433 13.1069 29.5605 13.1069ZM15.4184 15.3556C17.8397 15.3556 19.7928 17.3138 19.7928 19.7371C19.7928 20.2878 19.692 20.8141 19.5078 21.2995C18.8808 22.9517 17.289 24.1226 15.4184 24.1226C14.3914 24.1226 13.4489 23.7676 12.705 23.1761C11.6933 22.3684 11.045 21.1241 11.045 19.7371C11.045 17.3138 12.9971 15.3556 15.4184 15.3556ZM10.3875 31.7015C9.52846 31.7015 8.87403 31.163 8.61856 30.4654C8.42111 29.9269 8.46183 29.2946 8.82924 28.7479C10.1066 26.8469 12.5838 25.57 15.4184 25.57C16.4891 25.57 17.5089 25.7536 18.433 26.0799C19.9546 26.6225 21.2136 27.5649 22.0075 28.7479C22.8522 30.0085 21.9515 31.7015 20.4492 31.7015H10.3875Z" fill="white"/>
<defs>
<linearGradient id="paint0_linear_9509_81486" x1="20" y1="0" x2="20" y2="40" gradientUnits="userSpaceOnUse">
<stop stop-color="#32BFFB"/>
<stop offset="1" stop-color="#3276FB"/>
</linearGradient>
</defs>
</svg>
