<svg width="41" height="36" viewBox="0 0 41 36" fill="none" xmlns="http://www.w3.org/2000/svg">
<g id="Group 625881">
<path id="Polygon 4" d="M17.3577 2.05714C18.9292 -0.685714 22.8579 -0.685714 24.4294 2.05714L40.3405 29.8286C41.9119 32.5714 39.9476 36 36.8047 36H4.98244C1.8395 36 -0.124832 32.5714 1.44664 29.8286L17.3577 2.05714Z" fill="#FA8C16"/>
<path id="Intersect" d="M34.8115 20.198C36.0498 22.8767 34.1162 26.033 31.1006 26.033H3.6123L17.3467 2.05737C18.917 -0.685791 22.8467 -0.685791 24.417 2.05737L34.6357 19.8611C34.6982 19.9724 34.7607 20.0847 34.8115 20.198Z" fill="#FF9D33"/>
<g id="Union">
<path d="M20.8952 10.5371C19.3173 10.5371 18.0381 11.8163 18.0381 13.3943V20.5371C18.0381 22.1151 19.3173 23.3943 20.8952 23.3943C22.4732 23.3943 23.7524 22.1151 23.7524 20.5371V13.3943C23.7524 11.8163 22.4732 10.5371 20.8952 10.5371Z" fill="white"/>
<path d="M20.8952 30.5369C22.4732 30.5369 23.7524 29.2577 23.7524 27.6797C23.7524 26.1018 22.4732 24.8226 20.8952 24.8226C19.3173 24.8226 18.0381 26.1018 18.0381 27.6797C18.0381 29.2577 19.3173 30.5369 20.8952 30.5369Z" fill="white"/>
</g>
</g>
</svg>
