<svg width="15" height="14" viewBox="0 0 15 14" fill="none" xmlns="http://www.w3.org/2000/svg">
<path d="M7.5 0C3.63438 0 0.5 3.13438 0.5 7C0.5 10.8656 3.63438 14 7.5 14C11.3656 14 14.5 10.8656 14.5 7C14.5 3.13438 11.3656 0 7.5 0ZM7.5 12.8125C4.29063 12.8125 1.6875 10.2094 1.6875 7C1.6875 3.79063 4.29063 1.1875 7.5 1.1875C10.7094 1.1875 13.3125 3.79063 13.3125 7C13.3125 10.2094 10.7094 12.8125 7.5 12.8125Z" fill="#FA8C16"/>
<path d="M6.74976 9.75C6.74976 9.94891 6.82877 10.1397 6.96943 10.2803C7.11008 10.421 7.30084 10.5 7.49976 10.5C7.69867 10.5 7.88943 10.421 8.03009 10.2803C8.17074 10.1397 8.24976 9.94891 8.24976 9.75C8.24976 9.55109 8.17074 9.36032 8.03009 9.21967C7.88943 9.07902 7.69867 9 7.49976 9C7.30084 9 7.11008 9.07902 6.96943 9.21967C6.82877 9.36032 6.74976 9.55109 6.74976 9.75ZM7.12476 8H7.87476C7.94351 8 7.99976 7.94375 7.99976 7.875V3.625C7.99976 3.55625 7.94351 3.5 7.87476 3.5H7.12476C7.05601 3.5 6.99976 3.55625 6.99976 3.625V7.875C6.99976 7.94375 7.05601 8 7.12476 8Z" fill="#FA8C16"/>
</svg>
