<svg width="24" height="24" viewBox="0 0 24 24" fill="none" xmlns="http://www.w3.org/2000/svg">
<path d="M0 12C0 5.37258 5.37258 0 12 0C18.6274 0 24 5.37258 24 12C24 18.6274 18.6274 24 12 24C5.37258 24 0 18.6274 0 12Z" fill="#0D9834"/>
<path d="M12.1999 5.6001C8.11994 5.6001 4.80002 8.27457 4.80002 11.562C4.80002 14.5091 7.43264 16.9773 10.9888 17.444C11.2298 17.4955 11.5578 17.6017 11.6407 17.8062C11.7154 17.992 11.6895 18.2829 11.6646 18.4705C11.6646 18.4705 11.5778 18.989 11.559 19.0994C11.5268 19.2851 11.4104 19.8258 12.1999 19.4954C12.9898 19.165 16.4617 17.0042 18.0142 15.23C19.0863 14.0625 19.6 12.8777 19.6 11.562C19.6 8.27457 16.2805 5.6001 12.1999 5.6001Z" fill="white"/>
<circle cx="8" cy="12" r="1" fill="#0D9834"/>
<circle cx="12" cy="12" r="1" fill="#0D9834"/>
<circle cx="16" cy="12" r="1" fill="#0D9834"/>
</svg>
