<svg width="48" height="48" viewBox="0 0 48 48" fill="none" xmlns="http://www.w3.org/2000/svg">
<rect width="47.9167" height="47.9167" rx="6" fill="url(#paint0_linear_7500_168189)"/>
<path fill-rule="evenodd" clip-rule="evenodd" d="M24 39C32.2843 39 39 32.2843 39 24C39 15.7157 32.2843 9 24 9C15.7157 9 9 15.7157 9 24C9 26.6902 9.70821 29.215 10.9484 31.3982L9 39L16.8374 37.1826C18.9658 38.3415 21.406 39 24 39ZM24 36.6923C31.0098 36.6923 36.6923 31.0098 36.6923 24C36.6923 16.9902 31.0098 11.3077 24 11.3077C16.9902 11.3077 11.3077 16.9902 11.3077 24C11.3077 26.7065 12.1548 29.2151 13.5984 31.2752L12.4615 35.5385L16.7999 34.4539C18.8457 35.8656 21.3263 36.6923 24 36.6923Z" fill="white"/>
<path d="M20.7188 17.6107C20.3859 16.9421 19.8753 17.0013 19.3594 17.0013C18.4375 17.0013 17 18.1056 17 20.1608C17 21.8451 17.7422 23.6889 20.2432 26.447C22.6568 29.1087 25.8281 30.4857 28.4609 30.4388C31.0938 30.3919 31.6354 28.1263 31.6354 27.3612C31.6354 27.022 31.425 26.8528 31.28 26.8069C30.3828 26.3763 28.7281 25.574 28.3516 25.4232C27.9751 25.2725 27.7785 25.4764 27.6563 25.5873C27.3148 25.9127 26.638 26.8716 26.4063 27.0873C26.1745 27.303 25.829 27.1938 25.6853 27.1123C25.1562 26.9 23.7217 26.2619 22.5782 25.1535C21.1641 23.7826 21.0811 23.311 20.8147 22.8911C20.6015 22.5553 20.7579 22.3492 20.836 22.2592C21.1406 21.9076 21.5614 21.3648 21.75 21.0951C21.9387 20.8254 21.7889 20.4159 21.699 20.1608C21.3125 19.0639 20.9851 18.1456 20.7188 17.6107Z" fill="white"/>
<defs>
<linearGradient id="paint0_linear_7500_168189" x1="23.9583" y1="0" x2="23.9583" y2="47.9167" gradientUnits="userSpaceOnUse">
<stop stop-color="#54CC61"/>
<stop offset="1" stop-color="#2CB742"/>
</linearGradient>
</defs>
</svg>
