<svg width="14" height="14" viewBox="0 0 14 14" fill="none" xmlns="http://www.w3.org/2000/svg">
<path d="M8.268 0.161633V1.43413C9.968 1.44363 11.828 1.41663 13.5285 1.44363C13.5885 1.4332 13.6501 1.43691 13.7084 1.45444C13.7667 1.47198 13.8201 1.50288 13.8643 1.54467C13.9086 1.58646 13.9425 1.638 13.9634 1.69519C13.9842 1.75238 13.9915 1.81365 13.9845 1.87413C14.0115 5.00713 13.978 8.31913 14.0005 11.4526C13.9905 11.6526 14.005 12.0116 13.974 12.2111C13.9345 12.4656 13.821 12.5146 13.5655 12.5491C13.4225 12.5686 13.1835 12.5661 13.043 12.5726C11.647 12.5656 10.252 12.5671 8.856 12.5676H8.2685V13.8411L0 12.5666V1.43663L8.268 0.161133" fill="#283C82"/>
<path d="M8.26758 1.91113H13.5176V12.0901H8.26758V10.8176H12.4026V10.1816H8.26758V9.38663H12.4026V8.75013H8.26758V7.95513H12.4026V7.31863H8.26758V6.52363H12.4026V5.88713H8.26758V5.09213H12.4026V4.45563H8.26758V3.66063H12.4026V3.02413H8.26758V1.91113Z" fill="white"/>
<path d="M3.2863 4.72169C3.5863 4.70419 3.8908 4.69169 4.1928 4.67569C4.4043 5.74919 4.6208 6.82119 4.8498 7.89019C5.0293 6.78619 5.2283 5.68569 5.4208 4.58369C5.73856 4.5723 6.0561 4.55563 6.3733 4.53369C6.0138 6.07469 5.6988 7.62869 5.3063 9.16069C5.0408 9.29919 4.6433 9.15419 4.3283 9.17669C4.1168 8.12369 3.8703 7.07669 3.6808 6.01969C3.4948 7.05019 3.2528 8.06669 3.0398 9.08769C2.73447 9.07169 2.42797 9.05319 2.1203 9.03219C1.8563 7.63219 1.5463 6.24269 1.2998 4.83969C1.5718 4.82719 1.8453 4.81569 2.1173 4.80619C2.2813 5.81919 2.4673 6.82769 2.6103 7.84219C2.8343 6.80219 3.0638 5.76169 3.2863 4.72169Z" fill="white"/>
</svg>
