<svg width="40" height="40" viewBox="0 0 40 40" fill="none" xmlns="http://www.w3.org/2000/svg">
<rect x="0.5" y="0.5" width="39" height="39" rx="10" fill="url(#paint0_linear_9509_79420)"/>
<path fill-rule="evenodd" clip-rule="evenodd" d="M21.1678 7.93836C21.1678 7.70302 21.3701 7.51799 21.6036 7.54764C23.8867 7.83767 25.9645 8.74119 27.6949 10.0845C27.8808 10.2288 27.8929 10.5026 27.7265 10.669L26.6721 11.7234C26.528 11.8676 26.299 11.8796 26.1356 11.7577C24.8029 10.7638 23.2322 10.0846 21.5234 9.83503C21.3215 9.80555 21.1678 9.63509 21.1678 9.43108V7.93836ZM18.4555 7.54573C18.6884 7.51698 18.8896 7.70181 18.8896 7.93646V9.43173C18.8896 9.63547 18.7363 9.80579 18.5348 9.8355C16.8615 10.0822 15.276 10.7424 13.9221 11.7562C13.7586 11.8787 13.5289 11.8671 13.3844 11.7226L12.3309 10.669C12.1645 10.5026 12.1766 10.2288 12.3625 10.0844C14.0933 8.73967 16.1718 7.8276 18.4555 7.54573ZM10.1403 12.3068C10.2845 12.1209 10.5584 12.1087 10.7248 12.2751L11.7792 13.3295C11.9233 13.4737 11.9353 13.7026 11.8135 13.866C10.8196 15.1988 10.1403 16.7694 9.89078 18.4783C9.8613 18.6802 9.69085 18.8339 9.48683 18.8339H7.99411C7.75878 18.8339 7.57374 18.6315 7.6034 18.398C7.89343 16.115 8.79694 14.0372 10.1403 12.3068ZM32.454 18.398C32.4837 18.6315 32.2986 18.8339 32.0633 18.8339H30.5699C30.3662 18.8339 30.1959 18.6806 30.1661 18.479C29.9195 16.8057 29.2593 15.2202 28.2454 13.8664C28.1229 13.7028 28.1346 13.4732 28.2791 13.3287L29.3326 12.2751C29.499 12.1087 29.7729 12.1209 29.9172 12.3068C31.2605 14.0372 32.164 16.115 32.454 18.398ZM18.3138 21.8869C18.2738 21.7986 18.2031 21.7278 18.1148 21.6878L15.1366 20.3372C14.8235 20.1953 14.8235 19.7506 15.1366 19.6087L18.1148 18.2581C18.2031 18.2181 18.2738 18.1473 18.3138 18.059L19.6644 15.0808C19.8064 14.7678 20.251 14.7678 20.393 15.0808L21.7436 18.059C21.7836 18.1473 21.8543 18.2181 21.9426 18.2581L24.9208 19.6087C25.2339 19.7506 25.2339 20.1953 24.9208 20.3372L21.9426 21.6878C21.8543 21.7278 21.7836 21.7986 21.7436 21.8869L20.393 24.865C20.251 25.1781 19.8064 25.1781 19.6644 24.865L18.3138 21.8869ZM15.2082 29.0104C16.6907 29.8053 18.3467 30.2215 20.0289 30.2218C24.3678 30.2218 28.0721 27.5115 29.5637 23.7107C29.638 23.5213 29.8381 23.4103 30.0364 23.4559L31.4938 23.7905C31.7231 23.8431 31.8582 24.0818 31.777 24.3026C30.0183 29.0872 25.4219 32.5 20.0289 32.5C16.2355 32.5 12.8507 30.8111 10.5554 28.1467C10.3002 27.8505 9.77719 28.0232 9.77719 28.4142V29.8218C9.77719 30.0427 9.5981 30.2218 9.37719 30.2218H7.89902C7.67811 30.2218 7.49902 30.0427 7.49902 29.8218V23.7873C7.49902 23.5664 7.67811 23.3873 7.89902 23.3873H13.9335C14.1544 23.3873 14.3335 23.5664 14.3335 23.7873V25.2655C14.3335 25.4864 14.1544 25.6655 13.9335 25.6655H12.2776C11.9583 25.6655 11.7711 26.0191 11.9668 26.2713C12.8417 27.3992 13.9453 28.3333 15.2082 29.0104Z" fill="white"/>
<defs>
<linearGradient id="paint0_linear_9509_79420" x1="20" y1="0.5" x2="20" y2="39.5" gradientUnits="userSpaceOnUse">
<stop stop-color="#35CE77"/>
<stop offset="1" stop-color="#219653"/>
</linearGradient>
</defs>
</svg>
