<svg width="42" height="50" viewBox="0 0 42 50" fill="none" xmlns="http://www.w3.org/2000/svg">
<path d="M8.3125 0.5C6.62812 0.5 5.25 1.87812 5.25 3.5625V46.4375C5.25 48.1219 6.62812 49.5 8.3125 49.5H38.9375C40.6219 49.5 42 48.1219 42 46.4375V12.75L29.75 0.5H8.3125Z" fill="#E2E5E7"/>
<path d="M32.8125 12.75H42L29.75 0.5V9.6875C29.75 11.3719 31.1281 12.75 32.8125 12.75Z" fill="#B0B7BD"/>
<path d="M42 21.5L33.25 12.75H42V21.5Z" fill="#CAD1D8"/>
<path d="M36.75 40.8958C36.75 41.7781 36.0609 42.5 35.2188 42.5H1.53125C0.689063 42.5 0 41.7781 0 40.8958V24.8542C0 23.9719 0.689063 23.25 1.53125 23.25H35.2188C36.0609 23.25 36.75 23.9719 36.75 24.8542V40.8958Z" fill="#9CD175"/>
<path d="M35.2625 42.5H7V44.25H35.2625C36.0806 44.25 36.75 43.4625 36.75 42.5V40.75C36.75 41.7125 36.0806 42.5 35.2625 42.5Z" fill="#CAD1D8"/>
<path d="M10.2559 35.291H10.1562L8.84375 37.5H7.2793L9.35352 34.3184L7.26172 31.0898H8.94336L10.2207 33.293H10.3203L11.5859 31.0898H13.1855L11.1172 34.2598L13.209 37.5H11.5684L10.2559 35.291ZM14.5566 37.5V28.6113H16.0098V37.5H14.5566ZM17.7031 32.9238C17.7031 32.3457 17.9414 31.875 18.418 31.5117C18.8945 31.1445 19.5117 30.9609 20.2695 30.9609C21.0312 30.9609 21.6387 31.123 22.0918 31.4473C22.5488 31.7676 22.8027 32.2188 22.8535 32.8008H21.4883C21.4336 32.5703 21.3008 32.3906 21.0898 32.2617C20.8828 32.1289 20.6113 32.0625 20.2754 32.0625C19.9395 32.0625 19.6621 32.1348 19.4434 32.2793C19.2246 32.4238 19.1152 32.6113 19.1152 32.8418C19.1152 33.0215 19.1914 33.1699 19.3438 33.2871C19.5 33.4043 19.7402 33.5 20.0645 33.5742L21.1953 33.832C21.8125 33.9727 22.2656 34.1816 22.5547 34.459C22.8438 34.7363 22.9883 35.1094 22.9883 35.5781C22.9883 36.1914 22.7344 36.6875 22.2266 37.0664C21.7188 37.4414 21.0625 37.6289 20.2578 37.6289C19.457 37.6289 18.8164 37.4648 18.3359 37.1367C17.8594 36.8086 17.5938 36.3535 17.5391 35.7715H18.9746C19.0449 36.0137 19.1914 36.2012 19.4141 36.334C19.6406 36.4629 19.9336 36.5273 20.293 36.5273C20.6602 36.5273 20.959 36.4551 21.1895 36.3105C21.4199 36.1621 21.5352 35.9688 21.5352 35.7305C21.5352 35.375 21.2402 35.1328 20.6504 35.0039L19.5137 34.7402C18.8965 34.5996 18.4395 34.3828 18.1426 34.0898C17.8496 33.793 17.7031 33.4043 17.7031 32.9238ZM26.7793 35.291H26.6797L25.3672 37.5H23.8027L25.877 34.3184L23.7852 31.0898H25.4668L26.7441 33.293H26.8438L28.1094 31.0898H29.709L27.6406 34.2598L29.7324 37.5H28.0918L26.7793 35.291Z" fill="white"/>
</svg>
