<svg width="24" height="24" viewBox="0 0 24 24" fill="none" xmlns="http://www.w3.org/2000/svg">
<rect x="1" y="1" width="22" height="22" rx="6" fill="white"/>
<path d="M4.93854 20.1943C4.85209 20.154 4.78965 20.1086 4.89051 20.0179C4.95295 19.9674 5.0202 19.9221 5.08744 19.8767C5.71664 19.4481 6.30742 18.9791 6.69647 18.2883C7.02308 17.7135 6.97025 17.3756 6.56199 16.9521C4.28532 14.562 3.28628 11.7029 3.7858 8.32455C4.06919 6.41852 4.90012 4.76966 6.1105 3.33762C6.84057 2.47033 7.70993 1.76944 8.66094 1.18452C8.71857 1.14922 8.80023 1.13914 8.80983 1.04837C8.79062 0.997951 8.757 1.01308 8.72818 1.01308C7.10954 1.01308 5.4909 0.977781 3.87706 1.02316C2.33047 1.07359 0.99521 2.32914 1.00001 4.12928C1.00962 9.38849 1.00001 14.6477 1.00001 19.912C1.00001 21.5457 2.18638 22.9122 3.73777 22.9727C5.04902 23.0282 6.36026 22.9828 7.6763 22.9777C7.77237 22.9828 7.86843 22.9878 7.96449 22.9878H14.9001C16.6293 22.9878 18.3584 22.9979 20.0875 22.9878C21.6917 22.9878 22.9933 21.6264 22.9933 19.9473V19.917V16.9672C22.9933 16.8966 23.0174 16.821 22.9741 16.7453C22.8877 16.7504 22.8541 16.826 22.806 16.8764C21.8742 17.8597 20.7743 18.6514 19.5687 19.2111C16.6148 20.5776 13.6081 20.6734 10.5582 19.5741C10.294 19.4733 10.0058 19.4632 9.73203 19.5338C9.32857 19.6397 8.92991 19.7657 8.53125 19.8918C7.3593 20.275 6.16333 20.4465 4.93854 20.1943ZM8.42078 11.6979C8.50243 11.587 8.54566 11.5214 8.59369 11.4559C9.2229 10.6188 9.8521 9.7818 10.4813 8.93972C10.6638 8.69768 10.8463 8.45061 10.9616 8.15815C11.0961 7.82535 10.952 7.51272 10.6254 7.3917C10.4813 7.34632 10.3276 7.32615 10.1739 7.33624C9.31896 7.3312 8.45921 7.3312 7.60426 7.33624C7.48418 7.33624 7.3641 7.35137 7.24883 7.38162C6.97986 7.45221 6.81655 7.73963 6.88379 8.02705C6.93182 8.21866 7.07592 8.36993 7.25843 8.41531C7.37371 8.44556 7.49379 8.46069 7.61386 8.45565C8.1326 8.46069 8.65613 8.45565 9.17487 8.46069C9.2325 8.46069 9.30455 8.42035 9.34778 8.51112C9.30455 8.57162 9.26132 8.63213 9.21809 8.6876C8.47362 9.67591 7.73394 10.6693 6.98946 11.6576C6.80695 11.9046 6.71088 12.1769 6.84537 12.4795C6.97986 12.782 7.25363 12.8375 7.53221 12.8577C7.75315 12.8728 7.9789 12.8627 8.20464 12.8627C8.98274 12.8627 9.75604 12.8677 10.5341 12.8577C10.9472 12.8526 11.1681 12.5904 11.1249 12.187C11.0913 11.8693 10.8848 11.7029 10.5005 11.6979C9.82328 11.6929 9.14605 11.6979 8.42078 11.6979ZM13.9924 9.04561C13.392 8.49599 12.7292 8.46069 12.0807 8.86408C11.293 9.34815 11.0048 10.1398 11.1009 11.0575C11.1922 11.9147 11.5476 12.6156 12.4025 12.903C12.9357 13.0846 13.4304 13.019 13.8675 12.6459C13.9828 12.5501 14.0164 12.5702 14.098 12.6761C14.2565 12.8879 14.5303 12.9686 14.7705 12.8728C15.0106 12.7971 15.1691 12.5652 15.1691 12.303C15.1739 11.2945 15.1787 10.286 15.1691 9.27756C15.1643 8.87417 14.8041 8.61701 14.4294 8.69768C14.2229 8.74307 14.1076 8.8893 13.9924 9.04561ZM17.3209 10.9163C17.3017 12.1769 18.2959 13.1299 19.5447 12.9988C20.6927 12.8778 21.4371 11.9752 21.3987 10.6995C21.3603 9.43892 20.4669 8.57667 19.2421 8.61701C18.0942 8.6523 17.2825 9.62044 17.3209 10.9163ZM16.8982 9.9129C16.8982 9.12125 16.903 8.33463 16.8982 7.54298C16.8982 7.13958 16.6533 6.88746 16.2882 6.89251C15.9328 6.89755 15.6975 7.14967 15.6927 7.53793C15.6879 7.77493 15.6927 8.00688 15.6927 8.24387V12.2526C15.6927 12.5652 15.8752 12.8375 16.1153 12.903C16.4467 12.9988 16.7878 12.7921 16.8742 12.4442C16.8886 12.3837 16.8982 12.3232 16.8934 12.2576C16.903 11.476 16.8982 10.6945 16.8982 9.9129Z" fill="#1877F2"/>
<path d="M8.41979 11.6983C9.14505 11.6983 9.82709 11.6933 10.5043 11.6983C10.8838 11.7033 11.0903 11.8697 11.1287 12.1874C11.172 12.5858 10.951 12.853 10.5379 12.858C9.75985 12.8681 8.98655 12.8631 8.20845 12.8631C7.98271 12.8631 7.76177 12.8732 7.53602 12.858C7.25744 12.8429 6.98367 12.7824 6.84918 12.4799C6.71469 12.1773 6.81075 11.905 6.99327 11.658C7.73295 10.6696 8.47743 9.6763 9.2219 8.68799C9.26513 8.62748 9.30836 8.56697 9.35159 8.51151C9.30356 8.42579 9.23631 8.46613 9.17868 8.46108C8.65994 8.45604 8.13641 8.46108 7.61767 8.45604C7.4976 8.45604 7.37752 8.44091 7.26224 8.4157C6.98847 8.35015 6.82036 8.06273 6.8828 7.78036C6.92603 7.58875 7.07012 7.43244 7.25264 7.38705C7.36791 7.3568 7.48799 7.34167 7.60807 7.34167C8.46302 7.33663 9.32277 7.33663 10.1777 7.34167C10.3314 7.33663 10.4803 7.3568 10.6292 7.39714C10.9558 7.51311 11.0951 7.83078 10.9654 8.16358C10.8502 8.451 10.6676 8.69808 10.4851 8.94515C9.85591 9.78723 9.22671 10.6243 8.5975 11.4563C8.54467 11.5218 8.49664 11.5874 8.41979 11.6983Z" fill="#41A0D7"/>
<path d="M13.9919 9.0456C14.1072 8.88928 14.2273 8.74305 14.4242 8.70271C14.8037 8.62203 15.1591 8.8792 15.1639 9.28259C15.1783 10.2911 15.1735 11.2995 15.1639 12.308C15.1639 12.5702 15.0006 12.8022 14.7652 12.8778C14.5251 12.9736 14.2513 12.898 14.0928 12.6812C14.0111 12.5753 13.9775 12.5551 13.8623 12.6509C13.4252 13.024 12.9305 13.0896 12.3973 12.9081C11.5424 12.6156 11.1917 11.9147 11.0957 11.0626C10.9948 10.1398 11.2878 9.35318 12.0755 8.86911C12.7287 8.46068 13.3916 8.49597 13.9919 9.0456ZM12.2916 10.8861C12.3012 11.1079 12.3685 11.3197 12.4934 11.4962C12.7527 11.8593 13.2475 11.9349 13.5981 11.6626C13.6557 11.6172 13.7086 11.5617 13.7566 11.4962C14.0256 11.113 14.0256 10.4827 13.7566 10.0995C13.6221 9.9028 13.4108 9.78683 13.185 9.78178C12.6567 9.74649 12.2868 10.1751 12.2916 10.8861ZM17.3205 10.9163C17.2821 9.62043 18.0938 8.65229 19.2465 8.61699C20.4713 8.57665 21.3647 9.4389 21.4031 10.6995C21.4415 11.9752 20.697 12.8778 19.5491 12.9988C18.2955 13.1299 17.3013 12.1769 17.3205 10.9163ZM18.5261 10.7953C18.5164 11.0474 18.5885 11.2945 18.7326 11.5012C18.9968 11.8643 19.4915 11.9349 19.8373 11.6525C19.8901 11.6122 19.9334 11.5617 19.9766 11.5113C20.2552 11.1281 20.2552 10.4827 19.9814 10.0995C19.8469 9.90784 19.6356 9.78683 19.4098 9.78178C18.8911 9.75153 18.5261 10.165 18.5261 10.7953ZM16.8978 9.91289C16.8978 10.6945 16.9026 11.476 16.8978 12.2576C16.9026 12.6156 16.6336 12.9131 16.2926 12.9232C16.235 12.9232 16.1725 12.9182 16.1149 12.903C15.8747 12.8375 15.6922 12.5702 15.6922 12.2526V8.24385C15.6922 8.00686 15.6874 7.77491 15.6922 7.53792C15.697 7.14965 15.9324 6.89754 16.2878 6.89754C16.6528 6.89249 16.8978 7.14461 16.8978 7.548C16.9026 8.33462 16.8978 9.12627 16.8978 9.91289Z" fill="#41A0D7"/>
<path d="M12.2916 10.8857C12.2868 10.1748 12.6566 9.74615 13.1802 9.7764C13.4059 9.78649 13.6172 9.90246 13.7517 10.0991C14.0207 10.4773 14.0207 11.1126 13.7517 11.4959C13.4924 11.8589 12.9976 11.9345 12.647 11.6623C12.5894 11.6169 12.5365 11.5614 12.4885 11.4959C12.3684 11.3194 12.3012 11.1076 12.2916 10.8857ZM18.526 10.795C18.526 10.1697 18.891 9.75119 19.4098 9.78145C19.6355 9.78649 19.8468 9.90751 19.9813 10.0991C20.2551 10.4823 20.2551 11.1328 19.9765 11.511C19.7076 11.869 19.208 11.9295 18.867 11.6471C18.8142 11.6068 18.7709 11.5564 18.7325 11.5009C18.5884 11.2942 18.5212 11.0471 18.526 10.795Z" fill="white"/>
</svg>
